<svg xmlns="http://www.w3.org/2000/svg" xmlns:xlink="http://www.w3.org/1999/xlink" fill="none" viewBox="0 0 863 240">
  <defs>
    <path id="reuse-0" d="m462.109 167.093-.576-27.534-11.278.236-.102-4.859 27.894-.584.102 4.859-11.278.236.577 27.534-5.339.112Zm34.551.177c-3.18.066-5.974-.576-8.383-1.925-2.389-1.371-4.27-3.302-5.642-5.793-1.373-2.512-2.095-5.458-2.166-8.837-.074-3.539.512-6.612 1.758-9.219 1.245-2.627 3.013-4.664 5.303-6.112 2.31-1.469 5.034-2.236 8.173-2.302 3.26-.068 6.045.624 8.356 2.076 2.331 1.451 4.095 3.555 5.293 6.31 1.218 2.755 1.787 6.054 1.708 9.896l-5.399.114-.04-1.92c-.144-3.978-1.016-6.93-2.616-8.857-1.602-1.947-3.942-2.888-7.021-2.824-3.299.069-5.787 1.182-7.462 3.337-1.675 2.156-2.471 5.213-2.388 9.172.08 3.819 1.001 6.761 2.765 8.824 1.764 2.064 4.235 3.062 7.414 2.996 2.14-.045 3.989-.574 5.548-1.587 1.56-1.013 2.77-2.448 3.631-4.307l5.166 1.662c-1.2 2.886-3.053 5.145-5.559 6.778-2.487 1.613-5.3 2.452-8.439 2.518Zm-12.295-15.346-.089-4.289 23.934-.502.09 4.289-23.935.502Zm27.11 14.135 12.044-16.636-12.453-15.763 6.359-.133 9.127 11.692 8.539-12.062 6.359-.133-11.782 16.27 12.76 16.117-6.389.133-9.314-12.047-8.862 12.428-6.388.134Zm33.93-.711-.678-32.393 26.544-.556.678 32.393-5.338.112-.573-27.324-15.866.332.572 27.324-5.339.112Zm46.961-.083c-3.22.067-6.014-.604-8.384-2.015-2.35-1.411-4.182-3.393-5.496-5.946s-2.006-5.5-2.076-8.839c-.071-3.399.507-6.392 1.733-8.978 1.226-2.586 2.994-4.614 5.304-6.082 2.309-1.489 5.043-2.267 8.202-2.333 3.24-.068 6.044.604 8.415 2.014 2.369 1.391 4.201 3.363 5.495 5.917 1.313 2.533 2.005 5.469 2.075 8.808.07 3.379-.497 6.372-1.703 8.978-1.206 2.586-2.963 4.633-5.272 6.142-2.31 1.488-5.074 2.266-8.293 2.334Zm-.106-5.069c3.359-.071 5.835-1.243 7.428-3.516 1.592-2.274 2.351-5.191 2.277-8.75-.077-3.659-.968-6.551-2.672-8.676-1.706-2.145-4.218-3.182-7.537-3.113-2.26.047-4.109.596-5.547 1.647-1.438 1.05-2.499 2.483-3.181 4.297-.682 1.815-.998 3.902-.949 6.261.076 3.64.977 6.541 2.703 8.706 1.726 2.164 4.218 3.212 7.478 3.144Zm18.269 10.99-.243-11.608c1.819-.038 3.107-.655 3.862-1.851.754-1.216 1.343-3.199 1.766-5.948.284-1.727.505-3.572.664-5.535.159-1.964.283-4.147.373-6.55.109-2.423.201-5.175.277-8.257l22.315-.468.586 27.984 3.149-.066.244 11.608-5.099.106-.151-7.198-22.795.477.151 7.199-5.099.107Zm7.975-11.78 16.286-.341-.493-23.575-12.148.255c-.03 1.42-.079 2.912-.146 4.474a184.068 184.068 0 0 1-.263 4.626 85.416 85.416 0 0 1-.358 4.389 44.514 44.514 0 0 1-.494 3.671c-.228 1.505-.502 2.781-.82 3.828-.318 1.047-.839 1.938-1.564 2.673Zm26.838 11.05-.243-11.607c1.82-.038 3.107-.655 3.862-1.851.755-1.216 1.344-3.199 1.766-5.949.284-1.726.505-3.571.664-5.535.159-1.963.284-4.147.373-6.549.11-2.423.202-5.175.277-8.258l22.315-.467.587 27.984 3.149-.066.243 11.607-5.099.107-.151-7.198-22.795.477.151 7.199-5.099.106Zm7.975-11.779 16.287-.341-.494-23.575-12.147.254a206.157 206.157 0 0 1-.147 4.474 175.153 175.153 0 0 1-.263 4.627 85.282 85.282 0 0 1-.358 4.388 44.917 44.917 0 0 1-.493 3.671c-.229 1.506-.502 2.782-.82 3.828-.318 1.047-.84 1.938-1.565 2.674Zm43.143 4.407c-3.179.067-5.973-.575-8.382-1.925-2.389-1.37-4.27-3.301-5.642-5.793-1.373-2.512-2.095-5.457-2.166-8.836-.074-3.54.512-6.612 1.757-9.219 1.246-2.627 3.013-4.664 5.303-6.113 2.31-1.468 5.035-2.235 8.174-2.301 3.259-.068 6.044.623 8.355 2.075 2.331 1.452 4.096 3.555 5.294 6.311 1.218 2.755 1.787 6.054 1.707 9.896l-5.399.113-.04-1.919c-.143-3.978-1.015-6.931-2.616-8.857-1.601-1.947-3.941-2.889-7.02-2.824-3.3.069-5.787 1.181-7.462 3.337-1.675 2.156-2.472 5.213-2.389 9.172.08 3.819 1.002 6.761 2.766 8.824 1.763 2.064 4.235 3.062 7.414 2.995 2.14-.044 3.989-.573 5.548-1.586 1.559-1.013 2.769-2.449 3.631-4.307l5.166 1.662c-1.2 2.886-3.053 5.145-5.56 6.778-2.486 1.612-5.299 2.452-8.439 2.517Zm-12.294-15.346-.09-4.289 23.935-.501.09 4.289-23.935.501Zm46.776 14.624c-3.039.064-5.615-.633-7.726-2.089-2.111-1.476-3.734-3.492-4.867-6.049-1.115-2.577-1.705-5.476-1.773-8.695-.068-3.259.401-6.19 1.406-8.791 1.026-2.602 2.563-4.665 4.612-6.188 2.068-1.524 4.622-2.317 7.662-2.381 2.999-.063 5.594.633 7.785 2.087 2.211 1.434 3.923 3.429 5.137 5.984 1.213 2.555 1.854 5.452 1.922 8.692.068 3.239-.451 6.16-1.557 8.764-1.106 2.604-2.732 4.688-4.88 6.254-2.128 1.545-4.702 2.349-7.721 2.412Zm-14.624 13.809-.98-46.789 4.769-.1.499 23.844.6-.012.481 22.945-5.369.112Zm13.862-18.684c2.139-.045 3.897-.622 5.275-1.731 1.377-1.109 2.396-2.591 3.057-4.445.661-1.874.967-3.961.919-6.261-.048-2.279-.441-4.331-1.179-6.156-.718-1.826-1.809-3.263-3.271-4.313-1.442-1.05-3.263-1.552-5.463-1.506-2.099.044-3.828.601-5.186 1.669-1.358 1.049-2.358 2.5-2.999 4.354-.642 1.834-.938 3.951-.888 6.35.05 2.36.424 4.462 1.123 6.308.718 1.825 1.788 3.253 3.21 4.284 1.422 1.01 3.222 1.493 5.402 1.447Zm15.265 3.671 12.737-16.47-12.786-15.936 5.939-.124 12.36 15.644-.333-15.896 4.859-.102.333 15.896 11.694-16.148 5.939-.125-12.108 16.458 13.416 15.922-6.208.13-12.721-15.637.333 15.897-4.859.101-.333-15.896-12.054 16.156-6.208.13Zm45.002-.943-.649-32.393 5.399-.113.327 15.596 13.26-15.881 6.929-.145-13.968 16.496 16.326 15.862-7.469.156-15.053-15.288.327 15.597-5.429.113Zm38.036.104c-2.419.05-4.458-.347-6.116-1.192-1.638-.866-2.893-2.02-3.763-3.462-.851-1.443-1.294-3.034-1.331-4.774-.035-1.699.254-3.176.868-4.429a8.62 8.62 0 0 1 2.694-3.177c1.162-.864 2.558-1.554 4.188-2.068 1.53-.452 3.242-.848 5.136-1.188 1.913-.36 3.846-.69 5.8-.991 1.954-.301 3.779-.59 5.473-.865l-1.896 1.15c0-2.881-.625-4.998-1.873-6.352-1.229-1.355-3.323-2.001-6.282-1.939-1.96.041-3.67.527-5.131 1.457-1.441.911-2.441 2.372-2.999 4.384l-5.101-1.423c.721-2.856 2.184-5.117 4.389-6.784 2.206-1.666 5.138-2.538 8.797-2.614 2.94-.062 5.47.415 7.592 1.431 2.141.995 3.694 2.543 4.658 4.643.481.99.794 2.074.938 3.251.145 1.158.23 2.376.257 3.656l.42 20.035-4.739.1-.163-7.769 1.125.697c-1.165 2.645-2.833 4.66-5.005 6.046-2.151 1.385-4.796 2.111-7.936 2.177Zm.717-4.486c1.919-.04 3.572-.415 4.957-1.124 1.405-.73 2.526-1.664 3.362-2.801.836-1.158 1.37-2.41 1.602-3.755.279-1.006.416-2.119.41-3.339a94.51 94.51 0 0 0 0-2.851l1.877.771c-1.735.277-3.44.542-5.115.798-1.675.255-3.259.528-4.753.819-1.495.272-2.839.59-4.031.955-.874.298-1.697.676-2.467 1.132a5.651 5.651 0 0 0-1.824 1.748c-.446.69-.658 1.545-.636 2.564a5.16 5.16 0 0 0 .712 2.506c.477.79 1.19 1.425 2.141 1.906.97.479 2.225.703 3.765.671Z" data-figma-gradient-fill="{&quot;type&quot;:&quot;GRADIENT_DIAMOND&quot;,&quot;stops&quot;:[{&quot;color&quot;:{&quot;r&quot;:0.99215686321258545,&quot;g&quot;:0.99215686321258545,&quot;b&quot;:0.99215686321258545,&quot;a&quot;:1.0},&quot;position&quot;:0.0},{&quot;color&quot;:{&quot;r&quot;:0.95294117927551270,&quot;g&quot;:0.90588235855102539,&quot;b&quot;:0.91372549533843994,&quot;a&quot;:1.0},&quot;position&quot;:9.9999997473787516e-05},{&quot;color&quot;:{&quot;r&quot;:0.89019608497619629,&quot;g&quot;:0.93333333730697632,&quot;b&quot;:1.0,&quot;a&quot;:1.0},&quot;position&quot;:0.9218750}],&quot;stopsVar&quot;:[],&quot;transform&quot;:{&quot;m00&quot;:-984.511718750,&quot;m01&quot;:2267.875488281250,&quot;m02&quot;:134.54641723632812,&quot;m10&quot;:113.20935058593750,&quot;m11&quot;:-807.69586181640625,&quot;m12&quot;:453.16397094726562},&quot;opacity&quot;:1.0,&quot;blendMode&quot;:&quot;NORMAL&quot;,&quot;visible&quot;:true}"/>
  </defs>
  <path fill="url(#a)" d="M18.04 45V12.6h13.8c.82 0 1.7.05 2.64.15.96.08 1.83.23 2.61.45 1.74.46 3.17 1.41 4.29 2.85 1.14 1.42 1.71 3.22 1.71 5.4 0 1.22-.19 2.28-.57 3.18-.36.9-.88 1.68-1.56 2.34-.3.3-.63.57-.99.81-.36.24-.72.43-1.08.57.7.12 1.41.39 2.13.81 1.14.62 2.03 1.49 2.67 2.61.66 1.12.99 2.55.99 4.29 0 2.2-.53 4.02-1.59 5.46-1.06 1.42-2.52 2.4-4.38 2.94-.78.22-1.64.37-2.58.45-.94.06-1.85.09-2.73.09H18.04Zm5.4-4.35h9.66c.42 0 .92-.04 1.5-.12.6-.08 1.13-.18 1.59-.3 1.04-.3 1.79-.86 2.25-1.68.48-.82.72-1.71.72-2.67 0-1.28-.36-2.32-1.08-3.12-.7-.8-1.63-1.3-2.79-1.5a5.87 5.87 0 0 0-1.38-.21c-.48-.02-.91-.03-1.29-.03h-9.18v9.63Zm0-14.04h8.04c.56 0 1.15-.03 1.77-.09.62-.08 1.16-.21 1.62-.39.92-.34 1.59-.9 2.01-1.68.44-.8.66-1.67.66-2.61 0-1.04-.24-1.95-.72-2.73-.46-.8-1.17-1.35-2.13-1.65-.64-.24-1.36-.37-2.16-.39-.78-.04-1.28-.06-1.5-.06h-7.59v9.6ZM48.907 45l-.03-32.4h5.37v11.73h4.95c.94 0 1.9.02 2.88.06.98.04 1.83.13 2.55.27 1.68.34 3.15.91 4.41 1.71 1.26.8 2.24 1.88 2.94 3.24.7 1.36 1.05 3.05 1.05 5.07 0 2.8-.73 5.02-2.19 6.66-1.44 1.62-3.33 2.7-5.67 3.24-.8.18-1.72.3-2.76.36-1.02.04-1.99.06-2.91.06h-10.59Zm5.34-4.41h5.34c.6 0 1.27-.02 2.01-.06.74-.04 1.4-.14 1.98-.3 1.02-.3 1.93-.89 2.73-1.77.82-.88 1.23-2.14 1.23-3.78 0-1.66-.4-2.94-1.2-3.84-.78-.9-1.81-1.49-3.09-1.77-.58-.14-1.19-.23-1.83-.27-.64-.04-1.25-.06-1.83-.06h-5.34v11.85Zm22.5 4.41V12.6h5.34V45h-5.34Zm22.143 0V12.6h5.34v13.65h17.04V12.6h5.34V45h-5.34V31.32h-17.04V45h-5.34Zm48.364.9c-3.18 0-5.96-.7-8.34-2.1-2.36-1.42-4.2-3.39-5.52-5.91-1.32-2.54-1.98-5.5-1.98-8.88 0-3.54.65-6.6 1.95-9.18 1.3-2.6 3.11-4.6 5.43-6 2.34-1.42 5.08-2.13 8.22-2.13 3.26 0 6.03.75 8.31 2.25 2.3 1.5 4.02 3.64 5.16 6.42 1.16 2.78 1.66 6.09 1.5 9.93h-5.4v-1.92c-.06-3.98-.87-6.95-2.43-8.91-1.56-1.98-3.88-2.97-6.96-2.97-3.3 0-5.81 1.06-7.53 3.18-1.72 2.12-2.58 5.16-2.58 9.12 0 3.82.86 6.78 2.58 8.88 1.72 2.1 4.17 3.15 7.35 3.15 2.14 0 4-.49 5.58-1.47s2.82-2.39 3.72-4.23l5.13 1.77c-1.26 2.86-3.16 5.08-5.7 6.66-2.52 1.56-5.35 2.34-8.49 2.34Zm-11.97-15.6v-4.29h23.94v4.29h-23.94Zm55.591 15.6c-3.22 0-6-.73-8.34-2.19-2.32-1.46-4.11-3.48-5.37-6.06-1.26-2.58-1.89-5.54-1.89-8.88 0-3.4.64-6.38 1.92-8.94 1.28-2.56 3.09-4.55 5.43-5.97 2.34-1.44 5.09-2.16 8.25-2.16 3.24 0 6.03.73 8.37 2.19 2.34 1.44 4.13 3.45 5.37 6.03 1.26 2.56 1.89 5.51 1.89 8.85 0 3.38-.63 6.36-1.89 8.94-1.26 2.56-3.06 4.57-5.4 6.03-2.34 1.44-5.12 2.16-8.34 2.16Zm0-5.07c3.36 0 5.86-1.12 7.5-3.36 1.64-2.24 2.46-5.14 2.46-8.7 0-3.66-.83-6.57-2.49-8.73-1.66-2.18-4.15-3.27-7.47-3.27-2.26 0-4.12.51-5.58 1.53s-2.55 2.43-3.27 4.23c-.72 1.8-1.08 3.88-1.08 6.24 0 3.64.84 6.56 2.52 8.76 1.68 2.2 4.15 3.3 7.41 3.3Zm34.085 5.07c-3.28 0-6.07-.73-8.37-2.19-2.28-1.48-4.02-3.51-5.22-6.09-1.2-2.58-1.82-5.52-1.86-8.82.04-3.38.67-6.35 1.89-8.91 1.24-2.58 3.01-4.59 5.31-6.03 2.3-1.44 5.07-2.16 8.31-2.16 3.42 0 6.36.84 8.82 2.52 2.48 1.68 4.14 3.98 4.98 6.9l-5.28 1.59c-.68-1.88-1.79-3.34-3.33-4.38-1.52-1.04-3.27-1.56-5.25-1.56-2.22 0-4.05.52-5.49 1.56-1.44 1.02-2.51 2.44-3.21 4.26-.7 1.8-1.06 3.87-1.08 6.21.04 3.6.87 6.51 2.49 8.73 1.64 2.2 4.07 3.3 7.29 3.3 2.12 0 3.88-.48 5.28-1.44 1.4-.98 2.46-2.39 3.18-4.23l5.4 1.41c-1.12 3.02-2.87 5.33-5.25 6.93-2.38 1.6-5.25 2.4-8.61 2.4Zm26.177-.9V17.46h-11.28V12.6h27.9v4.86h-11.28V45h-5.34Zm28.654.9c-2.42 0-4.45-.44-6.09-1.32-1.62-.9-2.85-2.08-3.69-3.54-.82-1.46-1.23-3.06-1.23-4.8 0-1.7.32-3.17.96-4.41a8.62 8.62 0 0 1 2.76-3.12c1.18-.84 2.59-1.5 4.23-1.98 1.54-.42 3.26-.78 5.16-1.08 1.92-.32 3.86-.61 5.82-.87 1.96-.26 3.79-.51 5.49-.75l-1.92 1.11c.06-2.88-.52-5.01-1.74-6.39-1.2-1.38-3.28-2.07-6.24-2.07-1.96 0-3.68.45-5.16 1.35-1.46.88-2.49 2.32-3.09 4.32l-5.07-1.53c.78-2.84 2.29-5.07 4.53-6.69s5.19-2.43 8.85-2.43c2.94 0 5.46.53 7.56 1.59 2.12 1.04 3.64 2.62 4.56 4.74.46 1 .75 2.09.87 3.27.12 1.16.18 2.38.18 3.66V45h-4.74v-7.77l1.11.72c-1.22 2.62-2.93 4.6-5.13 5.94-2.18 1.34-4.84 2.01-7.98 2.01Zm.81-4.47c1.92 0 3.58-.34 4.98-1.02 1.42-.7 2.56-1.61 3.42-2.73.86-1.14 1.42-2.38 1.68-3.72.3-1 .46-2.11.48-3.33.04-1.24.06-2.19.06-2.85l1.86.81c-1.74.24-3.45.47-5.13.69-1.68.22-3.27.46-4.77.72-1.5.24-2.85.53-4.05.87-.88.28-1.71.64-2.49 1.08-.76.44-1.38 1.01-1.86 1.71-.46.68-.69 1.53-.69 2.55 0 .88.22 1.72.66 2.52.46.8 1.16 1.45 2.1 1.95.96.5 2.21.75 3.75.75Zm21.9 3.57V12.6h5.34v13.65h17.04V12.6h5.34V45h-5.34V31.32h-17.04V45h-5.34Zm48.364.9c-3.18 0-5.96-.7-8.34-2.1-2.36-1.42-4.2-3.39-5.52-5.91-1.32-2.54-1.98-5.5-1.98-8.88 0-3.54.65-6.6 1.95-9.18 1.3-2.6 3.11-4.6 5.43-6 2.34-1.42 5.08-2.13 8.22-2.13 3.26 0 6.03.75 8.31 2.25 2.3 1.5 4.02 3.64 5.16 6.42 1.16 2.78 1.66 6.09 1.5 9.93h-5.4v-1.92c-.06-3.98-.87-6.95-2.43-8.91-1.56-1.98-3.88-2.97-6.96-2.97-3.3 0-5.81 1.06-7.53 3.18-1.72 2.12-2.58 5.16-2.58 9.12 0 3.82.86 6.78 2.58 8.88 1.72 2.1 4.17 3.15 7.35 3.15 2.14 0 4-.49 5.58-1.47s2.82-2.39 3.72-4.23l5.13 1.77c-1.26 2.86-3.16 5.08-5.7 6.66-2.52 1.56-5.35 2.34-8.49 2.34Zm-11.97-15.6v-4.29h23.94v4.29h-23.94ZM378.468 45V17.46h-11.28V12.6h27.9v4.86h-11.28V45h-5.34Zm34.539.9c-3.18 0-5.96-.7-8.34-2.1-2.36-1.42-4.2-3.39-5.52-5.91-1.32-2.54-1.98-5.5-1.98-8.88 0-3.54.65-6.6 1.95-9.18 1.3-2.6 3.11-4.6 5.43-6 2.34-1.42 5.08-2.13 8.22-2.13 3.26 0 6.03.75 8.31 2.25 2.3 1.5 4.02 3.64 5.16 6.42 1.16 2.78 1.66 6.09 1.5 9.93h-5.4v-1.92c-.06-3.98-.87-6.95-2.43-8.91-1.56-1.98-3.88-2.97-6.96-2.97-3.3 0-5.81 1.06-7.53 3.18-1.72 2.12-2.58 5.16-2.58 9.12 0 3.82.86 6.78 2.58 8.88 1.72 2.1 4.17 3.15 7.35 3.15 2.14 0 4-.49 5.58-1.47s2.82-2.39 3.72-4.23l5.13 1.77c-1.26 2.86-3.16 5.08-5.7 6.66-2.52 1.56-5.35 2.34-8.49 2.34Zm-11.97-15.6v-4.29h23.94v4.29h-23.94Zm45.229 15.6c-3.28 0-6.07-.73-8.37-2.19-2.28-1.48-4.02-3.51-5.22-6.09-1.2-2.58-1.82-5.52-1.86-8.82.04-3.38.67-6.35 1.89-8.91 1.24-2.58 3.01-4.59 5.31-6.03 2.3-1.44 5.07-2.16 8.31-2.16 3.42 0 6.36.84 8.82 2.52 2.48 1.68 4.14 3.98 4.98 6.9l-5.28 1.59c-.68-1.88-1.79-3.34-3.33-4.38-1.52-1.04-3.27-1.56-5.25-1.56-2.22 0-4.05.52-5.49 1.56-1.44 1.02-2.51 2.44-3.21 4.26-.7 1.8-1.06 3.87-1.08 6.21.04 3.6.87 6.51 2.49 8.73 1.64 2.2 4.07 3.3 7.29 3.3 2.12 0 3.88-.48 5.28-1.44 1.4-.98 2.46-2.39 3.18-4.23l5.4 1.41c-1.12 3.02-2.87 5.33-5.25 6.93-2.38 1.6-5.25 2.4-8.61 2.4Zm18.183-.9-.03-32.4h5.37v11.73h6.99c.94 0 1.9.02 2.88.06.98.04 1.83.13 2.55.27 1.68.32 3.15.88 4.41 1.68 1.26.8 2.24 1.89 2.94 3.27.7 1.36 1.05 3.05 1.05 5.07 0 2.8-.73 5.02-2.19 6.66-1.44 1.62-3.33 2.7-5.67 3.24-.8.18-1.72.3-2.76.36-1.02.04-1.99.06-2.91.06h-12.63Zm5.34-4.41h7.38c.6 0 1.27-.02 2.01-.06.74-.04 1.4-.14 1.98-.3 1.02-.3 1.93-.89 2.73-1.77.82-.88 1.23-2.14 1.23-3.78 0-1.66-.4-2.94-1.2-3.84-.78-.9-1.81-1.49-3.09-1.77-.58-.14-1.19-.23-1.83-.27-.64-.04-1.25-.06-1.83-.06h-7.38v11.85Zm48.996 5.34c-3.06-.02-5.67-.68-7.83-1.98-2.16-1.32-3.84-3.25-5.04-5.79-1.2-2.54-1.87-5.65-2.01-9.33-.08-1.7-.06-3.57.06-5.61a66 66 0 0 1 .66-5.88c.32-1.88.72-3.43 1.2-4.65.54-1.46 1.3-2.81 2.28-4.05 1-1.26 2.12-2.3 3.36-3.12 1.26-.86 2.67-1.53 4.23-2.01 1.56-.48 3.19-.85 4.89-1.11 1.72-.28 3.44-.52 5.16-.72 1.72-.22 3.36-.48 4.92-.78l.54 4.8c-1.1.24-2.4.45-3.9.63-1.5.16-3.06.35-4.68.57-1.6.22-3.14.53-4.62.93-1.46.38-2.72.91-3.78 1.59-1.56.94-2.76 2.35-3.6 4.23-.82 1.86-1.32 3.95-1.5 6.27 1.24-1.92 2.85-3.33 4.83-4.23 1.98-.9 4.09-1.35 6.33-1.35 2.9 0 5.4.68 7.5 2.04 2.1 1.34 3.71 3.19 4.83 5.55 1.14 2.36 1.71 5.05 1.71 8.07 0 3.2-.64 6-1.92 8.4-1.28 2.4-3.09 4.26-5.43 5.58-2.32 1.32-5.05 1.97-8.19 1.95Zm.33-5.07c3.14 0 5.52-.97 7.14-2.91 1.62-1.96 2.43-4.56 2.43-7.8 0-3.32-.84-5.93-2.52-7.83-1.68-1.92-4.04-2.88-7.08-2.88-3.08 0-5.44.96-7.08 2.88-1.62 1.9-2.43 4.51-2.43 7.83 0 3.34.82 5.96 2.46 7.86 1.64 1.9 4 2.85 7.08 2.85Zm34.072 5.04c-3.18 0-5.96-.7-8.34-2.1-2.36-1.42-4.2-3.39-5.52-5.91-1.32-2.54-1.98-5.5-1.98-8.88 0-3.54.65-6.6 1.95-9.18 1.3-2.6 3.11-4.6 5.43-6 2.34-1.42 5.08-2.13 8.22-2.13 3.26 0 6.03.75 8.31 2.25 2.3 1.5 4.02 3.64 5.16 6.42 1.16 2.78 1.66 6.09 1.5 9.93h-5.4v-1.92c-.06-3.98-.87-6.95-2.43-8.91-1.56-1.98-3.88-2.97-6.96-2.97-3.3 0-5.81 1.06-7.53 3.18-1.72 2.12-2.58 5.16-2.58 9.12 0 3.82.86 6.78 2.58 8.88 1.72 2.1 4.17 3.15 7.35 3.15 2.14 0 4-.49 5.58-1.47s2.82-2.39 3.72-4.23l5.13 1.77c-1.26 2.86-3.16 5.08-5.7 6.66-2.52 1.56-5.35 2.34-8.49 2.34Zm-11.97-15.6v-4.29h23.94v4.29h-23.94Zm42.017 15.6c-3.2 0-6.03-.69-8.49-2.07-2.46-1.4-4.4-3.32-5.82-5.76l4.26-2.76c1.18 1.78 2.59 3.15 4.23 4.11 1.64.94 3.51 1.41 5.61 1.41 2.2 0 3.95-.5 5.25-1.5 1.3-1.02 1.95-2.39 1.95-4.11 0-1.28-.32-2.26-.96-2.94-.64-.68-1.56-1.15-2.76-1.41-1.2-.26-2.63-.39-4.29-.39h-3.36v-4.41h3.33c2.1 0 3.81-.34 5.13-1.02 1.32-.68 1.98-1.84 1.98-3.48 0-1.68-.62-2.9-1.86-3.66-1.22-.78-2.68-1.17-4.38-1.17-1.8 0-3.52.38-5.16 1.14-1.64.74-3.05 1.68-4.23 2.82l-3.24-3.63c1.68-1.72 3.61-3.04 5.79-3.96 2.2-.94 4.59-1.41 7.17-1.41 2.08 0 3.98.37 5.7 1.11 1.74.72 3.12 1.79 4.14 3.21 1.04 1.4 1.56 3.11 1.56 5.13 0 1.72-.4 3.25-1.2 4.59-.8 1.34-1.98 2.51-3.54 3.51l-.21-1.89c1.32.32 2.41.91 3.27 1.77.88.84 1.53 1.84 1.95 3 .42 1.16.63 2.37.63 3.63 0 2.12-.56 3.94-1.68 5.46-1.1 1.5-2.59 2.66-4.47 3.48-1.88.8-3.98 1.2-6.3 1.2Zm27.416-.9V12.6h26.55V45h-5.34V17.67h-15.87V45h-5.34Zm46.952.9c-3.22 0-6-.73-8.34-2.19-2.32-1.46-4.11-3.48-5.37-6.06-1.26-2.58-1.89-5.54-1.89-8.88 0-3.4.64-6.38 1.92-8.94 1.28-2.56 3.09-4.55 5.43-5.97 2.34-1.44 5.09-2.16 8.25-2.16 3.24 0 6.03.73 8.37 2.19 2.34 1.44 4.13 3.45 5.37 6.03 1.26 2.56 1.89 5.51 1.89 8.85 0 3.38-.63 6.36-1.89 8.94-1.26 2.56-3.06 4.57-5.4 6.03-2.34 1.44-5.12 2.16-8.34 2.16Zm0-5.07c3.36 0 5.86-1.12 7.5-3.36 1.64-2.24 2.46-5.14 2.46-8.7 0-3.66-.83-6.57-2.49-8.73-1.66-2.18-4.15-3.27-7.47-3.27-2.26 0-4.12.51-5.58 1.53s-2.55 2.43-3.27 4.23c-.72 1.8-1.08 3.88-1.08 6.24 0 3.64.84 6.56 2.52 8.76 1.68 2.2 4.15 3.3 7.41 3.3ZM678.007 45V12.6h4.59l12.3 25.14 12.3-25.14h4.59V45h-5.16V23.73L696.307 45h-2.82l-10.32-21.27V45h-5.16Zm54.159.9c-3.22 0-6-.73-8.34-2.19-2.32-1.46-4.11-3.48-5.37-6.06-1.26-2.58-1.89-5.54-1.89-8.88 0-3.4.64-6.38 1.92-8.94 1.28-2.56 3.09-4.55 5.43-5.97 2.34-1.44 5.09-2.16 8.25-2.16 3.24 0 6.03.73 8.37 2.19 2.34 1.44 4.13 3.45 5.37 6.03 1.26 2.56 1.89 5.51 1.89 8.85 0 3.38-.63 6.36-1.89 8.94-1.26 2.56-3.06 4.57-5.4 6.03-2.34 1.44-5.12 2.16-8.34 2.16Zm0-5.07c3.36 0 5.86-1.12 7.5-3.36 1.64-2.24 2.46-5.14 2.46-8.7 0-3.66-.83-6.57-2.49-8.73-1.66-2.18-4.15-3.27-7.47-3.27-2.26 0-4.12.51-5.58 1.53s-2.55 2.43-3.27 4.23c-.72 1.8-1.08 3.88-1.08 6.24 0 3.64.84 6.56 2.52 8.76 1.68 2.2 4.15 3.3 7.41 3.3ZM788.842 51v-6h-36.27V12.6h5.16v27.54h11.16V12.6h5.16v27.54h11.13V12.6h5.16v27.54h3.84V51h-5.34Zm34.886-38.4V45h-5.16V21.12L801.588 45h-4.41V12.6h5.16v23.55l17.01-23.55h4.38ZM134.055 105V72.6h13.8c.82 0 1.7.05 2.64.15.96.08 1.83.23 2.61.45 1.74.46 3.17 1.41 4.29 2.85 1.14 1.42 1.71 3.22 1.71 5.4 0 1.22-.19 2.28-.57 3.18-.36.9-.88 1.68-1.56 2.34-.3.3-.63.57-.99.81-.36.24-.72.43-1.08.57.7.12 1.41.39 2.13.81 1.14.62 2.03 1.49 2.67 2.61.66 1.12.99 2.55.99 4.29 0 2.2-.53 4.02-1.59 5.46-1.06 1.42-2.52 2.4-4.38 2.94-.78.22-1.64.37-2.58.45-.94.06-1.85.09-2.73.09h-15.36Zm5.4-4.35h9.66c.42 0 .92-.04 1.5-.12.6-.08 1.13-.18 1.59-.3 1.04-.3 1.79-.86 2.25-1.68.48-.82.72-1.71.72-2.67 0-1.28-.36-2.32-1.08-3.12-.7-.8-1.63-1.3-2.79-1.5a5.87 5.87 0 0 0-1.38-.21c-.48-.02-.91-.03-1.29-.03h-9.18v9.63Zm0-14.04h8.04c.56 0 1.15-.03 1.77-.09.62-.08 1.16-.21 1.62-.39.92-.34 1.59-.9 2.01-1.68.44-.8.66-1.67.66-2.61 0-1.04-.24-1.95-.72-2.73-.46-.8-1.17-1.35-2.13-1.65-.64-.24-1.36-.37-2.16-.39-.78-.04-1.28-.06-1.5-.06h-7.59v9.6ZM172.133 105v-4.59c1.2.22 2.11.18 2.73-.12.64-.32 1.11-.87 1.41-1.65.32-.8.58-1.8.78-3 .34-1.9.63-4.02.87-6.36.26-2.34.49-4.9.69-7.68.22-2.8.42-5.8.6-9h22.65V105h-5.34V77.67h-12.45c-.12 1.84-.27 3.73-.45 5.67-.16 1.94-.33 3.83-.51 5.67-.18 1.82-.38 3.52-.6 5.1-.2 1.56-.42 2.91-.66 4.05-.38 1.96-.91 3.53-1.59 4.71-.68 1.16-1.66 1.91-2.94 2.25-1.28.36-3.01.32-5.19-.12Zm62.786.9c-2.76 0-5.2-.59-7.32-1.77-2.1-1.18-3.79-2.85-5.07-5.01-1.28-2.16-2.08-4.71-2.4-7.65h-6.33V105h-5.34V72.6h5.34v13.53h6.3c.32-3 1.13-5.58 2.43-7.74 1.3-2.16 3.01-3.81 5.13-4.95 2.12-1.16 4.56-1.74 7.32-1.74 3.22 0 5.99.73 8.31 2.19 2.34 1.46 4.13 3.47 5.37 6.03 1.26 2.56 1.89 5.5 1.89 8.82 0 3.38-.64 6.36-1.92 8.94-1.26 2.58-3.06 4.6-5.4 6.06-2.32 1.44-5.09 2.16-8.31 2.16Zm-.09-5.07c3.4 0 5.92-1.11 7.56-3.33 1.66-2.24 2.49-5.15 2.49-8.73 0-3.68-.84-6.6-2.52-8.76-1.66-2.16-4.16-3.24-7.5-3.24-3.22 0-5.67 1.07-7.35 3.21-1.68 2.14-2.52 5.06-2.52 8.76 0 3.66.83 6.59 2.49 8.79 1.68 2.2 4.13 3.3 7.35 3.3Zm33.663 5.1c-3.06-.02-5.67-.68-7.83-1.98-2.16-1.32-3.84-3.25-5.04-5.79-1.2-2.54-1.87-5.65-2.01-9.33-.08-1.7-.06-3.57.06-5.61a66 66 0 0 1 .66-5.88c.32-1.88.72-3.43 1.2-4.65.54-1.46 1.3-2.81 2.28-4.05 1-1.26 2.12-2.3 3.36-3.12 1.26-.86 2.67-1.53 4.23-2.01 1.56-.48 3.19-.85 4.89-1.11 1.72-.28 3.44-.52 5.16-.72 1.72-.22 3.36-.48 4.92-.78l.54 4.8c-1.1.24-2.4.45-3.9.63-1.5.16-3.06.35-4.68.57-1.6.22-3.14.53-4.62.93-1.46.38-2.72.91-3.78 1.59-1.56.94-2.76 2.35-3.6 4.23-.82 1.86-1.32 3.95-1.5 6.27 1.24-1.92 2.85-3.33 4.83-4.23 1.98-.9 4.09-1.35 6.33-1.35 2.9 0 5.4.68 7.5 2.04 2.1 1.34 3.71 3.19 4.83 5.55 1.14 2.36 1.71 5.05 1.71 8.07 0 3.2-.64 6-1.92 8.4-1.28 2.4-3.09 4.26-5.43 5.58-2.32 1.32-5.05 1.97-8.19 1.95Zm.33-5.07c3.14 0 5.52-.97 7.14-2.91 1.62-1.96 2.43-4.56 2.43-7.8 0-3.32-.84-5.93-2.52-7.83-1.68-1.92-4.04-2.88-7.08-2.88-3.08 0-5.44.96-7.08 2.88-1.62 1.9-2.43 4.51-2.43 7.83 0 3.34.82 5.96 2.46 7.86 1.64 1.9 4 2.85 7.08 2.85Zm33.832 5.04c-3.22 0-6-.73-8.34-2.19-2.32-1.46-4.11-3.48-5.37-6.06-1.26-2.58-1.89-5.54-1.89-8.88 0-3.4.64-6.38 1.92-8.94 1.28-2.56 3.09-4.55 5.43-5.97 2.34-1.44 5.09-2.16 8.25-2.16 3.24 0 6.03.73 8.37 2.19 2.34 1.44 4.13 3.45 5.37 6.03 1.26 2.56 1.89 5.51 1.89 8.85 0 3.38-.63 6.36-1.89 8.94-1.26 2.56-3.06 4.57-5.4 6.03-2.34 1.44-5.12 2.16-8.34 2.16Zm0-5.07c3.36 0 5.86-1.12 7.5-3.36 1.64-2.24 2.46-5.14 2.46-8.7 0-3.66-.83-6.57-2.49-8.73-1.66-2.18-4.15-3.27-7.47-3.27-2.26 0-4.12.51-5.58 1.53s-2.55 2.43-3.27 4.23c-.72 1.8-1.08 3.88-1.08 6.24 0 3.64.84 6.56 2.52 8.76 1.68 2.2 4.15 3.3 7.41 3.3Zm34.475 5.07c-3.18 0-5.96-.7-8.34-2.1-2.36-1.42-4.2-3.39-5.52-5.91-1.32-2.54-1.98-5.5-1.98-8.88 0-3.54.65-6.6 1.95-9.18 1.3-2.6 3.11-4.6 5.43-6 2.34-1.42 5.08-2.13 8.22-2.13 3.26 0 6.03.75 8.31 2.25 2.3 1.5 4.02 3.64 5.16 6.42 1.16 2.78 1.66 6.09 1.5 9.93h-5.4v-1.92c-.06-3.98-.87-6.95-2.43-8.91-1.56-1.98-3.88-2.97-6.96-2.97-3.3 0-5.81 1.06-7.53 3.18-1.72 2.12-2.58 5.16-2.58 9.12 0 3.82.86 6.78 2.58 8.88 1.72 2.1 4.17 3.15 7.35 3.15 2.14 0 4-.49 5.58-1.47s2.82-2.39 3.72-4.23l5.13 1.77c-1.26 2.86-3.16 5.08-5.7 6.66-2.52 1.56-5.35 2.34-8.49 2.34Zm-11.97-15.6v-4.29h23.94v4.29h-23.94ZM366.92 105V72.6h13.8c.82 0 1.7.05 2.64.15.96.08 1.83.23 2.61.45 1.74.46 3.17 1.41 4.29 2.85 1.14 1.42 1.71 3.22 1.71 5.4 0 1.22-.19 2.28-.57 3.18-.36.9-.88 1.68-1.56 2.34-.3.3-.63.57-.99.81-.36.24-.72.43-1.08.57.7.12 1.41.39 2.13.81 1.14.62 2.03 1.49 2.67 2.61.66 1.12.99 2.55.99 4.29 0 2.2-.53 4.02-1.59 5.46-1.06 1.42-2.52 2.4-4.38 2.94-.78.22-1.64.37-2.58.45-.94.06-1.85.09-2.73.09h-15.36Zm5.4-4.35h9.66c.42 0 .92-.04 1.5-.12.6-.08 1.13-.18 1.59-.3 1.04-.3 1.79-.86 2.25-1.68.48-.82.72-1.71.72-2.67 0-1.28-.36-2.32-1.08-3.12-.7-.8-1.63-1.3-2.79-1.5a5.87 5.87 0 0 0-1.38-.21c-.48-.02-.91-.03-1.29-.03h-9.18v9.63Zm0-14.04h8.04c.56 0 1.15-.03 1.77-.09.62-.08 1.16-.21 1.62-.39.92-.34 1.59-.9 2.01-1.68.44-.8.66-1.67.66-2.61 0-1.04-.24-1.95-.72-2.73-.46-.8-1.17-1.35-2.13-1.65-.64-.24-1.36-.37-2.16-.39-.78-.04-1.28-.06-1.5-.06h-7.59v9.6Zm40.347 19.29c-3.04 0-5.6-.75-7.68-2.25-2.08-1.52-3.66-3.57-4.74-6.15-1.06-2.6-1.59-5.51-1.59-8.73 0-3.26.53-6.18 1.59-8.76 1.08-2.58 2.66-4.61 4.74-6.09 2.1-1.48 4.67-2.22 7.71-2.22 3 0 5.58.75 7.74 2.25 2.18 1.48 3.85 3.51 5.01 6.09 1.16 2.58 1.74 5.49 1.74 8.73s-.58 6.15-1.74 8.73c-1.16 2.58-2.83 4.63-5.01 6.15-2.16 1.5-4.75 2.25-7.77 2.25Zm-14.91 13.5V72.6h4.77v23.85h.6v22.95h-5.37Zm14.25-18.39c2.14 0 3.91-.54 5.31-1.62 1.4-1.08 2.45-2.54 3.15-4.38.7-1.86 1.05-3.94 1.05-6.24 0-2.28-.35-4.34-1.05-6.18-.68-1.84-1.74-3.3-3.18-4.38-1.42-1.08-3.23-1.62-5.43-1.62-2.1 0-3.84.52-5.22 1.56-1.38 1.02-2.41 2.45-3.09 4.29-.68 1.82-1.02 3.93-1.02 6.33 0 2.36.33 4.47.99 6.33.68 1.84 1.72 3.29 3.12 4.35 1.4 1.04 3.19 1.56 5.37 1.56Zm33.997 4.89c-3.18 0-5.96-.7-8.34-2.1-2.36-1.42-4.2-3.39-5.52-5.91-1.32-2.54-1.98-5.5-1.98-8.88 0-3.54.65-6.6 1.95-9.18 1.3-2.6 3.11-4.6 5.43-6 2.34-1.42 5.08-2.13 8.22-2.13 3.26 0 6.03.75 8.31 2.25 2.3 1.5 4.02 3.64 5.16 6.42 1.16 2.78 1.66 6.09 1.5 9.93h-5.4v-1.92c-.06-3.98-.87-6.95-2.43-8.91-1.56-1.98-3.88-2.97-6.96-2.97-3.3 0-5.81 1.06-7.53 3.18-1.72 2.12-2.58 5.16-2.58 9.12 0 3.82.86 6.78 2.58 8.88 1.72 2.1 4.17 3.15 7.35 3.15 2.14 0 4-.49 5.58-1.47s2.82-2.39 3.72-4.23l5.13 1.77c-1.26 2.86-3.16 5.08-5.7 6.66-2.52 1.56-5.35 2.34-8.49 2.34Zm-11.97-15.6v-4.29h23.94v4.29h-23.94Zm30.67 14.7V72.6h4.59l12.3 25.14 12.3-25.14h4.59V105h-5.16V83.73L483.004 105h-2.82l-10.32-21.27V105h-5.16Zm60.369 0V93.27h-6.99c-.82 0-1.73-.03-2.73-.09-.98-.08-1.9-.19-2.76-.33-2.34-.44-4.32-1.47-5.94-3.09-1.6-1.62-2.4-3.86-2.4-6.72 0-2.78.75-5.01 2.25-6.69 1.52-1.7 3.39-2.8 5.61-3.3 1-.24 2.01-.37 3.03-.39 1.04-.04 1.92-.06 2.64-.06h12.63l.03 32.4h-5.37Zm-21.81 0 8.61-13.2h5.76l-8.61 13.2h-5.76Zm14.43-16.14h7.38V77.01h-7.38c-.46 0-1.07.02-1.83.06-.74.04-1.45.16-2.13.36-.64.18-1.27.51-1.89.99-.6.48-1.1 1.1-1.5 1.86-.4.76-.6 1.66-.6 2.7 0 1.5.42 2.72 1.26 3.66a6.24 6.24 0 0 0 3.06 1.86c.66.16 1.31.26 1.95.3.66.04 1.22.06 1.68.06Zm43.24 17.04c-3.28 0-6.07-.73-8.37-2.19-2.28-1.48-4.02-3.51-5.22-6.09-1.2-2.58-1.82-5.52-1.86-8.82.04-3.38.67-6.35 1.89-8.91 1.24-2.58 3.01-4.59 5.31-6.03 2.3-1.44 5.07-2.16 8.31-2.16 3.42 0 6.36.84 8.82 2.52 2.48 1.68 4.14 3.98 4.98 6.9l-5.28 1.59c-.68-1.88-1.79-3.34-3.33-4.38-1.52-1.04-3.27-1.56-5.25-1.56-2.22 0-4.05.52-5.49 1.56-1.44 1.02-2.51 2.44-3.21 4.26-.7 1.8-1.06 3.87-1.08 6.21.04 3.6.87 6.51 2.49 8.73 1.64 2.2 4.07 3.3 7.29 3.3 2.12 0 3.88-.48 5.28-1.44 1.4-.98 2.46-2.39 3.18-4.23l5.4 1.41c-1.12 3.02-2.87 5.33-5.25 6.93-2.38 1.6-5.25 2.4-8.61 2.4Zm21.511 13.5 6.27-17.04.09 5.04-14.16-34.8h5.61l11.1 27.99h-1.92l10.41-27.99h5.43l-17.64 46.8h-5.19Zm34.565-14.4V77.46h-11.28V72.6h27.9v4.86h-11.28V105h-5.34Zm33.713.9c-3.22 0-6-.73-8.34-2.19-2.32-1.46-4.11-3.48-5.37-6.06-1.26-2.58-1.89-5.54-1.89-8.88 0-3.4.64-6.38 1.92-8.94 1.28-2.56 3.09-4.55 5.43-5.97 2.34-1.44 5.09-2.16 8.25-2.16 3.24 0 6.03.73 8.37 2.19 2.34 1.44 4.13 3.45 5.37 6.03 1.26 2.56 1.89 5.51 1.89 8.85 0 3.38-.63 6.36-1.89 8.94-1.26 2.56-3.06 4.57-5.4 6.03-2.34 1.44-5.12 2.16-8.34 2.16Zm0-5.07c3.36 0 5.86-1.12 7.5-3.36 1.64-2.24 2.46-5.14 2.46-8.7 0-3.66-.83-6.57-2.49-8.73-1.66-2.18-4.15-3.27-7.47-3.27-2.26 0-4.12.51-5.58 1.53s-2.55 2.43-3.27 4.23c-.72 1.8-1.08 3.88-1.08 6.24 0 3.64.84 6.56 2.52 8.76 1.68 2.2 4.15 3.3 7.41 3.3Zm20.405 4.17.03-32.4h5.4v15.6l13.59-15.6h6.93l-14.31 16.2 15.99 16.2h-7.47l-14.73-15.6V105h-5.43Zm29.776 0v-5.88h5.88V105h-5.88ZM.55 165l.03-32.4h5.4v15.6l13.59-15.6h6.93l-14.31 16.2L28.18 165h-7.47L5.98 149.4V165H.55Zm43.696.9c-3.04 0-5.6-.75-7.68-2.25-2.08-1.52-3.66-3.57-4.74-6.15-1.06-2.6-1.59-5.51-1.59-8.73 0-3.26.53-6.18 1.59-8.76 1.08-2.58 2.66-4.61 4.74-6.09 2.1-1.48 4.67-2.22 7.71-2.22 3 0 5.58.75 7.74 2.25 2.18 1.48 3.85 3.51 5.01 6.09 1.16 2.58 1.74 5.49 1.74 8.73s-.58 6.15-1.74 8.73c-1.16 2.58-2.83 4.63-5.01 6.15-2.16 1.5-4.75 2.25-7.77 2.25Zm-14.91 13.5v-46.8h4.77v23.85h.6v22.95h-5.37Zm14.25-18.39c2.14 0 3.91-.54 5.31-1.62 1.4-1.08 2.45-2.54 3.15-4.38.7-1.86 1.05-3.94 1.05-6.24 0-2.28-.35-4.34-1.05-6.18-.68-1.84-1.74-3.3-3.18-4.38-1.42-1.08-3.23-1.62-5.43-1.62-2.1 0-3.84.52-5.22 1.56-1.38 1.02-2.41 2.45-3.09 4.29-.68 1.82-1.02 3.93-1.02 6.33 0 2.36.33 4.47.99 6.33.68 1.84 1.72 3.29 3.12 4.35 1.4 1.04 3.19 1.56 5.37 1.56Zm23.285 18.39 6.27-17.04.09 5.04-14.16-34.8h5.61l11.1 27.99h-1.92l10.41-27.99h5.43l-17.64 46.8h-5.19ZM92.856 165v-32.4h22.5v5.07h-17.16V165h-5.34Zm22.798 0v-4.59c1.2.22 2.11.18 2.73-.12.64-.32 1.11-.87 1.41-1.65.32-.8.58-1.8.78-3 .34-1.9.63-4.02.87-6.36.26-2.34.49-4.9.69-7.68.22-2.8.42-5.8.6-9h22.65V165h-5.34v-27.33h-12.45c-.12 1.84-.27 3.73-.45 5.67-.16 1.94-.33 3.83-.51 5.67-.18 1.82-.38 3.52-.6 5.1-.2 1.56-.42 2.91-.66 4.05-.38 1.96-.91 3.53-1.59 4.71-.68 1.16-1.66 1.91-2.94 2.25-1.28.36-3.01.32-5.19-.12Zm50.156.9c-3.22 0-6-.73-8.34-2.19-2.32-1.46-4.11-3.48-5.37-6.06-1.26-2.58-1.89-5.54-1.89-8.88 0-3.4.64-6.38 1.92-8.94 1.28-2.56 3.09-4.55 5.43-5.97 2.34-1.44 5.09-2.16 8.25-2.16 3.24 0 6.03.73 8.37 2.19 2.34 1.44 4.13 3.45 5.37 6.03 1.26 2.56 1.89 5.51 1.89 8.85 0 3.38-.63 6.36-1.89 8.94-1.26 2.56-3.06 4.57-5.4 6.03-2.34 1.44-5.12 2.16-8.34 2.16Zm0-5.07c3.36 0 5.86-1.12 7.5-3.36 1.64-2.24 2.46-5.14 2.46-8.7 0-3.66-.83-6.57-2.49-8.73-1.66-2.18-4.15-3.27-7.47-3.27-2.26 0-4.12.51-5.58 1.53s-2.55 2.43-3.27 4.23c-.72 1.8-1.08 3.88-1.08 6.24 0 3.64.84 6.56 2.52 8.76 1.68 2.2 4.15 3.3 7.41 3.3Zm34.085 5.07c-3.28 0-6.07-.73-8.37-2.19-2.28-1.48-4.02-3.51-5.22-6.09-1.2-2.58-1.82-5.52-1.86-8.82.04-3.38.67-6.35 1.89-8.91 1.24-2.58 3.01-4.59 5.31-6.03 2.3-1.44 5.07-2.16 8.31-2.16 3.42 0 6.36.84 8.82 2.52 2.48 1.68 4.14 3.98 4.98 6.9l-5.28 1.59c-.68-1.88-1.79-3.34-3.33-4.38-1.52-1.04-3.27-1.56-5.25-1.56-2.22 0-4.05.52-5.49 1.56-1.44 1.02-2.51 2.44-3.21 4.26-.7 1.8-1.06 3.87-1.08 6.21.04 3.6.87 6.51 2.49 8.73 1.64 2.2 4.07 3.3 7.29 3.3 2.12 0 3.88-.48 5.28-1.44 1.4-.98 2.46-2.39 3.18-4.23l5.4 1.41c-1.12 3.02-2.87 5.33-5.25 6.93-2.38 1.6-5.25 2.4-8.61 2.4Zm21.511 13.5 6.27-17.04.09 5.04-14.16-34.8h5.61l11.1 27.99h-1.92l10.41-27.99h5.43l-17.64 46.8h-5.19Zm34.565-14.4v-27.54h-11.28v-4.86h27.9v4.86h-11.28V165h-5.34Zm33.713.9c-3.22 0-6-.73-8.34-2.19-2.32-1.46-4.11-3.48-5.37-6.06-1.26-2.58-1.89-5.54-1.89-8.88 0-3.4.64-6.38 1.92-8.94 1.28-2.56 3.09-4.55 5.43-5.97 2.34-1.44 5.09-2.16 8.25-2.16 3.24 0 6.03.73 8.37 2.19 2.34 1.44 4.13 3.45 5.37 6.03 1.26 2.56 1.89 5.51 1.89 8.85 0 3.38-.63 6.36-1.89 8.94-1.26 2.56-3.06 4.57-5.4 6.03-2.34 1.44-5.12 2.16-8.34 2.16Zm0-5.07c3.36 0 5.86-1.12 7.5-3.36 1.64-2.24 2.46-5.14 2.46-8.7 0-3.66-.83-6.57-2.49-8.73-1.66-2.18-4.15-3.27-7.47-3.27-2.26 0-4.12.51-5.58 1.53s-2.55 2.43-3.27 4.23c-.72 1.8-1.08 3.88-1.08 6.24 0 3.64.84 6.56 2.52 8.76 1.68 2.2 4.15 3.3 7.41 3.3Zm39.935 4.17v-11.67c-1.08.54-2.39 1-3.93 1.38-1.52.38-3.15.57-4.89.57-3.3 0-5.96-.74-7.98-2.22-2.02-1.48-3.34-3.61-3.96-6.39-.18-.84-.31-1.71-.39-2.61a67.121 67.121 0 0 1-.15-4.08v-7.38h5.4v7.38c0 .58.02 1.3.06 2.16.04.84.14 1.66.3 2.46.4 1.98 1.23 3.47 2.49 4.47 1.28 1 3.08 1.5 5.4 1.5 1.56 0 3-.2 4.32-.6 1.32-.4 2.43-.93 3.33-1.59V132.6h5.37V165h-5.37Zm11.951 0v-32.4h5.34v13.65h17.04V132.6h5.34V165h-5.34v-13.68h-17.04V165h-5.34Zm43.534.9c-2.42 0-4.45-.44-6.09-1.32-1.62-.9-2.85-2.08-3.69-3.54-.82-1.46-1.23-3.06-1.23-4.8 0-1.7.32-3.17.96-4.41a8.62 8.62 0 0 1 2.76-3.12c1.18-.84 2.59-1.5 4.23-1.98 1.54-.42 3.26-.78 5.16-1.08 1.92-.32 3.86-.61 5.82-.87 1.96-.26 3.79-.51 5.49-.75l-1.92 1.11c.06-2.88-.52-5.01-1.74-6.39-1.2-1.38-3.28-2.07-6.24-2.07-1.96 0-3.68.45-5.16 1.35-1.46.88-2.49 2.32-3.09 4.32l-5.07-1.53c.78-2.84 2.29-5.07 4.53-6.69s5.19-2.43 8.85-2.43c2.94 0 5.46.53 7.56 1.59 2.12 1.04 3.64 2.62 4.56 4.74.46 1 .75 2.09.87 3.27.12 1.16.18 2.38.18 3.66V165h-4.74v-7.77l1.11.72c-1.22 2.62-2.93 4.6-5.13 5.94-2.18 1.34-4.84 2.01-7.98 2.01Zm.81-4.47c1.92 0 3.58-.34 4.98-1.02 1.42-.7 2.56-1.61 3.42-2.73.86-1.14 1.42-2.38 1.68-3.72.3-1 .46-2.11.48-3.33.04-1.24.06-2.19.06-2.85l1.86.81c-1.74.24-3.45.47-5.13.69-1.68.22-3.27.46-4.77.72-1.5.24-2.85.53-4.05.87-.88.28-1.71.64-2.49 1.08-.76.44-1.38 1.01-1.86 1.71-.46.68-.69 1.53-.69 2.55 0 .88.22 1.72.66 2.52.46.8 1.16 1.45 2.1 1.95.96.5 2.21.75 3.75.75Zm41.94 3.57v-11.73h-6.99c-.82 0-1.73-.03-2.73-.09-.98-.08-1.9-.19-2.76-.33-2.34-.44-4.32-1.47-5.94-3.09-1.6-1.62-2.4-3.86-2.4-6.72 0-2.78.75-5.01 2.25-6.69 1.52-1.7 3.39-2.8 5.61-3.3 1-.24 2.01-.37 3.03-.39 1.04-.04 1.92-.06 2.64-.06h12.63l.03 32.4h-5.37Zm-21.81 0 8.61-13.2h5.76l-8.61 13.2h-5.76Zm14.43-16.14h7.38v-11.85h-7.38c-.46 0-1.07.02-1.83.06-.74.04-1.45.16-2.13.36-.64.18-1.27.51-1.89.99-.6.48-1.1 1.1-1.5 1.86-.4.76-.6 1.66-.6 2.7 0 1.5.42 2.72 1.26 3.66a6.24 6.24 0 0 0 3.06 1.86c.66.16 1.31.26 1.95.3.66.04 1.22.06 1.68.06ZM51.434 225v-32.4h26.55V225h-5.34v-27.33h-15.87V225h-5.34Zm46.952.9c-3.22 0-6-.73-8.34-2.19-2.32-1.46-4.11-3.48-5.37-6.06-1.26-2.58-1.89-5.54-1.89-8.88 0-3.4.64-6.38 1.92-8.94 1.28-2.56 3.09-4.55 5.43-5.97 2.34-1.44 5.09-2.16 8.25-2.16 3.24 0 6.03.73 8.37 2.19 2.34 1.44 4.13 3.45 5.37 6.03 1.26 2.56 1.89 5.51 1.89 8.85 0 3.38-.63 6.36-1.89 8.94-1.26 2.56-3.06 4.57-5.4 6.03-2.34 1.44-5.12 2.16-8.34 2.16Zm0-5.07c3.36 0 5.86-1.12 7.5-3.36 1.64-2.24 2.46-5.14 2.46-8.7 0-3.66-.83-6.57-2.49-8.73-1.66-2.18-4.15-3.27-7.47-3.27-2.26 0-4.12.51-5.58 1.53s-2.55 2.43-3.27 4.23c-.72 1.8-1.08 3.88-1.08 6.24 0 3.64.84 6.56 2.52 8.76 1.68 2.2 4.15 3.3 7.41 3.3Zm30.617 4.17v-32.4h26.55V225h-5.34v-27.33h-15.87V225h-5.34Zm46.952.9c-3.22 0-6-.73-8.34-2.19-2.32-1.46-4.11-3.48-5.37-6.06-1.26-2.58-1.89-5.54-1.89-8.88 0-3.4.64-6.38 1.92-8.94 1.28-2.56 3.09-4.55 5.43-5.97 2.34-1.44 5.09-2.16 8.25-2.16 3.24 0 6.03.73 8.37 2.19 2.34 1.44 4.13 3.45 5.37 6.03 1.26 2.56 1.89 5.51 1.89 8.85 0 3.38-.63 6.36-1.89 8.94-1.26 2.56-3.06 4.57-5.4 6.03-2.34 1.44-5.12 2.16-8.34 2.16Zm0-5.07c3.36 0 5.86-1.12 7.5-3.36 1.64-2.24 2.46-5.14 2.46-8.7 0-3.66-.83-6.57-2.49-8.73-1.66-2.18-4.15-3.27-7.47-3.27-2.26 0-4.12.51-5.58 1.53s-2.55 2.43-3.27 4.23c-.72 1.8-1.08 3.88-1.08 6.24 0 3.64.84 6.56 2.52 8.76 1.68 2.2 4.15 3.3 7.41 3.3ZM215.89 225v-11.67c-1.08.54-2.39 1-3.93 1.38-1.52.38-3.15.57-4.89.57-3.3 0-5.96-.74-7.98-2.22-2.02-1.48-3.34-3.61-3.96-6.39-.18-.84-.31-1.71-.39-2.61a67.121 67.121 0 0 1-.15-4.08v-7.38h5.4v7.38c0 .58.02 1.3.06 2.16.04.84.14 1.66.3 2.46.4 1.98 1.23 3.47 2.49 4.47 1.28 1 3.08 1.5 5.4 1.5 1.56 0 3-.2 4.32-.6 1.32-.4 2.43-.93 3.33-1.59V192.6h5.37V225h-5.37Zm20.561 0v-27.54h-11.28v-4.86h27.9v4.86h-11.28V225h-5.34Zm34.539.9c-3.18 0-5.96-.7-8.34-2.1-2.36-1.42-4.2-3.39-5.52-5.91-1.32-2.54-1.98-5.5-1.98-8.88 0-3.54.65-6.6 1.95-9.18 1.3-2.6 3.11-4.6 5.43-6 2.34-1.42 5.08-2.13 8.22-2.13 3.26 0 6.03.75 8.31 2.25 2.3 1.5 4.02 3.64 5.16 6.42 1.16 2.78 1.66 6.09 1.5 9.93h-5.4v-1.92c-.06-3.98-.87-6.95-2.43-8.91-1.56-1.98-3.88-2.97-6.96-2.97-3.3 0-5.81 1.06-7.53 3.18-1.72 2.12-2.58 5.16-2.58 9.12 0 3.82.86 6.78 2.58 8.88 1.72 2.1 4.17 3.15 7.35 3.15 2.14 0 4-.49 5.58-1.47s2.82-2.39 3.72-4.23l5.13 1.77c-1.26 2.86-3.16 5.08-5.7 6.66-2.52 1.56-5.35 2.34-8.49 2.34Zm-11.97-15.6v-4.29h23.94v4.29h-23.94Zm68.311-17.7V225h-5.16v-23.88L305.191 225h-4.41v-32.4h5.16v23.55l17.01-23.55h4.38Zm16.784 32.4v-32.4h13.8c.82 0 1.7.05 2.64.15.96.08 1.83.23 2.61.45 1.74.46 3.17 1.41 4.29 2.85 1.14 1.42 1.71 3.22 1.71 5.4 0 1.22-.19 2.28-.57 3.18-.36.9-.88 1.68-1.56 2.34-.3.3-.63.57-.99.81-.36.24-.72.43-1.08.57.7.12 1.41.39 2.13.81 1.14.62 2.03 1.49 2.67 2.61.66 1.12.99 2.55.99 4.29 0 2.2-.53 4.02-1.59 5.46-1.06 1.42-2.52 2.4-4.38 2.94-.78.22-1.64.37-2.58.45-.94.06-1.85.09-2.73.09h-15.36Zm5.4-4.35h9.66c.42 0 .92-.04 1.5-.12.6-.08 1.13-.18 1.59-.3 1.04-.3 1.79-.86 2.25-1.68.48-.82.72-1.71.72-2.67 0-1.28-.36-2.32-1.08-3.12-.7-.8-1.63-1.3-2.79-1.5a5.87 5.87 0 0 0-1.38-.21c-.48-.02-.91-.03-1.29-.03h-9.18v9.63Zm0-14.04h8.04c.56 0 1.15-.03 1.77-.09.62-.08 1.16-.21 1.62-.39.92-.34 1.59-.9 2.01-1.68.44-.8.66-1.67.66-2.61 0-1.04-.24-1.95-.72-2.73-.46-.8-1.17-1.35-2.13-1.65-.64-.24-1.36-.37-2.16-.39-.78-.04-1.28-.06-1.5-.06h-7.59v9.6ZM385.163 225v-32.4h4.59l12.3 25.14 12.3-25.14h4.59V225h-5.16v-21.27L403.463 225h-2.82l-10.32-21.27V225h-5.16Zm54.399.9c-3.18 0-5.96-.7-8.34-2.1-2.36-1.42-4.2-3.39-5.52-5.91-1.32-2.54-1.98-5.5-1.98-8.88 0-3.54.65-6.6 1.95-9.18 1.3-2.6 3.11-4.6 5.43-6 2.34-1.42 5.08-2.13 8.22-2.13 3.26 0 6.03.75 8.31 2.25 2.3 1.5 4.02 3.64 5.16 6.42 1.16 2.78 1.66 6.09 1.5 9.93h-5.4v-1.92c-.06-3.98-.87-6.95-2.43-8.91-1.56-1.98-3.88-2.97-6.96-2.97-3.3 0-5.81 1.06-7.53 3.18-1.72 2.12-2.58 5.16-2.58 9.12 0 3.82.86 6.78 2.58 8.88 1.72 2.1 4.17 3.15 7.35 3.15 2.14 0 4-.49 5.58-1.47s2.82-2.39 3.72-4.23l5.13 1.77c-1.26 2.86-3.16 5.08-5.7 6.66-2.52 1.56-5.35 2.34-8.49 2.34Zm-11.97-15.6v-4.29h23.94v4.29h-23.94Zm45.229 15.6c-3.28 0-6.07-.73-8.37-2.19-2.28-1.48-4.02-3.51-5.22-6.09-1.2-2.58-1.82-5.52-1.86-8.82.04-3.38.67-6.35 1.89-8.91 1.24-2.58 3.01-4.59 5.31-6.03 2.3-1.44 5.07-2.16 8.31-2.16 3.42 0 6.36.84 8.82 2.52 2.48 1.68 4.14 3.98 4.98 6.9l-5.28 1.59c-.68-1.88-1.79-3.34-3.33-4.38-1.52-1.04-3.27-1.56-5.25-1.56-2.22 0-4.05.52-5.49 1.56-1.44 1.02-2.51 2.44-3.21 4.26-.7 1.8-1.06 3.87-1.08 6.21.04 3.6.87 6.51 2.49 8.73 1.64 2.2 4.07 3.3 7.29 3.3 2.12 0 3.88-.48 5.28-1.44 1.4-.98 2.46-2.39 3.18-4.23l5.4 1.41c-1.12 3.02-2.87 5.33-5.25 6.93-2.38 1.6-5.25 2.4-8.61 2.4Zm30.954 0c-3.28 0-6.07-.73-8.37-2.19-2.28-1.48-4.02-3.51-5.22-6.09-1.2-2.58-1.82-5.52-1.86-8.82.04-3.38.67-6.35 1.89-8.91 1.24-2.58 3.01-4.59 5.31-6.03 2.3-1.44 5.07-2.16 8.31-2.16 3.42 0 6.36.84 8.82 2.52 2.48 1.68 4.14 3.98 4.98 6.9l-5.28 1.59c-.68-1.88-1.79-3.34-3.33-4.38-1.52-1.04-3.27-1.56-5.25-1.56-2.22 0-4.05.52-5.49 1.56-1.44 1.02-2.51 2.44-3.21 4.26-.7 1.8-1.06 3.87-1.08 6.21.04 3.6.87 6.51 2.49 8.73 1.64 2.2 4.07 3.3 7.29 3.3 2.12 0 3.88-.48 5.28-1.44 1.4-.98 2.46-2.39 3.18-4.23l5.4 1.41c-1.12 3.02-2.87 5.33-5.25 6.93-2.38 1.6-5.25 2.4-8.61 2.4Zm32.223 0c-3.18 0-5.96-.7-8.34-2.1-2.36-1.42-4.2-3.39-5.52-5.91-1.32-2.54-1.98-5.5-1.98-8.88 0-3.54.65-6.6 1.95-9.18 1.3-2.6 3.11-4.6 5.43-6 2.34-1.42 5.08-2.13 8.22-2.13 3.26 0 6.03.75 8.31 2.25 2.3 1.5 4.02 3.64 5.16 6.42 1.16 2.78 1.66 6.09 1.5 9.93h-5.4v-1.92c-.06-3.98-.87-6.95-2.43-8.91-1.56-1.98-3.88-2.97-6.96-2.97-3.3 0-5.81 1.06-7.53 3.18-1.72 2.12-2.58 5.16-2.58 9.12 0 3.82.86 6.78 2.58 8.88 1.72 2.1 4.17 3.15 7.35 3.15 2.14 0 4-.49 5.58-1.47s2.82-2.39 3.72-4.23l5.13 1.77c-1.26 2.86-3.16 5.08-5.7 6.66-2.52 1.56-5.35 2.34-8.49 2.34Zm-11.97-15.6v-4.29h23.94v4.29h-23.94Zm31.549 14.7v-32.4h5.34v13.65h17.04V192.6h5.34V225h-5.34v-13.68h-17.04V225h-5.34Zm31.924 7.2v-11.61c1.82 0 3.12-.59 3.9-1.77.78-1.2 1.41-3.17 1.89-5.91.32-1.72.58-3.56.78-5.52.2-1.96.37-4.14.51-6.54.16-2.42.31-5.17.45-8.25h22.32v27.99h3.15v11.61h-5.1V225h-22.8v7.2h-5.1Zm8.22-11.61h16.29v-23.58h-12.15c-.06 1.42-.14 2.91-.24 4.47-.1 1.54-.22 3.08-.36 4.62-.12 1.54-.27 3-.45 4.38-.16 1.36-.35 2.58-.57 3.66-.26 1.5-.56 2.77-.9 3.81-.34 1.04-.88 1.92-1.62 2.64Zm25.401 4.41 13.08-16.2-12.45-16.2h5.94l12.03 15.9v-15.9h4.86v15.9l12.03-15.9h5.94l-12.45 16.2 13.08 16.2h-6.21l-12.39-15.9V225h-4.86v-15.9l-12.39 15.9h-6.21Zm57.91.9c-3.18 0-5.96-.7-8.34-2.1-2.36-1.42-4.2-3.39-5.52-5.91-1.32-2.54-1.98-5.5-1.98-8.88 0-3.54.65-6.6 1.95-9.18 1.3-2.6 3.11-4.6 5.43-6 2.34-1.42 5.08-2.13 8.22-2.13 3.26 0 6.03.75 8.31 2.25 2.3 1.5 4.02 3.64 5.16 6.42 1.16 2.78 1.66 6.09 1.5 9.93h-5.4v-1.92c-.06-3.98-.87-6.95-2.43-8.91-1.56-1.98-3.88-2.97-6.96-2.97-3.3 0-5.81 1.06-7.53 3.18-1.72 2.12-2.58 5.16-2.58 9.12 0 3.82.86 6.78 2.58 8.88 1.72 2.1 4.17 3.15 7.35 3.15 2.14 0 4-.49 5.58-1.47s2.82-2.39 3.72-4.23l5.13 1.77c-1.26 2.86-3.16 5.08-5.7 6.66-2.52 1.56-5.35 2.34-8.49 2.34Zm-11.97-15.6v-4.29h23.94v4.29h-23.94Zm46.459 15.6c-3.04 0-5.6-.75-7.68-2.25-2.08-1.52-3.66-3.57-4.74-6.15-1.06-2.6-1.59-5.51-1.59-8.73 0-3.26.53-6.18 1.59-8.76 1.08-2.58 2.66-4.61 4.74-6.09 2.1-1.48 4.67-2.22 7.71-2.22 3 0 5.58.75 7.74 2.25 2.18 1.48 3.85 3.51 5.01 6.09 1.16 2.58 1.74 5.49 1.74 8.73s-.58 6.15-1.74 8.73c-1.16 2.58-2.83 4.63-5.01 6.15-2.16 1.5-4.75 2.25-7.77 2.25Zm-14.91 13.5v-46.8h4.77v23.85h.6v22.95h-5.37Zm14.25-18.39c2.14 0 3.91-.54 5.31-1.62 1.4-1.08 2.45-2.54 3.15-4.38.7-1.86 1.05-3.94 1.05-6.24 0-2.28-.35-4.34-1.05-6.18-.68-1.84-1.74-3.3-3.18-4.38-1.42-1.08-3.23-1.62-5.43-1.62-2.1 0-3.84.52-5.22 1.56-1.38 1.02-2.41 2.45-3.09 4.29-.68 1.82-1.02 3.93-1.02 6.33 0 2.36.33 4.47.99 6.33.68 1.84 1.72 3.29 3.12 4.35 1.4 1.04 3.19 1.56 5.37 1.56Zm29.167 4.89c-2.42 0-4.45-.44-6.09-1.32-1.62-.9-2.85-2.08-3.69-3.54-.82-1.46-1.23-3.06-1.23-4.8 0-1.7.32-3.17.96-4.41a8.62 8.62 0 0 1 2.76-3.12c1.18-.84 2.59-1.5 4.23-1.98 1.54-.42 3.26-.78 5.16-1.08 1.92-.32 3.86-.61 5.82-.87 1.96-.26 3.79-.51 5.49-.75l-1.92 1.11c.06-2.88-.52-5.01-1.74-6.39-1.2-1.38-3.28-2.07-6.24-2.07-1.96 0-3.68.45-5.16 1.35-1.46.88-2.49 2.32-3.09 4.32l-5.07-1.53c.78-2.84 2.29-5.07 4.53-6.69s5.19-2.43 8.85-2.43c2.94 0 5.46.53 7.56 1.59 2.12 1.04 3.64 2.62 4.56 4.74.46 1 .75 2.09.87 3.27.12 1.16.18 2.38.18 3.66V225h-4.74v-7.77l1.11.72c-1.22 2.62-2.93 4.6-5.13 5.94-2.18 1.34-4.84 2.01-7.98 2.01Zm.81-4.47c1.92 0 3.58-.34 4.98-1.02 1.42-.7 2.56-1.61 3.42-2.73.86-1.14 1.42-2.38 1.68-3.72.3-1 .46-2.11.48-3.33.04-1.24.06-2.19.06-2.85l1.86.81c-1.74.24-3.45.47-5.13.69-1.68.22-3.27.46-4.77.72-1.5.24-2.85.53-4.05.87-.88.28-1.71.64-2.49 1.08-.76.44-1.38 1.01-1.86 1.71-.46.68-.69 1.53-.69 2.55 0 .88.22 1.72.66 2.52.46.8 1.16 1.45 2.1 1.95.96.5 2.21.75 3.75.75Zm18.33 3.57 12.39-16.38-12.12-16.02h6.36l8.88 11.88 8.79-11.88h6.36l-12.12 16.02 12.42 16.38h-6.39l-9.06-12.24-9.12 12.24h-6.39Z"/>
  <rect width="422.682" height="70" x="438.889" y="115.922" fill="url(#b)" rx="21" transform="rotate(-1.2 438.889 115.922)"/>
  <g clip-path="url(#c)" data-figma-skip-parse="true">
    <g fill="url(#d)" shape-rendering="crispEdges" transform="matrix(-.4923 .0566 1.134 -.4038 776.228 105.921)">
      <path d="M0 0h924.8v254.336H0zM0 0h924.8v-254.336H0zM0 0h-924.8v254.336H0zM0 0h-924.8v-254.336H0z"/>
    </g>
  </g>
  <use xlink:href="#reuse-0" data-figma-gradient-fill="{&quot;type&quot;:&quot;GRADIENT_DIAMOND&quot;,&quot;stops&quot;:[{&quot;color&quot;:{&quot;r&quot;:0.99215686321258545,&quot;g&quot;:0.99215686321258545,&quot;b&quot;:0.99215686321258545,&quot;a&quot;:1.0},&quot;position&quot;:0.0},{&quot;color&quot;:{&quot;r&quot;:0.95294117927551270,&quot;g&quot;:0.90588235855102539,&quot;b&quot;:0.91372549533843994,&quot;a&quot;:1.0},&quot;position&quot;:9.9999997473787516e-05},{&quot;color&quot;:{&quot;r&quot;:0.89019608497619629,&quot;g&quot;:0.93333333730697632,&quot;b&quot;:1.0,&quot;a&quot;:1.0},&quot;position&quot;:0.9218750}],&quot;stopsVar&quot;:[],&quot;transform&quot;:{&quot;m00&quot;:-984.511718750,&quot;m01&quot;:2267.875488281250,&quot;m02&quot;:134.54641723632812,&quot;m10&quot;:113.20935058593750,&quot;m11&quot;:-807.69586181640625,&quot;m12&quot;:453.16397094726562},&quot;opacity&quot;:1.0,&quot;blendMode&quot;:&quot;NORMAL&quot;,&quot;visible&quot;:true}"/>
  <defs>
    <linearGradient id="a" x1="1912" x2="1512.12" y1="-199.455" y2="-920.569" gradientUnits="userSpaceOnUse">
      <stop stop-color="#D57384"/>
      <stop offset="0" stop-color="#9D3E4D"/>
      <stop offset="1" stop-color="#4881D9"/>
    </linearGradient>
    <linearGradient id="b" x1="1111.44" x2="1017.42" y1="54.056" y2="-173.654" gradientUnits="userSpaceOnUse">
      <stop stop-color="#D57384"/>
      <stop offset=".922" stop-color="#4881D9"/>
    </linearGradient>
    <linearGradient id="d" x1="0" x2="500" y1="0" y2="500" gradientUnits="userSpaceOnUse">
      <stop stop-color="#FDFDFD"/>
      <stop offset="0" stop-color="#F3E7E9"/>
      <stop offset=".922" stop-color="#E3EEFF"/>
    </linearGradient>
    <clipPath id="c">
      <use xlink:href="#reuse-0"/>
    </clipPath>
  </defs>
</svg>
