<svg xmlns="http://www.w3.org/2000/svg" xmlns:xlink="http://www.w3.org/1999/xlink" fill="none" viewBox="0 0 731 126">
  <defs>
    <path id="reuse-0" d="m118.562 121.576 5.911-17.168.196 5.037-14.886-34.496 5.609-.117 11.684 27.751-1.92.04 9.822-28.201 5.428-.114-16.656 47.159-5.188.109Zm25.647-14.941-.678-32.392 26.544-.557.679 32.393-5.339.112-.573-27.324-15.866.332.572 27.325-5.339.111Zm48.041-.106c-3.04.064-5.615-.632-7.726-2.088-2.111-1.477-3.734-3.493-4.868-6.05-1.114-2.577-1.705-5.475-1.772-8.695-.068-3.259.4-6.19 1.406-8.791 1.026-2.602 2.563-4.665 4.612-6.188 2.068-1.523 4.622-2.317 7.661-2.38 3-.064 5.595.632 7.786 2.087 2.21 1.434 3.923 3.428 5.136 5.983 1.214 2.555 1.855 5.453 1.923 8.692.068 3.24-.451 6.16-1.557 8.764-1.106 2.604-2.732 4.689-4.88 6.254-2.128 1.545-4.702 2.349-7.721 2.412Zm-14.624 13.81-.98-46.79 4.768-.1.5 23.845.6-.013.48 22.945-5.368.113Zm13.861-18.685c2.14-.045 3.898-.622 5.275-1.73 1.377-1.11 2.397-2.592 3.058-4.446.661-1.874.967-3.96.919-6.26-.048-2.28-.441-4.332-1.179-6.157-.719-1.825-1.809-3.263-3.271-4.312-1.443-1.05-3.263-1.552-5.463-1.506-2.1.044-3.828.6-5.186 1.669-1.359 1.048-2.358 2.5-3 4.353-.641 1.834-.937 3.95-.887 6.35.05 2.36.424 4.463 1.122 6.308.719 1.826 1.789 3.254 3.211 4.284 1.421 1.01 3.222 1.493 5.401 1.447Zm29.263 4.278c-2.42.051-4.458-.346-6.116-1.192-1.639-.866-2.893-2.02-3.764-3.462-.85-1.442-1.293-3.033-1.33-4.773-.036-1.7.254-3.176.868-4.43a8.612 8.612 0 0 1 2.694-3.176c1.162-.865 2.558-1.554 4.187-2.069 1.531-.452 3.243-.848 5.136-1.187 1.913-.36 3.847-.691 5.801-.992 1.954-.301 3.778-.59 5.473-.865l-1.896 1.15c-.001-2.88-.625-4.998-1.874-6.352-1.228-1.355-3.322-2-6.282-1.939-1.959.041-3.67.527-5.13 1.458-1.442.91-2.441 2.372-2.999 4.384l-5.101-1.424c.72-2.856 2.183-5.117 4.389-6.783 2.205-1.667 5.138-2.538 8.797-2.615 2.939-.062 5.47.415 7.592 1.431 2.141.996 3.694 2.543 4.658 4.644.481.99.793 2.074.938 3.25a35.73 35.73 0 0 1 .257 3.656l.419 20.036-4.739.099-.162-7.768 1.125.696c-1.165 2.645-2.833 4.661-5.005 6.047-2.151 1.385-4.797 2.11-7.936 2.176Zm.716-4.486c1.92-.04 3.572-.415 4.958-1.124 1.405-.73 2.525-1.663 3.362-2.8.836-1.159 1.37-2.41 1.602-3.755.279-1.006.415-2.12.41-3.34.014-1.24.014-2.19 0-2.85l1.877.77c-1.735.277-3.44.543-5.115.798-1.675.255-3.26.528-4.754.82-1.494.271-2.838.59-4.031.954a13.16 13.16 0 0 0-2.466 1.132 5.652 5.652 0 0 0-1.824 1.749c-.446.69-.658 1.544-.637 2.564.019.88.256 1.715.713 2.505.477.79 1.19 1.426 2.14 1.906.971.48 2.226.704 3.765.671Zm21.97 3.111-.678-32.393 13.797-.289c.819-.017 1.7.014 2.642.095.962.06 1.835.191 2.619.395 1.749.423 3.199 1.343 4.349 2.76 1.169 1.395 1.777 3.183 1.822 5.362.026 1.22-.142 2.284-.503 3.192a6.674 6.674 0 0 1-1.51 2.372 6.49 6.49 0 0 1-.973.83 5.647 5.647 0 0 1-1.068.593c.702.105 1.418.36 2.146.765a6.7 6.7 0 0 1 2.724 2.554c.684 1.105 1.044 2.528 1.08 4.268.046 2.2-.446 4.03-1.475 5.492-1.03 1.442-2.469 2.452-4.318 3.031-.775.236-1.632.404-2.57.504-.938.08-1.847.129-2.727.147l-15.357.322Zm5.308-4.462 9.658-.203c.42-.008.919-.059 1.497-.151a13.312 13.312 0 0 0 1.583-.333c1.034-.322 1.772-.898 2.215-1.727a5.2 5.2 0 0 0 .664-2.684c-.027-1.28-.409-2.312-1.146-3.097-.716-.785-1.656-1.266-2.82-1.441a5.874 5.874 0 0 0-1.384-.181c-.481-.01-.911-.011-1.291-.003l-9.178.192.202 9.628Zm-.294-14.037 8.038-.169c.56-.011 1.149-.054 1.768-.127a6.871 6.871 0 0 0 1.611-.424c.913-.359 1.571-.933 1.975-1.721a5.326 5.326 0 0 0 .605-2.623c-.022-1.04-.281-1.945-.777-2.715-.477-.79-1.198-1.325-2.164-1.605-.645-.226-1.368-.341-2.168-.345a39.54 39.54 0 0 0-1.501-.028l-7.588.159.201 9.598Zm22.847 17.915-.096-4.589c1.204.195 2.113.136 2.727-.177.633-.333 1.091-.893 1.375-1.68.303-.806.542-1.81.717-3.015.3-1.906.545-4.032.736-6.377.211-2.345.388-4.909.529-7.692.162-2.804.299-5.808.412-9.01l22.645-.475.678 32.393-5.339.111-.572-27.324-12.447.261a211.383 211.383 0 0 1-.331 5.678c-.12 1.943-.25 3.836-.392 5.68a127.736 127.736 0 0 1-.493 5.111 52.07 52.07 0 0 1-.575 4.063c-.339 1.968-.836 3.548-1.491 4.742-.655 1.174-1.619 1.945-2.892 2.312-1.272.386-3.003.383-5.191-.012Zm50.404-.155c-3.18.066-5.974-.575-8.382-1.925-2.39-1.371-4.27-3.302-5.643-5.793-1.373-2.512-2.095-5.458-2.165-8.837-.075-3.54.511-6.612 1.757-9.219 1.245-2.626 3.013-4.664 5.303-6.112 2.31-1.469 5.034-2.236 8.174-2.302 3.259-.068 6.044.624 8.355 2.076 2.331 1.451 4.095 3.555 5.293 6.31 1.218 2.755 1.787 6.054 1.708 9.897l-5.399.113-.04-1.92c-.144-3.978-1.016-6.93-2.616-8.857-1.601-1.947-3.942-2.888-7.021-2.824-3.299.07-5.786 1.182-7.462 3.337-1.675 2.156-2.471 5.213-2.388 9.172.08 3.82 1.002 6.76 2.765 8.824 1.764 2.064 4.235 3.062 7.415 2.996 2.139-.045 3.989-.574 5.548-1.587 1.559-1.013 2.769-2.448 3.63-4.307l5.166 1.662c-1.2 2.886-3.053 5.145-5.559 6.778-2.487 1.613-5.3 2.452-8.439 2.518Zm-12.294-15.346-.09-4.29 23.935-.5.089 4.288-23.934.502Zm31.85 14.036-.679-32.393 5.339-.112.286 13.647 17.036-.357-.286-13.647 5.339-.112.679 32.393-5.339.112-.287-13.677-17.036.357.287 13.677-5.339.112Zm60.152-33.667.678 32.393-5.159.108-.5-23.875-16.476 24.23-4.409.093-.678-32.393 5.158-.108.494 23.544 16.513-23.9 4.379-.092Zm27.284 31.835-.245-11.727-6.989.146c-.82.017-1.73.007-2.731-.033-.982-.059-1.904-.15-2.766-.272-2.349-.39-4.35-1.379-6.004-2.965-1.633-1.586-2.48-3.809-2.54-6.668-.058-2.78.645-5.025 2.109-6.736 1.484-1.731 3.331-2.87 5.54-3.416a14.14 14.14 0 0 1 3.021-.454c1.039-.061 1.919-.1 2.638-.115l12.628-.265.708 32.393-5.369.112Zm-21.805.457 8.332-13.377 5.758-.121-8.331 13.377-5.759.121Zm14.089-16.439 7.378-.154-.248-11.848-7.378.155c-.46.01-1.07.042-1.829.098a9.306 9.306 0 0 0-2.122.405c-.636.193-1.259.536-1.868 1.03-.59.492-1.077 1.122-1.461 1.89-.384.768-.565 1.672-.544 2.712.032 1.5.477 2.71 1.337 3.633a6.24 6.24 0 0 0 3.098 1.796c.663.146 1.315.232 1.956.259.661.026 1.221.034 1.681.024Zm43.108 16.171c-3.059.044-5.683-.561-7.869-1.816-2.188-1.274-3.908-3.168-5.161-5.683-1.252-2.514-1.987-5.61-2.205-9.285-.115-1.699-.134-3.569-.057-5.61.097-2.043.276-4.007.537-5.893.28-1.886.648-3.444 1.102-4.674a14.733 14.733 0 0 1 2.195-4.097c.973-1.28 2.071-2.344 3.294-3.19 1.241-.886 2.637-1.585 4.187-2.098a34.155 34.155 0 0 1 4.865-1.212c1.714-.316 3.429-.592 5.144-.828a79.59 79.59 0 0 0 4.903-.883l.64 4.788c-1.095.263-2.39.5-3.886.711-1.496.192-3.052.414-4.667.668a36.993 36.993 0 0 0-4.599 1.027c-1.452.41-2.701.967-3.746 1.669-1.54.972-2.71 2.407-3.511 4.304-.781 1.877-1.237 3.977-1.368 6.3 1.199-1.945 2.779-3.389 4.74-4.33 1.961-.941 4.061-1.436 6.3-1.482 2.9-.061 5.413.566 7.542 1.882 2.127 1.296 3.776 3.112 4.945 5.448 1.189 2.335 1.815 5.013 1.878 8.032.067 3.2-.514 6.012-1.743 8.439-1.23 2.426-3 4.323-5.312 5.692-2.292 1.368-5.008 2.075-8.148 2.121Zm.224-5.076c3.139-.065 5.499-1.085 7.078-3.059 1.578-1.993 2.334-4.61 2.266-7.849-.07-3.319-.964-5.91-2.684-7.775-1.72-1.885-4.099-2.795-7.138-2.731-3.08.064-5.419 1.073-7.019 3.027-1.579 1.934-2.335 4.56-2.265 7.88.07 3.339.945 5.941 2.624 7.806 1.679 1.866 4.059 2.766 7.138 2.701Zm45.95-29.228.679 32.392-5.159.109-.5-23.875-16.477 24.23-4.409.093-.678-32.393 5.159-.108.493 23.544 16.513-23.9 4.379-.092Zm18.905 32.91c-3.199.068-6.043-.563-8.531-1.89a15.474 15.474 0 0 1-5.94-5.638l4.202-2.848c1.217 1.755 2.655 3.095 4.315 4.02 1.659.906 3.539 1.336 5.638 1.292 2.2-.046 3.939-.582 5.218-1.61 1.278-1.046 1.899-2.43 1.863-4.15-.027-1.279-.367-2.252-1.021-2.918-.654-.667-1.584-1.117-2.789-1.352-1.205-.235-2.638-.335-4.297-.3l-3.36.07-.092-4.409 3.329-.07c2.1-.044 3.802-.42 5.108-1.127 1.305-.707 1.941-1.881 1.906-3.52-.035-1.68-.68-2.887-1.936-3.62-1.236-.755-2.704-1.114-4.403-1.079-1.8.038-3.512.454-5.135 1.248-1.624.774-3.014 1.743-4.17 2.908l-3.316-3.561a17.586 17.586 0 0 1 5.706-4.08c2.18-.987 4.56-1.507 7.139-1.56 2.08-.044 3.987.286 5.722.99 1.755.683 3.157 1.724 4.206 3.122 1.069 1.378 1.625 3.077 1.667 5.096.037 1.72-.331 3.258-1.103 4.615-.772 1.356-1.927 2.55-3.466 3.583l-.249-1.885c1.326.292 2.428.86 3.306 1.7a7.725 7.725 0 0 1 2.012 2.96c.445 1.15.68 2.356.706 3.615.045 2.12-.477 3.951-1.565 5.494-1.068 1.523-2.534 2.714-4.396 3.573-1.863.84-3.954 1.283-6.274 1.332Zm17.182-1.26-.678-32.392 5.339-.112.285 13.647 17.037-.357-.286-13.647 5.339-.112.678 32.393-5.339.112-.286-13.677-17.036.357.286 13.677-5.339.112Zm48.372-.112c-3.179.066-5.973-.575-8.382-1.925-2.389-1.37-4.27-3.301-5.642-5.793-1.373-2.512-2.095-5.458-2.166-8.837-.074-3.54.512-6.612 1.757-9.219 1.246-2.626 3.013-4.664 5.303-6.112 2.31-1.469 5.035-2.236 8.174-2.302 3.259-.068 6.044.624 8.355 2.076 2.331 1.451 4.096 3.555 5.294 6.31 1.218 2.755 1.787 6.054 1.707 9.897l-5.399.113-.04-1.92c-.143-3.978-1.015-6.93-2.616-8.857-1.601-1.947-3.941-2.888-7.02-2.824-3.3.07-5.787 1.182-7.462 3.337-1.675 2.156-2.472 5.213-2.389 9.172.08 3.82 1.002 6.761 2.766 8.825 1.763 2.063 4.235 3.061 7.414 2.995 2.14-.045 3.989-.574 5.548-1.587 1.559-1.012 2.769-2.448 3.631-4.307l5.166 1.662c-1.2 2.886-3.053 5.146-5.56 6.779-2.486 1.612-5.299 2.451-8.439 2.517Zm-12.294-15.346-.09-4.29 23.935-.5.09 4.288-23.935.502Zm45.546 14.65c-3.279.068-6.084-.604-8.414-2.015-2.31-1.432-4.092-3.425-5.346-5.98-1.254-2.554-1.935-5.48-2.045-8.779-.03-3.38.537-6.362 1.703-8.947 1.186-2.606 2.914-4.652 5.183-6.14 2.269-1.488 5.024-2.266 8.263-2.334 3.419-.071 6.376.707 8.871 2.335 2.514 1.628 4.222 3.893 5.123 6.794l-5.245 1.7c-.72-1.865-1.86-3.301-3.421-4.309-1.542-1.008-3.302-1.49-5.282-1.45-2.219.047-4.038.605-5.456 1.675-1.418 1.05-2.458 2.492-3.12 4.326-.662 1.815-.979 3.892-.95 6.232.116 3.598 1.006 6.49 2.672 8.676 1.686 2.165 4.139 3.214 7.358 3.146 2.12-.044 3.869-.56 5.249-1.55 1.379-1.009 2.409-2.44 3.09-4.296l5.429 1.297c-1.057 3.043-2.758 5.389-5.104 7.038-2.346 1.65-5.199 2.51-8.558 2.58Zm31.097-.652c-3.219.067-6.014-.604-8.384-2.015-2.35-1.411-4.182-3.393-5.496-5.946-1.313-2.553-2.005-5.5-2.075-8.839-.071-3.399.506-6.392 1.732-8.978 1.226-2.586 2.994-4.614 5.304-6.082 2.309-1.49 5.044-2.267 8.203-2.333 3.239-.068 6.044.604 8.414 2.015 2.37 1.39 4.201 3.362 5.495 5.916 1.314 2.533 2.005 5.469 2.075 8.808.071 3.38-.497 6.372-1.702 8.978-1.206 2.586-2.964 4.633-5.273 6.142-2.309 1.488-5.073 2.266-8.293 2.334Zm-.106-5.07c3.359-.07 5.835-1.242 7.428-3.515 1.593-2.274 2.352-5.19 2.277-8.75-.076-3.66-.967-6.551-2.672-8.676-1.705-2.145-4.218-3.182-7.537-3.113-2.259.047-4.108.596-5.547 1.647-1.438 1.05-2.498 2.483-3.18 4.297-.682 1.815-.999 3.902-.949 6.261.076 3.64.977 6.542 2.703 8.706 1.725 2.164 4.218 3.212 7.477 3.144Zm20.488 3.743-.678-32.393 4.589-.096 12.823 24.877 11.771-25.392 4.589-.097.679 32.393-5.159.108-.446-21.265-9.872 21.481-2.819.06-10.764-21.05.446 21.266-5.159.108Z" data-figma-gradient-fill="{&quot;type&quot;:&quot;GRADIENT_DIAMOND&quot;,&quot;stops&quot;:[{&quot;color&quot;:{&quot;r&quot;:0.83529412746429443,&quot;g&quot;:0.45098039507865906,&quot;b&quot;:0.51764708757400513,&quot;a&quot;:1.0},&quot;position&quot;:0.0},{&quot;color&quot;:{&quot;r&quot;:0.62175929546356201,&quot;g&quot;:0.33419528603553772,&quot;b&quot;:0.38212329149246216,&quot;a&quot;:1.0},&quot;position&quot;:9.9999997473787516e-05},{&quot;color&quot;:{&quot;r&quot;:0.28235295414924622,&quot;g&quot;:0.50588238239288330,&quot;b&quot;:0.85098040103912354,&quot;a&quot;:1.0},&quot;position&quot;:1.0}],&quot;stopsVar&quot;:[],&quot;transform&quot;:{&quot;m00&quot;:-2174.717285156250,&quot;m01&quot;:5001.732910156250,&quot;m02&quot;:-534.11193847656250,&quot;m10&quot;:195.22300720214844,&quot;m11&quot;:-1245.1129150390625,&quot;m12&quot;:548.61370849609375},&quot;opacity&quot;:1.0,&quot;blendMode&quot;:&quot;NORMAL&quot;,&quot;visible&quot;:true}"/>
  </defs>
  <rect width="629" height="70" x="100.336" y="55.629" fill="#FDFDFD" rx="21" transform="rotate(-1.2 100.336 55.629)"/>
  <path fill="#FDFDFD" d="M67.487 45V12.6h26.55V45h-5.34V17.67h-15.87V45h-5.34Zm48.032.9c-3.04 0-5.6-.75-7.68-2.25-2.08-1.52-3.66-3.57-4.74-6.15-1.06-2.6-1.59-5.51-1.59-8.73 0-3.26.53-6.18 1.59-8.76 1.08-2.58 2.66-4.61 4.74-6.09 2.1-1.48 4.67-2.22 7.71-2.22 3 0 5.58.75 7.74 2.25 2.18 1.48 3.85 3.51 5.01 6.09 1.16 2.58 1.74 5.49 1.74 8.73s-.58 6.15-1.74 8.73c-1.16 2.58-2.83 4.63-5.01 6.15-2.16 1.5-4.75 2.25-7.77 2.25Zm-14.91 13.5V12.6h4.77v23.85h.6V59.4h-5.37Zm14.25-18.39c2.14 0 3.91-.54 5.31-1.62 1.4-1.08 2.45-2.54 3.15-4.38.7-1.86 1.05-3.94 1.05-6.24 0-2.28-.35-4.34-1.05-6.18-.68-1.84-1.74-3.3-3.18-4.38-1.42-1.08-3.23-1.62-5.43-1.62-2.1 0-3.84.52-5.22 1.56-1.38 1.02-2.41 2.45-3.09 4.29-.68 1.82-1.02 3.93-1.02 6.33 0 2.36.33 4.47.99 6.33.68 1.84 1.72 3.29 3.12 4.35 1.4 1.04 3.19 1.56 5.37 1.56Zm33.757 4.89c-3.22 0-6-.73-8.34-2.19-2.32-1.46-4.11-3.48-5.37-6.06-1.26-2.58-1.89-5.54-1.89-8.88 0-3.4.64-6.38 1.92-8.94 1.28-2.56 3.09-4.55 5.43-5.97 2.34-1.44 5.09-2.16 8.25-2.16 3.24 0 6.03.73 8.37 2.19 2.34 1.44 4.13 3.45 5.37 6.03 1.26 2.56 1.89 5.51 1.89 8.85 0 3.38-.63 6.36-1.89 8.94-1.26 2.56-3.06 4.57-5.4 6.03-2.34 1.44-5.12 2.16-8.34 2.16Zm0-5.07c3.36 0 5.86-1.12 7.5-3.36 1.64-2.24 2.46-5.14 2.46-8.7 0-3.66-.83-6.57-2.49-8.73-1.66-2.18-4.15-3.27-7.47-3.27-2.26 0-4.12.51-5.58 1.53s-2.55 2.43-3.27 4.23c-.72 1.8-1.08 3.88-1.08 6.24 0 3.64.84 6.56 2.52 8.76 1.68 2.2 4.15 3.3 7.41 3.3Zm34.085 5.07c-3.28 0-6.07-.73-8.37-2.19-2.28-1.48-4.02-3.51-5.22-6.09-1.2-2.58-1.82-5.52-1.86-8.82.04-3.38.67-6.35 1.89-8.91 1.24-2.58 3.01-4.59 5.31-6.03 2.3-1.44 5.07-2.16 8.31-2.16 3.42 0 6.36.84 8.82 2.52 2.48 1.68 4.14 3.98 4.98 6.9l-5.28 1.59c-.68-1.88-1.79-3.34-3.33-4.38-1.52-1.04-3.27-1.56-5.25-1.56-2.22 0-4.05.52-5.49 1.56-1.44 1.02-2.51 2.44-3.21 4.26-.7 1.8-1.06 3.87-1.08 6.21.04 3.6.87 6.51 2.49 8.73 1.64 2.2 4.07 3.3 7.29 3.3 2.12 0 3.88-.48 5.28-1.44 1.4-.98 2.46-2.39 3.18-4.23l5.4 1.41c-1.12 3.02-2.87 5.33-5.25 6.93-2.38 1.6-5.25 2.4-8.61 2.4Zm26.177-.9V17.46h-11.28V12.6h27.9v4.86h-11.28V45h-5.34Zm33.713.9c-3.22 0-6-.73-8.34-2.19-2.32-1.46-4.11-3.48-5.37-6.06-1.26-2.58-1.89-5.54-1.89-8.88 0-3.4.64-6.38 1.92-8.94 1.28-2.56 3.09-4.55 5.43-5.97 2.34-1.44 5.09-2.16 8.25-2.16 3.24 0 6.03.73 8.37 2.19 2.34 1.44 4.13 3.45 5.37 6.03 1.26 2.56 1.89 5.51 1.89 8.85 0 3.38-.63 6.36-1.89 8.94-1.26 2.56-3.06 4.57-5.4 6.03-2.34 1.44-5.12 2.16-8.34 2.16Zm0-5.07c3.36 0 5.86-1.12 7.5-3.36 1.64-2.24 2.46-5.14 2.46-8.7 0-3.66-.83-6.57-2.49-8.73-1.66-2.18-4.15-3.27-7.47-3.27-2.26 0-4.12.51-5.58 1.53s-2.55 2.43-3.27 4.23c-.72 1.8-1.08 3.88-1.08 6.24 0 3.64.84 6.56 2.52 8.76 1.68 2.2 4.15 3.3 7.41 3.3Zm34.385-32.01c-1.5 0-2.87-.37-4.11-1.11a8.532 8.532 0 0 1-2.97-2.94c-.74-1.24-1.11-2.62-1.11-4.14h4.32c0 1.06.38 1.97 1.14 2.73.76.76 1.67 1.14 2.73 1.14 1.08 0 1.99-.38 2.73-1.14.76-.76 1.14-1.67 1.14-2.73h4.32c0 1.52-.37 2.9-1.11 4.14a8.209 8.209 0 0 1-2.97 2.94c-1.24.74-2.61 1.11-4.11 1.11Zm12.57 3.78V45h-5.16V21.12L267.406 45h-4.41V12.6h5.16v23.55l17.01-23.55h4.38Zm43.333 0V45h-5.16V21.12L310.739 45h-4.41V12.6h5.16v23.55l17.01-23.55h4.38Zm6.572 32.4V12.6h5.34v13.65h17.04V12.6h5.34V45h-5.34V31.32h-17.04V45h-5.34Zm47.974.9c-3.28 0-6.07-.73-8.37-2.19-2.28-1.48-4.02-3.51-5.22-6.09-1.2-2.58-1.82-5.52-1.86-8.82.04-3.38.67-6.35 1.89-8.91 1.24-2.58 3.01-4.59 5.31-6.03 2.3-1.44 5.07-2.16 8.31-2.16 3.42 0 6.36.84 8.82 2.52 2.48 1.68 4.14 3.98 4.98 6.9l-5.28 1.59c-.68-1.88-1.79-3.34-3.33-4.38-1.52-1.04-3.27-1.56-5.25-1.56-2.22 0-4.05.52-5.49 1.56-1.44 1.02-2.51 2.44-3.21 4.26-.7 1.8-1.06 3.87-1.08 6.21.04 3.6.87 6.51 2.49 8.73 1.64 2.2 4.07 3.3 7.29 3.3 2.12 0 3.88-.48 5.28-1.44 1.4-.98 2.46-2.39 3.18-4.23l5.4 1.41c-1.12 3.02-2.87 5.33-5.25 6.93-2.38 1.6-5.25 2.4-8.61 2.4Zm26.177-.9V17.46h-11.28V12.6h27.9v4.86h-11.28V45h-5.34Zm35.379.9c-3.04 0-5.6-.75-7.68-2.25-2.08-1.52-3.66-3.57-4.74-6.15-1.06-2.6-1.59-5.51-1.59-8.73 0-3.26.53-6.18 1.59-8.76 1.08-2.58 2.66-4.61 4.74-6.09 2.1-1.48 4.67-2.22 7.71-2.22 3 0 5.58.75 7.74 2.25 2.18 1.48 3.85 3.51 5.01 6.09 1.16 2.58 1.74 5.49 1.74 8.73s-.58 6.15-1.74 8.73c-1.16 2.58-2.83 4.63-5.01 6.15-2.16 1.5-4.75 2.25-7.77 2.25Zm-14.91 13.5V12.6h4.77v23.85h.6V59.4h-5.37Zm14.25-18.39c2.14 0 3.91-.54 5.31-1.62 1.4-1.08 2.45-2.54 3.15-4.38.7-1.86 1.05-3.94 1.05-6.24 0-2.28-.35-4.34-1.05-6.18-.68-1.84-1.74-3.3-3.18-4.38-1.42-1.08-3.23-1.62-5.43-1.62-2.1 0-3.84.52-5.22 1.56-1.38 1.02-2.41 2.45-3.09 4.29-.68 1.82-1.02 3.93-1.02 6.33 0 2.36.33 4.47.99 6.33.68 1.84 1.72 3.29 3.12 4.35 1.4 1.04 3.19 1.56 5.37 1.56Zm23.284 18.39 6.27-17.04.09 5.04-14.16-34.8h5.61l11.1 27.99h-1.92l10.41-27.99h5.43l-17.64 46.8h-5.19Zm101.296-13.5c-3.18 0-5.96-.7-8.34-2.1-2.36-1.42-4.2-3.39-5.52-5.91-1.32-2.54-1.98-5.5-1.98-8.88 0-3.54.65-6.6 1.95-9.18 1.3-2.6 3.11-4.6 5.43-6 2.34-1.42 5.08-2.13 8.22-2.13 3.26 0 6.03.75 8.31 2.25 2.3 1.5 4.02 3.64 5.16 6.42 1.16 2.78 1.66 6.09 1.5 9.93h-5.4v-1.92c-.06-3.98-.87-6.95-2.43-8.91-1.56-1.98-3.88-2.97-6.96-2.97-3.3 0-5.81 1.06-7.53 3.18-1.72 2.12-2.58 5.16-2.58 9.12 0 3.82.86 6.78 2.58 8.88 1.72 2.1 4.17 3.15 7.35 3.15 2.14 0 4-.49 5.58-1.47s2.82-2.39 3.72-4.23l5.13 1.77c-1.26 2.86-3.16 5.08-5.7 6.66-2.52 1.56-5.35 2.34-8.49 2.34Zm-11.97-15.6v-4.29h23.94v4.29h-23.94ZM592.48 45V12.6h5.34v13.65h17.04V12.6h5.34V45h-5.34V31.32h-17.04V45h-5.34Zm42.904 0V17.46h-11.28V12.6h27.9v4.86h-11.28V45h-5.34ZM.116 112.2v-11.61c1.82 0 3.12-.59 3.9-1.77.78-1.2 1.41-3.17 1.89-5.91.32-1.72.58-3.56.78-5.52.2-1.96.37-4.14.51-6.54.16-2.42.31-5.17.45-8.25h22.32v27.99h3.15v11.61h-5.1V105h-22.8v7.2h-5.1Zm8.22-11.61h16.29V77.01h-12.15c-.06 1.42-.14 2.91-.24 4.47-.1 1.54-.22 3.08-.36 4.62-.12 1.54-.27 3-.45 4.38-.16 1.36-.35 2.58-.57 3.66-.26 1.5-.56 2.77-.9 3.81-.34 1.04-.88 1.92-1.62 2.64Zm26 4.41v-4.59c1.2.22 2.11.18 2.73-.12.64-.32 1.11-.87 1.41-1.65.32-.8.58-1.8.78-3 .34-1.9.63-4.02.87-6.36.26-2.34.49-4.9.69-7.68.22-2.8.42-5.8.6-9h22.65V105h-5.34V77.67h-12.45c-.12 1.84-.27 3.73-.45 5.67-.16 1.94-.33 3.83-.51 5.67-.18 1.82-.38 3.52-.6 5.1-.2 1.56-.42 2.91-.66 4.05-.38 1.96-.91 3.53-1.59 4.71-.68 1.16-1.66 1.91-2.94 2.25-1.28.36-3.01.32-5.19-.12Zm56.367 0V93.27h-6.99c-.82 0-1.73-.03-2.73-.09-.98-.08-1.9-.19-2.76-.33-2.34-.44-4.32-1.47-5.94-3.09-1.6-1.62-2.4-3.86-2.4-6.72 0-2.78.75-5.01 2.25-6.69 1.52-1.7 3.39-2.8 5.61-3.3 1-.24 2.01-.37 3.03-.39 1.04-.04 1.92-.06 2.64-.06h12.63l.03 32.4h-5.37Zm-21.81 0 8.61-13.2h5.76l-8.61 13.2h-5.76Zm14.43-16.14h7.38V77.01h-7.38c-.46 0-1.07.02-1.83.06-.74.04-1.45.16-2.13.36-.64.18-1.27.51-1.89.99-.6.48-1.1 1.1-1.5 1.86-.4.76-.6 1.66-.6 2.7 0 1.5.42 2.72 1.26 3.66a6.24 6.24 0 0 0 3.06 1.86c.66.16 1.31.26 1.95.3.66.04 1.22.06 1.68.06Z"/>
  <g clip-path="url(#a)" data-figma-skip-parse="true">
    <g fill="url(#b)" shape-rendering="crispEdges" transform="matrix(-1.0874 .0976 2.5009 -.6226 879.396 23.669)">
      <path d="M0 0h938.618v162.04H0zM0 0h938.618v-162.04H0zM0 0h-938.618v162.04H0zM0 0h-938.618v-162.04H0z"/>
    </g>
  </g>
  <use xlink:href="#reuse-0" data-figma-gradient-fill="{&quot;type&quot;:&quot;GRADIENT_DIAMOND&quot;,&quot;stops&quot;:[{&quot;color&quot;:{&quot;r&quot;:0.83529412746429443,&quot;g&quot;:0.45098039507865906,&quot;b&quot;:0.51764708757400513,&quot;a&quot;:1.0},&quot;position&quot;:0.0},{&quot;color&quot;:{&quot;r&quot;:0.62175929546356201,&quot;g&quot;:0.33419528603553772,&quot;b&quot;:0.38212329149246216,&quot;a&quot;:1.0},&quot;position&quot;:9.9999997473787516e-05},{&quot;color&quot;:{&quot;r&quot;:0.28235295414924622,&quot;g&quot;:0.50588238239288330,&quot;b&quot;:0.85098040103912354,&quot;a&quot;:1.0},&quot;position&quot;:1.0}],&quot;stopsVar&quot;:[],&quot;transform&quot;:{&quot;m00&quot;:-2174.717285156250,&quot;m01&quot;:5001.732910156250,&quot;m02&quot;:-534.11193847656250,&quot;m10&quot;:195.22300720214844,&quot;m11&quot;:-1245.1129150390625,&quot;m12&quot;:548.61370849609375},&quot;opacity&quot;:1.0,&quot;blendMode&quot;:&quot;NORMAL&quot;,&quot;visible&quot;:true}"/>
  <path fill="#FDFDFD" fill-rule="evenodd" d="M519.492 12.02c-7.114-.479-11.275 7.55-12.923 13.031l-1.308-12.466H496l3.388 32.301h7.228v.001h3.389c.122-.556.257-1.189.405-1.882 1.635-7.642 4.836-22.608 9.082-22.4 1.595.077 2.598 1.354 2.711 3.726v20.556h7.567v-.02h4.067c.085-.394.181-.849.288-1.353 1.453-6.88 4.885-23.12 9.199-22.91 1.596.078 2.598 1.355 2.711 3.727V45h8.019c.113-4.555.271-14.976 0-19.313l-.013-.213c-.336-5.404-.795-12.785-10.717-13.454-8.041-.542-12.31 9.789-13.44 15.022l-.027.703a64.033 64.033 0 0 0-.087-2.058c-.018-.28-.034-.565-.05-.855-.304-5.329-.695-12.169-10.228-12.812Z" clip-rule="evenodd"/>
  <defs>
    <linearGradient id="b" x1="0" x2="500" y1="0" y2="500" gradientUnits="userSpaceOnUse">
      <stop stop-color="#D57384"/>
      <stop offset="0" stop-color="#9F5561"/>
      <stop offset="1" stop-color="#4881D9"/>
    </linearGradient>
    <clipPath id="a">
      <use xlink:href="#reuse-0"/>
    </clipPath>
  </defs>
</svg>
