<svg width="844" height="209" viewBox="0 0 844 209" fill="none" xmlns="http://www.w3.org/2000/svg">
<path fill-rule="evenodd" clip-rule="evenodd" d="M121.671 94.6081C125.727 75.8167 141.058 38.7207 169.934 40.6675C205.561 43.0693 207.209 69.5723 208.416 88.979C208.431 89.2343 208.447 89.4884 208.463 89.7412C209.436 105.315 208.869 142.736 208.463 159.093H179.668V84.8744C179.262 76.3574 175.663 71.7701 169.934 71.4906C154.442 70.7349 142.119 129.053 136.899 153.756C136.516 155.569 136.171 157.2 135.866 158.614H121.267C121.266 158.639 121.266 158.663 121.265 158.688H94.0919V84.8744C93.6863 76.3574 90.0871 71.7701 84.3583 71.4906C69.1128 70.7469 57.6175 124.488 51.7476 151.93L51.7475 151.93C51.2151 154.419 50.729 156.692 50.2905 158.688L45.4237 158.688H12.1671L0 42.6953H33.2566L37.9525 87.463C43.8681 67.7785 58.8126 38.9453 84.3583 40.6675C118.592 42.9754 119.993 67.5367 121.084 86.6719V86.672C121.144 87.7126 121.202 88.7372 121.265 89.7412C121.396 91.8317 121.499 94.3086 121.578 97.07L121.671 94.6081Z" fill="#2A2A34"/>
<path fill-rule="evenodd" clip-rule="evenodd" d="M121.671 94.6081C125.727 75.8167 141.058 38.7207 169.934 40.6675C205.561 43.0693 207.209 69.5723 208.416 88.979C208.431 89.2343 208.447 89.4884 208.463 89.7412C209.436 105.315 208.869 142.736 208.463 159.093H179.668V84.8744C179.262 76.3574 175.663 71.7701 169.934 71.4906C154.442 70.7349 142.119 129.053 136.899 153.756C136.516 155.569 136.171 157.2 135.866 158.614H121.267C121.266 158.639 121.266 158.663 121.265 158.688H94.0919V84.8744C93.6863 76.3574 90.0871 71.7701 84.3583 71.4906C69.1128 70.7469 57.6175 124.488 51.7476 151.93L51.7475 151.93C51.2151 154.419 50.729 156.692 50.2905 158.688L45.4237 158.688H12.1671L0 42.6953H33.2566L37.9525 87.463C43.8681 67.7785 58.8126 38.9453 84.3583 40.6675C118.592 42.9754 119.993 67.5367 121.084 86.6719V86.672C121.144 87.7126 121.202 88.7372 121.265 89.7412C121.396 91.8317 121.499 94.3086 121.578 97.07L121.671 94.6081Z" fill="black" fill-opacity="0.2"/>
<path fill-rule="evenodd" clip-rule="evenodd" d="M121.671 94.6081C125.727 75.8167 141.058 38.7207 169.934 40.6675C205.561 43.0693 207.209 69.5723 208.416 88.979C208.431 89.2343 208.447 89.4884 208.463 89.7412C209.436 105.315 208.869 142.736 208.463 159.093H179.668V84.8744C179.262 76.3574 175.663 71.7701 169.934 71.4906C154.442 70.7349 142.119 129.053 136.899 153.756C136.516 155.569 136.171 157.2 135.866 158.614H121.267C121.266 158.639 121.266 158.663 121.265 158.688H94.0919V84.8744C93.6863 76.3574 90.0871 71.7701 84.3583 71.4906C69.1128 70.7469 57.6175 124.488 51.7476 151.93L51.7475 151.93C51.2151 154.419 50.729 156.692 50.2905 158.688L45.4237 158.688H12.1671L0 42.6953H33.2566L37.9525 87.463C43.8681 67.7785 58.8126 38.9453 84.3583 40.6675C118.592 42.9754 119.993 67.5367 121.084 86.6719V86.672C121.144 87.7126 121.202 88.7372 121.265 89.7412C121.396 91.8317 121.499 94.3086 121.578 97.07L121.671 94.6081Z" fill="black" fill-opacity="0.2"/>
<path d="M308.564 85.2247C308.564 78.5949 306.636 73.4299 302.782 69.7295C299.082 66.0292 294.148 64.179 287.981 64.179C282.276 64.179 277.265 65.6437 272.948 68.5732C268.631 71.5026 265.47 76.3593 263.466 83.1432L236.407 74.8175C239.028 64.6416 244.733 56.47 253.521 50.3028C262.464 44.1356 274.413 41.052 289.368 41.052C299.544 41.052 308.409 42.6709 315.964 45.9086C323.519 48.9923 329.378 53.6948 333.541 60.0162C337.858 66.3376 340.016 74.2778 340.016 83.837V130.785C340.016 136.644 342.792 139.573 348.342 139.573C350.963 139.573 353.43 139.188 355.743 138.417L353.893 158.075C349.884 160.079 344.873 161.081 338.86 161.081C333.464 161.081 328.607 160.156 324.29 158.306C319.973 156.456 316.581 153.681 314.114 149.98C311.647 146.126 310.414 141.346 310.414 135.642V134.717L315.964 133.791C315.039 139.65 312.495 144.661 308.332 148.824C304.169 152.833 299.082 155.916 293.068 158.075C287.21 160.233 281.12 161.313 274.798 161.313C266.935 161.313 260.151 160.156 254.446 157.844C248.742 155.377 244.347 151.831 241.264 147.205C238.18 142.58 236.638 136.875 236.638 130.091C236.638 121.457 239.414 114.442 244.964 109.046C250.515 103.495 258.455 99.7176 268.785 97.7133L312.264 88.925L312.033 108.583L284.28 114.133C279.038 115.213 275.029 116.677 272.254 118.528C269.633 120.224 268.323 123.076 268.323 127.085C268.323 130.939 269.71 133.869 272.485 135.873C275.415 137.877 278.884 138.879 282.893 138.879C286.13 138.879 289.291 138.494 292.375 137.723C295.458 136.952 298.234 135.719 300.7 134.023C303.167 132.327 305.095 130.014 306.482 127.085C307.87 124.155 308.564 120.609 308.564 116.446V85.2247ZM428.655 161.313C416.474 161.313 405.836 158.923 396.739 154.143C387.797 149.364 380.859 142.503 375.925 133.56C370.991 124.618 368.524 113.825 368.524 101.182C368.524 88.5395 370.991 77.7469 375.925 68.8044C380.859 59.862 387.72 53.0009 396.508 48.2214C405.45 43.4418 415.626 41.052 427.036 41.052C438.753 41.052 448.698 43.4418 456.87 48.2214C465.041 52.8468 471.285 59.2453 475.602 67.4168C479.92 75.4342 482.078 84.6079 482.078 94.938C482.078 98.0216 482.001 100.951 481.847 103.726C481.693 106.502 481.461 108.968 481.153 111.127H388.876V89.1563H467.277L452.013 94.7068C452.013 84.9934 449.777 77.5156 445.306 72.2735C440.989 67.0314 434.822 64.4103 426.804 64.4103C420.945 64.4103 415.858 65.7979 411.54 68.5732C407.378 71.3484 404.217 75.5113 402.058 81.0618C399.9 86.4581 398.821 93.3191 398.821 101.645C398.821 109.816 399.977 116.6 402.29 121.997C404.757 127.239 408.149 131.17 412.466 133.791C416.937 136.413 422.256 137.723 428.423 137.723C435.207 137.723 440.681 136.413 444.843 133.791C449.006 131.17 452.244 127.547 454.557 122.922L479.765 132.635C477.298 138.648 473.521 143.813 468.433 148.13C463.499 152.447 457.563 155.762 450.625 158.075C443.841 160.233 436.518 161.313 428.655 161.313ZM547.831 7.98026V121.303C547.831 126.853 549.219 130.939 551.994 133.56C554.923 136.027 558.855 137.261 563.789 137.261C567.643 137.261 571.035 136.721 573.965 135.642C576.894 134.408 579.515 132.789 581.828 130.785L586.916 151.831C583.216 154.76 578.59 157.073 573.04 158.769C567.489 160.465 561.63 161.313 555.463 161.313C547.754 161.313 540.893 160.156 534.88 157.844C529.021 155.531 524.396 151.831 521.004 146.743C517.766 141.655 516.147 134.871 516.147 126.391V16.7686L547.831 7.98026ZM584.834 43.3647V66.9543H494.87V43.3647H584.834ZM606.27 159V43.3647H633.792L635.873 66.0292C638.957 58.0118 643.428 51.8446 649.287 47.5275C655.3 43.2105 662.778 41.052 671.72 41.052C674.341 41.052 676.731 41.2832 678.889 41.7458C681.048 42.2083 682.821 42.825 684.209 43.5959L680.508 70.1921C678.966 69.5753 677.039 69.1128 674.727 68.8044C672.568 68.4961 669.716 68.3419 666.169 68.3419C661.544 68.3419 657.073 69.4983 652.756 71.811C648.439 73.9695 644.893 77.3615 642.117 81.9869C639.342 86.4581 637.954 92.1628 637.954 99.1009V159H606.27ZM812.535 43.3647L765.818 166.169C762.118 176.654 757.955 184.979 753.33 191.147C748.858 197.314 743.616 201.785 737.603 204.56C731.744 207.336 724.729 208.723 716.558 208.723C710.545 208.723 704.994 207.952 699.906 206.41C694.972 205.023 690.655 203.173 686.955 200.86L693.662 177.964C696.591 180.277 699.675 181.896 702.913 182.821C706.15 183.9 709.851 184.44 714.014 184.44C718.331 184.44 722.031 183.515 725.115 181.665C728.352 179.814 731.051 176.114 733.209 170.564L737.141 160.619L724.421 130.554L689.036 43.3647H724.189L746.16 112.746L752.173 135.873L759.343 111.358L780.388 43.3647H812.535Z" fill="#2A2A34"/>
<path d="M308.564 85.2247C308.564 78.5949 306.636 73.4299 302.782 69.7295C299.082 66.0292 294.148 64.179 287.981 64.179C282.276 64.179 277.265 65.6437 272.948 68.5732C268.631 71.5026 265.47 76.3593 263.466 83.1432L236.407 74.8175C239.028 64.6416 244.733 56.47 253.521 50.3028C262.464 44.1356 274.413 41.052 289.368 41.052C299.544 41.052 308.409 42.6709 315.964 45.9086C323.519 48.9923 329.378 53.6948 333.541 60.0162C337.858 66.3376 340.016 74.2778 340.016 83.837V130.785C340.016 136.644 342.792 139.573 348.342 139.573C350.963 139.573 353.43 139.188 355.743 138.417L353.893 158.075C349.884 160.079 344.873 161.081 338.86 161.081C333.464 161.081 328.607 160.156 324.29 158.306C319.973 156.456 316.581 153.681 314.114 149.98C311.647 146.126 310.414 141.346 310.414 135.642V134.717L315.964 133.791C315.039 139.65 312.495 144.661 308.332 148.824C304.169 152.833 299.082 155.916 293.068 158.075C287.21 160.233 281.12 161.313 274.798 161.313C266.935 161.313 260.151 160.156 254.446 157.844C248.742 155.377 244.347 151.831 241.264 147.205C238.18 142.58 236.638 136.875 236.638 130.091C236.638 121.457 239.414 114.442 244.964 109.046C250.515 103.495 258.455 99.7176 268.785 97.7133L312.264 88.925L312.033 108.583L284.28 114.133C279.038 115.213 275.029 116.677 272.254 118.528C269.633 120.224 268.323 123.076 268.323 127.085C268.323 130.939 269.71 133.869 272.485 135.873C275.415 137.877 278.884 138.879 282.893 138.879C286.13 138.879 289.291 138.494 292.375 137.723C295.458 136.952 298.234 135.719 300.7 134.023C303.167 132.327 305.095 130.014 306.482 127.085C307.87 124.155 308.564 120.609 308.564 116.446V85.2247ZM428.655 161.313C416.474 161.313 405.836 158.923 396.739 154.143C387.797 149.364 380.859 142.503 375.925 133.56C370.991 124.618 368.524 113.825 368.524 101.182C368.524 88.5395 370.991 77.7469 375.925 68.8044C380.859 59.862 387.72 53.0009 396.508 48.2214C405.45 43.4418 415.626 41.052 427.036 41.052C438.753 41.052 448.698 43.4418 456.87 48.2214C465.041 52.8468 471.285 59.2453 475.602 67.4168C479.92 75.4342 482.078 84.6079 482.078 94.938C482.078 98.0216 482.001 100.951 481.847 103.726C481.693 106.502 481.461 108.968 481.153 111.127H388.876V89.1563H467.277L452.013 94.7068C452.013 84.9934 449.777 77.5156 445.306 72.2735C440.989 67.0314 434.822 64.4103 426.804 64.4103C420.945 64.4103 415.858 65.7979 411.54 68.5732C407.378 71.3484 404.217 75.5113 402.058 81.0618C399.9 86.4581 398.821 93.3191 398.821 101.645C398.821 109.816 399.977 116.6 402.29 121.997C404.757 127.239 408.149 131.17 412.466 133.791C416.937 136.413 422.256 137.723 428.423 137.723C435.207 137.723 440.681 136.413 444.843 133.791C449.006 131.17 452.244 127.547 454.557 122.922L479.765 132.635C477.298 138.648 473.521 143.813 468.433 148.13C463.499 152.447 457.563 155.762 450.625 158.075C443.841 160.233 436.518 161.313 428.655 161.313ZM547.831 7.98026V121.303C547.831 126.853 549.219 130.939 551.994 133.56C554.923 136.027 558.855 137.261 563.789 137.261C567.643 137.261 571.035 136.721 573.965 135.642C576.894 134.408 579.515 132.789 581.828 130.785L586.916 151.831C583.216 154.76 578.59 157.073 573.04 158.769C567.489 160.465 561.63 161.313 555.463 161.313C547.754 161.313 540.893 160.156 534.88 157.844C529.021 155.531 524.396 151.831 521.004 146.743C517.766 141.655 516.147 134.871 516.147 126.391V16.7686L547.831 7.98026ZM584.834 43.3647V66.9543H494.87V43.3647H584.834ZM606.27 159V43.3647H633.792L635.873 66.0292C638.957 58.0118 643.428 51.8446 649.287 47.5275C655.3 43.2105 662.778 41.052 671.72 41.052C674.341 41.052 676.731 41.2832 678.889 41.7458C681.048 42.2083 682.821 42.825 684.209 43.5959L680.508 70.1921C678.966 69.5753 677.039 69.1128 674.727 68.8044C672.568 68.4961 669.716 68.3419 666.169 68.3419C661.544 68.3419 657.073 69.4983 652.756 71.811C648.439 73.9695 644.893 77.3615 642.117 81.9869C639.342 86.4581 637.954 92.1628 637.954 99.1009V159H606.27ZM812.535 43.3647L765.818 166.169C762.118 176.654 757.955 184.979 753.33 191.147C748.858 197.314 743.616 201.785 737.603 204.56C731.744 207.336 724.729 208.723 716.558 208.723C710.545 208.723 704.994 207.952 699.906 206.41C694.972 205.023 690.655 203.173 686.955 200.86L693.662 177.964C696.591 180.277 699.675 181.896 702.913 182.821C706.15 183.9 709.851 184.44 714.014 184.44C718.331 184.44 722.031 183.515 725.115 181.665C728.352 179.814 731.051 176.114 733.209 170.564L737.141 160.619L724.421 130.554L689.036 43.3647H724.189L746.16 112.746L752.173 135.873L759.343 111.358L780.388 43.3647H812.535Z" fill="black" fill-opacity="0.2"/>
<path d="M308.564 85.2247C308.564 78.5949 306.636 73.4299 302.782 69.7295C299.082 66.0292 294.148 64.179 287.981 64.179C282.276 64.179 277.265 65.6437 272.948 68.5732C268.631 71.5026 265.47 76.3593 263.466 83.1432L236.407 74.8175C239.028 64.6416 244.733 56.47 253.521 50.3028C262.464 44.1356 274.413 41.052 289.368 41.052C299.544 41.052 308.409 42.6709 315.964 45.9086C323.519 48.9923 329.378 53.6948 333.541 60.0162C337.858 66.3376 340.016 74.2778 340.016 83.837V130.785C340.016 136.644 342.792 139.573 348.342 139.573C350.963 139.573 353.43 139.188 355.743 138.417L353.893 158.075C349.884 160.079 344.873 161.081 338.86 161.081C333.464 161.081 328.607 160.156 324.29 158.306C319.973 156.456 316.581 153.681 314.114 149.98C311.647 146.126 310.414 141.346 310.414 135.642V134.717L315.964 133.791C315.039 139.65 312.495 144.661 308.332 148.824C304.169 152.833 299.082 155.916 293.068 158.075C287.21 160.233 281.12 161.313 274.798 161.313C266.935 161.313 260.151 160.156 254.446 157.844C248.742 155.377 244.347 151.831 241.264 147.205C238.18 142.58 236.638 136.875 236.638 130.091C236.638 121.457 239.414 114.442 244.964 109.046C250.515 103.495 258.455 99.7176 268.785 97.7133L312.264 88.925L312.033 108.583L284.28 114.133C279.038 115.213 275.029 116.677 272.254 118.528C269.633 120.224 268.323 123.076 268.323 127.085C268.323 130.939 269.71 133.869 272.485 135.873C275.415 137.877 278.884 138.879 282.893 138.879C286.13 138.879 289.291 138.494 292.375 137.723C295.458 136.952 298.234 135.719 300.7 134.023C303.167 132.327 305.095 130.014 306.482 127.085C307.87 124.155 308.564 120.609 308.564 116.446V85.2247ZM428.655 161.313C416.474 161.313 405.836 158.923 396.739 154.143C387.797 149.364 380.859 142.503 375.925 133.56C370.991 124.618 368.524 113.825 368.524 101.182C368.524 88.5395 370.991 77.7469 375.925 68.8044C380.859 59.862 387.72 53.0009 396.508 48.2214C405.45 43.4418 415.626 41.052 427.036 41.052C438.753 41.052 448.698 43.4418 456.87 48.2214C465.041 52.8468 471.285 59.2453 475.602 67.4168C479.92 75.4342 482.078 84.6079 482.078 94.938C482.078 98.0216 482.001 100.951 481.847 103.726C481.693 106.502 481.461 108.968 481.153 111.127H388.876V89.1563H467.277L452.013 94.7068C452.013 84.9934 449.777 77.5156 445.306 72.2735C440.989 67.0314 434.822 64.4103 426.804 64.4103C420.945 64.4103 415.858 65.7979 411.54 68.5732C407.378 71.3484 404.217 75.5113 402.058 81.0618C399.9 86.4581 398.821 93.3191 398.821 101.645C398.821 109.816 399.977 116.6 402.29 121.997C404.757 127.239 408.149 131.17 412.466 133.791C416.937 136.413 422.256 137.723 428.423 137.723C435.207 137.723 440.681 136.413 444.843 133.791C449.006 131.17 452.244 127.547 454.557 122.922L479.765 132.635C477.298 138.648 473.521 143.813 468.433 148.13C463.499 152.447 457.563 155.762 450.625 158.075C443.841 160.233 436.518 161.313 428.655 161.313ZM547.831 7.98026V121.303C547.831 126.853 549.219 130.939 551.994 133.56C554.923 136.027 558.855 137.261 563.789 137.261C567.643 137.261 571.035 136.721 573.965 135.642C576.894 134.408 579.515 132.789 581.828 130.785L586.916 151.831C583.216 154.76 578.59 157.073 573.04 158.769C567.489 160.465 561.63 161.313 555.463 161.313C547.754 161.313 540.893 160.156 534.88 157.844C529.021 155.531 524.396 151.831 521.004 146.743C517.766 141.655 516.147 134.871 516.147 126.391V16.7686L547.831 7.98026ZM584.834 43.3647V66.9543H494.87V43.3647H584.834ZM606.27 159V43.3647H633.792L635.873 66.0292C638.957 58.0118 643.428 51.8446 649.287 47.5275C655.3 43.2105 662.778 41.052 671.72 41.052C674.341 41.052 676.731 41.2832 678.889 41.7458C681.048 42.2083 682.821 42.825 684.209 43.5959L680.508 70.1921C678.966 69.5753 677.039 69.1128 674.727 68.8044C672.568 68.4961 669.716 68.3419 666.169 68.3419C661.544 68.3419 657.073 69.4983 652.756 71.811C648.439 73.9695 644.893 77.3615 642.117 81.9869C639.342 86.4581 637.954 92.1628 637.954 99.1009V159H606.27ZM812.535 43.3647L765.818 166.169C762.118 176.654 757.955 184.979 753.33 191.147C748.858 197.314 743.616 201.785 737.603 204.56C731.744 207.336 724.729 208.723 716.558 208.723C710.545 208.723 704.994 207.952 699.906 206.41C694.972 205.023 690.655 203.173 686.955 200.86L693.662 177.964C696.591 180.277 699.675 181.896 702.913 182.821C706.15 183.9 709.851 184.44 714.014 184.44C718.331 184.44 722.031 183.515 725.115 181.665C728.352 179.814 731.051 176.114 733.209 170.564L737.141 160.619L724.421 130.554L689.036 43.3647H724.189L746.16 112.746L752.173 135.873L759.343 111.358L780.388 43.3647H812.535Z" fill="black" fill-opacity="0.2"/>
</svg>
