<svg width="281" height="153" viewBox="0 0 281 153" fill="none" xmlns="http://www.w3.org/2000/svg">
<rect y="103.655" width="174.742" height="30" rx="10" transform="rotate(-1.19873 0 103.655)" fill="url(#paint0_linear_18695_21048)"/>
<path d="M40.4162 22V8.5H46.1662C46.5079 8.5 46.8745 8.52083 47.2662 8.5625C47.6662 8.59583 48.0287 8.65833 48.3537 8.75C49.0787 8.94167 49.6745 9.3375 50.1412 9.9375C50.6162 10.5292 50.8537 11.2792 50.8537 12.1875C50.8537 12.6958 50.7745 13.1375 50.6162 13.5125C50.4662 13.8875 50.2495 14.2125 49.9662 14.4875C49.8412 14.6125 49.7037 14.725 49.5537 14.825C49.4037 14.925 49.2537 15.0042 49.1037 15.0625C49.3954 15.1125 49.6912 15.225 49.9912 15.4C50.4662 15.6583 50.837 16.0208 51.1037 16.4875C51.3787 16.9542 51.5162 17.55 51.5162 18.275C51.5162 19.1917 51.2954 19.95 50.8537 20.55C50.412 21.1417 49.8037 21.55 49.0287 21.775C48.7037 21.8667 48.3454 21.9292 47.9537 21.9625C47.562 21.9875 47.1829 22 46.8162 22H40.4162ZM42.6662 20.1875H46.6912C46.8662 20.1875 47.0745 20.1708 47.3162 20.1375C47.5662 20.1042 47.787 20.0625 47.9787 20.0125C48.412 19.8875 48.7245 19.6542 48.9162 19.3125C49.1162 18.9708 49.2162 18.6 49.2162 18.2C49.2162 17.6667 49.0662 17.2333 48.7662 16.9C48.4745 16.5667 48.087 16.3583 47.6037 16.275C47.4287 16.225 47.237 16.1958 47.0287 16.1875C46.8287 16.1792 46.6495 16.175 46.4912 16.175H42.6662V20.1875ZM42.6662 14.3375H46.0162C46.2495 14.3375 46.4954 14.325 46.7537 14.3C47.012 14.2667 47.237 14.2125 47.4287 14.1375C47.812 13.9958 48.0912 13.7625 48.2662 13.4375C48.4495 13.1042 48.5412 12.7417 48.5412 12.35C48.5412 11.9167 48.4412 11.5375 48.2412 11.2125C48.0495 10.8792 47.7537 10.65 47.3537 10.525C47.087 10.425 46.787 10.3708 46.4537 10.3625C46.1287 10.3458 45.9204 10.3375 45.8287 10.3375H42.6662V14.3375ZM53.5273 22L53.5148 8.5H55.7523V13.3875H57.8148C58.2065 13.3875 58.6065 13.3958 59.0148 13.4125C59.4232 13.4292 59.7773 13.4667 60.0773 13.525C60.7773 13.6667 61.3898 13.9042 61.9148 14.2375C62.4398 14.5708 62.8482 15.0208 63.1398 15.5875C63.4315 16.1542 63.5773 16.8583 63.5773 17.7C63.5773 18.8667 63.2732 19.7917 62.6648 20.475C62.0648 21.15 61.2773 21.6 60.3023 21.825C59.969 21.9 59.5857 21.95 59.1523 21.975C58.7273 21.9917 58.3232 22 57.9398 22H53.5273ZM55.7523 20.1625H57.9773C58.2273 20.1625 58.5065 20.1542 58.8148 20.1375C59.1232 20.1208 59.3982 20.0792 59.6398 20.0125C60.0648 19.8875 60.444 19.6417 60.7773 19.275C61.119 18.9083 61.2898 18.3833 61.2898 17.7C61.2898 17.0083 61.1232 16.475 60.7898 16.1C60.4648 15.725 60.0357 15.4792 59.5023 15.3625C59.2607 15.3042 59.0065 15.2667 58.7398 15.25C58.4732 15.2333 58.219 15.225 57.9773 15.225H55.7523V20.1625ZM65.1273 22V8.5H67.3523V22H65.1273ZM74.8537 22V8.5H77.0787V14.1875H84.1787V8.5H86.4037V22H84.1787V16.3H77.0787V22H74.8537ZM95.2553 22.375C93.9303 22.375 92.7719 22.0833 91.7803 21.5C90.7969 20.9083 90.0303 20.0875 89.4803 19.0375C88.9303 17.9792 88.6553 16.7458 88.6553 15.3375C88.6553 13.8625 88.9261 12.5875 89.4678 11.5125C90.0094 10.4292 90.7636 9.59583 91.7303 9.0125C92.7053 8.42083 93.8469 8.125 95.1553 8.125C96.5136 8.125 97.6678 8.4375 98.6178 9.0625C99.5761 9.6875 100.293 10.5792 100.768 11.7375C101.251 12.8958 101.459 14.275 101.393 15.875H99.1428V15.075C99.1178 13.4167 98.7803 12.1792 98.1303 11.3625C97.4803 10.5375 96.5136 10.125 95.2303 10.125C93.8553 10.125 92.8094 10.5667 92.0928 11.45C91.3761 12.3333 91.0178 13.6 91.0178 15.25C91.0178 16.8417 91.3761 18.075 92.0928 18.95C92.8094 19.825 93.8303 20.2625 95.1553 20.2625C96.0469 20.2625 96.8219 20.0583 97.4803 19.65C98.1386 19.2417 98.6553 18.6542 99.0303 17.8875L101.168 18.625C100.643 19.8167 99.8511 20.7417 98.7928 21.4C97.7428 22.05 96.5636 22.375 95.2553 22.375ZM90.2678 15.875V14.0875H100.243V15.875H90.2678ZM113.931 22.375C112.589 22.375 111.431 22.0708 110.456 21.4625C109.489 20.8542 108.743 20.0125 108.218 18.9375C107.693 17.8625 107.431 16.6292 107.431 15.2375C107.431 13.8208 107.697 12.5792 108.231 11.5125C108.764 10.4458 109.518 9.61667 110.493 9.025C111.468 8.425 112.614 8.125 113.931 8.125C115.281 8.125 116.443 8.42917 117.418 9.0375C118.393 9.6375 119.139 10.475 119.656 11.55C120.181 12.6167 120.443 13.8458 120.443 15.2375C120.443 16.6458 120.181 17.8875 119.656 18.9625C119.131 20.0292 118.381 20.8667 117.406 21.475C116.431 22.075 115.272 22.375 113.931 22.375ZM113.931 20.2625C115.331 20.2625 116.372 19.7958 117.056 18.8625C117.739 17.9292 118.081 16.7208 118.081 15.2375C118.081 13.7125 117.735 12.5 117.043 11.6C116.351 10.6917 115.314 10.2375 113.931 10.2375C112.989 10.2375 112.214 10.45 111.606 10.875C110.997 11.3 110.543 11.8875 110.243 12.6375C109.943 13.3875 109.793 14.2542 109.793 15.2375C109.793 16.7542 110.143 17.9708 110.843 18.8875C111.543 19.8042 112.572 20.2625 113.931 20.2625ZM128.383 22.375C127.016 22.375 125.854 22.0708 124.895 21.4625C123.945 20.8458 123.22 20 122.72 18.925C122.22 17.85 121.962 16.625 121.945 15.25C121.962 13.8417 122.224 12.6042 122.733 11.5375C123.249 10.4625 123.987 9.625 124.945 9.025C125.904 8.425 127.058 8.125 128.408 8.125C129.833 8.125 131.058 8.475 132.083 9.175C133.116 9.875 133.808 10.8333 134.158 12.05L131.958 12.7125C131.674 11.9292 131.212 11.3208 130.57 10.8875C129.937 10.4542 129.208 10.2375 128.383 10.2375C127.458 10.2375 126.695 10.4542 126.095 10.8875C125.495 11.3125 125.049 11.9042 124.758 12.6625C124.466 13.4125 124.316 14.275 124.308 15.25C124.324 16.75 124.67 17.9625 125.345 18.8875C126.029 19.8042 127.041 20.2625 128.383 20.2625C129.266 20.2625 129.999 20.0625 130.583 19.6625C131.166 19.2542 131.608 18.6667 131.908 17.9L134.158 18.4875C133.691 19.7458 132.962 20.7083 131.97 21.375C130.979 22.0417 129.783 22.375 128.383 22.375ZM139.54 22V10.525H134.84V8.5H146.465V10.525H141.765V22H139.54ZM151.729 22.375C150.721 22.375 149.875 22.1917 149.192 21.825C148.517 21.45 148.004 20.9583 147.654 20.35C147.312 19.7417 147.142 19.075 147.142 18.35C147.142 17.6417 147.275 17.0292 147.542 16.5125C147.817 15.9875 148.2 15.5542 148.692 15.2125C149.183 14.8625 149.771 14.5875 150.454 14.3875C151.096 14.2125 151.812 14.0625 152.604 13.9375C153.404 13.8042 154.212 13.6833 155.029 13.575C155.846 13.4667 156.608 13.3625 157.317 13.2625L156.517 13.725C156.542 12.525 156.3 11.6375 155.792 11.0625C155.292 10.4875 154.425 10.2 153.192 10.2C152.375 10.2 151.658 10.3875 151.042 10.7625C150.433 11.1292 150.004 11.7292 149.754 12.5625L147.642 11.925C147.967 10.7417 148.596 9.8125 149.529 9.1375C150.462 8.4625 151.692 8.125 153.217 8.125C154.442 8.125 155.492 8.34583 156.367 8.7875C157.25 9.22083 157.883 9.87917 158.267 10.7625C158.458 11.1792 158.579 11.6333 158.629 12.125C158.679 12.6083 158.704 13.1167 158.704 13.65V22H156.729V18.7625L157.192 19.0625C156.683 20.1542 155.971 20.9792 155.054 21.5375C154.146 22.0958 153.037 22.375 151.729 22.375ZM152.067 20.5125C152.867 20.5125 153.558 20.3708 154.142 20.0875C154.733 19.7958 155.208 19.4167 155.567 18.95C155.925 18.475 156.158 17.9583 156.267 17.4C156.392 16.9833 156.458 16.5208 156.467 16.0125C156.483 15.4958 156.492 15.1 156.492 14.825L157.267 15.1625C156.542 15.2625 155.829 15.3583 155.129 15.45C154.429 15.5417 153.767 15.6417 153.142 15.75C152.517 15.85 151.954 15.9708 151.454 16.1125C151.087 16.2292 150.742 16.3792 150.417 16.5625C150.1 16.7458 149.842 16.9833 149.642 17.275C149.45 17.5583 149.354 17.9125 149.354 18.3375C149.354 18.7042 149.446 19.0542 149.629 19.3875C149.821 19.7208 150.112 19.9917 150.504 20.2C150.904 20.4083 151.425 20.5125 152.067 20.5125ZM161.442 22V8.5H163.667V14.1875H170.767V8.5H172.992V22H170.767V16.3H163.667V22H161.442ZM181.843 22.375C180.518 22.375 179.36 22.0833 178.368 21.5C177.385 20.9083 176.618 20.0875 176.068 19.0375C175.518 17.9792 175.243 16.7458 175.243 15.3375C175.243 13.8625 175.514 12.5875 176.056 11.5125C176.597 10.4292 177.351 9.59583 178.318 9.0125C179.293 8.42083 180.435 8.125 181.743 8.125C183.101 8.125 184.256 8.4375 185.206 9.0625C186.164 9.6875 186.881 10.5792 187.356 11.7375C187.839 12.8958 188.047 14.275 187.981 15.875H185.731V15.075C185.706 13.4167 185.368 12.1792 184.718 11.3625C184.068 10.5375 183.101 10.125 181.818 10.125C180.443 10.125 179.397 10.5667 178.681 11.45C177.964 12.3333 177.606 13.6 177.606 15.25C177.606 16.8417 177.964 18.075 178.681 18.95C179.397 19.825 180.418 20.2625 181.743 20.2625C182.635 20.2625 183.41 20.0583 184.068 19.65C184.726 19.2417 185.243 18.6542 185.618 17.8875L187.756 18.625C187.231 19.8167 186.439 20.7417 185.381 21.4C184.331 22.05 183.151 22.375 181.843 22.375ZM176.856 15.875V14.0875H186.831V15.875H176.856ZM193.595 22V10.525H188.895V8.5H200.52V10.525H195.82V22H193.595ZM208.236 22.375C206.911 22.375 205.752 22.0833 204.761 21.5C203.777 20.9083 203.011 20.0875 202.461 19.0375C201.911 17.9792 201.636 16.7458 201.636 15.3375C201.636 13.8625 201.907 12.5875 202.448 11.5125C202.99 10.4292 203.744 9.59583 204.711 9.0125C205.686 8.42083 206.827 8.125 208.136 8.125C209.494 8.125 210.648 8.4375 211.598 9.0625C212.557 9.6875 213.273 10.5792 213.748 11.7375C214.232 12.8958 214.44 14.275 214.373 15.875H212.123V15.075C212.098 13.4167 211.761 12.1792 211.111 11.3625C210.461 10.5375 209.494 10.125 208.211 10.125C206.836 10.125 205.79 10.5667 205.073 11.45C204.357 12.3333 203.998 13.6 203.998 15.25C203.998 16.8417 204.357 18.075 205.073 18.95C205.79 19.825 206.811 20.2625 208.136 20.2625C209.027 20.2625 209.802 20.0583 210.461 19.65C211.119 19.2417 211.636 18.6542 212.011 17.8875L214.148 18.625C213.623 19.8167 212.832 20.7417 211.773 21.4C210.723 22.05 209.544 22.375 208.236 22.375ZM203.248 15.875V14.0875H213.223V15.875H203.248ZM222.344 22.375C220.977 22.375 219.815 22.0708 218.856 21.4625C217.906 20.8458 217.181 20 216.681 18.925C216.181 17.85 215.923 16.625 215.906 15.25C215.923 13.8417 216.185 12.6042 216.694 11.5375C217.21 10.4625 217.948 9.625 218.906 9.025C219.865 8.425 221.019 8.125 222.369 8.125C223.794 8.125 225.019 8.475 226.044 9.175C227.077 9.875 227.769 10.8333 228.119 12.05L225.919 12.7125C225.635 11.9292 225.173 11.3208 224.531 10.8875C223.898 10.4542 223.169 10.2375 222.344 10.2375C221.419 10.2375 220.656 10.4542 220.056 10.8875C219.456 11.3125 219.01 11.9042 218.719 12.6625C218.427 13.4125 218.277 14.275 218.269 15.25C218.285 16.75 218.631 17.9625 219.306 18.8875C219.99 19.8042 221.002 20.2625 222.344 20.2625C223.227 20.2625 223.96 20.0625 224.544 19.6625C225.127 19.2542 225.569 18.6667 225.869 17.9L228.119 18.4875C227.652 19.7458 226.923 20.7083 225.931 21.375C224.94 22.0417 223.744 22.375 222.344 22.375ZM230.17 22L230.157 8.5H232.395V13.3875H235.307C235.699 13.3875 236.099 13.3958 236.507 13.4125C236.916 13.4292 237.27 13.4667 237.57 13.525C238.27 13.6583 238.882 13.8917 239.407 14.225C239.932 14.5583 240.341 15.0125 240.632 15.5875C240.924 16.1542 241.07 16.8583 241.07 17.7C241.07 18.8667 240.766 19.7917 240.157 20.475C239.557 21.15 238.77 21.6 237.795 21.825C237.462 21.9 237.078 21.95 236.645 21.975C236.22 21.9917 235.816 22 235.432 22H230.17ZM232.395 20.1625H235.47C235.72 20.1625 235.999 20.1542 236.307 20.1375C236.616 20.1208 236.891 20.0792 237.132 20.0125C237.557 19.8875 237.937 19.6417 238.27 19.275C238.612 18.9083 238.782 18.3833 238.782 17.7C238.782 17.0083 238.616 16.475 238.282 16.1C237.957 15.725 237.528 15.4792 236.995 15.3625C236.753 15.3042 236.499 15.2667 236.232 15.25C235.966 15.2333 235.712 15.225 235.47 15.225H232.395V20.1625ZM28.9479 47.3875C27.6729 47.3792 26.5854 47.1042 25.6854 46.5625C24.7854 46.0125 24.0854 45.2083 23.5854 44.15C23.0854 43.0917 22.8063 41.7958 22.7479 40.2625C22.7146 39.5542 22.7229 38.775 22.7729 37.925C22.8313 37.075 22.9229 36.2583 23.0479 35.475C23.1813 34.6917 23.3479 34.0458 23.5479 33.5375C23.7729 32.9292 24.0896 32.3667 24.4979 31.85C24.9146 31.325 25.3813 30.8917 25.8979 30.55C26.4229 30.1917 27.0104 29.9125 27.6604 29.7125C28.3104 29.5125 28.9896 29.3583 29.6979 29.25C30.4146 29.1333 31.1313 29.0333 31.8479 28.95C32.5646 28.8583 33.2479 28.75 33.8979 28.625L34.1229 30.625C33.6646 30.725 33.1229 30.8125 32.4979 30.8875C31.8729 30.9542 31.2229 31.0333 30.5479 31.125C29.8813 31.2167 29.2396 31.3458 28.6229 31.5125C28.0146 31.6708 27.4896 31.8917 27.0479 32.175C26.3979 32.5667 25.8979 33.1542 25.5479 33.9375C25.2063 34.7125 24.9979 35.5833 24.9229 36.55C25.4396 35.75 26.1104 35.1625 26.9354 34.7875C27.7604 34.4125 28.6396 34.225 29.5729 34.225C30.7813 34.225 31.8229 34.5083 32.698 35.075C33.5729 35.6333 34.2438 36.4042 34.7105 37.3875C35.1854 38.3708 35.4229 39.4917 35.4229 40.75C35.4229 42.0833 35.1563 43.25 34.6229 44.25C34.0896 45.25 33.3354 46.025 32.3604 46.575C31.3938 47.125 30.2563 47.3958 28.9479 47.3875ZM29.0854 45.275C30.3938 45.275 31.3854 44.8708 32.0605 44.0625C32.7354 43.2458 33.0729 42.1625 33.0729 40.8125C33.0729 39.4292 32.7229 38.3417 32.0229 37.55C31.3229 36.75 30.3396 36.35 29.0729 36.35C27.7896 36.35 26.8063 36.75 26.1229 37.55C25.4479 38.3417 25.1104 39.4292 25.1104 40.8125C25.1104 42.2042 25.4521 43.2958 26.1354 44.0875C26.8188 44.8792 27.8021 45.275 29.0854 45.275ZM43.5321 47.375C42.2071 47.375 41.0488 47.0833 40.0571 46.5C39.0738 45.9083 38.3071 45.0875 37.7571 44.0375C37.2071 42.9792 36.9321 41.7458 36.9321 40.3375C36.9321 38.8625 37.203 37.5875 37.7446 36.5125C38.2863 35.4292 39.0405 34.5958 40.0071 34.0125C40.9821 33.4208 42.1238 33.125 43.4321 33.125C44.7905 33.125 45.9446 33.4375 46.8946 34.0625C47.853 34.6875 48.5696 35.5792 49.0446 36.7375C49.528 37.8958 49.7363 39.275 49.6696 40.875H47.4196V40.075C47.3946 38.4167 47.0571 37.1792 46.4071 36.3625C45.7571 35.5375 44.7905 35.125 43.5071 35.125C42.1321 35.125 41.0863 35.5667 40.3696 36.45C39.653 37.3333 39.2946 38.6 39.2946 40.25C39.2946 41.8417 39.653 43.075 40.3696 43.95C41.0863 44.825 42.1071 45.2625 43.4321 45.2625C44.3238 45.2625 45.0988 45.0583 45.7571 44.65C46.4155 44.2417 46.9321 43.6542 47.3071 42.8875L49.4446 43.625C48.9196 44.8167 48.128 45.7417 47.0696 46.4C46.0196 47.05 44.8405 47.375 43.5321 47.375ZM38.5446 40.875V39.0875H48.5196V40.875H38.5446ZM56.3019 47.375C54.9685 47.375 53.7894 47.0875 52.7644 46.5125C51.7394 45.9292 50.931 45.1292 50.3394 44.1125L52.1144 42.9625C52.606 43.7042 53.1935 44.275 53.8769 44.675C54.5602 45.0667 55.3394 45.2625 56.2144 45.2625C57.131 45.2625 57.8602 45.0542 58.4019 44.6375C58.9435 44.2125 59.2144 43.6417 59.2144 42.925C59.2144 42.3917 59.081 41.9833 58.8144 41.7C58.5477 41.4167 58.1644 41.2208 57.6644 41.1125C57.1644 41.0042 56.5685 40.95 55.8769 40.95H54.4769V39.1125H55.8644C56.7394 39.1125 57.4519 38.9708 58.0019 38.6875C58.5519 38.4042 58.8269 37.9208 58.8269 37.2375C58.8269 36.5375 58.5685 36.0292 58.0519 35.7125C57.5435 35.3875 56.9352 35.225 56.2269 35.225C55.4769 35.225 54.7602 35.3833 54.0769 35.7C53.3935 36.0083 52.806 36.4 52.3144 36.875L50.9644 35.3625C51.6644 34.6458 52.4685 34.0958 53.3769 33.7125C54.2935 33.3208 55.2894 33.125 56.3644 33.125C57.231 33.125 58.0227 33.2792 58.7394 33.5875C59.4644 33.8875 60.0394 34.3333 60.4644 34.925C60.8977 35.5083 61.1144 36.2208 61.1144 37.0625C61.1144 37.7792 60.9477 38.4167 60.6144 38.975C60.281 39.5333 59.7894 40.0208 59.1394 40.4375L59.0519 39.65C59.6019 39.7833 60.056 40.0292 60.4144 40.3875C60.781 40.7375 61.0519 41.1542 61.2269 41.6375C61.4019 42.1208 61.4894 42.625 61.4894 43.15C61.4894 44.0333 61.256 44.7917 60.7894 45.425C60.331 46.05 59.7102 46.5333 58.9269 46.875C58.1435 47.2083 57.2685 47.375 56.3019 47.375ZM68.2253 47V33.5H79.2878V47H77.0628V35.6125H70.4503V47H68.2253ZM88.0386 47.375C86.6969 47.375 85.5386 47.0708 84.5636 46.4625C83.5969 45.8542 82.8511 45.0125 82.3261 43.9375C81.8011 42.8625 81.5386 41.6292 81.5386 40.2375C81.5386 38.8208 81.8052 37.5792 82.3386 36.5125C82.8719 35.4458 83.6261 34.6167 84.6011 34.025C85.5761 33.425 86.7219 33.125 88.0386 33.125C89.3886 33.125 90.5511 33.4292 91.5261 34.0375C92.5011 34.6375 93.2469 35.475 93.7636 36.55C94.2886 37.6167 94.5511 38.8458 94.5511 40.2375C94.5511 41.6458 94.2886 42.8875 93.7636 43.9625C93.2386 45.0292 92.4886 45.8667 91.5136 46.475C90.5386 47.075 89.3802 47.375 88.0386 47.375ZM88.0386 45.2625C89.4386 45.2625 90.4802 44.7958 91.1636 43.8625C91.8469 42.9292 92.1886 41.7208 92.1886 40.2375C92.1886 38.7125 91.8427 37.5 91.1511 36.6C90.4594 35.6917 89.4219 35.2375 88.0386 35.2375C87.0969 35.2375 86.3219 35.45 85.7136 35.875C85.1052 36.3 84.6511 36.8875 84.3511 37.6375C84.0511 38.3875 83.9011 39.2542 83.9011 40.2375C83.9011 41.7542 84.2511 42.9708 84.9511 43.8875C85.6511 44.8042 86.6802 45.2625 88.0386 45.2625ZM96.7907 47V33.5H98.7032L103.828 43.975L108.953 33.5H110.866V47H108.716V38.1375L104.416 47H103.241L98.9407 38.1375V47H96.7907ZM119.607 47.375C118.265 47.375 117.107 47.0708 116.132 46.4625C115.165 45.8542 114.419 45.0125 113.894 43.9375C113.369 42.8625 113.107 41.6292 113.107 40.2375C113.107 38.8208 113.374 37.5792 113.907 36.5125C114.44 35.4458 115.194 34.6167 116.169 34.025C117.144 33.425 118.29 33.125 119.607 33.125C120.957 33.125 122.119 33.4292 123.094 34.0375C124.069 34.6375 124.815 35.475 125.332 36.55C125.857 37.6167 126.119 38.8458 126.119 40.2375C126.119 41.6458 125.857 42.8875 125.332 43.9625C124.807 45.0292 124.057 45.8667 123.082 46.475C122.107 47.075 120.949 47.375 119.607 47.375ZM119.607 45.2625C121.007 45.2625 122.049 44.7958 122.732 43.8625C123.415 42.9292 123.757 41.7208 123.757 40.2375C123.757 38.7125 123.411 37.5 122.719 36.6C122.028 35.6917 120.99 35.2375 119.607 35.2375C118.665 35.2375 117.89 35.45 117.282 35.875C116.674 36.3 116.219 36.8875 115.919 37.6375C115.619 38.3875 115.469 39.2542 115.469 40.2375C115.469 41.7542 115.819 42.9708 116.519 43.8875C117.219 44.8042 118.249 45.2625 119.607 45.2625ZM143.472 49.5V47H128.359V33.5H130.509V44.975H135.159V33.5H137.309V44.975H141.947V33.5H144.097V44.975H145.697V49.5H143.472ZM158.258 33.5V47H156.108V37.05L149.033 47H147.195V33.5H149.345V43.3125L156.433 33.5H158.258ZM165.751 47V33.5H171.501C171.842 33.5 172.209 33.5208 172.601 33.5625C173.001 33.5958 173.363 33.6583 173.688 33.75C174.413 33.9417 175.009 34.3375 175.476 34.9375C175.951 35.5292 176.188 36.2792 176.188 37.1875C176.188 37.6958 176.109 38.1375 175.951 38.5125C175.801 38.8875 175.584 39.2125 175.301 39.4875C175.176 39.6125 175.038 39.725 174.888 39.825C174.738 39.925 174.588 40.0042 174.438 40.0625C174.73 40.1125 175.026 40.225 175.326 40.4C175.801 40.6583 176.172 41.0208 176.438 41.4875C176.713 41.9542 176.851 42.55 176.851 43.275C176.851 44.1917 176.63 44.95 176.188 45.55C175.747 46.1417 175.138 46.55 174.363 46.775C174.038 46.8667 173.68 46.9292 173.288 46.9625C172.897 46.9875 172.517 47 172.151 47H165.751ZM168.001 45.1875H172.026C172.201 45.1875 172.409 45.1708 172.651 45.1375C172.901 45.1042 173.122 45.0625 173.313 45.0125C173.747 44.8875 174.059 44.6542 174.251 44.3125C174.451 43.9708 174.551 43.6 174.551 43.2C174.551 42.6667 174.401 42.2333 174.101 41.9C173.809 41.5667 173.422 41.3583 172.938 41.275C172.763 41.225 172.572 41.1958 172.363 41.1875C172.163 41.1792 171.984 41.175 171.826 41.175H168.001V45.1875ZM168.001 39.3375H171.351C171.584 39.3375 171.83 39.325 172.088 39.3C172.347 39.2667 172.572 39.2125 172.763 39.1375C173.147 38.9958 173.426 38.7625 173.601 38.4375C173.784 38.1042 173.876 37.7417 173.876 37.35C173.876 36.9167 173.776 36.5375 173.576 36.2125C173.384 35.8792 173.088 35.65 172.688 35.525C172.422 35.425 172.122 35.3708 171.788 35.3625C171.463 35.3458 171.255 35.3375 171.163 35.3375H168.001V39.3375ZM182.117 47V45.0875C182.617 45.1792 182.996 45.1625 183.254 45.0375C183.521 44.9042 183.717 44.675 183.842 44.35C183.975 44.0167 184.083 43.6 184.167 43.1C184.308 42.3083 184.429 41.425 184.529 40.45C184.638 39.475 184.733 38.4083 184.817 37.25C184.908 36.0833 184.992 34.8333 185.067 33.5H194.504V47H192.279V35.6125H187.092C187.042 36.3792 186.979 37.1667 186.904 37.975C186.838 38.7833 186.767 39.5708 186.692 40.3375C186.617 41.0958 186.533 41.8042 186.442 42.4625C186.358 43.1125 186.267 43.675 186.167 44.15C186.008 44.9667 185.788 45.6208 185.504 46.1125C185.221 46.5958 184.813 46.9083 184.279 47.05C183.746 47.2 183.025 47.1833 182.117 47ZM208.528 47.375C207.378 47.375 206.361 47.1292 205.478 46.6375C204.603 46.1458 203.898 45.45 203.365 44.55C202.832 43.65 202.498 42.5875 202.365 41.3625H199.728V47H197.503V33.5H199.728V39.1375H202.353C202.486 37.8875 202.823 36.8125 203.365 35.9125C203.907 35.0125 204.619 34.325 205.503 33.85C206.386 33.3667 207.403 33.125 208.553 33.125C209.894 33.125 211.048 33.4292 212.015 34.0375C212.99 34.6458 213.736 35.4833 214.253 36.55C214.778 37.6167 215.04 38.8417 215.04 40.225C215.04 41.6333 214.773 42.875 214.24 43.95C213.715 45.025 212.965 45.8667 211.99 46.475C211.023 47.075 209.869 47.375 208.528 47.375ZM208.49 45.2625C209.907 45.2625 210.957 44.8 211.64 43.875C212.332 42.9417 212.678 41.7292 212.678 40.2375C212.678 38.7042 212.328 37.4875 211.628 36.5875C210.936 35.6875 209.894 35.2375 208.503 35.2375C207.161 35.2375 206.14 35.6833 205.44 36.575C204.74 37.4667 204.39 38.6833 204.39 40.225C204.39 41.75 204.736 42.9708 205.428 43.8875C206.128 44.8042 207.148 45.2625 208.49 45.2625ZM222.766 47.3875C221.491 47.3792 220.404 47.1042 219.504 46.5625C218.604 46.0125 217.904 45.2083 217.404 44.15C216.904 43.0917 216.625 41.7958 216.566 40.2625C216.533 39.5542 216.541 38.775 216.591 37.925C216.65 37.075 216.741 36.2583 216.866 35.475C217 34.6917 217.166 34.0458 217.366 33.5375C217.591 32.9292 217.908 32.3667 218.316 31.85C218.733 31.325 219.2 30.8917 219.716 30.55C220.241 30.1917 220.829 29.9125 221.479 29.7125C222.129 29.5125 222.808 29.3583 223.516 29.25C224.233 29.1333 224.95 29.0333 225.666 28.95C226.383 28.8583 227.066 28.75 227.716 28.625L227.941 30.625C227.483 30.725 226.941 30.8125 226.316 30.8875C225.691 30.9542 225.041 31.0333 224.366 31.125C223.7 31.2167 223.058 31.3458 222.441 31.5125C221.833 31.6708 221.308 31.8917 220.866 32.175C220.216 32.5667 219.716 33.1542 219.366 33.9375C219.025 34.7125 218.816 35.5833 218.741 36.55C219.258 35.75 219.929 35.1625 220.754 34.7875C221.579 34.4125 222.458 34.225 223.391 34.225C224.6 34.225 225.641 34.5083 226.516 35.075C227.391 35.6333 228.062 36.4042 228.529 37.3875C229.004 38.3708 229.241 39.4917 229.241 40.75C229.241 42.0833 228.975 43.25 228.441 44.25C227.908 45.25 227.154 46.025 226.179 46.575C225.212 47.125 224.075 47.3958 222.766 47.3875ZM222.904 45.275C224.212 45.275 225.204 44.8708 225.879 44.0625C226.554 43.2458 226.891 42.1625 226.891 40.8125C226.891 39.4292 226.541 38.3417 225.841 37.55C225.141 36.75 224.158 36.35 222.891 36.35C221.608 36.35 220.625 36.75 219.941 37.55C219.266 38.3417 218.929 39.4292 218.929 40.8125C218.929 42.2042 219.27 43.2958 219.954 44.0875C220.637 44.8792 221.62 45.275 222.904 45.275ZM237.25 47.375C235.909 47.375 234.75 47.0708 233.775 46.4625C232.809 45.8542 232.063 45.0125 231.538 43.9375C231.013 42.8625 230.75 41.6292 230.75 40.2375C230.75 38.8208 231.017 37.5792 231.55 36.5125C232.084 35.4458 232.838 34.6167 233.813 34.025C234.788 33.425 235.934 33.125 237.25 33.125C238.6 33.125 239.763 33.4292 240.738 34.0375C241.713 34.6375 242.459 35.475 242.975 36.55C243.5 37.6167 243.763 38.8458 243.763 40.2375C243.763 41.6458 243.5 42.8875 242.975 43.9625C242.45 45.0292 241.7 45.8667 240.725 46.475C239.75 47.075 238.592 47.375 237.25 47.375ZM237.25 45.2625C238.65 45.2625 239.692 44.7958 240.375 43.8625C241.059 42.9292 241.4 41.7208 241.4 40.2375C241.4 38.7125 241.055 37.5 240.363 36.6C239.671 35.6917 238.634 35.2375 237.25 35.2375C236.309 35.2375 235.534 35.45 234.925 35.875C234.317 36.3 233.863 36.8875 233.563 37.6375C233.263 38.3875 233.113 39.2542 233.113 40.2375C233.113 41.7542 233.463 42.9708 234.163 43.8875C234.863 44.8042 235.892 45.2625 237.25 45.2625ZM251.865 47.375C250.54 47.375 249.382 47.0833 248.39 46.5C247.407 45.9083 246.64 45.0875 246.09 44.0375C245.54 42.9792 245.265 41.7458 245.265 40.3375C245.265 38.8625 245.536 37.5875 246.078 36.5125C246.619 35.4292 247.373 34.5958 248.34 34.0125C249.315 33.4208 250.457 33.125 251.765 33.125C253.123 33.125 254.278 33.4375 255.228 34.0625C256.186 34.6875 256.903 35.5792 257.378 36.7375C257.861 37.8958 258.069 39.275 258.003 40.875H255.753V40.075C255.728 38.4167 255.39 37.1792 254.74 36.3625C254.09 35.5375 253.123 35.125 251.84 35.125C250.465 35.125 249.419 35.5667 248.703 36.45C247.986 37.3333 247.628 38.6 247.628 40.25C247.628 41.8417 247.986 43.075 248.703 43.95C249.419 44.825 250.44 45.2625 251.765 45.2625C252.657 45.2625 253.432 45.0583 254.09 44.65C254.748 44.2417 255.265 43.6542 255.64 42.8875L257.778 43.625C257.253 44.8167 256.461 45.7417 255.403 46.4C254.353 47.05 253.173 47.375 251.865 47.375ZM246.878 40.875V39.0875H256.853V40.875H246.878ZM67.9929 72V58.5H73.7429C74.0845 58.5 74.4512 58.5208 74.8429 58.5625C75.2429 58.5958 75.6054 58.6583 75.9304 58.75C76.6554 58.9417 77.2512 59.3375 77.7179 59.9375C78.1929 60.5292 78.4304 61.2792 78.4304 62.1875C78.4304 62.6958 78.3512 63.1375 78.1929 63.5125C78.0429 63.8875 77.8262 64.2125 77.5429 64.4875C77.4179 64.6125 77.2804 64.725 77.1304 64.825C76.9804 64.925 76.8304 65.0042 76.6804 65.0625C76.972 65.1125 77.2679 65.225 77.5679 65.4C78.0429 65.6583 78.4137 66.0208 78.6804 66.4875C78.9554 66.9542 79.0929 67.55 79.0929 68.275C79.0929 69.1917 78.872 69.95 78.4304 70.55C77.9887 71.1417 77.3804 71.55 76.6054 71.775C76.2804 71.8667 75.922 71.9292 75.5304 71.9625C75.1387 71.9875 74.7595 72 74.3929 72H67.9929ZM70.2429 70.1875H74.2679C74.4429 70.1875 74.6512 70.1708 74.8929 70.1375C75.1429 70.1042 75.3637 70.0625 75.5554 70.0125C75.9887 69.8875 76.3012 69.6542 76.4929 69.3125C76.6929 68.9708 76.7929 68.6 76.7929 68.2C76.7929 67.6667 76.6429 67.2333 76.3429 66.9C76.0512 66.5667 75.6637 66.3583 75.1804 66.275C75.0054 66.225 74.8137 66.1958 74.6054 66.1875C74.4054 66.1792 74.2262 66.175 74.0679 66.175H70.2429V70.1875ZM70.2429 64.3375H73.5929C73.8262 64.3375 74.072 64.325 74.3304 64.3C74.5887 64.2667 74.8137 64.2125 75.0054 64.1375C75.3887 63.9958 75.6679 63.7625 75.8429 63.4375C76.0262 63.1042 76.1179 62.7417 76.1179 62.35C76.1179 61.9167 76.0179 61.5375 75.8179 61.2125C75.6262 60.8792 75.3304 60.65 74.9304 60.525C74.6637 60.425 74.3637 60.3708 74.0304 60.3625C73.7054 60.3458 73.497 60.3375 73.4054 60.3375H70.2429V64.3375ZM87.304 72.375C86.0373 72.375 84.9707 72.0625 84.104 71.4375C83.2373 70.8042 82.579 69.95 82.129 68.875C81.6873 67.7917 81.4665 66.5792 81.4665 65.2375C81.4665 63.8792 81.6873 62.6625 82.129 61.5875C82.579 60.5125 83.2373 59.6667 84.104 59.05C84.979 58.4333 86.0498 58.125 87.3165 58.125C88.5665 58.125 89.6415 58.4375 90.5415 59.0625C91.4498 59.6792 92.1457 60.525 92.629 61.6C93.1123 62.675 93.354 63.8875 93.354 65.2375C93.354 66.5875 93.1123 67.8 92.629 68.875C92.1457 69.95 91.4498 70.8042 90.5415 71.4375C89.6415 72.0625 88.5623 72.375 87.304 72.375ZM81.0915 78V58.5H83.079V68.4375H83.329V78H81.0915ZM87.029 70.3375C87.9207 70.3375 88.6582 70.1125 89.2415 69.6625C89.8248 69.2125 90.2623 68.6042 90.554 67.8375C90.8457 67.0625 90.9915 66.1958 90.9915 65.2375C90.9915 64.2875 90.8457 63.4292 90.554 62.6625C90.2707 61.8958 89.829 61.2875 89.229 60.8375C88.6373 60.3875 87.8832 60.1625 86.9665 60.1625C86.0915 60.1625 85.3665 60.3792 84.7915 60.8125C84.2165 61.2375 83.7873 61.8333 83.504 62.6C83.2207 63.3583 83.079 64.2375 83.079 65.2375C83.079 66.2208 83.2165 67.1 83.4915 67.875C83.7748 68.6417 84.2082 69.2458 84.7915 69.6875C85.3748 70.1208 86.1207 70.3375 87.029 70.3375ZM101.444 72.375C100.119 72.375 98.9609 72.0833 97.9692 71.5C96.9859 70.9083 96.2192 70.0875 95.6692 69.0375C95.1192 67.9792 94.8442 66.7458 94.8442 65.3375C94.8442 63.8625 95.1151 62.5875 95.6567 61.5125C96.1984 60.4292 96.9526 59.5958 97.9192 59.0125C98.8942 58.4208 100.036 58.125 101.344 58.125C102.703 58.125 103.857 58.4375 104.807 59.0625C105.765 59.6875 106.482 60.5792 106.957 61.7375C107.44 62.8958 107.648 64.275 107.582 65.875H105.332V65.075C105.307 63.4167 104.969 62.1792 104.319 61.3625C103.669 60.5375 102.703 60.125 101.419 60.125C100.044 60.125 98.9984 60.5667 98.2817 61.45C97.5651 62.3333 97.2067 63.6 97.2067 65.25C97.2067 66.8417 97.5651 68.075 98.2817 68.95C98.9984 69.825 100.019 70.2625 101.344 70.2625C102.236 70.2625 103.011 70.0583 103.669 69.65C104.328 69.2417 104.844 68.6542 105.219 67.8875L107.357 68.625C106.832 69.8167 106.04 70.7417 104.982 71.4C103.932 72.05 102.753 72.375 101.444 72.375ZM96.4567 65.875V64.0875H106.432V65.875H96.4567ZM109.486 72V58.5H111.399L116.524 68.975L121.649 58.5H123.561V72H121.411V63.1375L117.111 72H115.936L111.636 63.1375V72H109.486ZM134.89 72V67.1125H131.977C131.636 67.1125 131.256 67.1 130.84 67.075C130.431 67.0417 130.048 66.9958 129.69 66.9375C128.715 66.7542 127.89 66.325 127.215 65.65C126.548 64.975 126.215 64.0417 126.215 62.85C126.215 61.6917 126.527 60.7625 127.152 60.0625C127.786 59.3542 128.565 58.8958 129.49 58.6875C129.906 58.5875 130.327 58.5333 130.752 58.525C131.186 58.5083 131.552 58.5 131.852 58.5H137.115L137.127 72H134.89ZM125.802 72L129.39 66.5H131.79L128.202 72H125.802ZM131.815 65.275H134.89V60.3375H131.815C131.623 60.3375 131.369 60.3458 131.052 60.3625C130.744 60.3792 130.448 60.4292 130.165 60.5125C129.898 60.5875 129.636 60.725 129.377 60.925C129.127 61.125 128.919 61.3833 128.752 61.7C128.586 62.0167 128.502 62.3917 128.502 62.825C128.502 63.45 128.677 63.9583 129.027 64.35C129.377 64.7333 129.802 64.9917 130.302 65.125C130.577 65.1917 130.848 65.2333 131.115 65.25C131.39 65.2667 131.623 65.275 131.815 65.275ZM150.332 72.375C148.965 72.375 147.802 72.0708 146.844 71.4625C145.894 70.8458 145.169 70 144.669 68.925C144.169 67.85 143.911 66.625 143.894 65.25C143.911 63.8417 144.173 62.6042 144.682 61.5375C145.198 60.4625 145.936 59.625 146.894 59.025C147.852 58.425 149.007 58.125 150.357 58.125C151.782 58.125 153.007 58.475 154.032 59.175C155.065 59.875 155.757 60.8333 156.107 62.05L153.907 62.7125C153.623 61.9292 153.161 61.3208 152.519 60.8875C151.886 60.4542 151.157 60.2375 150.332 60.2375C149.407 60.2375 148.644 60.4542 148.044 60.8875C147.444 61.3125 146.998 61.9042 146.707 62.6625C146.415 63.4125 146.265 64.275 146.257 65.25C146.273 66.75 146.619 67.9625 147.294 68.8875C147.977 69.8042 148.99 70.2625 150.332 70.2625C151.215 70.2625 151.948 70.0625 152.532 69.6625C153.115 69.2542 153.557 68.6667 153.857 67.9L156.107 68.4875C155.64 69.7458 154.911 70.7083 153.919 71.375C152.927 72.0417 151.732 72.375 150.332 72.375ZM159.544 78L162.157 70.9L162.194 73L156.294 58.5H158.632L163.257 70.1625H162.457L166.794 58.5H169.057L161.707 78H159.544ZM174.197 72V60.525H169.497V58.5H181.122V60.525H176.422V72H174.197ZM188.494 72.375C187.152 72.375 185.994 72.0708 185.019 71.4625C184.052 70.8542 183.306 70.0125 182.781 68.9375C182.256 67.8625 181.994 66.6292 181.994 65.2375C181.994 63.8208 182.26 62.5792 182.794 61.5125C183.327 60.4458 184.081 59.6167 185.056 59.025C186.031 58.425 187.177 58.125 188.494 58.125C189.844 58.125 191.006 58.4292 191.981 59.0375C192.956 59.6375 193.702 60.475 194.219 61.55C194.744 62.6167 195.006 63.8458 195.006 65.2375C195.006 66.6458 194.744 67.8875 194.219 68.9625C193.694 70.0292 192.944 70.8667 191.969 71.475C190.994 72.075 189.835 72.375 188.494 72.375ZM188.494 70.2625C189.894 70.2625 190.935 69.7958 191.619 68.8625C192.302 67.9292 192.644 66.7208 192.644 65.2375C192.644 63.7125 192.298 62.5 191.606 61.6C190.914 60.6917 189.877 60.2375 188.494 60.2375C187.552 60.2375 186.777 60.45 186.169 60.875C185.56 61.3 185.106 61.8875 184.806 62.6375C184.506 63.3875 184.356 64.2542 184.356 65.2375C184.356 66.7542 184.706 67.9708 185.406 68.8875C186.106 69.8042 187.135 70.2625 188.494 70.2625ZM197.246 72L197.258 58.5H199.508V65L205.171 58.5H208.058L202.096 65.25L208.758 72H205.646L199.508 65.5V72H197.246ZM209.902 72V69.55H212.352V72H209.902ZM48.5954 97L48.6079 83.5H50.8579V90L56.5204 83.5H59.4079L53.4454 90.25L60.1079 97H56.9954L50.8579 90.5V97H48.5954ZM67.0521 97.375C65.7854 97.375 64.7187 97.0625 63.8521 96.4375C62.9854 95.8042 62.3271 94.95 61.8771 93.875C61.4354 92.7917 61.2146 91.5792 61.2146 90.2375C61.2146 88.8792 61.4354 87.6625 61.8771 86.5875C62.3271 85.5125 62.9854 84.6667 63.8521 84.05C64.7271 83.4333 65.7979 83.125 67.0646 83.125C68.3146 83.125 69.3896 83.4375 70.2896 84.0625C71.1979 84.6792 71.8937 85.525 72.3771 86.6C72.8604 87.675 73.1021 88.8875 73.1021 90.2375C73.1021 91.5875 72.8604 92.8 72.3771 93.875C71.8937 94.95 71.1979 95.8042 70.2896 96.4375C69.3896 97.0625 68.3104 97.375 67.0521 97.375ZM60.8396 103V83.5H62.8271V93.4375H63.0771V103H60.8396ZM66.7771 95.3375C67.6687 95.3375 68.4062 95.1125 68.9896 94.6625C69.5729 94.2125 70.0104 93.6042 70.3021 92.8375C70.5937 92.0625 70.7396 91.1958 70.7396 90.2375C70.7396 89.2875 70.5937 88.4292 70.3021 87.6625C70.0187 86.8958 69.5771 86.2875 68.9771 85.8375C68.3854 85.3875 67.6312 85.1625 66.7146 85.1625C65.8396 85.1625 65.1146 85.3792 64.5396 85.8125C63.9646 86.2375 63.5354 86.8333 63.2521 87.6C62.9687 88.3583 62.8271 89.2375 62.8271 90.2375C62.8271 91.2208 62.9646 92.1 63.2396 92.875C63.5229 93.6417 63.9562 94.2458 64.5396 94.6875C65.1229 95.1208 65.8687 95.3375 66.7771 95.3375ZM76.729 103L79.3415 95.9L79.379 98L73.479 83.5H75.8165L80.4415 95.1625H79.6415L83.979 83.5H86.2415L78.8915 103H76.729ZM87.8062 97V83.5H97.1812V85.6125H90.0312V97H87.8062ZM97.5552 97V95.0875C98.0552 95.1792 98.4343 95.1625 98.6927 95.0375C98.9593 94.9042 99.1552 94.675 99.2802 94.35C99.4135 94.0167 99.5218 93.6 99.6052 93.1C99.7468 92.3083 99.8677 91.425 99.9677 90.45C100.076 89.475 100.172 88.4083 100.255 87.25C100.347 86.0833 100.43 84.8333 100.505 83.5H109.943V97H107.718V85.6125H102.53C102.48 86.3792 102.418 87.1667 102.343 87.975C102.276 88.7833 102.205 89.5708 102.13 90.3375C102.055 91.0958 101.972 91.8042 101.88 92.4625C101.797 93.1125 101.705 93.675 101.605 94.15C101.447 94.9667 101.226 95.6208 100.943 96.1125C100.659 96.5958 100.251 96.9083 99.7177 97.05C99.1843 97.2 98.4635 97.1833 97.5552 97ZM118.704 97.375C117.362 97.375 116.204 97.0708 115.229 96.4625C114.262 95.8542 113.516 95.0125 112.991 93.9375C112.466 92.8625 112.204 91.6292 112.204 90.2375C112.204 88.8208 112.47 87.5792 113.004 86.5125C113.537 85.4458 114.291 84.6167 115.266 84.025C116.241 83.425 117.387 83.125 118.704 83.125C120.054 83.125 121.216 83.4292 122.191 84.0375C123.166 84.6375 123.912 85.475 124.429 86.55C124.954 87.6167 125.216 88.8458 125.216 90.2375C125.216 91.6458 124.954 92.8875 124.429 93.9625C123.904 95.0292 123.154 95.8667 122.179 96.475C121.204 97.075 120.045 97.375 118.704 97.375ZM118.704 95.2625C120.104 95.2625 121.145 94.7958 121.829 93.8625C122.512 92.9292 122.854 91.7208 122.854 90.2375C122.854 88.7125 122.508 87.5 121.816 86.6C121.124 85.6917 120.087 85.2375 118.704 85.2375C117.762 85.2375 116.987 85.45 116.379 85.875C115.77 86.3 115.316 86.8875 115.016 87.6375C114.716 88.3875 114.566 89.2542 114.566 90.2375C114.566 91.7542 114.916 92.9708 115.616 93.8875C116.316 94.8042 117.345 95.2625 118.704 95.2625ZM133.156 97.375C131.789 97.375 130.627 97.0708 129.668 96.4625C128.718 95.8458 127.993 95 127.493 93.925C126.993 92.85 126.735 91.625 126.718 90.25C126.735 88.8417 126.997 87.6042 127.506 86.5375C128.022 85.4625 128.76 84.625 129.718 84.025C130.677 83.425 131.831 83.125 133.181 83.125C134.606 83.125 135.831 83.475 136.856 84.175C137.889 84.875 138.581 85.8333 138.931 87.05L136.731 87.7125C136.447 86.9292 135.985 86.3208 135.343 85.8875C134.71 85.4542 133.981 85.2375 133.156 85.2375C132.231 85.2375 131.468 85.4542 130.868 85.8875C130.268 86.3125 129.822 86.9042 129.531 87.6625C129.239 88.4125 129.089 89.275 129.081 90.25C129.097 91.75 129.443 92.9625 130.118 93.8875C130.802 94.8042 131.814 95.2625 133.156 95.2625C134.039 95.2625 134.772 95.0625 135.356 94.6625C135.939 94.2542 136.381 93.6667 136.681 92.9L138.931 93.4875C138.464 94.7458 137.735 95.7083 136.743 96.375C135.752 97.0417 134.556 97.375 133.156 97.375ZM142.369 103L144.981 95.9L145.019 98L139.119 83.5H141.456L146.081 95.1625H145.281L149.619 83.5H151.881L144.531 103H142.369ZM157.021 97V85.525H152.321V83.5H163.946V85.525H159.246V97H157.021ZM171.318 97.375C169.976 97.375 168.818 97.0708 167.843 96.4625C166.876 95.8542 166.13 95.0125 165.605 93.9375C165.08 92.8625 164.818 91.6292 164.818 90.2375C164.818 88.8208 165.085 87.5792 165.618 86.5125C166.151 85.4458 166.905 84.6167 167.88 84.025C168.855 83.425 170.001 83.125 171.318 83.125C172.668 83.125 173.83 83.4292 174.805 84.0375C175.78 84.6375 176.526 85.475 177.043 86.55C177.568 87.6167 177.83 88.8458 177.83 90.2375C177.83 91.6458 177.568 92.8875 177.043 93.9625C176.518 95.0292 175.768 95.8667 174.793 96.475C173.818 97.075 172.66 97.375 171.318 97.375ZM171.318 95.2625C172.718 95.2625 173.76 94.7958 174.443 93.8625C175.126 92.9292 175.468 91.7208 175.468 90.2375C175.468 88.7125 175.122 87.5 174.43 86.6C173.739 85.6917 172.701 85.2375 171.318 85.2375C170.376 85.2375 169.601 85.45 168.993 85.875C168.385 86.3 167.93 86.8875 167.63 87.6375C167.33 88.3875 167.18 89.2542 167.18 90.2375C167.18 91.7542 167.53 92.9708 168.23 93.8875C168.93 94.8042 169.96 95.2625 171.318 95.2625ZM188.208 97V92.1375C187.758 92.3625 187.212 92.5542 186.57 92.7125C185.937 92.8708 185.258 92.95 184.533 92.95C183.158 92.95 182.049 92.6417 181.208 92.025C180.366 91.4083 179.816 90.5208 179.558 89.3625C179.483 89.0125 179.428 88.65 179.395 88.275C179.37 87.9 179.353 87.5583 179.345 87.25C179.337 86.9417 179.333 86.7167 179.333 86.575V83.5H181.583V86.575C181.583 86.8167 181.591 87.1167 181.608 87.475C181.624 87.825 181.666 88.1667 181.733 88.5C181.899 89.325 182.245 89.9458 182.77 90.3625C183.303 90.7792 184.053 90.9875 185.02 90.9875C185.67 90.9875 186.27 90.9042 186.82 90.7375C187.37 90.5708 187.833 90.35 188.208 90.075V83.5H190.445V97H188.208ZM193.437 97V83.5H195.662V89.1875H202.762V83.5H204.987V97H202.762V91.3H195.662V97H193.437ZM211.826 97.375C210.818 97.375 209.972 97.1917 209.289 96.825C208.614 96.45 208.101 95.9583 207.751 95.35C207.41 94.7417 207.239 94.075 207.239 93.35C207.239 92.6417 207.372 92.0292 207.639 91.5125C207.914 90.9875 208.297 90.5542 208.789 90.2125C209.28 89.8625 209.868 89.5875 210.551 89.3875C211.193 89.2125 211.91 89.0625 212.701 88.9375C213.501 88.8042 214.31 88.6833 215.126 88.575C215.943 88.4667 216.705 88.3625 217.414 88.2625L216.614 88.725C216.639 87.525 216.397 86.6375 215.889 86.0625C215.389 85.4875 214.522 85.2 213.289 85.2C212.472 85.2 211.755 85.3875 211.139 85.7625C210.53 86.1292 210.101 86.7292 209.851 87.5625L207.739 86.925C208.064 85.7417 208.693 84.8125 209.626 84.1375C210.56 83.4625 211.789 83.125 213.314 83.125C214.539 83.125 215.589 83.3458 216.464 83.7875C217.347 84.2208 217.98 84.8792 218.364 85.7625C218.555 86.1792 218.676 86.6333 218.726 87.125C218.776 87.6083 218.801 88.1167 218.801 88.65V97H216.826V93.7625L217.289 94.0625C216.78 95.1542 216.068 95.9792 215.151 96.5375C214.243 97.0958 213.135 97.375 211.826 97.375ZM212.164 95.5125C212.964 95.5125 213.655 95.3708 214.239 95.0875C214.83 94.7958 215.305 94.4167 215.664 93.95C216.022 93.475 216.255 92.9583 216.364 92.4C216.489 91.9833 216.555 91.5208 216.564 91.0125C216.58 90.4958 216.589 90.1 216.589 89.825L217.364 90.1625C216.639 90.2625 215.926 90.3583 215.226 90.45C214.526 90.5417 213.864 90.6417 213.239 90.75C212.614 90.85 212.051 90.9708 211.551 91.1125C211.185 91.2292 210.839 91.3792 210.514 91.5625C210.197 91.7458 209.939 91.9833 209.739 92.275C209.547 92.5583 209.451 92.9125 209.451 93.3375C209.451 93.7042 209.543 94.0542 209.726 94.3875C209.918 94.7208 210.21 94.9917 210.601 95.2C211.001 95.4083 211.522 95.5125 212.164 95.5125ZM229.889 97V92.1125H226.976C226.635 92.1125 226.255 92.1 225.839 92.075C225.43 92.0417 225.047 91.9958 224.689 91.9375C223.714 91.7542 222.889 91.325 222.214 90.65C221.547 89.975 221.214 89.0417 221.214 87.85C221.214 86.6917 221.526 85.7625 222.151 85.0625C222.785 84.3542 223.564 83.8958 224.489 83.6875C224.905 83.5875 225.326 83.5333 225.751 83.525C226.185 83.5083 226.551 83.5 226.851 83.5H232.114L232.126 97H229.889ZM220.801 97L224.389 91.5H226.789L223.201 97H220.801ZM226.814 90.275H229.889V85.3375H226.814C226.622 85.3375 226.368 85.3458 226.051 85.3625C225.743 85.3792 225.447 85.4292 225.164 85.5125C224.897 85.5875 224.635 85.725 224.376 85.925C224.126 86.125 223.918 86.3833 223.751 86.7C223.585 87.0167 223.501 87.3917 223.501 87.825C223.501 88.45 223.676 88.9583 224.026 89.35C224.376 89.7333 224.801 89.9917 225.301 90.125C225.576 90.1917 225.847 90.2333 226.114 90.25C226.389 90.2667 226.622 90.275 226.814 90.275ZM177.659 122V108.5H188.721V122H186.496V110.612H179.884V122H177.659ZM197.472 122.375C196.131 122.375 194.972 122.071 193.997 121.462C193.031 120.854 192.285 120.012 191.76 118.937C191.235 117.862 190.972 116.629 190.972 115.237C190.972 113.821 191.239 112.579 191.772 111.512C192.306 110.446 193.06 109.617 194.035 109.025C195.01 108.425 196.156 108.125 197.472 108.125C198.822 108.125 199.985 108.429 200.96 109.037C201.935 109.637 202.681 110.475 203.197 111.55C203.722 112.617 203.985 113.846 203.985 115.237C203.985 116.646 203.722 117.887 203.197 118.962C202.672 120.029 201.922 120.867 200.947 121.475C199.972 122.075 198.814 122.375 197.472 122.375ZM197.472 120.262C198.872 120.262 199.914 119.796 200.597 118.862C201.281 117.929 201.622 116.721 201.622 115.237C201.622 113.712 201.276 112.5 200.585 111.6C199.893 110.692 198.856 110.237 197.472 110.237C196.531 110.237 195.756 110.45 195.147 110.875C194.539 111.3 194.085 111.887 193.785 112.637C193.485 113.387 193.335 114.254 193.335 115.237C193.335 116.754 193.685 117.971 194.385 118.887C195.085 119.804 196.114 120.262 197.472 120.262ZM210.729 122V108.5H221.792V122H219.567V110.612H212.954V122H210.729ZM230.542 122.375C229.201 122.375 228.042 122.071 227.067 121.462C226.101 120.854 225.355 120.012 224.83 118.937C224.305 117.862 224.042 116.629 224.042 115.237C224.042 113.821 224.309 112.579 224.842 111.512C225.376 110.446 226.13 109.617 227.105 109.025C228.08 108.425 229.226 108.125 230.542 108.125C231.892 108.125 233.055 108.429 234.03 109.037C235.005 109.637 235.751 110.475 236.267 111.55C236.792 112.617 237.055 113.846 237.055 115.237C237.055 116.646 236.792 117.887 236.267 118.962C235.742 120.029 234.992 120.867 234.017 121.475C233.042 122.075 231.884 122.375 230.542 122.375ZM230.542 120.262C231.942 120.262 232.984 119.796 233.667 118.862C234.351 117.929 234.692 116.721 234.692 115.237C234.692 113.712 234.347 112.5 233.655 111.6C232.963 110.692 231.926 110.237 230.542 110.237C229.601 110.237 228.826 110.45 228.217 110.875C227.609 111.3 227.155 111.887 226.855 112.637C226.555 113.387 226.405 114.254 226.405 115.237C226.405 116.754 226.755 117.971 227.455 118.887C228.155 119.804 229.184 120.262 230.542 120.262ZM247.432 122V117.137C246.982 117.362 246.436 117.554 245.795 117.712C245.161 117.871 244.482 117.95 243.757 117.95C242.382 117.95 241.274 117.642 240.432 117.025C239.59 116.408 239.04 115.521 238.782 114.362C238.707 114.012 238.653 113.65 238.62 113.275C238.595 112.9 238.578 112.558 238.57 112.25C238.561 111.942 238.557 111.717 238.557 111.575V108.5H240.807V111.575C240.807 111.817 240.815 112.117 240.832 112.475C240.849 112.825 240.89 113.167 240.957 113.5C241.124 114.325 241.47 114.946 241.995 115.362C242.528 115.779 243.278 115.987 244.245 115.987C244.895 115.987 245.495 115.904 246.045 115.737C246.595 115.571 247.057 115.35 247.432 115.075V108.5H249.67V122H247.432ZM256.249 122V110.525H251.549V108.5H263.174V110.525H258.474V122H256.249ZM270.891 122.375C269.566 122.375 268.407 122.083 267.416 121.5C266.432 120.908 265.666 120.087 265.116 119.037C264.566 117.979 264.291 116.746 264.291 115.337C264.291 113.862 264.561 112.587 265.103 111.512C265.645 110.429 266.399 109.596 267.366 109.012C268.341 108.421 269.482 108.125 270.791 108.125C272.149 108.125 273.303 108.437 274.253 109.062C275.211 109.687 275.928 110.579 276.403 111.737C276.886 112.896 277.095 114.275 277.028 115.875H274.778V115.075C274.753 113.417 274.416 112.179 273.766 111.362C273.116 110.537 272.149 110.125 270.866 110.125C269.491 110.125 268.445 110.567 267.728 111.45C267.011 112.333 266.653 113.6 266.653 115.25C266.653 116.842 267.011 118.075 267.728 118.95C268.445 119.825 269.466 120.262 270.791 120.262C271.682 120.262 272.457 120.058 273.116 119.65C273.774 119.242 274.291 118.654 274.666 117.887L276.803 118.625C276.278 119.817 275.486 120.742 274.428 121.4C273.378 122.05 272.199 122.375 270.891 122.375ZM265.903 115.875V114.087H275.878V115.875H265.903ZM47.6887 133.5V147H45.5387V137.05L38.4637 147H36.6262V133.5H38.7762V143.312L45.8637 133.5H47.6887ZM55.1818 147V133.5H60.9318C61.2735 133.5 61.6402 133.521 62.0318 133.562C62.4318 133.596 62.7943 133.658 63.1193 133.75C63.8443 133.942 64.4402 134.337 64.9068 134.937C65.3818 135.529 65.6193 136.279 65.6193 137.187C65.6193 137.696 65.5402 138.137 65.3818 138.512C65.2318 138.887 65.0152 139.212 64.7318 139.487C64.6068 139.612 64.4693 139.725 64.3193 139.825C64.1693 139.925 64.0193 140.004 63.8693 140.062C64.161 140.112 64.4568 140.225 64.7568 140.4C65.2318 140.658 65.6027 141.021 65.8693 141.487C66.1443 141.954 66.2818 142.55 66.2818 143.275C66.2818 144.192 66.061 144.95 65.6193 145.55C65.1777 146.142 64.5693 146.55 63.7943 146.775C63.4693 146.867 63.111 146.929 62.7193 146.962C62.3277 146.987 61.9485 147 61.5818 147H55.1818ZM57.4318 145.187H61.4568C61.6318 145.187 61.8402 145.171 62.0818 145.137C62.3318 145.104 62.5527 145.062 62.7443 145.012C63.1777 144.887 63.4902 144.654 63.6818 144.312C63.8818 143.971 63.9818 143.6 63.9818 143.2C63.9818 142.667 63.8318 142.233 63.5318 141.9C63.2402 141.567 62.8527 141.358 62.3693 141.275C62.1943 141.225 62.0027 141.196 61.7943 141.187C61.5943 141.179 61.4152 141.175 61.2568 141.175H57.4318V145.187ZM57.4318 139.337H60.7818C61.0152 139.337 61.261 139.325 61.5193 139.3C61.7777 139.267 62.0027 139.212 62.1943 139.137C62.5777 138.996 62.8568 138.762 63.0318 138.437C63.2152 138.104 63.3068 137.742 63.3068 137.35C63.3068 136.917 63.2068 136.537 63.0068 136.212C62.8152 135.879 62.5193 135.65 62.1193 135.525C61.8527 135.425 61.5527 135.371 61.2193 135.362C60.8943 135.346 60.686 135.337 60.5943 135.337H57.4318V139.337ZM72.7854 147V133.5H74.6979L79.8229 143.975L84.9479 133.5H86.8604V147H84.7104V138.137L80.4104 147H79.2354L74.9354 138.137V147H72.7854ZM95.7016 147.375C94.3766 147.375 93.2182 147.083 92.2266 146.5C91.2432 145.908 90.4766 145.087 89.9266 144.037C89.3766 142.979 89.1016 141.746 89.1016 140.337C89.1016 138.862 89.3724 137.587 89.9141 136.512C90.4557 135.429 91.2099 134.596 92.1766 134.012C93.1516 133.421 94.2932 133.125 95.6016 133.125C96.9599 133.125 98.1141 133.437 99.0641 134.062C100.022 134.687 100.739 135.579 101.214 136.737C101.697 137.896 101.906 139.275 101.839 140.875H99.5891V140.075C99.5641 138.417 99.2266 137.179 98.5766 136.362C97.9266 135.537 96.9599 135.125 95.6766 135.125C94.3016 135.125 93.2557 135.567 92.5391 136.45C91.8224 137.333 91.4641 138.6 91.4641 140.25C91.4641 141.842 91.8224 143.075 92.5391 143.95C93.2557 144.825 94.2766 145.262 95.6016 145.262C96.4932 145.262 97.2682 145.058 97.9266 144.65C98.5849 144.242 99.1016 143.654 99.4766 142.887L101.614 143.625C101.089 144.817 100.297 145.742 99.2391 146.4C98.1891 147.05 97.0099 147.375 95.7016 147.375ZM90.7141 140.875V139.087H100.689V140.875H90.7141ZM109.81 147.375C108.443 147.375 107.28 147.071 106.322 146.462C105.372 145.846 104.647 145 104.147 143.925C103.647 142.85 103.389 141.625 103.372 140.25C103.389 138.842 103.651 137.604 104.16 136.537C104.676 135.462 105.414 134.625 106.372 134.025C107.33 133.425 108.485 133.125 109.835 133.125C111.26 133.125 112.485 133.475 113.51 134.175C114.543 134.875 115.235 135.833 115.585 137.05L113.385 137.712C113.101 136.929 112.639 136.321 111.997 135.887C111.364 135.454 110.635 135.237 109.81 135.237C108.885 135.237 108.122 135.454 107.522 135.887C106.922 136.312 106.476 136.904 106.185 137.662C105.893 138.412 105.743 139.275 105.735 140.25C105.751 141.75 106.097 142.962 106.772 143.887C107.455 144.804 108.468 145.262 109.81 145.262C110.693 145.262 111.426 145.062 112.01 144.662C112.593 144.254 113.035 143.667 113.335 142.9L115.585 143.487C115.118 144.746 114.389 145.708 113.397 146.375C112.405 147.042 111.21 147.375 109.81 147.375ZM122.957 147.375C121.59 147.375 120.428 147.071 119.47 146.462C118.52 145.846 117.795 145 117.295 143.925C116.795 142.85 116.536 141.625 116.52 140.25C116.536 138.842 116.799 137.604 117.307 136.537C117.824 135.462 118.561 134.625 119.52 134.025C120.478 133.425 121.632 133.125 122.982 133.125C124.407 133.125 125.632 133.475 126.657 134.175C127.69 134.875 128.382 135.833 128.732 137.05L126.532 137.712C126.249 136.929 125.786 136.321 125.145 135.887C124.511 135.454 123.782 135.237 122.957 135.237C122.032 135.237 121.27 135.454 120.67 135.887C120.07 136.312 119.624 136.904 119.332 137.662C119.04 138.412 118.89 139.275 118.882 140.25C118.899 141.75 119.245 142.962 119.92 143.887C120.603 144.804 121.615 145.262 122.957 145.262C123.84 145.262 124.574 145.062 125.157 144.662C125.74 144.254 126.182 143.667 126.482 142.9L128.732 143.487C128.265 144.746 127.536 145.708 126.545 146.375C125.553 147.042 124.357 147.375 122.957 147.375ZM136.633 147.375C135.308 147.375 134.15 147.083 133.158 146.5C132.175 145.908 131.408 145.087 130.858 144.037C130.308 142.979 130.033 141.746 130.033 140.337C130.033 138.862 130.304 137.587 130.846 136.512C131.387 135.429 132.142 134.596 133.108 134.012C134.083 133.421 135.225 133.125 136.533 133.125C137.892 133.125 139.046 133.437 139.996 134.062C140.954 134.687 141.671 135.579 142.146 136.737C142.629 137.896 142.837 139.275 142.771 140.875H140.521V140.075C140.496 138.417 140.158 137.179 139.508 136.362C138.858 135.537 137.892 135.125 136.608 135.125C135.233 135.125 134.187 135.567 133.471 136.45C132.754 137.333 132.396 138.6 132.396 140.25C132.396 141.842 132.754 143.075 133.471 143.95C134.187 144.825 135.208 145.262 136.533 145.262C137.425 145.262 138.2 145.058 138.858 144.65C139.517 144.242 140.033 143.654 140.408 142.887L142.546 143.625C142.021 144.817 141.229 145.742 140.171 146.4C139.121 147.05 137.942 147.375 136.633 147.375ZM131.646 140.875V139.087H141.621V140.875H131.646ZM145.041 147V133.5H147.266V139.188H154.366V133.5H156.591V147H154.366V141.3H147.266V147H145.041ZM158.593 150V145.163C159.351 145.163 159.893 144.917 160.218 144.425C160.543 143.925 160.805 143.104 161.005 141.962C161.139 141.246 161.247 140.479 161.33 139.662C161.414 138.846 161.484 137.937 161.543 136.937C161.609 135.929 161.672 134.783 161.73 133.5H171.03V145.163H172.343V150H170.218V147H160.718V150H158.593ZM162.018 145.163H168.805V135.337H163.743C163.718 135.929 163.684 136.55 163.643 137.2C163.601 137.842 163.551 138.483 163.493 139.125C163.443 139.767 163.38 140.375 163.305 140.95C163.239 141.517 163.159 142.025 163.068 142.475C162.959 143.1 162.834 143.629 162.693 144.062C162.551 144.496 162.326 144.862 162.018 145.163ZM172.852 147L178.302 140.25L173.114 133.5H175.589L180.602 140.125V133.5H182.627V140.125L187.639 133.5H190.114L184.927 140.25L190.377 147H187.789L182.627 140.375V147H180.602V140.375L175.439 147H172.852ZM197.231 147.375C195.906 147.375 194.748 147.083 193.756 146.5C192.773 145.908 192.006 145.087 191.456 144.037C190.906 142.979 190.631 141.746 190.631 140.337C190.631 138.862 190.902 137.587 191.443 136.512C191.985 135.429 192.739 134.596 193.706 134.012C194.681 133.421 195.823 133.125 197.131 133.125C198.489 133.125 199.643 133.437 200.593 134.062C201.552 134.687 202.268 135.579 202.743 136.737C203.227 137.896 203.435 139.275 203.368 140.875H201.118V140.075C201.093 138.417 200.756 137.179 200.106 136.362C199.456 135.537 198.489 135.125 197.206 135.125C195.831 135.125 194.785 135.567 194.068 136.45C193.352 137.333 192.993 138.6 192.993 140.25C192.993 141.842 193.352 143.075 194.068 143.95C194.785 144.825 195.806 145.262 197.131 145.262C198.023 145.262 198.798 145.058 199.456 144.65C200.114 144.242 200.631 143.654 201.006 142.887L203.143 143.625C202.618 144.817 201.827 145.742 200.768 146.4C199.718 147.05 198.539 147.375 197.231 147.375ZM192.243 140.875V139.087H202.218V140.875H192.243ZM211.851 147.375C210.585 147.375 209.518 147.063 208.651 146.437C207.785 145.804 207.126 144.95 206.676 143.875C206.235 142.792 206.014 141.579 206.014 140.237C206.014 138.879 206.235 137.662 206.676 136.587C207.126 135.512 207.785 134.667 208.651 134.05C209.526 133.433 210.597 133.125 211.864 133.125C213.114 133.125 214.189 133.437 215.089 134.062C215.997 134.679 216.693 135.525 217.176 136.6C217.66 137.675 217.901 138.887 217.901 140.237C217.901 141.587 217.66 142.8 217.176 143.875C216.693 144.95 215.997 145.804 215.089 146.437C214.189 147.063 213.11 147.375 211.851 147.375ZM205.639 153V133.5H207.626V143.437H207.876V153H205.639ZM211.576 145.337C212.468 145.337 213.206 145.112 213.789 144.662C214.372 144.212 214.81 143.604 215.101 142.837C215.393 142.062 215.539 141.196 215.539 140.237C215.539 139.287 215.393 138.429 215.101 137.662C214.818 136.896 214.376 136.287 213.776 135.837C213.185 135.387 212.431 135.162 211.514 135.162C210.639 135.162 209.914 135.379 209.339 135.812C208.764 136.237 208.335 136.833 208.051 137.6C207.768 138.358 207.626 139.237 207.626 140.237C207.626 141.221 207.764 142.1 208.039 142.875C208.322 143.642 208.756 144.246 209.339 144.687C209.922 145.121 210.668 145.337 211.576 145.337ZM223.979 147.375C222.971 147.375 222.125 147.192 221.442 146.825C220.767 146.45 220.254 145.958 219.904 145.35C219.562 144.742 219.392 144.075 219.392 143.35C219.392 142.642 219.525 142.029 219.792 141.512C220.067 140.987 220.45 140.554 220.942 140.212C221.433 139.862 222.021 139.587 222.704 139.387C223.346 139.212 224.062 139.062 224.854 138.937C225.654 138.804 226.462 138.683 227.279 138.575C228.096 138.467 228.858 138.362 229.567 138.262L228.767 138.725C228.792 137.525 228.55 136.637 228.042 136.062C227.542 135.487 226.675 135.2 225.442 135.2C224.625 135.2 223.908 135.387 223.292 135.762C222.683 136.129 222.254 136.729 222.004 137.562L219.892 136.925C220.217 135.742 220.846 134.812 221.779 134.137C222.712 133.462 223.942 133.125 225.467 133.125C226.692 133.125 227.742 133.346 228.617 133.787C229.5 134.221 230.133 134.879 230.517 135.762C230.708 136.179 230.829 136.633 230.879 137.125C230.929 137.608 230.954 138.117 230.954 138.65V147H228.979V143.762L229.442 144.062C228.933 145.154 228.221 145.979 227.304 146.537C226.396 147.096 225.287 147.375 223.979 147.375ZM224.317 145.512C225.117 145.512 225.808 145.371 226.392 145.087C226.983 144.796 227.458 144.417 227.817 143.95C228.175 143.475 228.408 142.958 228.517 142.4C228.642 141.983 228.708 141.521 228.717 141.012C228.733 140.496 228.742 140.1 228.742 139.825L229.517 140.162C228.792 140.262 228.079 140.358 227.379 140.45C226.679 140.542 226.017 140.642 225.392 140.75C224.767 140.85 224.204 140.971 223.704 141.112C223.337 141.229 222.992 141.379 222.667 141.562C222.35 141.746 222.092 141.983 221.892 142.275C221.7 142.558 221.604 142.912 221.604 143.337C221.604 143.704 221.696 144.054 221.879 144.387C222.071 144.721 222.362 144.992 222.754 145.2C223.154 145.408 223.675 145.512 224.317 145.512ZM232.204 147L237.367 140.175L232.317 133.5H234.967L238.667 138.45L242.329 133.5H244.979L239.929 140.175L245.104 147H242.442L238.667 141.9L234.867 147H232.204Z" fill="url(#paint1_linear_18695_21048)"/>
<g clip-path="url(#paint2_diamond_18695_21048_clip_path)" data-figma-skip-parse="true"><g transform="matrix(-0.209217 0.0236714 0.48199 -0.168469 141.62 99.9798)"><rect x="0" y="0" width="940.498" height="259.932" fill="url(#paint2_diamond_18695_21048)" opacity="1" shape-rendering="crispEdges"/><rect x="0" y="0" width="940.498" height="259.932" transform="scale(1 -1)" fill="url(#paint2_diamond_18695_21048)" opacity="1" shape-rendering="crispEdges"/><rect x="0" y="0" width="940.498" height="259.932" transform="scale(-1 1)" fill="url(#paint2_diamond_18695_21048)" opacity="1" shape-rendering="crispEdges"/><rect x="0" y="0" width="940.498" height="259.932" transform="scale(-1)" fill="url(#paint2_diamond_18695_21048)" opacity="1" shape-rendering="crispEdges"/></g></g><path d="M8.29181 125.436L8.05149 113.964L3.35252 114.062L3.31011 112.038L14.9326 111.794L14.975 113.819L10.276 113.917L10.5163 125.39L8.29181 125.436ZM22.9377 125.504C21.6129 125.532 20.4488 125.265 19.4451 124.702C18.4496 124.131 17.6659 123.327 17.094 122.289C16.522 121.242 16.2212 120.015 16.1917 118.607C16.1608 117.132 16.4049 115.852 16.9239 114.766C17.4428 113.671 18.1793 112.822 19.1336 112.219C20.096 111.607 21.2312 111.287 22.5393 111.26C23.8973 111.231 25.0577 111.519 26.0206 112.124C26.9918 112.729 27.727 113.606 28.2262 114.754C28.7337 115.902 28.9708 117.276 28.9377 118.877L26.6882 118.924L26.6714 118.125C26.6117 116.467 26.2484 115.237 25.5814 114.434C24.9143 113.623 23.9392 113.231 22.6561 113.258C21.2814 113.286 20.2451 113.75 19.5471 114.648C18.849 115.546 18.5173 116.82 18.5519 118.47C18.5852 120.061 18.9693 121.287 19.7041 122.146C20.439 123.006 21.4687 123.422 22.7934 123.395C23.6849 123.376 24.4555 123.155 25.1051 122.733C25.7547 122.311 26.259 121.713 26.6179 120.939L28.7703 121.631C28.2704 122.834 27.4983 123.775 26.454 124.456C25.4178 125.127 24.2457 125.477 22.9377 125.504ZM17.8151 119.11L17.7777 117.323L27.7505 117.114L27.7879 118.901L17.8151 119.11ZM29.3606 124.995L34.3791 118.063L29.1904 111.495L31.8398 111.44L35.6426 116.311L39.2007 111.286L41.8501 111.23L36.941 118.01L42.2578 124.725L39.5959 124.78L35.7149 119.761L32.0225 124.939L29.3606 124.995ZM43.7483 124.693L43.4656 111.196L54.5256 110.965L54.8084 124.462L52.5838 124.508L52.3454 113.123L45.7343 113.262L45.9728 124.647L43.7483 124.693ZM63.5651 124.653C62.2237 124.682 61.0593 124.402 60.0717 123.814C59.0925 123.226 58.3292 122.4 57.7818 121.336C57.2344 120.273 56.9462 119.045 56.917 117.654C56.8874 116.237 57.128 114.99 57.6388 113.913C58.1497 112.835 58.8864 111.99 59.8487 111.378C60.811 110.758 61.9503 110.434 63.2666 110.407C64.6163 110.378 65.785 110.658 66.7725 111.246C67.7598 111.825 68.523 112.647 69.0621 113.711C69.6093 114.766 69.8975 115.99 69.9267 117.381C69.9562 118.789 69.7197 120.036 69.2174 121.122C68.7148 122.199 67.9825 123.052 67.0205 123.681C66.0582 124.301 64.9064 124.625 63.5651 124.653ZM63.5208 122.541C64.9205 122.512 65.9522 122.024 66.6158 121.076C67.2795 120.129 67.5958 118.914 67.5647 117.431C67.5327 115.906 67.1616 114.701 66.4512 113.816C65.7407 112.922 64.6939 112.49 63.3109 112.519C62.3694 112.538 61.599 112.767 60.9997 113.205C60.4004 113.642 59.9587 114.239 59.6745 114.995C59.3902 115.751 59.2584 116.621 59.279 117.604C59.3108 119.12 59.6862 120.33 60.4052 121.231C61.1243 122.133 62.1628 122.57 63.5208 122.541ZM71.383 127.115L71.2817 122.279C72.0399 122.263 72.5762 122.006 72.8909 121.507C73.2053 121.001 73.4506 120.175 73.6266 119.029C73.7449 118.31 73.8372 117.541 73.9034 116.723C73.9696 115.904 74.0214 114.995 74.0588 113.994C74.1043 112.984 74.1428 111.837 74.1743 110.553L83.4722 110.358L83.7165 122.018L85.0287 121.991L85.13 126.827L83.0054 126.872L82.9426 123.872L73.4447 124.071L73.5075 127.071L71.383 127.115ZM74.7059 122.207L81.4919 122.065L81.2862 112.242L76.2248 112.348C76.2122 112.94 76.1919 113.562 76.1638 114.212C76.1356 114.855 76.0991 115.497 76.0542 116.14C76.0176 116.783 75.9679 117.392 75.9049 117.969C75.8501 118.536 75.7816 119.046 75.6994 119.498C75.6042 120.125 75.4903 120.657 75.3577 121.093C75.2252 121.529 75.0079 121.901 74.7059 122.207ZM86.1385 126.806L86.0372 121.97C86.7954 121.954 87.3318 121.697 87.6464 121.198C87.9609 120.692 88.2061 119.866 88.3822 118.72C88.5005 118.001 88.5927 117.232 88.659 116.414C88.7252 115.595 88.777 114.686 88.8143 113.685C88.8599 112.675 88.8984 111.528 88.9298 110.244L98.2278 110.049L98.472 121.709L99.7842 121.682L99.8855 126.518L97.761 126.563L97.6982 123.563L88.2003 123.762L88.2631 126.762L86.1385 126.806ZM89.4615 121.898L96.2475 121.756L96.0417 111.933L90.9803 112.039C90.9677 112.631 90.9474 113.252 90.9194 113.903C90.8912 114.546 90.8546 115.188 90.8097 115.831C90.7732 116.473 90.7234 117.083 90.6605 117.659C90.6057 118.227 90.5372 118.737 90.455 119.189C90.3598 119.816 90.2459 120.348 90.1133 120.784C89.9807 121.22 89.7635 121.592 89.4615 121.898ZM107.688 123.729C106.363 123.757 105.199 123.49 104.195 122.927C103.2 122.356 102.416 121.552 101.844 120.513C101.272 119.467 100.971 118.239 100.942 116.831C100.911 115.357 101.155 114.076 101.674 112.99C102.193 111.896 102.929 111.047 103.884 110.443C104.846 109.831 105.981 109.512 107.289 109.484C108.647 109.456 109.808 109.744 110.771 110.349C111.742 110.954 112.477 111.83 112.976 112.979C113.484 114.127 113.721 115.501 113.688 117.102L111.438 117.149L111.421 116.349C111.362 114.692 110.998 113.462 110.331 112.659C109.664 111.848 108.689 111.456 107.406 111.482C106.031 111.511 104.995 111.975 104.297 112.873C103.599 113.771 103.267 115.045 103.302 116.694C103.335 118.286 103.719 119.511 104.454 120.371C105.189 121.231 106.219 121.647 107.543 121.619C108.435 121.601 109.205 121.38 109.855 120.958C110.505 120.536 111.009 119.938 111.368 119.164L113.52 119.856C113.02 121.059 112.248 122 111.204 122.68C110.168 123.352 108.996 123.702 107.688 123.729ZM102.565 117.335L102.528 115.548L112.5 115.339L112.538 117.126L102.565 117.335ZM122.305 123.423C121.039 123.45 119.966 123.159 119.086 122.553C118.206 121.938 117.53 121.097 117.058 120.032C116.593 118.958 116.347 117.751 116.319 116.409C116.291 115.051 116.486 113.83 116.905 112.746C117.333 111.662 117.973 110.803 118.827 110.168C119.688 109.533 120.753 109.202 122.019 109.176C123.269 109.15 124.35 109.44 125.263 110.046C126.184 110.643 126.897 111.474 127.403 112.539C127.909 113.603 128.176 114.811 128.204 116.16C128.232 117.51 128.016 118.727 127.555 119.812C127.095 120.897 126.417 121.766 125.522 122.418C124.635 123.062 123.563 123.397 122.305 123.423ZM116.212 129.177L115.803 109.681L117.79 109.64L117.998 119.575L118.248 119.57L118.449 129.13L116.212 129.177ZM121.987 121.392C122.879 121.373 123.611 121.133 124.185 120.671C124.759 120.208 125.184 119.591 125.459 118.818C125.735 118.037 125.862 117.168 125.842 116.21C125.822 115.26 125.658 114.405 125.351 113.645C125.051 112.884 124.597 112.285 123.988 111.848C123.387 111.41 122.628 111.201 121.712 111.22C120.837 111.239 120.117 111.47 119.551 111.916C118.985 112.353 118.568 112.957 118.301 113.73C118.034 114.494 117.91 115.376 117.931 116.376C117.952 117.359 118.108 118.235 118.399 119.004C118.698 119.764 119.144 120.359 119.737 120.789C120.329 121.21 121.079 121.411 121.987 121.392ZM128.598 122.916L133.905 116.053L128.577 109.414L131.052 109.362L136.202 115.88L136.063 109.257L138.088 109.214L138.227 115.838L143.099 109.109L145.574 109.058L140.529 115.915L146.119 122.549L143.532 122.603L138.232 116.088L138.37 122.711L136.346 122.754L136.207 116.13L131.185 122.862L128.598 122.916ZM147.599 122.518L147.328 109.021L149.578 108.974L149.714 115.472L155.239 108.855L158.126 108.795L152.306 115.668L159.109 122.277L155.997 122.342L149.724 115.972L149.861 122.471L147.599 122.518ZM163.697 122.556C162.689 122.577 161.839 122.411 161.149 122.059C160.466 121.698 159.943 121.218 159.58 120.617C159.226 120.016 159.041 119.353 159.026 118.628C159.011 117.92 159.132 117.305 159.388 116.782C159.652 116.252 160.026 115.811 160.51 115.459C160.994 115.098 161.576 114.811 162.255 114.597C162.893 114.409 163.606 114.244 164.395 114.102C165.192 113.952 165.998 113.814 166.812 113.689C167.626 113.563 168.386 113.443 169.092 113.328L168.302 113.808C168.302 112.607 168.042 111.725 167.522 111.161C167.01 110.596 166.137 110.327 164.904 110.353C164.088 110.37 163.375 110.573 162.766 110.96C162.166 111.34 161.749 111.949 161.517 112.787L159.392 112.194C159.692 111.004 160.301 110.062 161.22 109.367C162.139 108.673 163.361 108.31 164.886 108.278C166.11 108.252 167.165 108.451 168.049 108.874C168.941 109.289 169.588 109.934 169.99 110.809C170.19 111.222 170.321 111.673 170.381 112.164C170.441 112.646 170.477 113.154 170.488 113.687L170.663 122.035L168.688 122.076L168.62 118.84L169.089 119.13C168.604 120.232 167.909 121.072 167.004 121.649C166.107 122.226 165.005 122.529 163.697 122.556ZM163.995 120.687C164.795 120.67 165.484 120.514 166.061 120.218C166.647 119.914 167.113 119.525 167.462 119.051C167.81 118.569 168.033 118.048 168.129 117.487C168.246 117.068 168.303 116.604 168.3 116.096C168.306 115.579 168.306 115.183 168.3 114.908L169.082 115.229C168.36 115.344 167.649 115.455 166.951 115.561C166.253 115.668 165.593 115.781 164.97 115.903C164.348 116.016 163.788 116.148 163.291 116.301C162.927 116.425 162.584 116.582 162.263 116.772C161.95 116.962 161.697 117.205 161.503 117.501C161.317 117.788 161.229 118.144 161.238 118.569C161.246 118.936 161.345 119.284 161.535 119.613C161.734 119.942 162.031 120.207 162.427 120.407C162.831 120.607 163.354 120.7 163.995 120.687Z" data-figma-gradient-fill="{&#34;type&#34;:&#34;GRADIENT_DIAMOND&#34;,&#34;stops&#34;:[{&#34;color&#34;:{&#34;r&#34;:0.99215686321258545,&#34;g&#34;:0.99215686321258545,&#34;b&#34;:0.99215686321258545,&#34;a&#34;:1.0},&#34;position&#34;:0.0},{&#34;color&#34;:{&#34;r&#34;:0.95294117927551270,&#34;g&#34;:0.90588235855102539,&#34;b&#34;:0.91372549533843994,&#34;a&#34;:1.0},&#34;position&#34;:9.9999997473787516e-05},{&#34;color&#34;:{&#34;r&#34;:0.89019608497619629,&#34;g&#34;:0.93333333730697632,&#34;b&#34;:1.0,&#34;a&#34;:1.0},&#34;position&#34;:0.9218750}],&#34;stopsVar&#34;:[],&#34;transform&#34;:{&#34;m00&#34;:-418.43362426757812,&#34;m01&#34;:963.97967529296875,&#34;m02&#34;:-131.15269470214844,&#34;m10&#34;:47.342754364013672,&#34;m11&#34;:-336.93859863281250,&#34;m12&#34;:244.77774047851562},&#34;opacity&#34;:1.0,&#34;blendMode&#34;:&#34;NORMAL&#34;,&#34;visible&#34;:true}"/>
<defs>
<clipPath id="paint2_diamond_18695_21048_clip_path"><path d="M8.29181 125.436L8.05149 113.964L3.35252 114.062L3.31011 112.038L14.9326 111.794L14.975 113.819L10.276 113.917L10.5163 125.39L8.29181 125.436ZM22.9377 125.504C21.6129 125.532 20.4488 125.265 19.4451 124.702C18.4496 124.131 17.6659 123.327 17.094 122.289C16.522 121.242 16.2212 120.015 16.1917 118.607C16.1608 117.132 16.4049 115.852 16.9239 114.766C17.4428 113.671 18.1793 112.822 19.1336 112.219C20.096 111.607 21.2312 111.287 22.5393 111.26C23.8973 111.231 25.0577 111.519 26.0206 112.124C26.9918 112.729 27.727 113.606 28.2262 114.754C28.7337 115.902 28.9708 117.276 28.9377 118.877L26.6882 118.924L26.6714 118.125C26.6117 116.467 26.2484 115.237 25.5814 114.434C24.9143 113.623 23.9392 113.231 22.6561 113.258C21.2814 113.286 20.2451 113.75 19.5471 114.648C18.849 115.546 18.5173 116.82 18.5519 118.47C18.5852 120.061 18.9693 121.287 19.7041 122.146C20.439 123.006 21.4687 123.422 22.7934 123.395C23.6849 123.376 24.4555 123.155 25.1051 122.733C25.7547 122.311 26.259 121.713 26.6179 120.939L28.7703 121.631C28.2704 122.834 27.4983 123.775 26.454 124.456C25.4178 125.127 24.2457 125.477 22.9377 125.504ZM17.8151 119.11L17.7777 117.323L27.7505 117.114L27.7879 118.901L17.8151 119.11ZM29.3606 124.995L34.3791 118.063L29.1904 111.495L31.8398 111.44L35.6426 116.311L39.2007 111.286L41.8501 111.23L36.941 118.01L42.2578 124.725L39.5959 124.78L35.7149 119.761L32.0225 124.939L29.3606 124.995ZM43.7483 124.693L43.4656 111.196L54.5256 110.965L54.8084 124.462L52.5838 124.508L52.3454 113.123L45.7343 113.262L45.9728 124.647L43.7483 124.693ZM63.5651 124.653C62.2237 124.682 61.0593 124.402 60.0717 123.814C59.0925 123.226 58.3292 122.4 57.7818 121.336C57.2344 120.273 56.9462 119.045 56.917 117.654C56.8874 116.237 57.128 114.99 57.6388 113.913C58.1497 112.835 58.8864 111.99 59.8487 111.378C60.811 110.758 61.9503 110.434 63.2666 110.407C64.6163 110.378 65.785 110.658 66.7725 111.246C67.7598 111.825 68.523 112.647 69.0621 113.711C69.6093 114.766 69.8975 115.99 69.9267 117.381C69.9562 118.789 69.7197 120.036 69.2174 121.122C68.7148 122.199 67.9825 123.052 67.0205 123.681C66.0582 124.301 64.9064 124.625 63.5651 124.653ZM63.5208 122.541C64.9205 122.512 65.9522 122.024 66.6158 121.076C67.2795 120.129 67.5958 118.914 67.5647 117.431C67.5327 115.906 67.1616 114.701 66.4512 113.816C65.7407 112.922 64.6939 112.49 63.3109 112.519C62.3694 112.538 61.599 112.767 60.9997 113.205C60.4004 113.642 59.9587 114.239 59.6745 114.995C59.3902 115.751 59.2584 116.621 59.279 117.604C59.3108 119.12 59.6862 120.33 60.4052 121.231C61.1243 122.133 62.1628 122.57 63.5208 122.541ZM71.383 127.115L71.2817 122.279C72.0399 122.263 72.5762 122.006 72.8909 121.507C73.2053 121.001 73.4506 120.175 73.6266 119.029C73.7449 118.31 73.8372 117.541 73.9034 116.723C73.9696 115.904 74.0214 114.995 74.0588 113.994C74.1043 112.984 74.1428 111.837 74.1743 110.553L83.4722 110.358L83.7165 122.018L85.0287 121.991L85.13 126.827L83.0054 126.872L82.9426 123.872L73.4447 124.071L73.5075 127.071L71.383 127.115ZM74.7059 122.207L81.4919 122.065L81.2862 112.242L76.2248 112.348C76.2122 112.94 76.1919 113.562 76.1638 114.212C76.1356 114.855 76.0991 115.497 76.0542 116.14C76.0176 116.783 75.9679 117.392 75.9049 117.969C75.8501 118.536 75.7816 119.046 75.6994 119.498C75.6042 120.125 75.4903 120.657 75.3577 121.093C75.2252 121.529 75.0079 121.901 74.7059 122.207ZM86.1385 126.806L86.0372 121.97C86.7954 121.954 87.3318 121.697 87.6464 121.198C87.9609 120.692 88.2061 119.866 88.3822 118.72C88.5005 118.001 88.5927 117.232 88.659 116.414C88.7252 115.595 88.777 114.686 88.8143 113.685C88.8599 112.675 88.8984 111.528 88.9298 110.244L98.2278 110.049L98.472 121.709L99.7842 121.682L99.8855 126.518L97.761 126.563L97.6982 123.563L88.2003 123.762L88.2631 126.762L86.1385 126.806ZM89.4615 121.898L96.2475 121.756L96.0417 111.933L90.9803 112.039C90.9677 112.631 90.9474 113.252 90.9194 113.903C90.8912 114.546 90.8546 115.188 90.8097 115.831C90.7732 116.473 90.7234 117.083 90.6605 117.659C90.6057 118.227 90.5372 118.737 90.455 119.189C90.3598 119.816 90.2459 120.348 90.1133 120.784C89.9807 121.22 89.7635 121.592 89.4615 121.898ZM107.688 123.729C106.363 123.757 105.199 123.49 104.195 122.927C103.2 122.356 102.416 121.552 101.844 120.513C101.272 119.467 100.971 118.239 100.942 116.831C100.911 115.357 101.155 114.076 101.674 112.99C102.193 111.896 102.929 111.047 103.884 110.443C104.846 109.831 105.981 109.512 107.289 109.484C108.647 109.456 109.808 109.744 110.771 110.349C111.742 110.954 112.477 111.83 112.976 112.979C113.484 114.127 113.721 115.501 113.688 117.102L111.438 117.149L111.421 116.349C111.362 114.692 110.998 113.462 110.331 112.659C109.664 111.848 108.689 111.456 107.406 111.482C106.031 111.511 104.995 111.975 104.297 112.873C103.599 113.771 103.267 115.045 103.302 116.694C103.335 118.286 103.719 119.511 104.454 120.371C105.189 121.231 106.219 121.647 107.543 121.619C108.435 121.601 109.205 121.38 109.855 120.958C110.505 120.536 111.009 119.938 111.368 119.164L113.52 119.856C113.02 121.059 112.248 122 111.204 122.68C110.168 123.352 108.996 123.702 107.688 123.729ZM102.565 117.335L102.528 115.548L112.5 115.339L112.538 117.126L102.565 117.335ZM122.305 123.423C121.039 123.45 119.966 123.159 119.086 122.553C118.206 121.938 117.53 121.097 117.058 120.032C116.593 118.958 116.347 117.751 116.319 116.409C116.291 115.051 116.486 113.83 116.905 112.746C117.333 111.662 117.973 110.803 118.827 110.168C119.688 109.533 120.753 109.202 122.019 109.176C123.269 109.15 124.35 109.44 125.263 110.046C126.184 110.643 126.897 111.474 127.403 112.539C127.909 113.603 128.176 114.811 128.204 116.16C128.232 117.51 128.016 118.727 127.555 119.812C127.095 120.897 126.417 121.766 125.522 122.418C124.635 123.062 123.563 123.397 122.305 123.423ZM116.212 129.177L115.803 109.681L117.79 109.64L117.998 119.575L118.248 119.57L118.449 129.13L116.212 129.177ZM121.987 121.392C122.879 121.373 123.611 121.133 124.185 120.671C124.759 120.208 125.184 119.591 125.459 118.818C125.735 118.037 125.862 117.168 125.842 116.21C125.822 115.26 125.658 114.405 125.351 113.645C125.051 112.884 124.597 112.285 123.988 111.848C123.387 111.41 122.628 111.201 121.712 111.22C120.837 111.239 120.117 111.47 119.551 111.916C118.985 112.353 118.568 112.957 118.301 113.73C118.034 114.494 117.91 115.376 117.931 116.376C117.952 117.359 118.108 118.235 118.399 119.004C118.698 119.764 119.144 120.359 119.737 120.789C120.329 121.21 121.079 121.411 121.987 121.392ZM128.598 122.916L133.905 116.053L128.577 109.414L131.052 109.362L136.202 115.88L136.063 109.257L138.088 109.214L138.227 115.838L143.099 109.109L145.574 109.058L140.529 115.915L146.119 122.549L143.532 122.603L138.232 116.088L138.37 122.711L136.346 122.754L136.207 116.13L131.185 122.862L128.598 122.916ZM147.599 122.518L147.328 109.021L149.578 108.974L149.714 115.472L155.239 108.855L158.126 108.795L152.306 115.668L159.109 122.277L155.997 122.342L149.724 115.972L149.861 122.471L147.599 122.518ZM163.697 122.556C162.689 122.577 161.839 122.411 161.149 122.059C160.466 121.698 159.943 121.218 159.58 120.617C159.226 120.016 159.041 119.353 159.026 118.628C159.011 117.92 159.132 117.305 159.388 116.782C159.652 116.252 160.026 115.811 160.51 115.459C160.994 115.098 161.576 114.811 162.255 114.597C162.893 114.409 163.606 114.244 164.395 114.102C165.192 113.952 165.998 113.814 166.812 113.689C167.626 113.563 168.386 113.443 169.092 113.328L168.302 113.808C168.302 112.607 168.042 111.725 167.522 111.161C167.01 110.596 166.137 110.327 164.904 110.353C164.088 110.37 163.375 110.573 162.766 110.96C162.166 111.34 161.749 111.949 161.517 112.787L159.392 112.194C159.692 111.004 160.301 110.062 161.22 109.367C162.139 108.673 163.361 108.31 164.886 108.278C166.11 108.252 167.165 108.451 168.049 108.874C168.941 109.289 169.588 109.934 169.99 110.809C170.19 111.222 170.321 111.673 170.381 112.164C170.441 112.646 170.477 113.154 170.488 113.687L170.663 122.035L168.688 122.076L168.62 118.84L169.089 119.13C168.604 120.232 167.909 121.072 167.004 121.649C166.107 122.226 165.005 122.529 163.697 122.556ZM163.995 120.687C164.795 120.67 165.484 120.514 166.061 120.218C166.647 119.914 167.113 119.525 167.462 119.051C167.81 118.569 168.033 118.048 168.129 117.487C168.246 117.068 168.303 116.604 168.3 116.096C168.306 115.579 168.306 115.183 168.3 114.908L169.082 115.229C168.36 115.344 167.649 115.455 166.951 115.561C166.253 115.668 165.593 115.781 164.97 115.903C164.348 116.016 163.788 116.148 163.291 116.301C162.927 116.425 162.584 116.582 162.263 116.772C161.95 116.962 161.697 117.205 161.503 117.501C161.317 117.788 161.229 118.144 161.238 118.569C161.246 118.936 161.345 119.284 161.535 119.613C161.734 119.942 162.031 120.207 162.427 120.407C162.831 120.607 163.354 120.7 163.995 120.687Z"/></clipPath><linearGradient id="paint0_linear_18695_21048" x1="278.043" y1="77.1413" x2="236.72" y2="-19.399" gradientUnits="userSpaceOnUse">
<stop stop-color="#D57384"/>
<stop offset="0.921875" stop-color="#4881D9"/>
</linearGradient>
<linearGradient id="paint1_linear_18695_21048" x1="575.29" y1="-119.659" x2="284.977" y2="-363.974" gradientUnits="userSpaceOnUse">
<stop stop-color="#D57384"/>
<stop offset="0.0001" stop-color="#9D3E4D"/>
<stop offset="1" stop-color="#4881D9"/>
</linearGradient>
<linearGradient id="paint2_diamond_18695_21048" x1="0" y1="0" x2="500" y2="500" gradientUnits="userSpaceOnUse">
<stop stop-color="#FDFDFD"/>
<stop offset="0.0001" stop-color="#F3E7E9"/>
<stop offset="0.921875" stop-color="#E3EEFF"/>
</linearGradient>
</defs>
</svg>
