<svg width="300" height="81" viewBox="0 0 300 81" fill="none" xmlns="http://www.w3.org/2000/svg">
<rect x="40.5" y="29.9541" width="219.77" height="30" rx="10" transform="rotate(-1.19873 40.5 29.9541)" fill="#13131A"/>
<path d="M16.3892 24V9.42H28.3367V24H25.9337V11.7015H18.7922V24H16.3892ZM38.2736 24.405C36.9056 24.405 35.7536 24.0675 34.8176 23.3925C33.8816 22.7085 33.1706 21.786 32.6846 20.625C32.2076 19.455 31.9691 18.1455 31.9691 16.6965C31.9691 15.2295 32.2076 13.9155 32.6846 12.7545C33.1706 11.5935 33.8816 10.68 34.8176 10.014C35.7626 9.348 36.9191 9.015 38.2871 9.015C39.6371 9.015 40.7981 9.3525 41.7701 10.0275C42.7511 10.6935 43.5026 11.607 44.0246 12.768C44.5466 13.929 44.8076 15.2385 44.8076 16.6965C44.8076 18.1545 44.5466 19.464 44.0246 20.625C43.5026 21.786 42.7511 22.7085 41.7701 23.3925C40.7981 24.0675 39.6326 24.405 38.2736 24.405ZM31.5641 30.48V9.42H33.7106V20.1525H33.9806V30.48H31.5641ZM37.9766 22.2045C38.9396 22.2045 39.7361 21.9615 40.3661 21.4755C40.9961 20.9895 41.4686 20.3325 41.7836 19.5045C42.0986 18.6675 42.2561 17.7315 42.2561 16.6965C42.2561 15.6705 42.0986 14.7435 41.7836 13.9155C41.4776 13.0875 41.0006 12.4305 40.3526 11.9445C39.7136 11.4585 38.8991 11.2155 37.9091 11.2155C36.9641 11.2155 36.1811 11.4495 35.5601 11.9175C34.9391 12.3765 34.4756 13.02 34.1696 13.848C33.8636 14.667 33.7106 15.6165 33.7106 16.6965C33.7106 17.7585 33.8591 18.708 34.1561 19.545C34.4621 20.373 34.9301 21.0255 35.5601 21.5025C36.1901 21.9705 36.9956 22.2045 37.9766 22.2045ZM53.437 24.405C51.988 24.405 50.737 24.0765 49.684 23.4195C48.64 22.7625 47.8345 21.8535 47.2675 20.6925C46.7005 19.5315 46.417 18.1995 46.417 16.6965C46.417 15.1665 46.705 13.8255 47.281 12.6735C47.857 11.5215 48.6715 10.626 49.7245 9.987C50.7775 9.339 52.015 9.015 53.437 9.015C54.895 9.015 56.1505 9.3435 57.2035 10.0005C58.2565 10.6485 59.062 11.553 59.62 12.714C60.187 13.866 60.4705 15.1935 60.4705 16.6965C60.4705 18.2175 60.187 19.5585 59.62 20.7195C59.053 21.8715 58.243 22.776 57.19 23.433C56.137 24.081 54.886 24.405 53.437 24.405ZM53.437 22.1235C54.949 22.1235 56.074 21.6195 56.812 20.6115C57.55 19.6035 57.919 18.2985 57.919 16.6965C57.919 15.0495 57.5455 13.74 56.7985 12.768C56.0515 11.787 54.931 11.2965 53.437 11.2965C52.42 11.2965 51.583 11.526 50.926 11.985C50.269 12.444 49.7785 13.0785 49.4545 13.8885C49.1305 14.6985 48.9685 15.6345 48.9685 16.6965C48.9685 18.3345 49.3465 19.6485 50.1025 20.6385C50.8585 21.6285 51.97 22.1235 53.437 22.1235ZM69.0454 24.405C67.5694 24.405 66.3139 24.0765 65.2789 23.4195C64.2529 22.7535 63.4699 21.84 62.9299 20.679C62.3899 19.518 62.1109 18.195 62.0929 16.71C62.1109 15.189 62.3944 13.8525 62.9434 12.7005C63.5014 11.5395 64.2979 10.635 65.3329 9.987C66.3679 9.339 67.6144 9.015 69.0724 9.015C70.6114 9.015 71.9344 9.393 73.0414 10.149C74.1574 10.905 74.9044 11.94 75.2824 13.254L72.9064 13.9695C72.6004 13.1235 72.1009 12.4665 71.4079 11.9985C70.7239 11.5305 69.9364 11.2965 69.0454 11.2965C68.0464 11.2965 67.2229 11.5305 66.5749 11.9985C65.9269 12.4575 65.4454 13.0965 65.1304 13.9155C64.8154 14.7255 64.6534 15.657 64.6444 16.71C64.6624 18.33 65.0359 19.6395 65.7649 20.6385C66.5029 21.6285 67.5964 22.1235 69.0454 22.1235C69.9994 22.1235 70.7914 21.9075 71.4214 21.4755C72.0514 21.0345 72.5284 20.4 72.8524 19.572L75.2824 20.2065C74.7784 21.5655 73.9909 22.605 72.9199 23.325C71.8489 24.045 70.5574 24.405 69.0454 24.405ZM81.0949 24V11.607H76.0189V9.42H88.5739V11.607H83.4979V24H81.0949ZM96.5358 24.405C95.0868 24.405 93.8358 24.0765 92.7828 23.4195C91.7388 22.7625 90.9333 21.8535 90.3663 20.6925C89.7993 19.5315 89.5158 18.1995 89.5158 16.6965C89.5158 15.1665 89.8038 13.8255 90.3798 12.6735C90.9558 11.5215 91.7703 10.626 92.8233 9.987C93.8763 9.339 95.1138 9.015 96.5358 9.015C97.9938 9.015 99.2493 9.3435 100.302 10.0005C101.355 10.6485 102.161 11.553 102.719 12.714C103.286 13.866 103.569 15.1935 103.569 16.6965C103.569 18.2175 103.286 19.5585 102.719 20.7195C102.152 21.8715 101.342 22.776 100.289 23.433C99.2358 24.081 97.9848 24.405 96.5358 24.405ZM96.5358 22.1235C98.0478 22.1235 99.1728 21.6195 99.9108 20.6115C100.649 19.6035 101.018 18.2985 101.018 16.6965C101.018 15.0495 100.644 13.74 99.8973 12.768C99.1503 11.787 98.0298 11.2965 96.5358 11.2965C95.5188 11.2965 94.6818 11.526 94.0248 11.985C93.3678 12.444 92.8773 13.0785 92.5533 13.8885C92.2293 14.6985 92.0673 15.6345 92.0673 16.6965C92.0673 18.3345 92.4453 19.6485 93.2013 20.6385C93.9573 21.6285 95.0688 22.1235 96.5358 22.1235ZM112.279 7.719C111.604 7.719 110.988 7.5525 110.43 7.2195C109.872 6.8865 109.426 6.4455 109.093 5.8965C108.76 5.3385 108.594 4.7175 108.594 4.0335H110.538C110.538 4.5105 110.709 4.92 111.051 5.262C111.393 5.604 111.802 5.775 112.279 5.775C112.765 5.775 113.175 5.604 113.508 5.262C113.85 4.92 114.021 4.5105 114.021 4.0335H115.965C115.965 4.7175 115.798 5.3385 115.465 5.8965C115.141 6.4455 114.696 6.8865 114.129 7.2195C113.571 7.5525 112.954 7.719 112.279 7.719ZM117.936 9.42V24H115.614V13.254L107.973 24H105.988V9.42H108.31V20.0175L115.965 9.42H117.936ZM137.976 9.42V24H135.654V13.254L128.013 24H126.028V9.42H128.35V20.0175L136.005 9.42H137.976ZM141.203 24V9.42H143.606V15.5625H151.274V9.42H153.677V24H151.274V17.844H143.606V24H141.203ZM163.061 24.405C161.585 24.405 160.33 24.0765 159.295 23.4195C158.269 22.7535 157.486 21.84 156.946 20.679C156.406 19.518 156.127 18.195 156.109 16.71C156.127 15.189 156.41 13.8525 156.959 12.7005C157.517 11.5395 158.314 10.635 159.349 9.987C160.384 9.339 161.63 9.015 163.088 9.015C164.627 9.015 165.95 9.393 167.057 10.149C168.173 10.905 168.92 11.94 169.298 13.254L166.922 13.9695C166.616 13.1235 166.117 12.4665 165.424 11.9985C164.74 11.5305 163.952 11.2965 163.061 11.2965C162.062 11.2965 161.239 11.5305 160.591 11.9985C159.943 12.4575 159.461 13.0965 159.146 13.9155C158.831 14.7255 158.669 15.657 158.66 16.71C158.678 18.33 159.052 19.6395 159.781 20.6385C160.519 21.6285 161.612 22.1235 163.061 22.1235C164.015 22.1235 164.807 21.9075 165.437 21.4755C166.067 21.0345 166.544 20.4 166.868 19.572L169.298 20.2065C168.794 21.5655 168.007 22.605 166.936 23.325C165.865 24.045 164.573 24.405 163.061 24.405ZM175.111 24V11.607H170.035V9.42H182.59V11.607H177.514V24H175.111ZM191.301 24.405C189.933 24.405 188.781 24.0675 187.845 23.3925C186.909 22.7085 186.198 21.786 185.712 20.625C185.235 19.455 184.997 18.1455 184.997 16.6965C184.997 15.2295 185.235 13.9155 185.712 12.7545C186.198 11.5935 186.909 10.68 187.845 10.014C188.79 9.348 189.947 9.015 191.315 9.015C192.665 9.015 193.826 9.3525 194.798 10.0275C195.779 10.6935 196.53 11.607 197.052 12.768C197.574 13.929 197.835 15.2385 197.835 16.6965C197.835 18.1545 197.574 19.464 197.052 20.625C196.53 21.786 195.779 22.7085 194.798 23.3925C193.826 24.0675 192.66 24.405 191.301 24.405ZM184.592 30.48V9.42H186.738V20.1525H187.008V30.48H184.592ZM191.004 22.2045C191.967 22.2045 192.764 21.9615 193.394 21.4755C194.024 20.9895 194.496 20.3325 194.811 19.5045C195.126 18.6675 195.284 17.7315 195.284 16.6965C195.284 15.6705 195.126 14.7435 194.811 13.9155C194.505 13.0875 194.028 12.4305 193.38 11.9445C192.741 11.4585 191.927 11.2155 190.937 11.2155C189.992 11.2155 189.209 11.4495 188.588 11.9175C187.967 12.3765 187.503 13.02 187.197 13.848C186.891 14.667 186.738 15.6165 186.738 16.6965C186.738 17.7585 186.887 18.708 187.184 19.545C187.49 20.373 187.958 21.0255 188.588 21.5025C189.218 21.9705 190.023 22.2045 191.004 22.2045ZM201.752 30.48L204.574 22.812L204.614 25.08L198.242 9.42H200.767L205.762 22.0155H204.898L209.582 9.42H212.026L204.088 30.48H201.752ZM249.225 24.405C247.794 24.405 246.543 24.09 245.472 23.46C244.41 22.821 243.582 21.9345 242.988 20.8005C242.394 19.6575 242.097 18.3255 242.097 16.8045C242.097 15.2115 242.39 13.8345 242.975 12.6735C243.56 11.5035 244.374 10.6035 245.418 9.9735C246.471 9.3345 247.704 9.015 249.117 9.015C250.584 9.015 251.831 9.3525 252.857 10.0275C253.892 10.7025 254.666 11.6655 255.179 12.9165C255.701 14.1675 255.926 15.657 255.854 17.385H253.424V16.521C253.397 14.73 253.032 13.3935 252.33 12.5115C251.628 11.6205 250.584 11.175 249.198 11.175C247.713 11.175 246.584 11.652 245.81 12.606C245.036 13.56 244.649 14.928 244.649 16.71C244.649 18.429 245.036 19.761 245.81 20.706C246.584 21.651 247.686 22.1235 249.117 22.1235C250.08 22.1235 250.917 21.903 251.628 21.462C252.339 21.021 252.897 20.3865 253.302 19.5585L255.611 20.355C255.044 21.642 254.189 22.641 253.046 23.352C251.912 24.054 250.638 24.405 249.225 24.405ZM243.839 17.385V15.4545H254.612V17.385H243.839ZM258.306 24V9.42H260.709V15.5625H268.377V9.42H270.78V24H268.377V17.844H260.709V24H258.306ZM277.883 24V11.607H272.807V9.42H285.362V11.607H280.286V24H277.883ZM95.9506 78.4185C94.5736 78.4095 93.3991 78.1125 92.4271 77.5275C91.4551 76.9335 90.6991 76.065 90.1591 74.922C89.6191 73.779 89.3176 72.3795 89.2546 70.7235C89.2186 69.9585 89.2276 69.117 89.2816 68.199C89.3446 67.281 89.4436 66.399 89.5786 65.553C89.7226 64.707 89.9026 64.0095 90.1186 63.4605C90.3616 62.8035 90.7036 62.196 91.1446 61.638C91.5946 61.071 92.0986 60.603 92.6566 60.234C93.2236 59.847 93.8581 59.5455 94.5601 59.3295C95.2621 59.1135 95.9956 58.947 96.7606 58.83C97.5346 58.704 98.3086 58.596 99.0826 58.506C99.8566 58.407 100.595 58.29 101.297 58.155L101.54 60.315C101.045 60.423 100.46 60.5175 99.7846 60.5985C99.1096 60.6705 98.4076 60.756 97.6786 60.855C96.9586 60.954 96.2656 61.0935 95.5996 61.2735C94.9426 61.4445 94.3756 61.683 93.8986 61.989C93.1966 62.412 92.6566 63.0465 92.2786 63.8925C91.9096 64.7295 91.6846 65.67 91.6036 66.714C92.1616 65.85 92.8861 65.2155 93.7771 64.8105C94.6681 64.4055 95.6176 64.203 96.6256 64.203C97.9306 64.203 99.0556 64.509 100.001 65.121C100.946 65.724 101.67 66.5565 102.174 67.6185C102.687 68.6805 102.944 69.891 102.944 71.25C102.944 72.69 102.656 73.95 102.08 75.03C101.504 76.11 100.689 76.947 99.6361 77.541C98.5921 78.135 97.3636 78.4275 95.9506 78.4185ZM96.0991 76.137C97.5121 76.137 98.5831 75.7005 99.3121 74.8275C100.041 73.9455 100.406 72.7755 100.406 71.3175C100.406 69.8235 100.028 68.649 99.2716 67.794C98.5156 66.93 97.4536 66.498 96.0856 66.498C94.6996 66.498 93.6376 66.93 92.8996 67.794C92.1706 68.649 91.8061 69.8235 91.8061 71.3175C91.8061 72.8205 92.1751 73.9995 92.9131 74.8545C93.6511 75.7095 94.7131 76.137 96.0991 76.137ZM117.318 63.42V78H114.996V67.254L107.355 78H105.37V63.42H107.692V74.0175L115.347 63.42H117.318ZM125.783 78.405C124.343 78.405 123.069 78.0945 121.962 77.4735C120.855 76.8435 119.982 75.9795 119.343 74.8815L121.26 73.6395C121.791 74.4405 122.426 75.057 123.164 75.489C123.902 75.912 124.743 76.1235 125.688 76.1235C126.678 76.1235 127.466 75.8985 128.051 75.4485C128.636 74.9895 128.928 74.373 128.928 73.599C128.928 73.023 128.784 72.582 128.496 72.276C128.208 71.97 127.794 71.7585 127.254 71.6415C126.714 71.5245 126.071 71.466 125.324 71.466H123.812V69.4815H125.31C126.255 69.4815 127.025 69.3285 127.619 69.0225C128.213 68.7165 128.51 68.1945 128.51 67.4565C128.51 66.7005 128.231 66.1515 127.673 65.8095C127.124 65.4585 126.467 65.283 125.702 65.283C124.892 65.283 124.118 65.454 123.38 65.796C122.642 66.129 122.007 66.552 121.476 67.065L120.018 65.4315C120.774 64.6575 121.643 64.0635 122.624 63.6495C123.614 63.2265 124.689 63.015 125.85 63.015C126.786 63.015 127.641 63.1815 128.415 63.5145C129.198 63.8385 129.819 64.32 130.278 64.959C130.746 65.589 130.98 66.3585 130.98 67.2675C130.98 68.0415 130.8 68.73 130.44 69.333C130.08 69.936 129.549 70.4625 128.847 70.9125L128.753 70.062C129.347 70.206 129.837 70.4715 130.224 70.8585C130.62 71.2365 130.913 71.6865 131.102 72.2085C131.291 72.7305 131.385 73.275 131.385 73.842C131.385 74.796 131.133 75.615 130.629 76.299C130.134 76.974 129.464 77.496 128.618 77.865C127.772 78.225 126.827 78.405 125.783 78.405ZM133.795 78V63.42H136.198V69.5625H143.866V63.42H146.269V78H143.866V71.844H136.198V78H133.795ZM155.829 78.405C154.398 78.405 153.147 78.09 152.076 77.46C151.014 76.821 150.186 75.9345 149.592 74.8005C148.998 73.6575 148.701 72.3255 148.701 70.8045C148.701 69.2115 148.993 67.8345 149.578 66.6735C150.163 65.5035 150.978 64.6035 152.022 63.9735C153.075 63.3345 154.308 63.015 155.721 63.015C157.188 63.015 158.434 63.3525 159.46 64.0275C160.495 64.7025 161.269 65.6655 161.782 66.9165C162.304 68.1675 162.529 69.657 162.457 71.385H160.027V70.521C160 68.73 159.636 67.3935 158.934 66.5115C158.232 65.6205 157.188 65.175 155.802 65.175C154.317 65.175 153.187 65.652 152.413 66.606C151.639 67.56 151.252 68.928 151.252 70.71C151.252 72.429 151.639 73.761 152.413 74.706C153.187 75.651 154.29 76.1235 155.721 76.1235C156.684 76.1235 157.521 75.903 158.232 75.462C158.943 75.021 159.501 74.3865 159.906 73.5585L162.214 74.355C161.647 75.642 160.792 76.641 159.649 77.352C158.515 78.054 157.242 78.405 155.829 78.405ZM150.442 71.385V69.4545H161.215V71.385H150.442ZM171.065 78.405C169.589 78.405 168.334 78.0765 167.299 77.4195C166.273 76.7535 165.49 75.84 164.95 74.679C164.41 73.518 164.131 72.195 164.113 70.71C164.131 69.189 164.414 67.8525 164.963 66.7005C165.521 65.5395 166.318 64.635 167.353 63.987C168.388 63.339 169.634 63.015 171.092 63.015C172.631 63.015 173.954 63.393 175.061 64.149C176.177 64.905 176.924 65.94 177.302 67.254L174.926 67.9695C174.62 67.1235 174.121 66.4665 173.428 65.9985C172.744 65.5305 171.956 65.2965 171.065 65.2965C170.066 65.2965 169.243 65.5305 168.595 65.9985C167.947 66.4575 167.465 67.0965 167.15 67.9155C166.835 68.7255 166.673 69.657 166.664 70.71C166.682 72.33 167.056 73.6395 167.785 74.6385C168.523 75.6285 169.616 76.1235 171.065 76.1235C172.019 76.1235 172.811 75.9075 173.441 75.4755C174.071 75.0345 174.548 74.4 174.872 73.572L177.302 74.2065C176.798 75.5655 176.011 76.605 174.94 77.325C173.869 78.045 172.577 78.405 171.065 78.405ZM185.332 78.405C183.883 78.405 182.632 78.0765 181.579 77.4195C180.535 76.7625 179.73 75.8535 179.163 74.6925C178.596 73.5315 178.312 72.1995 178.312 70.6965C178.312 69.1665 178.6 67.8255 179.176 66.6735C179.752 65.5215 180.567 64.626 181.62 63.987C182.673 63.339 183.91 63.015 185.332 63.015C186.79 63.015 188.046 63.3435 189.099 64.0005C190.152 64.6485 190.957 65.553 191.515 66.714C192.082 67.866 192.366 69.1935 192.366 70.6965C192.366 72.2175 192.082 73.5585 191.515 74.7195C190.948 75.8715 190.138 76.776 189.085 77.433C188.032 78.081 186.781 78.405 185.332 78.405ZM185.332 76.1235C186.844 76.1235 187.969 75.6195 188.707 74.6115C189.445 73.6035 189.814 72.2985 189.814 70.6965C189.814 69.0495 189.441 67.74 188.694 66.768C187.947 65.787 186.826 65.2965 185.332 65.2965C184.315 65.2965 183.478 65.526 182.821 65.985C182.164 66.444 181.674 67.0785 181.35 67.8885C181.026 68.6985 180.864 69.6345 180.864 70.6965C180.864 72.3345 181.242 73.6485 181.998 74.6385C182.754 75.6285 183.865 76.1235 185.332 76.1235ZM194.784 78V63.42H196.85L202.385 74.733L207.92 63.42H209.985V78H207.663V68.4285L203.019 78H201.75L197.106 68.4285V78H194.784Z" fill="#13131A"/>
<path d="M234.548 8.98566C239.124 9.29417 239.278 12.7393 239.433 15.2073C239.556 17.1819 239.484 21.9255 239.433 23.9993H235.782V14.5902C235.731 13.5104 235.274 12.9283 234.548 12.8929C232.44 12.7904 230.794 21.3165 230.229 23.9388H228.374C228.374 23.9419 228.374 23.9454 228.374 23.9486H224.929V14.5902C224.877 13.5105 224.421 12.9284 223.695 12.8929C221.587 12.7901 220.044 20.9055 219.376 23.9486H217.833V23.9476H214.543L213 9.2425H217.217L217.812 14.9212C218.561 12.4255 220.455 8.76724 223.695 8.98566C228.271 9.29429 228.22 12.7393 228.374 15.2073C228.391 15.4863 228.404 15.8194 228.414 16.1917L228.429 15.8236C228.943 13.4411 230.887 8.73894 234.548 8.98566Z" fill="#13131A"/>
<g clip-path="url(#paint0_diamond_18695_21043_clip_path)" data-figma-skip-parse="true"><g transform="matrix(-0.248643 0.0260403 0.573076 -0.183047 214.757 24.8165)"><rect x="0" y="0" width="937.937" height="259.153" fill="url(#paint0_diamond_18695_21043)" opacity="1" shape-rendering="crispEdges"/><rect x="0" y="0" width="937.937" height="259.153" transform="scale(1 -1)" fill="url(#paint0_diamond_18695_21043)" opacity="1" shape-rendering="crispEdges"/><rect x="0" y="0" width="937.937" height="259.153" transform="scale(-1 1)" fill="url(#paint0_diamond_18695_21043)" opacity="1" shape-rendering="crispEdges"/><rect x="0" y="0" width="937.937" height="259.153" transform="scale(-1)" fill="url(#paint0_diamond_18695_21043)" opacity="1" shape-rendering="crispEdges"/></g></g><path d="M50.8057 56.2082L50.6963 50.9848C51.5151 50.9676 52.0944 50.69 52.4343 50.1517C52.7739 49.6045 53.0387 48.7122 53.2289 47.475C53.3566 46.6981 53.4563 45.8679 53.5278 44.9842C53.5993 44.1005 53.6552 43.1181 53.6956 42.037C53.7448 40.9468 53.7863 39.7081 53.8203 38.3211L63.8621 38.1107L64.1259 50.7035L65.5431 50.6738L65.6525 55.8972L63.358 55.9452L63.2901 52.7059L53.0324 52.9208L53.1002 56.1601L50.8057 56.2082ZM54.3945 50.9073L61.7234 50.7538L61.5012 40.1451L56.0349 40.2596C56.0213 40.8991 55.9993 41.5702 55.969 42.273C55.9385 42.9668 55.8991 43.6607 55.8506 44.3549C55.8111 45.0489 55.7574 45.7071 55.6894 46.3297C55.6303 46.9431 55.5563 47.4938 55.4675 47.9817C55.3646 48.659 55.2416 49.2332 55.0985 49.7043C54.9553 50.1754 54.7206 50.5764 54.3945 50.9073ZM66.4039 52.6407L66.3607 50.5757C66.9026 50.6633 67.3117 50.6368 67.5878 50.4959C67.8727 50.3459 68.079 50.0941 68.2066 49.7403C68.343 49.3774 68.4506 48.925 68.5292 48.3833C68.6643 47.5252 68.7748 46.5687 68.8607 45.5137C68.9556 44.4585 69.035 43.3046 69.0988 42.0519C69.1714 40.7901 69.2331 39.4386 69.2839 37.9972L79.4742 37.7837L79.7795 52.3605L77.377 52.4109L77.1195 40.115L71.5182 40.2324C71.4815 41.0613 71.4319 41.9131 71.3692 42.7876C71.3155 43.6619 71.2568 44.5138 71.1932 45.3433C71.1293 46.1638 71.0554 46.9305 70.9713 47.6435C70.896 48.3472 70.8097 48.9566 70.7125 49.4718C70.56 50.3572 70.3364 51.0685 70.0416 51.6058C69.7466 52.1341 69.3127 52.4808 68.74 52.6458C68.1676 52.8198 67.3889 52.8181 66.4039 52.6407ZM92.0331 52.1038L91.9226 46.8265L88.7778 46.8924C88.4088 46.9001 87.9992 46.8952 87.5487 46.8776C87.107 46.8509 86.6921 46.81 86.3039 46.7552C85.2469 46.5793 84.3464 46.1345 83.6023 45.4209C82.8672 44.7072 82.4862 43.7069 82.4592 42.4202C82.433 41.1695 82.7494 40.1592 83.4085 39.3892C84.0763 38.61 84.9072 38.0975 85.9013 37.8516C86.3489 37.7342 86.8021 37.6662 87.2608 37.6476C87.7283 37.6198 88.1241 37.6025 88.448 37.5957L94.1303 37.4767L94.4491 52.0532L92.0331 52.1038ZM82.2208 52.3094L85.97 46.2895L88.5615 46.2353L84.8122 52.2551L82.2208 52.3094ZM88.5607 44.912L91.881 44.8424L91.7693 39.5111L88.4491 39.5807C88.2421 39.585 87.9679 39.5997 87.6263 39.6249C87.2938 39.6499 86.9755 39.7106 86.6714 39.8069C86.3852 39.894 86.1049 40.0484 85.8304 40.2702C85.565 40.4918 85.3459 40.7754 85.1731 41.1211C85.0003 41.4668 84.9188 41.8736 84.9286 42.3415C84.9428 43.0163 85.1432 43.5613 85.53 43.9763C85.9166 44.3823 86.3813 44.6516 86.9242 44.7842C87.2227 44.85 87.516 44.8889 87.8043 44.9008C88.1017 44.9126 88.3538 44.9163 88.5607 44.912ZM104.726 58.3194L107.386 50.594L107.474 52.8606L100.775 37.3375L103.299 37.2847L108.557 49.7728L107.693 49.7909L112.113 37.1L114.556 37.0489L107.061 58.2705L104.726 58.3194ZM116.537 51.5906L116.232 37.0138L128.177 36.7635L128.482 51.3404L126.08 51.3907L125.822 39.0949L118.682 39.2444L118.94 51.5402L116.537 51.5906ZM138.425 51.5372C137.058 51.5658 135.899 51.2525 134.949 50.5973C133.999 49.933 133.269 49.0256 132.758 47.875C132.257 46.7153 131.991 45.4111 131.961 43.9624C131.93 42.4957 132.141 41.177 132.593 40.0063C133.055 38.8353 133.747 37.9072 134.669 37.2217C135.599 36.5361 136.749 36.1789 138.116 36.1503C139.466 36.122 140.634 36.4351 141.62 37.0896C142.615 37.7349 143.385 38.6325 143.931 39.7823C144.477 40.9321 144.766 42.2358 144.796 43.6935C144.827 45.1512 144.593 46.4659 144.096 47.6376C143.598 48.8092 142.866 49.7473 141.9 50.4517C140.942 51.1469 139.784 51.5087 138.425 51.5372ZM131.844 57.7513L131.403 36.696L133.549 36.651L133.774 47.3812L134.044 47.3755L134.26 57.7007L131.844 57.7513ZM138.082 49.3434C139.045 49.3232 139.836 49.0636 140.456 48.5645C141.076 48.0654 141.534 47.3986 141.832 46.5642C142.129 45.7208 142.267 44.7817 142.245 43.7469C142.224 42.7212 142.047 41.7977 141.715 40.9765C141.392 40.155 140.901 39.5082 140.243 39.0359C139.594 38.5633 138.774 38.3375 137.785 38.3582C136.84 38.378 136.062 38.6283 135.451 39.1092C134.84 39.5811 134.39 40.2342 134.101 41.0684C133.812 41.8937 133.679 42.8461 133.702 43.9259C133.724 44.9877 133.892 45.9339 134.207 46.7645C134.53 47.5859 135.012 48.2284 135.652 48.6921C136.291 49.1468 137.101 49.3639 138.082 49.3434ZM151.52 51.2629C150.432 51.2857 149.514 51.1068 148.768 50.7264C148.031 50.3367 147.466 49.8174 147.074 49.1685C146.692 48.5194 146.492 47.8034 146.476 47.0206C146.46 46.2557 146.59 45.5914 146.866 45.0275C147.151 44.4544 147.555 43.9778 148.079 43.5978C148.601 43.2087 149.23 42.8985 149.963 42.6671C150.652 42.4636 151.422 42.2854 152.274 42.1326C153.135 41.9705 154.005 41.8217 154.884 41.6863C155.764 41.5509 156.585 41.4211 157.347 41.2971L156.494 41.8146C156.494 40.5183 156.213 39.5655 155.651 38.9562C155.098 38.3466 154.156 38.0558 152.824 38.0837C151.942 38.1021 151.173 38.3208 150.515 38.7397C149.867 39.1493 149.417 39.8069 149.166 40.7124L146.87 40.0718C147.195 38.7867 147.853 37.7692 148.845 37.0193C149.838 36.2693 151.158 35.8771 152.804 35.8426C154.127 35.8149 155.266 36.0296 156.22 36.4867C157.184 36.9346 157.883 37.6311 158.317 38.5762C158.533 39.0218 158.674 39.5095 158.739 40.0392C158.804 40.56 158.842 41.1083 158.854 41.6842L159.043 50.7002L156.911 50.7449L156.837 47.2491L157.344 47.5626C156.819 48.7528 156.069 49.6598 155.092 50.2834C154.123 50.9068 152.933 51.2333 151.52 51.2629ZM151.843 49.2442C152.706 49.2261 153.45 49.0575 154.074 48.7383C154.706 48.41 155.21 47.9899 155.586 47.4779C155.963 46.9569 156.203 46.3937 156.307 45.7884C156.433 45.3357 156.494 44.8348 156.492 44.2857C156.498 43.7275 156.498 43.2999 156.492 43.0029L157.336 43.3498C156.556 43.4742 155.789 43.5938 155.035 43.7086C154.281 43.8234 153.568 43.9464 152.896 44.0775C152.223 44.1996 151.618 44.3428 151.082 44.5071C150.688 44.6413 150.318 44.8111 149.972 45.0164C149.634 45.2215 149.36 45.4838 149.151 45.8033C148.95 46.1135 148.855 46.4981 148.865 46.957C148.873 47.3529 148.98 47.7288 149.185 48.0846C149.4 48.4401 149.721 48.726 150.148 48.9421C150.585 49.158 151.15 49.2587 151.843 49.2442ZM161.999 50.6383L161.694 36.0615L167.902 35.9314C168.271 35.9237 168.668 35.9379 169.091 35.974C169.524 36.001 169.917 36.0603 170.27 36.1519C171.057 36.3424 171.709 36.7564 172.227 37.3937C172.753 38.0218 173.027 38.8262 173.047 39.807C173.059 40.3559 172.983 40.8346 172.821 41.2431C172.667 41.6514 172.441 42.0072 172.141 42.3106C172.009 42.4483 171.863 42.5729 171.703 42.6843C171.543 42.7957 171.383 42.8845 171.223 42.9509C171.539 42.9983 171.861 43.1131 172.188 43.2953C172.707 43.5635 173.116 43.9465 173.414 44.4443C173.722 44.942 173.884 45.5823 173.9 46.3651C173.921 47.3549 173.7 48.1787 173.236 48.8365C172.773 49.4854 172.125 49.9401 171.293 50.2005C170.945 50.3069 170.559 50.3824 170.137 50.4273C169.715 50.4632 169.305 50.4852 168.91 50.4935L161.999 50.6383ZM164.388 48.6303L168.734 48.5393C168.923 48.5353 169.147 48.5126 169.407 48.4712C169.676 48.4295 169.914 48.3795 170.12 48.3212C170.585 48.1764 170.917 47.9174 171.116 47.5442C171.324 47.1707 171.424 46.768 171.415 46.3361C171.403 45.7603 171.231 45.2958 170.9 44.9426C170.577 44.5893 170.154 44.3731 169.63 44.2941C169.44 44.244 169.233 44.2169 169.007 44.2126C168.791 44.2081 168.598 44.2077 168.427 44.2112L164.297 44.2978L164.388 48.6303ZM164.255 42.3137L167.872 42.2379C168.124 42.2326 168.389 42.2136 168.668 42.1808C168.946 42.1389 169.188 42.0753 169.393 41.99C169.804 41.8284 170.1 41.5701 170.282 41.2152C170.472 40.8512 170.563 40.4577 170.554 40.0348C170.544 39.5669 170.427 39.1597 170.204 38.8133C169.99 38.4578 169.665 38.217 169.23 38.0911C168.94 37.9891 168.615 37.9374 168.255 37.936C167.904 37.9253 167.678 37.921 167.579 37.9231L164.165 37.9946L164.255 42.3137ZM174.806 50.37L174.763 48.305C175.305 48.3926 175.714 48.366 175.99 48.2252C176.275 48.0752 176.481 47.8234 176.609 47.4696C176.745 47.1067 176.853 46.6543 176.932 46.1126C177.067 45.2545 177.177 44.298 177.263 43.243C177.358 42.1878 177.437 41.0339 177.501 39.7812C177.574 38.5194 177.635 37.1679 177.686 35.7265L187.876 35.513L188.182 50.0898L185.779 50.1401L185.522 37.8443L179.921 37.9617C179.884 38.7906 179.834 39.6423 179.771 40.5169C179.718 41.3912 179.659 42.2431 179.595 43.0726C179.532 43.8931 179.458 44.6598 179.374 45.3728C179.298 46.0765 179.212 46.6859 179.115 47.2011C178.962 48.0865 178.739 48.7978 178.444 49.3351C178.149 49.8634 177.715 50.21 177.142 50.3751C176.57 50.5491 175.791 50.5474 174.806 50.37ZM197.758 50.2943C196.327 50.3243 195.07 50.0356 193.986 49.4281C192.911 48.8115 192.065 47.9425 191.447 46.8212C190.829 45.6909 190.504 44.3654 190.472 42.8448C190.439 41.2521 190.703 39.8693 191.263 38.6963C191.824 37.5143 192.619 36.5974 193.65 35.9457C194.689 35.2848 195.915 34.9395 197.328 34.91C198.794 34.8792 200.048 35.1906 201.088 35.8439C202.137 36.4971 202.931 37.4437 203.47 38.6837C204.018 39.9234 204.274 41.4079 204.238 43.137L201.809 43.1879L201.79 42.3241C201.726 40.5341 201.334 39.2055 200.613 38.3384C199.893 37.4623 198.84 37.0388 197.454 37.0678C195.969 37.0989 194.85 37.5994 194.096 38.5694C193.342 39.5394 192.984 40.9152 193.021 42.6968C193.057 44.4155 193.472 45.7391 194.266 46.6677C195.059 47.5962 196.172 48.0455 197.602 48.0156C198.565 47.9954 199.397 47.7574 200.099 47.3016C200.8 46.8458 201.345 46.1998 201.733 45.3635L204.057 46.1115C203.517 47.4101 202.683 48.4268 201.556 49.1615C200.437 49.8871 199.171 50.2647 197.758 50.2943ZM192.226 43.3887L192.185 41.4586L202.956 41.233L202.996 43.163L192.226 43.3887ZM206.828 49.6992L206.523 35.1224L208.925 35.0721L209.054 41.2133L216.72 41.0527L216.592 34.9115L218.994 34.8612L219.299 49.438L216.897 49.4883L216.768 43.3337L209.102 43.4943L209.231 49.6489L206.828 49.6992ZM234.166 34.5434L234.472 49.1202L232.15 49.1688L231.925 38.4252L224.511 49.3288L222.527 49.3704L222.222 34.7936L224.543 34.745L224.765 45.3401L232.196 34.5847L234.166 34.5434ZM246.714 48.8637L246.604 43.5864L243.459 43.6523C243.09 43.66 242.68 43.6551 242.23 43.6375C241.788 43.6107 241.373 43.5699 240.985 43.515C239.928 43.3391 239.028 42.8944 238.284 42.1808C237.549 41.4671 237.168 40.4668 237.141 39.1801C237.114 37.9294 237.431 36.919 238.09 36.1491C238.758 35.3699 239.589 34.8574 240.583 34.6115C241.03 34.4941 241.483 34.4261 241.942 34.4075C242.41 34.3797 242.805 34.3624 243.129 34.3556L248.812 34.2366L249.13 48.8131L246.714 48.8637ZM236.902 49.0693L240.651 43.0494L243.243 42.9952L239.494 49.015L236.902 49.0693ZM243.242 41.6719L246.562 41.6023L246.451 36.271L243.13 36.3405C242.923 36.3449 242.649 36.3596 242.308 36.3848C241.975 36.4098 241.657 36.4704 241.353 36.5668C241.067 36.6538 240.786 36.8082 240.512 37.03C240.246 37.2516 240.027 37.5353 239.854 37.881C239.682 38.2267 239.6 38.6335 239.61 39.1014C239.624 39.7762 239.825 40.3212 240.211 40.7361C240.598 41.1421 241.063 41.4115 241.606 41.5441C241.904 41.6099 242.197 41.6488 242.486 41.6607C242.783 41.6725 243.035 41.6762 243.242 41.6719Z" data-figma-gradient-fill="{&#34;type&#34;:&#34;GRADIENT_DIAMOND&#34;,&#34;stops&#34;:[{&#34;color&#34;:{&#34;r&#34;:0.95294117927551270,&#34;g&#34;:0.90588235855102539,&#34;b&#34;:0.91372549533843994,&#34;a&#34;:1.0},&#34;position&#34;:0.0},{&#34;color&#34;:{&#34;r&#34;:0.95294117927551270,&#34;g&#34;:0.90588235855102539,&#34;b&#34;:0.91372549533843994,&#34;a&#34;:1.0},&#34;position&#34;:9.9999997473787516e-05},{&#34;color&#34;:{&#34;r&#34;:0.89019608497619629,&#34;g&#34;:0.93333333730697632,&#34;b&#34;:1.0,&#34;a&#34;:1.0},&#34;position&#34;:0.9218750}],&#34;stopsVar&#34;:[],&#34;transform&#34;:{&#34;m00&#34;:-497.28503417968750,&#34;m01&#34;:1146.1524658203125,&#34;m02&#34;:-109.67663574218750,&#34;m10&#34;:52.080680847167969,&#34;m11&#34;:-366.09426879882812,&#34;m12&#34;:181.82330322265625},&#34;opacity&#34;:1.0,&#34;blendMode&#34;:&#34;NORMAL&#34;,&#34;visible&#34;:true}"/>
<defs>
<clipPath id="paint0_diamond_18695_21043_clip_path"><path d="M50.8057 56.2082L50.6963 50.9848C51.5151 50.9676 52.0944 50.69 52.4343 50.1517C52.7739 49.6045 53.0387 48.7122 53.2289 47.475C53.3566 46.6981 53.4563 45.8679 53.5278 44.9842C53.5993 44.1005 53.6552 43.1181 53.6956 42.037C53.7448 40.9468 53.7863 39.7081 53.8203 38.3211L63.8621 38.1107L64.1259 50.7035L65.5431 50.6738L65.6525 55.8972L63.358 55.9452L63.2901 52.7059L53.0324 52.9208L53.1002 56.1601L50.8057 56.2082ZM54.3945 50.9073L61.7234 50.7538L61.5012 40.1451L56.0349 40.2596C56.0213 40.8991 55.9993 41.5702 55.969 42.273C55.9385 42.9668 55.8991 43.6607 55.8506 44.3549C55.8111 45.0489 55.7574 45.7071 55.6894 46.3297C55.6303 46.9431 55.5563 47.4938 55.4675 47.9817C55.3646 48.659 55.2416 49.2332 55.0985 49.7043C54.9553 50.1754 54.7206 50.5764 54.3945 50.9073ZM66.4039 52.6407L66.3607 50.5757C66.9026 50.6633 67.3117 50.6368 67.5878 50.4959C67.8727 50.3459 68.079 50.0941 68.2066 49.7403C68.343 49.3774 68.4506 48.925 68.5292 48.3833C68.6643 47.5252 68.7748 46.5687 68.8607 45.5137C68.9556 44.4585 69.035 43.3046 69.0988 42.0519C69.1714 40.7901 69.2331 39.4386 69.2839 37.9972L79.4742 37.7837L79.7795 52.3605L77.377 52.4109L77.1195 40.115L71.5182 40.2324C71.4815 41.0613 71.4319 41.9131 71.3692 42.7876C71.3155 43.6619 71.2568 44.5138 71.1932 45.3433C71.1293 46.1638 71.0554 46.9305 70.9713 47.6435C70.896 48.3472 70.8097 48.9566 70.7125 49.4718C70.56 50.3572 70.3364 51.0685 70.0416 51.6058C69.7466 52.1341 69.3127 52.4808 68.74 52.6458C68.1676 52.8198 67.3889 52.8181 66.4039 52.6407ZM92.0331 52.1038L91.9226 46.8265L88.7778 46.8924C88.4088 46.9001 87.9992 46.8952 87.5487 46.8776C87.107 46.8509 86.6921 46.81 86.3039 46.7552C85.2469 46.5793 84.3464 46.1345 83.6023 45.4209C82.8672 44.7072 82.4862 43.7069 82.4592 42.4202C82.433 41.1695 82.7494 40.1592 83.4085 39.3892C84.0763 38.61 84.9072 38.0975 85.9013 37.8516C86.3489 37.7342 86.8021 37.6662 87.2608 37.6476C87.7283 37.6198 88.1241 37.6025 88.448 37.5957L94.1303 37.4767L94.4491 52.0532L92.0331 52.1038ZM82.2208 52.3094L85.97 46.2895L88.5615 46.2353L84.8122 52.2551L82.2208 52.3094ZM88.5607 44.912L91.881 44.8424L91.7693 39.5111L88.4491 39.5807C88.2421 39.585 87.9679 39.5997 87.6263 39.6249C87.2938 39.6499 86.9755 39.7106 86.6714 39.8069C86.3852 39.894 86.1049 40.0484 85.8304 40.2702C85.565 40.4918 85.3459 40.7754 85.1731 41.1211C85.0003 41.4668 84.9188 41.8736 84.9286 42.3415C84.9428 43.0163 85.1432 43.5613 85.53 43.9763C85.9166 44.3823 86.3813 44.6516 86.9242 44.7842C87.2227 44.85 87.516 44.8889 87.8043 44.9008C88.1017 44.9126 88.3538 44.9163 88.5607 44.912ZM104.726 58.3194L107.386 50.594L107.474 52.8606L100.775 37.3375L103.299 37.2847L108.557 49.7728L107.693 49.7909L112.113 37.1L114.556 37.0489L107.061 58.2705L104.726 58.3194ZM116.537 51.5906L116.232 37.0138L128.177 36.7635L128.482 51.3404L126.08 51.3907L125.822 39.0949L118.682 39.2444L118.94 51.5402L116.537 51.5906ZM138.425 51.5372C137.058 51.5658 135.899 51.2525 134.949 50.5973C133.999 49.933 133.269 49.0256 132.758 47.875C132.257 46.7153 131.991 45.4111 131.961 43.9624C131.93 42.4957 132.141 41.177 132.593 40.0063C133.055 38.8353 133.747 37.9072 134.669 37.2217C135.599 36.5361 136.749 36.1789 138.116 36.1503C139.466 36.122 140.634 36.4351 141.62 37.0896C142.615 37.7349 143.385 38.6325 143.931 39.7823C144.477 40.9321 144.766 42.2358 144.796 43.6935C144.827 45.1512 144.593 46.4659 144.096 47.6376C143.598 48.8092 142.866 49.7473 141.9 50.4517C140.942 51.1469 139.784 51.5087 138.425 51.5372ZM131.844 57.7513L131.403 36.696L133.549 36.651L133.774 47.3812L134.044 47.3755L134.26 57.7007L131.844 57.7513ZM138.082 49.3434C139.045 49.3232 139.836 49.0636 140.456 48.5645C141.076 48.0654 141.534 47.3986 141.832 46.5642C142.129 45.7208 142.267 44.7817 142.245 43.7469C142.224 42.7212 142.047 41.7977 141.715 40.9765C141.392 40.155 140.901 39.5082 140.243 39.0359C139.594 38.5633 138.774 38.3375 137.785 38.3582C136.84 38.378 136.062 38.6283 135.451 39.1092C134.84 39.5811 134.39 40.2342 134.101 41.0684C133.812 41.8937 133.679 42.8461 133.702 43.9259C133.724 44.9877 133.892 45.9339 134.207 46.7645C134.53 47.5859 135.012 48.2284 135.652 48.6921C136.291 49.1468 137.101 49.3639 138.082 49.3434ZM151.52 51.2629C150.432 51.2857 149.514 51.1068 148.768 50.7264C148.031 50.3367 147.466 49.8174 147.074 49.1685C146.692 48.5194 146.492 47.8034 146.476 47.0206C146.46 46.2557 146.59 45.5914 146.866 45.0275C147.151 44.4544 147.555 43.9778 148.079 43.5978C148.601 43.2087 149.23 42.8985 149.963 42.6671C150.652 42.4636 151.422 42.2854 152.274 42.1326C153.135 41.9705 154.005 41.8217 154.884 41.6863C155.764 41.5509 156.585 41.4211 157.347 41.2971L156.494 41.8146C156.494 40.5183 156.213 39.5655 155.651 38.9562C155.098 38.3466 154.156 38.0558 152.824 38.0837C151.942 38.1021 151.173 38.3208 150.515 38.7397C149.867 39.1493 149.417 39.8069 149.166 40.7124L146.87 40.0718C147.195 38.7867 147.853 37.7692 148.845 37.0193C149.838 36.2693 151.158 35.8771 152.804 35.8426C154.127 35.8149 155.266 36.0296 156.22 36.4867C157.184 36.9346 157.883 37.6311 158.317 38.5762C158.533 39.0218 158.674 39.5095 158.739 40.0392C158.804 40.56 158.842 41.1083 158.854 41.6842L159.043 50.7002L156.911 50.7449L156.837 47.2491L157.344 47.5626C156.819 48.7528 156.069 49.6598 155.092 50.2834C154.123 50.9068 152.933 51.2333 151.52 51.2629ZM151.843 49.2442C152.706 49.2261 153.45 49.0575 154.074 48.7383C154.706 48.41 155.21 47.9899 155.586 47.4779C155.963 46.9569 156.203 46.3937 156.307 45.7884C156.433 45.3357 156.494 44.8348 156.492 44.2857C156.498 43.7275 156.498 43.2999 156.492 43.0029L157.336 43.3498C156.556 43.4742 155.789 43.5938 155.035 43.7086C154.281 43.8234 153.568 43.9464 152.896 44.0775C152.223 44.1996 151.618 44.3428 151.082 44.5071C150.688 44.6413 150.318 44.8111 149.972 45.0164C149.634 45.2215 149.36 45.4838 149.151 45.8033C148.95 46.1135 148.855 46.4981 148.865 46.957C148.873 47.3529 148.98 47.7288 149.185 48.0846C149.4 48.4401 149.721 48.726 150.148 48.9421C150.585 49.158 151.15 49.2587 151.843 49.2442ZM161.999 50.6383L161.694 36.0615L167.902 35.9314C168.271 35.9237 168.668 35.9379 169.091 35.974C169.524 36.001 169.917 36.0603 170.27 36.1519C171.057 36.3424 171.709 36.7564 172.227 37.3937C172.753 38.0218 173.027 38.8262 173.047 39.807C173.059 40.3559 172.983 40.8346 172.821 41.2431C172.667 41.6514 172.441 42.0072 172.141 42.3106C172.009 42.4483 171.863 42.5729 171.703 42.6843C171.543 42.7957 171.383 42.8845 171.223 42.9509C171.539 42.9983 171.861 43.1131 172.188 43.2953C172.707 43.5635 173.116 43.9465 173.414 44.4443C173.722 44.942 173.884 45.5823 173.9 46.3651C173.921 47.3549 173.7 48.1787 173.236 48.8365C172.773 49.4854 172.125 49.9401 171.293 50.2005C170.945 50.3069 170.559 50.3824 170.137 50.4273C169.715 50.4632 169.305 50.4852 168.91 50.4935L161.999 50.6383ZM164.388 48.6303L168.734 48.5393C168.923 48.5353 169.147 48.5126 169.407 48.4712C169.676 48.4295 169.914 48.3795 170.12 48.3212C170.585 48.1764 170.917 47.9174 171.116 47.5442C171.324 47.1707 171.424 46.768 171.415 46.3361C171.403 45.7603 171.231 45.2958 170.9 44.9426C170.577 44.5893 170.154 44.3731 169.63 44.2941C169.44 44.244 169.233 44.2169 169.007 44.2126C168.791 44.2081 168.598 44.2077 168.427 44.2112L164.297 44.2978L164.388 48.6303ZM164.255 42.3137L167.872 42.2379C168.124 42.2326 168.389 42.2136 168.668 42.1808C168.946 42.1389 169.188 42.0753 169.393 41.99C169.804 41.8284 170.1 41.5701 170.282 41.2152C170.472 40.8512 170.563 40.4577 170.554 40.0348C170.544 39.5669 170.427 39.1597 170.204 38.8133C169.99 38.4578 169.665 38.217 169.23 38.0911C168.94 37.9891 168.615 37.9374 168.255 37.936C167.904 37.9253 167.678 37.921 167.579 37.9231L164.165 37.9946L164.255 42.3137ZM174.806 50.37L174.763 48.305C175.305 48.3926 175.714 48.366 175.99 48.2252C176.275 48.0752 176.481 47.8234 176.609 47.4696C176.745 47.1067 176.853 46.6543 176.932 46.1126C177.067 45.2545 177.177 44.298 177.263 43.243C177.358 42.1878 177.437 41.0339 177.501 39.7812C177.574 38.5194 177.635 37.1679 177.686 35.7265L187.876 35.513L188.182 50.0898L185.779 50.1401L185.522 37.8443L179.921 37.9617C179.884 38.7906 179.834 39.6423 179.771 40.5169C179.718 41.3912 179.659 42.2431 179.595 43.0726C179.532 43.8931 179.458 44.6598 179.374 45.3728C179.298 46.0765 179.212 46.6859 179.115 47.2011C178.962 48.0865 178.739 48.7978 178.444 49.3351C178.149 49.8634 177.715 50.21 177.142 50.3751C176.57 50.5491 175.791 50.5474 174.806 50.37ZM197.758 50.2943C196.327 50.3243 195.07 50.0356 193.986 49.4281C192.911 48.8115 192.065 47.9425 191.447 46.8212C190.829 45.6909 190.504 44.3654 190.472 42.8448C190.439 41.2521 190.703 39.8693 191.263 38.6963C191.824 37.5143 192.619 36.5974 193.65 35.9457C194.689 35.2848 195.915 34.9395 197.328 34.91C198.794 34.8792 200.048 35.1906 201.088 35.8439C202.137 36.4971 202.931 37.4437 203.47 38.6837C204.018 39.9234 204.274 41.4079 204.238 43.137L201.809 43.1879L201.79 42.3241C201.726 40.5341 201.334 39.2055 200.613 38.3384C199.893 37.4623 198.84 37.0388 197.454 37.0678C195.969 37.0989 194.85 37.5994 194.096 38.5694C193.342 39.5394 192.984 40.9152 193.021 42.6968C193.057 44.4155 193.472 45.7391 194.266 46.6677C195.059 47.5962 196.172 48.0455 197.602 48.0156C198.565 47.9954 199.397 47.7574 200.099 47.3016C200.8 46.8458 201.345 46.1998 201.733 45.3635L204.057 46.1115C203.517 47.4101 202.683 48.4268 201.556 49.1615C200.437 49.8871 199.171 50.2647 197.758 50.2943ZM192.226 43.3887L192.185 41.4586L202.956 41.233L202.996 43.163L192.226 43.3887ZM206.828 49.6992L206.523 35.1224L208.925 35.0721L209.054 41.2133L216.72 41.0527L216.592 34.9115L218.994 34.8612L219.299 49.438L216.897 49.4883L216.768 43.3337L209.102 43.4943L209.231 49.6489L206.828 49.6992ZM234.166 34.5434L234.472 49.1202L232.15 49.1688L231.925 38.4252L224.511 49.3288L222.527 49.3704L222.222 34.7936L224.543 34.745L224.765 45.3401L232.196 34.5847L234.166 34.5434ZM246.714 48.8637L246.604 43.5864L243.459 43.6523C243.09 43.66 242.68 43.6551 242.23 43.6375C241.788 43.6107 241.373 43.5699 240.985 43.515C239.928 43.3391 239.028 42.8944 238.284 42.1808C237.549 41.4671 237.168 40.4668 237.141 39.1801C237.114 37.9294 237.431 36.919 238.09 36.1491C238.758 35.3699 239.589 34.8574 240.583 34.6115C241.03 34.4941 241.483 34.4261 241.942 34.4075C242.41 34.3797 242.805 34.3624 243.129 34.3556L248.812 34.2366L249.13 48.8131L246.714 48.8637ZM236.902 49.0693L240.651 43.0494L243.243 42.9952L239.494 49.015L236.902 49.0693ZM243.242 41.6719L246.562 41.6023L246.451 36.271L243.13 36.3405C242.923 36.3449 242.649 36.3596 242.308 36.3848C241.975 36.4098 241.657 36.4704 241.353 36.5668C241.067 36.6538 240.786 36.8082 240.512 37.03C240.246 37.2516 240.027 37.5353 239.854 37.881C239.682 38.2267 239.6 38.6335 239.61 39.1014C239.624 39.7762 239.825 40.3212 240.211 40.7361C240.598 41.1421 241.063 41.4115 241.606 41.5441C241.904 41.6099 242.197 41.6488 242.486 41.6607C242.783 41.6725 243.035 41.6762 243.242 41.6719Z"/></clipPath><linearGradient id="paint0_diamond_18695_21043" x1="0" y1="0" x2="500" y2="500" gradientUnits="userSpaceOnUse">
<stop stop-color="#F3E7E9"/>
<stop offset="0.0001" stop-color="#F3E7E9"/>
<stop offset="0.921875" stop-color="#E3EEFF"/>
</linearGradient>
</defs>
</svg>
