<svg width="280" height="153" viewBox="0 0 280 153" fill="none" xmlns="http://www.w3.org/2000/svg">
<path d="M40.2932 22V8.5H46.0432C46.3848 8.5 46.7515 8.52083 47.1432 8.5625C47.5432 8.59583 47.9057 8.65833 48.2307 8.75C48.9557 8.94167 49.5515 9.3375 50.0182 9.9375C50.4932 10.5292 50.7307 11.2792 50.7307 12.1875C50.7307 12.6958 50.6515 13.1375 50.4932 13.5125C50.3432 13.8875 50.1265 14.2125 49.8432 14.4875C49.7182 14.6125 49.5807 14.725 49.4307 14.825C49.2807 14.925 49.1307 15.0042 48.9807 15.0625C49.2723 15.1125 49.5682 15.225 49.8682 15.4C50.3432 15.6583 50.714 16.0208 50.9807 16.4875C51.2557 16.9542 51.3932 17.55 51.3932 18.275C51.3932 19.1917 51.1723 19.95 50.7307 20.55C50.289 21.1417 49.6807 21.55 48.9057 21.775C48.5807 21.8667 48.2223 21.9292 47.8307 21.9625C47.439 21.9875 47.0598 22 46.6932 22H40.2932ZM42.5432 20.1875H46.5682C46.7432 20.1875 46.9515 20.1708 47.1932 20.1375C47.4432 20.1042 47.664 20.0625 47.8557 20.0125C48.289 19.8875 48.6015 19.6542 48.7932 19.3125C48.9932 18.9708 49.0932 18.6 49.0932 18.2C49.0932 17.6667 48.9432 17.2333 48.6432 16.9C48.3515 16.5667 47.964 16.3583 47.4807 16.275C47.3057 16.225 47.114 16.1958 46.9057 16.1875C46.7057 16.1792 46.5265 16.175 46.3682 16.175H42.5432V20.1875ZM42.5432 14.3375H45.8932C46.1265 14.3375 46.3723 14.325 46.6307 14.3C46.889 14.2667 47.114 14.2125 47.3057 14.1375C47.689 13.9958 47.9682 13.7625 48.1432 13.4375C48.3265 13.1042 48.4182 12.7417 48.4182 12.35C48.4182 11.9167 48.3182 11.5375 48.1182 11.2125C47.9265 10.8792 47.6307 10.65 47.2307 10.525C46.964 10.425 46.664 10.3708 46.3307 10.3625C46.0057 10.3458 45.7973 10.3375 45.7057 10.3375H42.5432V14.3375ZM53.4043 22L53.3918 8.5H55.6293V13.3875H57.6918C58.0835 13.3875 58.4835 13.3958 58.8918 13.4125C59.3001 13.4292 59.6543 13.4667 59.9543 13.525C60.6543 13.6667 61.2668 13.9042 61.7918 14.2375C62.3168 14.5708 62.7251 15.0208 63.0168 15.5875C63.3085 16.1542 63.4543 16.8583 63.4543 17.7C63.4543 18.8667 63.1501 19.7917 62.5418 20.475C61.9418 21.15 61.1543 21.6 60.1793 21.825C59.846 21.9 59.4626 21.95 59.0293 21.975C58.6043 21.9917 58.2001 22 57.8168 22H53.4043ZM55.6293 20.1625H57.8543C58.1043 20.1625 58.3835 20.1542 58.6918 20.1375C59.0001 20.1208 59.2751 20.0792 59.5168 20.0125C59.9418 19.8875 60.321 19.6417 60.6543 19.275C60.996 18.9083 61.1668 18.3833 61.1668 17.7C61.1668 17.0083 61.0001 16.475 60.6668 16.1C60.3418 15.725 59.9126 15.4792 59.3793 15.3625C59.1376 15.3042 58.8835 15.2667 58.6168 15.25C58.3501 15.2333 58.096 15.225 57.8543 15.225H55.6293V20.1625ZM65.0043 22V8.5H67.2293V22H65.0043ZM74.7307 22V8.5H76.9557V14.1875H84.0557V8.5H86.2807V22H84.0557V16.3H76.9557V22H74.7307ZM95.1322 22.375C93.8072 22.375 92.6489 22.0833 91.6572 21.5C90.6739 20.9083 89.9072 20.0875 89.3572 19.0375C88.8072 17.9792 88.5322 16.7458 88.5322 15.3375C88.5322 13.8625 88.8031 12.5875 89.3447 11.5125C89.8864 10.4292 90.6406 9.59583 91.6072 9.0125C92.5822 8.42083 93.7239 8.125 95.0322 8.125C96.3906 8.125 97.5447 8.4375 98.4947 9.0625C99.4531 9.6875 100.17 10.5792 100.645 11.7375C101.128 12.8958 101.336 14.275 101.27 15.875H99.0197V15.075C98.9947 13.4167 98.6572 12.1792 98.0072 11.3625C97.3572 10.5375 96.3906 10.125 95.1072 10.125C93.7322 10.125 92.6864 10.5667 91.9697 11.45C91.2531 12.3333 90.8947 13.6 90.8947 15.25C90.8947 16.8417 91.2531 18.075 91.9697 18.95C92.6864 19.825 93.7072 20.2625 95.0322 20.2625C95.9239 20.2625 96.6989 20.0583 97.3572 19.65C98.0156 19.2417 98.5322 18.6542 98.9072 17.8875L101.045 18.625C100.52 19.8167 99.7281 20.7417 98.6697 21.4C97.6197 22.05 96.4406 22.375 95.1322 22.375ZM90.1447 15.875V14.0875H100.12V15.875H90.1447ZM113.808 22.375C112.466 22.375 111.308 22.0708 110.333 21.4625C109.366 20.8542 108.62 20.0125 108.095 18.9375C107.57 17.8625 107.308 16.6292 107.308 15.2375C107.308 13.8208 107.574 12.5792 108.108 11.5125C108.641 10.4458 109.395 9.61667 110.37 9.025C111.345 8.425 112.491 8.125 113.808 8.125C115.158 8.125 116.32 8.42917 117.295 9.0375C118.27 9.6375 119.016 10.475 119.533 11.55C120.058 12.6167 120.32 13.8458 120.32 15.2375C120.32 16.6458 120.058 17.8875 119.533 18.9625C119.008 20.0292 118.258 20.8667 117.283 21.475C116.308 22.075 115.149 22.375 113.808 22.375ZM113.808 20.2625C115.208 20.2625 116.249 19.7958 116.933 18.8625C117.616 17.9292 117.958 16.7208 117.958 15.2375C117.958 13.7125 117.612 12.5 116.92 11.6C116.228 10.6917 115.191 10.2375 113.808 10.2375C112.866 10.2375 112.091 10.45 111.483 10.875C110.874 11.3 110.42 11.8875 110.12 12.6375C109.82 13.3875 109.67 14.2542 109.67 15.2375C109.67 16.7542 110.02 17.9708 110.72 18.8875C111.42 19.8042 112.449 20.2625 113.808 20.2625ZM128.26 22.375C126.893 22.375 125.731 22.0708 124.772 21.4625C123.822 20.8458 123.097 20 122.597 18.925C122.097 17.85 121.839 16.625 121.822 15.25C121.839 13.8417 122.101 12.6042 122.61 11.5375C123.126 10.4625 123.864 9.625 124.822 9.025C125.781 8.425 126.935 8.125 128.285 8.125C129.71 8.125 130.935 8.475 131.96 9.175C132.993 9.875 133.685 10.8333 134.035 12.05L131.835 12.7125C131.551 11.9292 131.089 11.3208 130.447 10.8875C129.814 10.4542 129.085 10.2375 128.26 10.2375C127.335 10.2375 126.572 10.4542 125.972 10.8875C125.372 11.3125 124.926 11.9042 124.635 12.6625C124.343 13.4125 124.193 14.275 124.185 15.25C124.201 16.75 124.547 17.9625 125.222 18.8875C125.906 19.8042 126.918 20.2625 128.26 20.2625C129.143 20.2625 129.876 20.0625 130.46 19.6625C131.043 19.2542 131.485 18.6667 131.785 17.9L134.035 18.4875C133.568 19.7458 132.839 20.7083 131.847 21.375C130.856 22.0417 129.66 22.375 128.26 22.375ZM139.417 22V10.525H134.717V8.5H146.342V10.525H141.642V22H139.417ZM151.606 22.375C150.598 22.375 149.752 22.1917 149.069 21.825C148.394 21.45 147.881 20.9583 147.531 20.35C147.189 19.7417 147.019 19.075 147.019 18.35C147.019 17.6417 147.152 17.0292 147.419 16.5125C147.694 15.9875 148.077 15.5542 148.569 15.2125C149.06 14.8625 149.648 14.5875 150.331 14.3875C150.973 14.2125 151.689 14.0625 152.481 13.9375C153.281 13.8042 154.089 13.6833 154.906 13.575C155.723 13.4667 156.485 13.3625 157.194 13.2625L156.394 13.725C156.419 12.525 156.177 11.6375 155.669 11.0625C155.169 10.4875 154.302 10.2 153.069 10.2C152.252 10.2 151.535 10.3875 150.919 10.7625C150.31 11.1292 149.881 11.7292 149.631 12.5625L147.519 11.925C147.844 10.7417 148.473 9.8125 149.406 9.1375C150.339 8.4625 151.569 8.125 153.094 8.125C154.319 8.125 155.369 8.34583 156.244 8.7875C157.127 9.22083 157.76 9.87917 158.144 10.7625C158.335 11.1792 158.456 11.6333 158.506 12.125C158.556 12.6083 158.581 13.1167 158.581 13.65V22H156.606V18.7625L157.069 19.0625C156.56 20.1542 155.848 20.9792 154.931 21.5375C154.023 22.0958 152.914 22.375 151.606 22.375ZM151.944 20.5125C152.744 20.5125 153.435 20.3708 154.019 20.0875C154.61 19.7958 155.085 19.4167 155.444 18.95C155.802 18.475 156.035 17.9583 156.144 17.4C156.269 16.9833 156.335 16.5208 156.344 16.0125C156.36 15.4958 156.369 15.1 156.369 14.825L157.144 15.1625C156.419 15.2625 155.706 15.3583 155.006 15.45C154.306 15.5417 153.644 15.6417 153.019 15.75C152.394 15.85 151.831 15.9708 151.331 16.1125C150.964 16.2292 150.619 16.3792 150.294 16.5625C149.977 16.7458 149.719 16.9833 149.519 17.275C149.327 17.5583 149.231 17.9125 149.231 18.3375C149.231 18.7042 149.323 19.0542 149.506 19.3875C149.698 19.7208 149.989 19.9917 150.381 20.2C150.781 20.4083 151.302 20.5125 151.944 20.5125ZM161.319 22V8.5H163.544V14.1875H170.644V8.5H172.869V22H170.644V16.3H163.544V22H161.319ZM181.72 22.375C180.395 22.375 179.237 22.0833 178.245 21.5C177.262 20.9083 176.495 20.0875 175.945 19.0375C175.395 17.9792 175.12 16.7458 175.12 15.3375C175.12 13.8625 175.391 12.5875 175.933 11.5125C176.474 10.4292 177.228 9.59583 178.195 9.0125C179.17 8.42083 180.312 8.125 181.62 8.125C182.978 8.125 184.133 8.4375 185.083 9.0625C186.041 9.6875 186.758 10.5792 187.233 11.7375C187.716 12.8958 187.924 14.275 187.858 15.875H185.608V15.075C185.583 13.4167 185.245 12.1792 184.595 11.3625C183.945 10.5375 182.978 10.125 181.695 10.125C180.32 10.125 179.274 10.5667 178.558 11.45C177.841 12.3333 177.483 13.6 177.483 15.25C177.483 16.8417 177.841 18.075 178.558 18.95C179.274 19.825 180.295 20.2625 181.62 20.2625C182.512 20.2625 183.287 20.0583 183.945 19.65C184.603 19.2417 185.12 18.6542 185.495 17.8875L187.633 18.625C187.108 19.8167 186.316 20.7417 185.258 21.4C184.208 22.05 183.028 22.375 181.72 22.375ZM176.733 15.875V14.0875H186.708V15.875H176.733ZM193.471 22V10.525H188.771V8.5H200.396V10.525H195.696V22H193.471ZM208.113 22.375C206.788 22.375 205.629 22.0833 204.638 21.5C203.654 20.9083 202.888 20.0875 202.338 19.0375C201.788 17.9792 201.513 16.7458 201.513 15.3375C201.513 13.8625 201.784 12.5875 202.325 11.5125C202.867 10.4292 203.621 9.59583 204.588 9.0125C205.563 8.42083 206.704 8.125 208.013 8.125C209.371 8.125 210.525 8.4375 211.475 9.0625C212.434 9.6875 213.15 10.5792 213.625 11.7375C214.109 12.8958 214.317 14.275 214.25 15.875H212V15.075C211.975 13.4167 211.638 12.1792 210.988 11.3625C210.338 10.5375 209.371 10.125 208.088 10.125C206.713 10.125 205.667 10.5667 204.95 11.45C204.234 12.3333 203.875 13.6 203.875 15.25C203.875 16.8417 204.234 18.075 204.95 18.95C205.667 19.825 206.688 20.2625 208.013 20.2625C208.904 20.2625 209.679 20.0583 210.338 19.65C210.996 19.2417 211.513 18.6542 211.888 17.8875L214.025 18.625C213.5 19.8167 212.709 20.7417 211.65 21.4C210.6 22.05 209.421 22.375 208.113 22.375ZM203.125 15.875V14.0875H213.1V15.875H203.125ZM222.221 22.375C220.854 22.375 219.692 22.0708 218.733 21.4625C217.783 20.8458 217.058 20 216.558 18.925C216.058 17.85 215.8 16.625 215.783 15.25C215.8 13.8417 216.062 12.6042 216.571 11.5375C217.087 10.4625 217.825 9.625 218.783 9.025C219.742 8.425 220.896 8.125 222.246 8.125C223.671 8.125 224.896 8.475 225.921 9.175C226.954 9.875 227.646 10.8333 227.996 12.05L225.796 12.7125C225.512 11.9292 225.05 11.3208 224.408 10.8875C223.775 10.4542 223.046 10.2375 222.221 10.2375C221.296 10.2375 220.533 10.4542 219.933 10.8875C219.333 11.3125 218.887 11.9042 218.596 12.6625C218.304 13.4125 218.154 14.275 218.146 15.25C218.162 16.75 218.508 17.9625 219.183 18.8875C219.867 19.8042 220.879 20.2625 222.221 20.2625C223.104 20.2625 223.837 20.0625 224.421 19.6625C225.004 19.2542 225.446 18.6667 225.746 17.9L227.996 18.4875C227.529 19.7458 226.8 20.7083 225.808 21.375C224.817 22.0417 223.621 22.375 222.221 22.375ZM230.047 22L230.034 8.5H232.272V13.3875H235.184C235.576 13.3875 235.976 13.3958 236.384 13.4125C236.793 13.4292 237.147 13.4667 237.447 13.525C238.147 13.6583 238.759 13.8917 239.284 14.225C239.809 14.5583 240.218 15.0125 240.509 15.5875C240.801 16.1542 240.947 16.8583 240.947 17.7C240.947 18.8667 240.643 19.7917 240.034 20.475C239.434 21.15 238.647 21.6 237.672 21.825C237.339 21.9 236.955 21.95 236.522 21.975C236.097 21.9917 235.693 22 235.309 22H230.047ZM232.272 20.1625H235.347C235.597 20.1625 235.876 20.1542 236.184 20.1375C236.493 20.1208 236.768 20.0792 237.009 20.0125C237.434 19.8875 237.814 19.6417 238.147 19.275C238.489 18.9083 238.659 18.3833 238.659 17.7C238.659 17.0083 238.493 16.475 238.159 16.1C237.834 15.725 237.405 15.4792 236.872 15.3625C236.63 15.3042 236.376 15.2667 236.109 15.25C235.843 15.2333 235.589 15.225 235.347 15.225H232.272V20.1625ZM28.8249 47.3875C27.5499 47.3792 26.4624 47.1042 25.5624 46.5625C24.6624 46.0125 23.9624 45.2083 23.4624 44.15C22.9624 43.0917 22.6832 41.7958 22.6249 40.2625C22.5916 39.5542 22.5999 38.775 22.6499 37.925C22.7082 37.075 22.7999 36.2583 22.9249 35.475C23.0582 34.6917 23.2249 34.0458 23.4249 33.5375C23.6499 32.9292 23.9666 32.3667 24.3749 31.85C24.7916 31.325 25.2582 30.8917 25.7749 30.55C26.2999 30.1917 26.8874 29.9125 27.5374 29.7125C28.1874 29.5125 28.8666 29.3583 29.5749 29.25C30.2916 29.1333 31.0082 29.0333 31.7249 28.95C32.4416 28.8583 33.1249 28.75 33.7749 28.625L33.9999 30.625C33.5416 30.725 32.9999 30.8125 32.3749 30.8875C31.7499 30.9542 31.0999 31.0333 30.4249 31.125C29.7582 31.2167 29.1166 31.3458 28.4999 31.5125C27.8916 31.6708 27.3666 31.8917 26.9249 32.175C26.2749 32.5667 25.7749 33.1542 25.4249 33.9375C25.0832 34.7125 24.8749 35.5833 24.7999 36.55C25.3166 35.75 25.9874 35.1625 26.8124 34.7875C27.6374 34.4125 28.5166 34.225 29.4499 34.225C30.6582 34.225 31.6999 34.5083 32.5749 35.075C33.4499 35.6333 34.1207 36.4042 34.5874 37.3875C35.0624 38.3708 35.2999 39.4917 35.2999 40.75C35.2999 42.0833 35.0332 43.25 34.4999 44.25C33.9666 45.25 33.2124 46.025 32.2374 46.575C31.2707 47.125 30.1332 47.3958 28.8249 47.3875ZM28.9624 45.275C30.2707 45.275 31.2624 44.8708 31.9374 44.0625C32.6124 43.2458 32.9499 42.1625 32.9499 40.8125C32.9499 39.4292 32.5999 38.3417 31.8999 37.55C31.1999 36.75 30.2166 36.35 28.9499 36.35C27.6666 36.35 26.6832 36.75 25.9999 37.55C25.3249 38.3417 24.9874 39.4292 24.9874 40.8125C24.9874 42.2042 25.3291 43.2958 26.0124 44.0875C26.6957 44.8792 27.6791 45.275 28.9624 45.275ZM43.4091 47.375C42.0841 47.375 40.9257 47.0833 39.9341 46.5C38.9507 45.9083 38.1841 45.0875 37.6341 44.0375C37.0841 42.9792 36.8091 41.7458 36.8091 40.3375C36.8091 38.8625 37.0799 37.5875 37.6216 36.5125C38.1632 35.4292 38.9174 34.5958 39.8841 34.0125C40.8591 33.4208 42.0007 33.125 43.3091 33.125C44.6674 33.125 45.8216 33.4375 46.7716 34.0625C47.7299 34.6875 48.4466 35.5792 48.9216 36.7375C49.4049 37.8958 49.6132 39.275 49.5466 40.875H47.2966V40.075C47.2716 38.4167 46.9341 37.1792 46.2841 36.3625C45.6341 35.5375 44.6674 35.125 43.3841 35.125C42.0091 35.125 40.9632 35.5667 40.2466 36.45C39.5299 37.3333 39.1716 38.6 39.1716 40.25C39.1716 41.8417 39.5299 43.075 40.2466 43.95C40.9632 44.825 41.9841 45.2625 43.3091 45.2625C44.2007 45.2625 44.9757 45.0583 45.6341 44.65C46.2924 44.2417 46.8091 43.6542 47.1841 42.8875L49.3216 43.625C48.7966 44.8167 48.0049 45.7417 46.9466 46.4C45.8966 47.05 44.7174 47.375 43.4091 47.375ZM38.4216 40.875V39.0875H48.3966V40.875H38.4216ZM56.1788 47.375C54.8455 47.375 53.6663 47.0875 52.6413 46.5125C51.6163 45.9292 50.808 45.1292 50.2163 44.1125L51.9913 42.9625C52.483 43.7042 53.0705 44.275 53.7538 44.675C54.4371 45.0667 55.2163 45.2625 56.0913 45.2625C57.008 45.2625 57.7371 45.0542 58.2788 44.6375C58.8205 44.2125 59.0913 43.6417 59.0913 42.925C59.0913 42.3917 58.958 41.9833 58.6913 41.7C58.4246 41.4167 58.0413 41.2208 57.5413 41.1125C57.0413 41.0042 56.4455 40.95 55.7538 40.95H54.3538V39.1125H55.7413C56.6163 39.1125 57.3288 38.9708 57.8788 38.6875C58.4288 38.4042 58.7038 37.9208 58.7038 37.2375C58.7038 36.5375 58.4455 36.0292 57.9288 35.7125C57.4205 35.3875 56.8121 35.225 56.1038 35.225C55.3538 35.225 54.6371 35.3833 53.9538 35.7C53.2705 36.0083 52.683 36.4 52.1913 36.875L50.8413 35.3625C51.5413 34.6458 52.3455 34.0958 53.2538 33.7125C54.1705 33.3208 55.1663 33.125 56.2413 33.125C57.108 33.125 57.8996 33.2792 58.6163 33.5875C59.3413 33.8875 59.9163 34.3333 60.3413 34.925C60.7746 35.5083 60.9913 36.2208 60.9913 37.0625C60.9913 37.7792 60.8246 38.4167 60.4913 38.975C60.158 39.5333 59.6663 40.0208 59.0163 40.4375L58.9288 39.65C59.4788 39.7833 59.933 40.0292 60.2913 40.3875C60.658 40.7375 60.9288 41.1542 61.1038 41.6375C61.2788 42.1208 61.3663 42.625 61.3663 43.15C61.3663 44.0333 61.133 44.7917 60.6663 45.425C60.208 46.05 59.5871 46.5333 58.8038 46.875C58.0205 47.2083 57.1455 47.375 56.1788 47.375ZM68.1022 47V33.5H79.1647V47H76.9397V35.6125H70.3272V47H68.1022ZM87.9155 47.375C86.5739 47.375 85.4155 47.0708 84.4405 46.4625C83.4739 45.8542 82.728 45.0125 82.203 43.9375C81.678 42.8625 81.4155 41.6292 81.4155 40.2375C81.4155 38.8208 81.6822 37.5792 82.2155 36.5125C82.7489 35.4458 83.503 34.6167 84.478 34.025C85.453 33.425 86.5989 33.125 87.9155 33.125C89.2655 33.125 90.428 33.4292 91.403 34.0375C92.378 34.6375 93.1239 35.475 93.6405 36.55C94.1655 37.6167 94.428 38.8458 94.428 40.2375C94.428 41.6458 94.1655 42.8875 93.6405 43.9625C93.1155 45.0292 92.3655 45.8667 91.3905 46.475C90.4155 47.075 89.2572 47.375 87.9155 47.375ZM87.9155 45.2625C89.3155 45.2625 90.3572 44.7958 91.0405 43.8625C91.7239 42.9292 92.0655 41.7208 92.0655 40.2375C92.0655 38.7125 91.7197 37.5 91.028 36.6C90.3364 35.6917 89.2989 35.2375 87.9155 35.2375C86.9739 35.2375 86.1989 35.45 85.5905 35.875C84.9822 36.3 84.528 36.8875 84.228 37.6375C83.928 38.3875 83.778 39.2542 83.778 40.2375C83.778 41.7542 84.128 42.9708 84.828 43.8875C85.528 44.8042 86.5572 45.2625 87.9155 45.2625ZM96.6677 47V33.5H98.5802L103.705 43.975L108.83 33.5H110.743V47H108.593V38.1375L104.293 47H103.118L98.8177 38.1375V47H96.6677ZM119.484 47.375C118.142 47.375 116.984 47.0708 116.009 46.4625C115.042 45.8542 114.296 45.0125 113.771 43.9375C113.246 42.8625 112.984 41.6292 112.984 40.2375C112.984 38.8208 113.251 37.5792 113.784 36.5125C114.317 35.4458 115.071 34.6167 116.046 34.025C117.021 33.425 118.167 33.125 119.484 33.125C120.834 33.125 121.996 33.4292 122.971 34.0375C123.946 34.6375 124.692 35.475 125.209 36.55C125.734 37.6167 125.996 38.8458 125.996 40.2375C125.996 41.6458 125.734 42.8875 125.209 43.9625C124.684 45.0292 123.934 45.8667 122.959 46.475C121.984 47.075 120.826 47.375 119.484 47.375ZM119.484 45.2625C120.884 45.2625 121.926 44.7958 122.609 43.8625C123.292 42.9292 123.634 41.7208 123.634 40.2375C123.634 38.7125 123.288 37.5 122.596 36.6C121.905 35.6917 120.867 35.2375 119.484 35.2375C118.542 35.2375 117.767 35.45 117.159 35.875C116.551 36.3 116.096 36.8875 115.796 37.6375C115.496 38.3875 115.346 39.2542 115.346 40.2375C115.346 41.7542 115.696 42.9708 116.396 43.8875C117.096 44.8042 118.126 45.2625 119.484 45.2625ZM143.349 49.5V47H128.236V33.5H130.386V44.975H135.036V33.5H137.186V44.975H141.824V33.5H143.974V44.975H145.574V49.5H143.349ZM158.134 33.5V47H155.984V37.05L148.909 47H147.072V33.5H149.222V43.3125L156.309 33.5H158.134ZM165.628 47V33.5H171.378C171.719 33.5 172.086 33.5208 172.478 33.5625C172.878 33.5958 173.24 33.6583 173.565 33.75C174.29 33.9417 174.886 34.3375 175.353 34.9375C175.828 35.5292 176.065 36.2792 176.065 37.1875C176.065 37.6958 175.986 38.1375 175.828 38.5125C175.678 38.8875 175.461 39.2125 175.178 39.4875C175.053 39.6125 174.915 39.725 174.765 39.825C174.615 39.925 174.465 40.0042 174.315 40.0625C174.607 40.1125 174.903 40.225 175.203 40.4C175.678 40.6583 176.048 41.0208 176.315 41.4875C176.59 41.9542 176.728 42.55 176.728 43.275C176.728 44.1917 176.507 44.95 176.065 45.55C175.623 46.1417 175.015 46.55 174.24 46.775C173.915 46.8667 173.557 46.9292 173.165 46.9625C172.773 46.9875 172.394 47 172.028 47H165.628ZM167.878 45.1875H171.903C172.078 45.1875 172.286 45.1708 172.528 45.1375C172.778 45.1042 172.998 45.0625 173.19 45.0125C173.623 44.8875 173.936 44.6542 174.128 44.3125C174.328 43.9708 174.428 43.6 174.428 43.2C174.428 42.6667 174.278 42.2333 173.978 41.9C173.686 41.5667 173.298 41.3583 172.815 41.275C172.64 41.225 172.448 41.1958 172.24 41.1875C172.04 41.1792 171.861 41.175 171.703 41.175H167.878V45.1875ZM167.878 39.3375H171.228C171.461 39.3375 171.707 39.325 171.965 39.3C172.223 39.2667 172.448 39.2125 172.64 39.1375C173.023 38.9958 173.303 38.7625 173.478 38.4375C173.661 38.1042 173.753 37.7417 173.753 37.35C173.753 36.9167 173.653 36.5375 173.453 36.2125C173.261 35.8792 172.965 35.65 172.565 35.525C172.298 35.425 171.998 35.3708 171.665 35.3625C171.34 35.3458 171.132 35.3375 171.04 35.3375H167.878V39.3375ZM181.994 47V45.0875C182.494 45.1792 182.873 45.1625 183.131 45.0375C183.398 44.9042 183.594 44.675 183.719 44.35C183.852 44.0167 183.96 43.6 184.044 43.1C184.185 42.3083 184.306 41.425 184.406 40.45C184.514 39.475 184.61 38.4083 184.694 37.25C184.785 36.0833 184.869 34.8333 184.944 33.5H194.381V47H192.156V35.6125H186.969C186.919 36.3792 186.856 37.1667 186.781 37.975C186.714 38.7833 186.644 39.5708 186.569 40.3375C186.494 41.0958 186.41 41.8042 186.319 42.4625C186.235 43.1125 186.144 43.675 186.044 44.15C185.885 44.9667 185.664 45.6208 185.381 46.1125C185.098 46.5958 184.689 46.9083 184.156 47.05C183.623 47.2 182.902 47.1833 181.994 47ZM208.405 47.375C207.255 47.375 206.238 47.1292 205.355 46.6375C204.48 46.1458 203.775 45.45 203.242 44.55C202.709 43.65 202.375 42.5875 202.242 41.3625H199.605V47H197.38V33.5H199.605V39.1375H202.23C202.363 37.8875 202.7 36.8125 203.242 35.9125C203.784 35.0125 204.496 34.325 205.38 33.85C206.263 33.3667 207.28 33.125 208.43 33.125C209.771 33.125 210.925 33.4292 211.892 34.0375C212.867 34.6458 213.613 35.4833 214.13 36.55C214.655 37.6167 214.917 38.8417 214.917 40.225C214.917 41.6333 214.65 42.875 214.117 43.95C213.592 45.025 212.842 45.8667 211.867 46.475C210.9 47.075 209.746 47.375 208.405 47.375ZM208.367 45.2625C209.784 45.2625 210.834 44.8 211.517 43.875C212.209 42.9417 212.555 41.7292 212.555 40.2375C212.555 38.7042 212.205 37.4875 211.505 36.5875C210.813 35.6875 209.771 35.2375 208.38 35.2375C207.038 35.2375 206.017 35.6833 205.317 36.575C204.617 37.4667 204.267 38.6833 204.267 40.225C204.267 41.75 204.613 42.9708 205.305 43.8875C206.005 44.8042 207.025 45.2625 208.367 45.2625ZM222.643 47.3875C221.368 47.3792 220.281 47.1042 219.381 46.5625C218.481 46.0125 217.781 45.2083 217.281 44.15C216.781 43.0917 216.502 41.7958 216.443 40.2625C216.41 39.5542 216.418 38.775 216.468 37.925C216.527 37.075 216.618 36.2583 216.743 35.475C216.877 34.6917 217.043 34.0458 217.243 33.5375C217.468 32.9292 217.785 32.3667 218.193 31.85C218.61 31.325 219.077 30.8917 219.593 30.55C220.118 30.1917 220.706 29.9125 221.356 29.7125C222.006 29.5125 222.685 29.3583 223.393 29.25C224.11 29.1333 224.827 29.0333 225.543 28.95C226.26 28.8583 226.943 28.75 227.593 28.625L227.818 30.625C227.36 30.725 226.818 30.8125 226.193 30.8875C225.568 30.9542 224.918 31.0333 224.243 31.125C223.577 31.2167 222.935 31.3458 222.318 31.5125C221.71 31.6708 221.185 31.8917 220.743 32.175C220.093 32.5667 219.593 33.1542 219.243 33.9375C218.902 34.7125 218.693 35.5833 218.618 36.55C219.135 35.75 219.806 35.1625 220.631 34.7875C221.456 34.4125 222.335 34.225 223.268 34.225C224.477 34.225 225.518 34.5083 226.393 35.075C227.268 35.6333 227.939 36.4042 228.406 37.3875C228.881 38.3708 229.118 39.4917 229.118 40.75C229.118 42.0833 228.852 43.25 228.318 44.25C227.785 45.25 227.031 46.025 226.056 46.575C225.089 47.125 223.952 47.3958 222.643 47.3875ZM222.781 45.275C224.089 45.275 225.081 44.8708 225.756 44.0625C226.431 43.2458 226.768 42.1625 226.768 40.8125C226.768 39.4292 226.418 38.3417 225.718 37.55C225.018 36.75 224.035 36.35 222.768 36.35C221.485 36.35 220.502 36.75 219.818 37.55C219.143 38.3417 218.806 39.4292 218.806 40.8125C218.806 42.2042 219.147 43.2958 219.831 44.0875C220.514 44.8792 221.497 45.275 222.781 45.275ZM237.127 47.375C235.786 47.375 234.627 47.0708 233.652 46.4625C232.686 45.8542 231.94 45.0125 231.415 43.9375C230.89 42.8625 230.627 41.6292 230.627 40.2375C230.627 38.8208 230.894 37.5792 231.427 36.5125C231.961 35.4458 232.715 34.6167 233.69 34.025C234.665 33.425 235.811 33.125 237.127 33.125C238.477 33.125 239.64 33.4292 240.615 34.0375C241.59 34.6375 242.336 35.475 242.852 36.55C243.377 37.6167 243.64 38.8458 243.64 40.2375C243.64 41.6458 243.377 42.8875 242.852 43.9625C242.327 45.0292 241.577 45.8667 240.602 46.475C239.627 47.075 238.469 47.375 237.127 47.375ZM237.127 45.2625C238.527 45.2625 239.569 44.7958 240.252 43.8625C240.936 42.9292 241.277 41.7208 241.277 40.2375C241.277 38.7125 240.932 37.5 240.24 36.6C239.548 35.6917 238.511 35.2375 237.127 35.2375C236.186 35.2375 235.411 35.45 234.802 35.875C234.194 36.3 233.74 36.8875 233.44 37.6375C233.14 38.3875 232.99 39.2542 232.99 40.2375C232.99 41.7542 233.34 42.9708 234.04 43.8875C234.74 44.8042 235.769 45.2625 237.127 45.2625ZM251.742 47.375C250.417 47.375 249.259 47.0833 248.267 46.5C247.284 45.9083 246.517 45.0875 245.967 44.0375C245.417 42.9792 245.142 41.7458 245.142 40.3375C245.142 38.8625 245.413 37.5875 245.955 36.5125C246.496 35.4292 247.25 34.5958 248.217 34.0125C249.192 33.4208 250.334 33.125 251.642 33.125C253 33.125 254.155 33.4375 255.105 34.0625C256.063 34.6875 256.78 35.5792 257.255 36.7375C257.738 37.8958 257.946 39.275 257.88 40.875H255.63V40.075C255.605 38.4167 255.267 37.1792 254.617 36.3625C253.967 35.5375 253 35.125 251.717 35.125C250.342 35.125 249.296 35.5667 248.58 36.45C247.863 37.3333 247.505 38.6 247.505 40.25C247.505 41.8417 247.863 43.075 248.58 43.95C249.296 44.825 250.317 45.2625 251.642 45.2625C252.534 45.2625 253.309 45.0583 253.967 44.65C254.625 44.2417 255.142 43.6542 255.517 42.8875L257.655 43.625C257.13 44.8167 256.338 45.7417 255.28 46.4C254.23 47.05 253.05 47.375 251.742 47.375ZM246.755 40.875V39.0875H256.73V40.875H246.755ZM67.8698 72V58.5H73.6198C73.9615 58.5 74.3282 58.5208 74.7198 58.5625C75.1198 58.5958 75.4823 58.6583 75.8073 58.75C76.5323 58.9417 77.1282 59.3375 77.5948 59.9375C78.0698 60.5292 78.3073 61.2792 78.3073 62.1875C78.3073 62.6958 78.2282 63.1375 78.0698 63.5125C77.9198 63.8875 77.7032 64.2125 77.4198 64.4875C77.2948 64.6125 77.1573 64.725 77.0073 64.825C76.8573 64.925 76.7073 65.0042 76.5573 65.0625C76.849 65.1125 77.1448 65.225 77.4448 65.4C77.9198 65.6583 78.2907 66.0208 78.5573 66.4875C78.8323 66.9542 78.9698 67.55 78.9698 68.275C78.9698 69.1917 78.749 69.95 78.3073 70.55C77.8657 71.1417 77.2573 71.55 76.4823 71.775C76.1573 71.8667 75.799 71.9292 75.4073 71.9625C75.0157 71.9875 74.6365 72 74.2698 72H67.8698ZM70.1198 70.1875H74.1448C74.3198 70.1875 74.5282 70.1708 74.7698 70.1375C75.0198 70.1042 75.2407 70.0625 75.4323 70.0125C75.8657 69.8875 76.1782 69.6542 76.3698 69.3125C76.5698 68.9708 76.6698 68.6 76.6698 68.2C76.6698 67.6667 76.5198 67.2333 76.2198 66.9C75.9282 66.5667 75.5407 66.3583 75.0573 66.275C74.8823 66.225 74.6907 66.1958 74.4823 66.1875C74.2823 66.1792 74.1032 66.175 73.9448 66.175H70.1198V70.1875ZM70.1198 64.3375H73.4698C73.7032 64.3375 73.949 64.325 74.2073 64.3C74.4657 64.2667 74.6907 64.2125 74.8823 64.1375C75.2657 63.9958 75.5448 63.7625 75.7198 63.4375C75.9032 63.1042 75.9948 62.7417 75.9948 62.35C75.9948 61.9167 75.8948 61.5375 75.6948 61.2125C75.5032 60.8792 75.2073 60.65 74.8073 60.525C74.5407 60.425 74.2407 60.3708 73.9073 60.3625C73.5823 60.3458 73.374 60.3375 73.2823 60.3375H70.1198V64.3375ZM87.181 72.375C85.9143 72.375 84.8476 72.0625 83.981 71.4375C83.1143 70.8042 82.456 69.95 82.006 68.875C81.5643 67.7917 81.3435 66.5792 81.3435 65.2375C81.3435 63.8792 81.5643 62.6625 82.006 61.5875C82.456 60.5125 83.1143 59.6667 83.981 59.05C84.856 58.4333 85.9268 58.125 87.1935 58.125C88.4435 58.125 89.5185 58.4375 90.4185 59.0625C91.3268 59.6792 92.0226 60.525 92.506 61.6C92.9893 62.675 93.231 63.8875 93.231 65.2375C93.231 66.5875 92.9893 67.8 92.506 68.875C92.0226 69.95 91.3268 70.8042 90.4185 71.4375C89.5185 72.0625 88.4393 72.375 87.181 72.375ZM80.9685 78V58.5H82.956V68.4375H83.206V78H80.9685ZM86.906 70.3375C87.7976 70.3375 88.5351 70.1125 89.1185 69.6625C89.7018 69.2125 90.1393 68.6042 90.431 67.8375C90.7226 67.0625 90.8685 66.1958 90.8685 65.2375C90.8685 64.2875 90.7226 63.4292 90.431 62.6625C90.1476 61.8958 89.706 61.2875 89.106 60.8375C88.5143 60.3875 87.7601 60.1625 86.8435 60.1625C85.9685 60.1625 85.2435 60.3792 84.6685 60.8125C84.0935 61.2375 83.6643 61.8333 83.381 62.6C83.0976 63.3583 82.956 64.2375 82.956 65.2375C82.956 66.2208 83.0935 67.1 83.3685 67.875C83.6518 68.6417 84.0851 69.2458 84.6685 69.6875C85.2518 70.1208 85.9976 70.3375 86.906 70.3375ZM101.321 72.375C99.9962 72.375 98.8379 72.0833 97.8462 71.5C96.8629 70.9083 96.0962 70.0875 95.5462 69.0375C94.9962 67.9792 94.7212 66.7458 94.7212 65.3375C94.7212 63.8625 94.992 62.5875 95.5337 61.5125C96.0754 60.4292 96.8295 59.5958 97.7962 59.0125C98.7712 58.4208 99.9129 58.125 101.221 58.125C102.58 58.125 103.734 58.4375 104.684 59.0625C105.642 59.6875 106.359 60.5792 106.834 61.7375C107.317 62.8958 107.525 64.275 107.459 65.875H105.209V65.075C105.184 63.4167 104.846 62.1792 104.196 61.3625C103.546 60.5375 102.58 60.125 101.296 60.125C99.9212 60.125 98.8754 60.5667 98.1587 61.45C97.442 62.3333 97.0837 63.6 97.0837 65.25C97.0837 66.8417 97.442 68.075 98.1587 68.95C98.8754 69.825 99.8962 70.2625 101.221 70.2625C102.113 70.2625 102.888 70.0583 103.546 69.65C104.205 69.2417 104.721 68.6542 105.096 67.8875L107.234 68.625C106.709 69.8167 105.917 70.7417 104.859 71.4C103.809 72.05 102.63 72.375 101.321 72.375ZM96.3337 65.875V64.0875H106.309V65.875H96.3337ZM109.363 72V58.5H111.275L116.4 68.975L121.525 58.5H123.438V72H121.288V63.1375L116.988 72H115.813L111.513 63.1375V72H109.363ZM134.767 72V67.1125H131.854C131.513 67.1125 131.133 67.1 130.717 67.075C130.308 67.0417 129.925 66.9958 129.567 66.9375C128.592 66.7542 127.767 66.325 127.092 65.65C126.425 64.975 126.092 64.0417 126.092 62.85C126.092 61.6917 126.404 60.7625 127.029 60.0625C127.663 59.3542 128.442 58.8958 129.367 58.6875C129.783 58.5875 130.204 58.5333 130.629 58.525C131.063 58.5083 131.429 58.5 131.729 58.5H136.992L137.004 72H134.767ZM125.679 72L129.267 66.5H131.667L128.079 72H125.679ZM131.692 65.275H134.767V60.3375H131.692C131.5 60.3375 131.246 60.3458 130.929 60.3625C130.621 60.3792 130.325 60.4292 130.042 60.5125C129.775 60.5875 129.513 60.725 129.254 60.925C129.004 61.125 128.796 61.3833 128.629 61.7C128.463 62.0167 128.379 62.3917 128.379 62.825C128.379 63.45 128.554 63.9583 128.904 64.35C129.254 64.7333 129.679 64.9917 130.179 65.125C130.454 65.1917 130.725 65.2333 130.992 65.25C131.267 65.2667 131.5 65.275 131.692 65.275ZM150.208 72.375C148.842 72.375 147.679 72.0708 146.721 71.4625C145.771 70.8458 145.046 70 144.546 68.925C144.046 67.85 143.788 66.625 143.771 65.25C143.788 63.8417 144.05 62.6042 144.558 61.5375C145.075 60.4625 145.813 59.625 146.771 59.025C147.729 58.425 148.883 58.125 150.233 58.125C151.658 58.125 152.883 58.475 153.908 59.175C154.942 59.875 155.633 60.8333 155.983 62.05L153.783 62.7125C153.5 61.9292 153.038 61.3208 152.396 60.8875C151.763 60.4542 151.033 60.2375 150.208 60.2375C149.283 60.2375 148.521 60.4542 147.921 60.8875C147.321 61.3125 146.875 61.9042 146.583 62.6625C146.292 63.4125 146.142 64.275 146.133 65.25C146.15 66.75 146.496 67.9625 147.171 68.8875C147.854 69.8042 148.867 70.2625 150.208 70.2625C151.092 70.2625 151.825 70.0625 152.408 69.6625C152.992 69.2542 153.433 68.6667 153.733 67.9L155.983 68.4875C155.517 69.7458 154.788 70.7083 153.796 71.375C152.804 72.0417 151.608 72.375 150.208 72.375ZM159.421 78L162.034 70.9L162.071 73L156.171 58.5H158.509L163.134 70.1625H162.334L166.671 58.5H168.934L161.584 78H159.421ZM174.074 72V60.525H169.374V58.5H180.999V60.525H176.299V72H174.074ZM188.371 72.375C187.029 72.375 185.871 72.0708 184.896 71.4625C183.929 70.8542 183.183 70.0125 182.658 68.9375C182.133 67.8625 181.871 66.6292 181.871 65.2375C181.871 63.8208 182.137 62.5792 182.671 61.5125C183.204 60.4458 183.958 59.6167 184.933 59.025C185.908 58.425 187.054 58.125 188.371 58.125C189.721 58.125 190.883 58.4292 191.858 59.0375C192.833 59.6375 193.579 60.475 194.096 61.55C194.621 62.6167 194.883 63.8458 194.883 65.2375C194.883 66.6458 194.621 67.8875 194.096 68.9625C193.571 70.0292 192.821 70.8667 191.846 71.475C190.871 72.075 189.712 72.375 188.371 72.375ZM188.371 70.2625C189.771 70.2625 190.812 69.7958 191.496 68.8625C192.179 67.9292 192.521 66.7208 192.521 65.2375C192.521 63.7125 192.175 62.5 191.483 61.6C190.791 60.6917 189.754 60.2375 188.371 60.2375C187.429 60.2375 186.654 60.45 186.046 60.875C185.437 61.3 184.983 61.8875 184.683 62.6375C184.383 63.3875 184.233 64.2542 184.233 65.2375C184.233 66.7542 184.583 67.9708 185.283 68.8875C185.983 69.8042 187.012 70.2625 188.371 70.2625ZM197.123 72L197.135 58.5H199.385V65L205.048 58.5H207.935L201.973 65.25L208.635 72H205.523L199.385 65.5V72H197.123ZM209.779 72V69.55H212.229V72H209.779ZM48.4724 97L48.4849 83.5H50.7349V90L56.3974 83.5H59.2849L53.3224 90.25L59.9849 97H56.8724L50.7349 90.5V97H48.4724ZM66.929 97.375C65.6623 97.375 64.5957 97.0625 63.729 96.4375C62.8623 95.8042 62.204 94.95 61.754 93.875C61.3123 92.7917 61.0915 91.5792 61.0915 90.2375C61.0915 88.8792 61.3123 87.6625 61.754 86.5875C62.204 85.5125 62.8623 84.6667 63.729 84.05C64.604 83.4333 65.6748 83.125 66.9415 83.125C68.1915 83.125 69.2665 83.4375 70.1665 84.0625C71.0748 84.6792 71.7707 85.525 72.254 86.6C72.7373 87.675 72.979 88.8875 72.979 90.2375C72.979 91.5875 72.7373 92.8 72.254 93.875C71.7707 94.95 71.0748 95.8042 70.1665 96.4375C69.2665 97.0625 68.1873 97.375 66.929 97.375ZM60.7165 103V83.5H62.704V93.4375H62.954V103H60.7165ZM66.654 95.3375C67.5457 95.3375 68.2832 95.1125 68.8665 94.6625C69.4498 94.2125 69.8873 93.6042 70.179 92.8375C70.4707 92.0625 70.6165 91.1958 70.6165 90.2375C70.6165 89.2875 70.4707 88.4292 70.179 87.6625C69.8957 86.8958 69.454 86.2875 68.854 85.8375C68.2623 85.3875 67.5082 85.1625 66.5915 85.1625C65.7165 85.1625 64.9915 85.3792 64.4165 85.8125C63.8415 86.2375 63.4123 86.8333 63.129 87.6C62.8457 88.3583 62.704 89.2375 62.704 90.2375C62.704 91.2208 62.8415 92.1 63.1165 92.875C63.3998 93.6417 63.8332 94.2458 64.4165 94.6875C64.9998 95.1208 65.7457 95.3375 66.654 95.3375ZM76.606 103L79.2185 95.9L79.256 98L73.356 83.5H75.6935L80.3185 95.1625H79.5185L83.856 83.5H86.1185L78.7685 103H76.606ZM87.6831 97V83.5H97.0581V85.6125H89.9081V97H87.6831ZM97.4321 97V95.0875C97.9321 95.1792 98.3113 95.1625 98.5696 95.0375C98.8363 94.9042 99.0321 94.675 99.1571 94.35C99.2905 94.0167 99.3988 93.6 99.4821 93.1C99.6238 92.3083 99.7446 91.425 99.8446 90.45C99.953 89.475 100.049 88.4083 100.132 87.25C100.224 86.0833 100.307 84.8333 100.382 83.5H109.82V97H107.595V85.6125H102.407C102.357 86.3792 102.295 87.1667 102.22 87.975C102.153 88.7833 102.082 89.5708 102.007 90.3375C101.932 91.0958 101.849 91.8042 101.757 92.4625C101.674 93.1125 101.582 93.675 101.482 94.15C101.324 94.9667 101.103 95.6208 100.82 96.1125C100.536 96.5958 100.128 96.9083 99.5946 97.05C99.0613 97.2 98.3405 97.1833 97.4321 97ZM118.581 97.375C117.239 97.375 116.081 97.0708 115.106 96.4625C114.139 95.8542 113.393 95.0125 112.868 93.9375C112.343 92.8625 112.081 91.6292 112.081 90.2375C112.081 88.8208 112.347 87.5792 112.881 86.5125C113.414 85.4458 114.168 84.6167 115.143 84.025C116.118 83.425 117.264 83.125 118.581 83.125C119.931 83.125 121.093 83.4292 122.068 84.0375C123.043 84.6375 123.789 85.475 124.306 86.55C124.831 87.6167 125.093 88.8458 125.093 90.2375C125.093 91.6458 124.831 92.8875 124.306 93.9625C123.781 95.0292 123.031 95.8667 122.056 96.475C121.081 97.075 119.922 97.375 118.581 97.375ZM118.581 95.2625C119.981 95.2625 121.022 94.7958 121.706 93.8625C122.389 92.9292 122.731 91.7208 122.731 90.2375C122.731 88.7125 122.385 87.5 121.693 86.6C121.001 85.6917 119.964 85.2375 118.581 85.2375C117.639 85.2375 116.864 85.45 116.256 85.875C115.647 86.3 115.193 86.8875 114.893 87.6375C114.593 88.3875 114.443 89.2542 114.443 90.2375C114.443 91.7542 114.793 92.9708 115.493 93.8875C116.193 94.8042 117.222 95.2625 118.581 95.2625ZM133.033 97.375C131.666 97.375 130.504 97.0708 129.545 96.4625C128.595 95.8458 127.87 95 127.37 93.925C126.87 92.85 126.612 91.625 126.595 90.25C126.612 88.8417 126.874 87.6042 127.383 86.5375C127.899 85.4625 128.637 84.625 129.595 84.025C130.554 83.425 131.708 83.125 133.058 83.125C134.483 83.125 135.708 83.475 136.733 84.175C137.766 84.875 138.458 85.8333 138.808 87.05L136.608 87.7125C136.324 86.9292 135.862 86.3208 135.22 85.8875C134.587 85.4542 133.858 85.2375 133.033 85.2375C132.108 85.2375 131.345 85.4542 130.745 85.8875C130.145 86.3125 129.699 86.9042 129.408 87.6625C129.116 88.4125 128.966 89.275 128.958 90.25C128.974 91.75 129.32 92.9625 129.995 93.8875C130.679 94.8042 131.691 95.2625 133.033 95.2625C133.916 95.2625 134.649 95.0625 135.233 94.6625C135.816 94.2542 136.258 93.6667 136.558 92.9L138.808 93.4875C138.341 94.7458 137.612 95.7083 136.62 96.375C135.629 97.0417 134.433 97.375 133.033 97.375ZM142.246 103L144.858 95.9L144.896 98L138.996 83.5H141.333L145.958 95.1625H145.158L149.496 83.5H151.758L144.408 103H142.246ZM156.898 97V85.525H152.198V83.5H163.823V85.525H159.123V97H156.898ZM171.195 97.375C169.853 97.375 168.695 97.0708 167.72 96.4625C166.753 95.8542 166.007 95.0125 165.482 93.9375C164.957 92.8625 164.695 91.6292 164.695 90.2375C164.695 88.8208 164.961 87.5792 165.495 86.5125C166.028 85.4458 166.782 84.6167 167.757 84.025C168.732 83.425 169.878 83.125 171.195 83.125C172.545 83.125 173.707 83.4292 174.682 84.0375C175.657 84.6375 176.403 85.475 176.92 86.55C177.445 87.6167 177.707 88.8458 177.707 90.2375C177.707 91.6458 177.445 92.8875 176.92 93.9625C176.395 95.0292 175.645 95.8667 174.67 96.475C173.695 97.075 172.536 97.375 171.195 97.375ZM171.195 95.2625C172.595 95.2625 173.636 94.7958 174.32 93.8625C175.003 92.9292 175.345 91.7208 175.345 90.2375C175.345 88.7125 174.999 87.5 174.307 86.6C173.616 85.6917 172.578 85.2375 171.195 85.2375C170.253 85.2375 169.478 85.45 168.87 85.875C168.261 86.3 167.807 86.8875 167.507 87.6375C167.207 88.3875 167.057 89.2542 167.057 90.2375C167.057 91.7542 167.407 92.9708 168.107 93.8875C168.807 94.8042 169.836 95.2625 171.195 95.2625ZM188.084 97V92.1375C187.634 92.3625 187.089 92.5542 186.447 92.7125C185.814 92.8708 185.134 92.95 184.409 92.95C183.034 92.95 181.926 92.6417 181.084 92.025C180.243 91.4083 179.693 90.5208 179.434 89.3625C179.359 89.0125 179.305 88.65 179.272 88.275C179.247 87.9 179.23 87.5583 179.222 87.25C179.214 86.9417 179.209 86.7167 179.209 86.575V83.5H181.459V86.575C181.459 86.8167 181.468 87.1167 181.484 87.475C181.501 87.825 181.543 88.1667 181.609 88.5C181.776 89.325 182.122 89.9458 182.647 90.3625C183.18 90.7792 183.93 90.9875 184.897 90.9875C185.547 90.9875 186.147 90.9042 186.697 90.7375C187.247 90.5708 187.709 90.35 188.084 90.075V83.5H190.322V97H188.084ZM193.314 97V83.5H195.539V89.1875H202.639V83.5H204.864V97H202.639V91.3H195.539V97H193.314ZM211.703 97.375C210.695 97.375 209.849 97.1917 209.166 96.825C208.491 96.45 207.978 95.9583 207.628 95.35C207.287 94.7417 207.116 94.075 207.116 93.35C207.116 92.6417 207.249 92.0292 207.516 91.5125C207.791 90.9875 208.174 90.5542 208.666 90.2125C209.157 89.8625 209.745 89.5875 210.428 89.3875C211.07 89.2125 211.787 89.0625 212.578 88.9375C213.378 88.8042 214.187 88.6833 215.003 88.575C215.82 88.4667 216.582 88.3625 217.291 88.2625L216.491 88.725C216.516 87.525 216.274 86.6375 215.766 86.0625C215.266 85.4875 214.399 85.2 213.166 85.2C212.349 85.2 211.632 85.3875 211.016 85.7625C210.407 86.1292 209.978 86.7292 209.728 87.5625L207.616 86.925C207.941 85.7417 208.57 84.8125 209.503 84.1375C210.437 83.4625 211.666 83.125 213.191 83.125C214.416 83.125 215.466 83.3458 216.341 83.7875C217.224 84.2208 217.857 84.8792 218.241 85.7625C218.432 86.1792 218.553 86.6333 218.603 87.125C218.653 87.6083 218.678 88.1167 218.678 88.65V97H216.703V93.7625L217.166 94.0625C216.657 95.1542 215.945 95.9792 215.028 96.5375C214.12 97.0958 213.012 97.375 211.703 97.375ZM212.041 95.5125C212.841 95.5125 213.532 95.3708 214.116 95.0875C214.707 94.7958 215.182 94.4167 215.541 93.95C215.899 93.475 216.132 92.9583 216.241 92.4C216.366 91.9833 216.432 91.5208 216.441 91.0125C216.457 90.4958 216.466 90.1 216.466 89.825L217.241 90.1625C216.516 90.2625 215.803 90.3583 215.103 90.45C214.403 90.5417 213.741 90.6417 213.116 90.75C212.491 90.85 211.928 90.9708 211.428 91.1125C211.062 91.2292 210.716 91.3792 210.391 91.5625C210.074 91.7458 209.816 91.9833 209.616 92.275C209.424 92.5583 209.328 92.9125 209.328 93.3375C209.328 93.7042 209.42 94.0542 209.603 94.3875C209.795 94.7208 210.087 94.9917 210.478 95.2C210.878 95.4083 211.399 95.5125 212.041 95.5125ZM229.766 97V92.1125H226.853C226.512 92.1125 226.132 92.1 225.716 92.075C225.307 92.0417 224.924 91.9958 224.566 91.9375C223.591 91.7542 222.766 91.325 222.091 90.65C221.424 89.975 221.091 89.0417 221.091 87.85C221.091 86.6917 221.403 85.7625 222.028 85.0625C222.662 84.3542 223.441 83.8958 224.366 83.6875C224.782 83.5875 225.203 83.5333 225.628 83.525C226.062 83.5083 226.428 83.5 226.728 83.5H231.991L232.003 97H229.766ZM220.678 97L224.266 91.5H226.666L223.078 97H220.678ZM226.691 90.275H229.766V85.3375H226.691C226.499 85.3375 226.245 85.3458 225.928 85.3625C225.62 85.3792 225.324 85.4292 225.041 85.5125C224.774 85.5875 224.512 85.725 224.253 85.925C224.003 86.125 223.795 86.3833 223.628 86.7C223.462 87.0167 223.378 87.3917 223.378 87.825C223.378 88.45 223.553 88.9583 223.903 89.35C224.253 89.7333 224.678 89.9917 225.178 90.125C225.453 90.1917 225.724 90.2333 225.991 90.25C226.266 90.2667 226.499 90.275 226.691 90.275ZM7.88701 122V110.525H3.18701V108.5H14.812V110.525H10.112V122H7.88701ZM22.5282 122.375C21.2032 122.375 20.0449 122.083 19.0532 121.5C18.0699 120.908 17.3032 120.087 16.7532 119.037C16.2032 117.979 15.9282 116.746 15.9282 115.337C15.9282 113.862 16.1991 112.587 16.7407 111.512C17.2824 110.429 18.0366 109.596 19.0032 109.012C19.9782 108.421 21.1199 108.125 22.4282 108.125C23.7866 108.125 24.9407 108.437 25.8907 109.062C26.8491 109.687 27.5657 110.579 28.0407 111.737C28.5241 112.896 28.7324 114.275 28.6657 115.875H26.4157V115.075C26.3907 113.417 26.0532 112.179 25.4032 111.362C24.7532 110.537 23.7866 110.125 22.5032 110.125C21.1282 110.125 20.0824 110.567 19.3657 111.45C18.6491 112.333 18.2907 113.6 18.2907 115.25C18.2907 116.842 18.6491 118.075 19.3657 118.95C20.0824 119.825 21.1032 120.262 22.4282 120.262C23.3199 120.262 24.0949 120.058 24.7532 119.65C25.4116 119.242 25.9282 118.654 26.3032 117.887L28.4407 118.625C27.9157 119.817 27.1241 120.742 26.0657 121.4C25.0157 122.05 23.8366 122.375 22.5282 122.375ZM17.5407 115.875V114.087H27.5157V115.875H17.5407ZM28.9604 122L34.1229 115.175L29.0729 108.5H31.7229L35.4229 113.45L39.0854 108.5H41.7354L36.6854 115.175L41.8604 122H39.1979L35.4229 116.9L31.6229 122H28.9604ZM43.3513 122V108.5H54.4138V122H52.1888V110.612H45.5763V122H43.3513ZM63.1646 122.375C61.8229 122.375 60.6646 122.071 59.6896 121.462C58.7229 120.854 57.9771 120.012 57.4521 118.937C56.9271 117.862 56.6646 116.629 56.6646 115.237C56.6646 113.821 56.9312 112.579 57.4646 111.512C57.9979 110.446 58.7521 109.617 59.7271 109.025C60.7021 108.425 61.8479 108.125 63.1646 108.125C64.5146 108.125 65.6771 108.429 66.6521 109.037C67.6271 109.637 68.3729 110.475 68.8896 111.55C69.4146 112.617 69.6771 113.846 69.6771 115.237C69.6771 116.646 69.4146 117.887 68.8896 118.962C68.3646 120.029 67.6146 120.867 66.6396 121.475C65.6646 122.075 64.5062 122.375 63.1646 122.375ZM63.1646 120.262C64.5646 120.262 65.6062 119.796 66.2896 118.862C66.9729 117.929 67.3146 116.721 67.3146 115.237C67.3146 113.712 66.9687 112.5 66.2771 111.6C65.5854 110.692 64.5479 110.237 63.1646 110.237C62.2229 110.237 61.4479 110.45 60.8396 110.875C60.2312 111.3 59.7771 111.887 59.4771 112.637C59.1771 113.387 59.0271 114.254 59.0271 115.237C59.0271 116.754 59.3771 117.971 60.0771 118.887C60.7771 119.804 61.8062 120.262 63.1646 120.262ZM70.9292 125V120.163C71.6875 120.163 72.2292 119.917 72.5542 119.425C72.8792 118.925 73.1417 118.104 73.3417 116.962C73.475 116.246 73.5834 115.479 73.6667 114.662C73.75 113.846 73.8209 112.937 73.8792 111.937C73.9459 110.929 74.0084 109.783 74.0667 108.5H83.3667V120.163H84.6792V125H82.5542V122H73.0542V125H70.9292ZM74.3542 120.163H81.1417V110.337H76.0792C76.0542 110.929 76.0209 111.55 75.9792 112.2C75.9375 112.842 75.8875 113.483 75.8292 114.125C75.7792 114.767 75.7167 115.375 75.6417 115.95C75.575 116.517 75.4959 117.025 75.4042 117.475C75.2959 118.1 75.1709 118.629 75.0292 119.062C74.8875 119.496 74.6625 119.862 74.3542 120.163ZM85.688 125V120.163C86.4463 120.163 86.988 119.917 87.313 119.425C87.638 118.925 87.9005 118.104 88.1005 116.962C88.2338 116.246 88.3422 115.479 88.4255 114.662C88.5088 113.846 88.5797 112.937 88.638 111.937C88.7047 110.929 88.7672 109.783 88.8255 108.5H98.1255V120.163H99.438V125H97.313V122H87.813V125H85.688ZM89.113 120.163H95.9005V110.337H90.838C90.813 110.929 90.7797 111.55 90.738 112.2C90.6963 112.842 90.6463 113.483 90.588 114.125C90.538 114.767 90.4755 115.375 90.4005 115.95C90.3338 116.517 90.2547 117.025 90.163 117.475C90.0547 118.1 89.9297 118.629 89.788 119.062C89.6463 119.496 89.4213 119.862 89.113 120.163ZM107.297 122.375C105.972 122.375 104.813 122.083 103.822 121.5C102.838 120.908 102.072 120.087 101.522 119.037C100.972 117.979 100.697 116.746 100.697 115.337C100.697 113.862 100.968 112.587 101.509 111.512C102.051 110.429 102.805 109.596 103.772 109.012C104.747 108.421 105.888 108.125 107.197 108.125C108.555 108.125 109.709 108.437 110.659 109.062C111.618 109.687 112.334 110.579 112.809 111.737C113.293 112.896 113.501 114.275 113.434 115.875H111.184V115.075C111.159 113.417 110.822 112.179 110.172 111.362C109.522 110.537 108.555 110.125 107.272 110.125C105.897 110.125 104.851 110.567 104.134 111.45C103.418 112.333 103.059 113.6 103.059 115.25C103.059 116.842 103.418 118.075 104.134 118.95C104.851 119.825 105.872 120.262 107.197 120.262C108.088 120.262 108.863 120.058 109.522 119.65C110.18 119.242 110.697 118.654 111.072 117.887L113.209 118.625C112.684 119.817 111.893 120.742 110.834 121.4C109.784 122.05 108.605 122.375 107.297 122.375ZM102.309 115.875V114.087H112.284V115.875H102.309ZM121.917 122.375C120.651 122.375 119.584 122.063 118.717 121.437C117.851 120.804 117.192 119.95 116.742 118.875C116.301 117.792 116.08 116.579 116.08 115.237C116.08 113.879 116.301 112.662 116.742 111.587C117.192 110.512 117.851 109.667 118.717 109.05C119.592 108.433 120.663 108.125 121.93 108.125C123.18 108.125 124.255 108.437 125.155 109.062C126.063 109.679 126.759 110.525 127.242 111.6C127.726 112.675 127.967 113.887 127.967 115.237C127.967 116.587 127.726 117.8 127.242 118.875C126.759 119.95 126.063 120.804 125.155 121.437C124.255 122.063 123.176 122.375 121.917 122.375ZM115.705 128V108.5H117.692V118.437H117.942V128H115.705ZM121.642 120.337C122.534 120.337 123.271 120.112 123.855 119.662C124.438 119.212 124.876 118.604 125.167 117.837C125.459 117.062 125.605 116.196 125.605 115.237C125.605 114.287 125.459 113.429 125.167 112.662C124.884 111.896 124.442 111.287 123.842 110.837C123.251 110.387 122.496 110.162 121.58 110.162C120.705 110.162 119.98 110.379 119.405 110.812C118.83 111.237 118.401 111.833 118.117 112.6C117.834 113.358 117.692 114.237 117.692 115.237C117.692 116.221 117.83 117.1 118.105 117.875C118.388 118.642 118.821 119.246 119.405 119.687C119.988 120.121 120.734 120.337 121.642 120.337ZM128.219 122L133.669 115.25L128.482 108.5H130.957L135.969 115.125V108.5H137.994V115.125L143.007 108.5H145.482L140.294 115.25L145.744 122H143.157L137.994 115.375V122H135.969V115.375L130.807 122H128.219ZM147.224 122L147.237 108.5H149.487V115L155.149 108.5H158.037L152.074 115.25L158.737 122H155.624L149.487 115.5V122H147.224ZM163.318 122.375C162.31 122.375 161.464 122.192 160.781 121.825C160.106 121.45 159.593 120.958 159.243 120.35C158.902 119.742 158.731 119.075 158.731 118.35C158.731 117.642 158.864 117.029 159.131 116.512C159.406 115.987 159.789 115.554 160.281 115.212C160.773 114.862 161.36 114.587 162.043 114.387C162.685 114.212 163.402 114.062 164.193 113.937C164.993 113.804 165.802 113.683 166.618 113.575C167.435 113.467 168.198 113.362 168.906 113.262L168.106 113.725C168.131 112.525 167.889 111.637 167.381 111.062C166.881 110.487 166.014 110.2 164.781 110.2C163.964 110.2 163.248 110.387 162.631 110.762C162.023 111.129 161.593 111.729 161.343 112.562L159.231 111.925C159.556 110.742 160.185 109.812 161.118 109.137C162.052 108.462 163.281 108.125 164.806 108.125C166.031 108.125 167.081 108.346 167.956 108.787C168.839 109.221 169.473 109.879 169.856 110.762C170.048 111.179 170.168 111.633 170.218 112.125C170.268 112.608 170.293 113.117 170.293 113.65V122H168.318V118.762L168.781 119.062C168.273 120.154 167.56 120.979 166.643 121.537C165.735 122.096 164.627 122.375 163.318 122.375ZM163.656 120.512C164.456 120.512 165.148 120.371 165.731 120.087C166.323 119.796 166.798 119.417 167.156 118.95C167.514 118.475 167.748 117.958 167.856 117.4C167.981 116.983 168.048 116.521 168.056 116.012C168.073 115.496 168.081 115.1 168.081 114.825L168.856 115.162C168.131 115.262 167.418 115.358 166.718 115.45C166.018 115.542 165.356 115.642 164.731 115.75C164.106 115.85 163.543 115.971 163.043 116.112C162.677 116.229 162.331 116.379 162.006 116.562C161.689 116.746 161.431 116.983 161.231 117.275C161.039 117.558 160.943 117.912 160.943 118.337C160.943 118.704 161.035 119.054 161.218 119.387C161.41 119.721 161.702 119.992 162.093 120.2C162.493 120.408 163.014 120.512 163.656 120.512ZM177.536 122V108.5H188.598V122H186.373V110.612H179.761V122H177.536ZM197.349 122.375C196.007 122.375 194.849 122.071 193.874 121.462C192.907 120.854 192.162 120.012 191.637 118.937C191.112 117.862 190.849 116.629 190.849 115.237C190.849 113.821 191.116 112.579 191.649 111.512C192.182 110.446 192.937 109.617 193.912 109.025C194.887 108.425 196.032 108.125 197.349 108.125C198.699 108.125 199.862 108.429 200.837 109.037C201.812 109.637 202.557 110.475 203.074 111.55C203.599 112.617 203.862 113.846 203.862 115.237C203.862 116.646 203.599 117.887 203.074 118.962C202.549 120.029 201.799 120.867 200.824 121.475C199.849 122.075 198.691 122.375 197.349 122.375ZM197.349 120.262C198.749 120.262 199.791 119.796 200.474 118.862C201.157 117.929 201.499 116.721 201.499 115.237C201.499 113.712 201.153 112.5 200.462 111.6C199.77 110.692 198.732 110.237 197.349 110.237C196.407 110.237 195.632 110.45 195.024 110.875C194.416 111.3 193.962 111.887 193.662 112.637C193.362 113.387 193.212 114.254 193.212 115.237C193.212 116.754 193.562 117.971 194.262 118.887C194.962 119.804 195.991 120.262 197.349 120.262ZM210.606 122V108.5H221.669V122H219.444V110.612H212.831V122H210.606ZM230.419 122.375C229.078 122.375 227.919 122.071 226.944 121.462C225.978 120.854 225.232 120.012 224.707 118.937C224.182 117.862 223.919 116.629 223.919 115.237C223.919 113.821 224.186 112.579 224.719 111.512C225.253 110.446 226.007 109.617 226.982 109.025C227.957 108.425 229.103 108.125 230.419 108.125C231.769 108.125 232.932 108.429 233.907 109.037C234.882 109.637 235.628 110.475 236.144 111.55C236.669 112.617 236.932 113.846 236.932 115.237C236.932 116.646 236.669 117.887 236.144 118.962C235.619 120.029 234.869 120.867 233.894 121.475C232.919 122.075 231.761 122.375 230.419 122.375ZM230.419 120.262C231.819 120.262 232.861 119.796 233.544 118.862C234.228 117.929 234.569 116.721 234.569 115.237C234.569 113.712 234.224 112.5 233.532 111.6C232.84 110.692 231.803 110.237 230.419 110.237C229.478 110.237 228.703 110.45 228.094 110.875C227.486 111.3 227.032 111.887 226.732 112.637C226.432 113.387 226.282 114.254 226.282 115.237C226.282 116.754 226.632 117.971 227.332 118.887C228.032 119.804 229.061 120.262 230.419 120.262ZM247.309 122V117.137C246.859 117.362 246.313 117.554 245.672 117.712C245.038 117.871 244.359 117.95 243.634 117.95C242.259 117.95 241.151 117.642 240.309 117.025C239.467 116.408 238.917 115.521 238.659 114.362C238.584 114.012 238.53 113.65 238.497 113.275C238.472 112.9 238.455 112.558 238.447 112.25C238.438 111.942 238.434 111.717 238.434 111.575V108.5H240.684V111.575C240.684 111.817 240.692 112.117 240.709 112.475C240.726 112.825 240.767 113.167 240.834 113.5C241.001 114.325 241.347 114.946 241.872 115.362C242.405 115.779 243.155 115.987 244.122 115.987C244.772 115.987 245.372 115.904 245.922 115.737C246.472 115.571 246.934 115.35 247.309 115.075V108.5H249.547V122H247.309ZM256.126 122V110.525H251.426V108.5H263.051V110.525H258.351V122H256.126ZM270.767 122.375C269.442 122.375 268.284 122.083 267.292 121.5C266.309 120.908 265.542 120.087 264.992 119.037C264.442 117.979 264.167 116.746 264.167 115.337C264.167 113.862 264.438 112.587 264.98 111.512C265.522 110.429 266.276 109.596 267.242 109.012C268.217 108.421 269.359 108.125 270.667 108.125C272.026 108.125 273.18 108.437 274.13 109.062C275.088 109.687 275.805 110.579 276.28 111.737C276.763 112.896 276.972 114.275 276.905 115.875H274.655V115.075C274.63 113.417 274.292 112.179 273.642 111.362C272.992 110.537 272.026 110.125 270.742 110.125C269.367 110.125 268.322 110.567 267.605 111.45C266.888 112.333 266.53 113.6 266.53 115.25C266.53 116.842 266.888 118.075 267.605 118.95C268.322 119.825 269.342 120.262 270.667 120.262C271.559 120.262 272.334 120.058 272.992 119.65C273.651 119.242 274.167 118.654 274.542 117.887L276.68 118.625C276.155 119.817 275.363 120.742 274.305 121.4C273.255 122.05 272.076 122.375 270.767 122.375ZM265.78 115.875V114.087H275.755V115.875H265.78ZM47.5656 133.5V147H45.4156V137.05L38.3406 147H36.5031V133.5H38.6531V143.312L45.7406 133.5H47.5656ZM55.0588 147V133.5H60.8088C61.1505 133.5 61.5171 133.521 61.9088 133.562C62.3088 133.596 62.6713 133.658 62.9963 133.75C63.7213 133.942 64.3171 134.337 64.7838 134.937C65.2588 135.529 65.4963 136.279 65.4963 137.187C65.4963 137.696 65.4171 138.137 65.2588 138.512C65.1088 138.887 64.8921 139.212 64.6088 139.487C64.4838 139.612 64.3463 139.725 64.1963 139.825C64.0463 139.925 63.8963 140.004 63.7463 140.062C64.038 140.112 64.3338 140.225 64.6338 140.4C65.1088 140.658 65.4796 141.021 65.7463 141.487C66.0213 141.954 66.1588 142.55 66.1588 143.275C66.1588 144.192 65.938 144.95 65.4963 145.55C65.0546 146.142 64.4463 146.55 63.6713 146.775C63.3463 146.867 62.988 146.929 62.5963 146.962C62.2046 146.987 61.8255 147 61.4588 147H55.0588ZM57.3088 145.187H61.3338C61.5088 145.187 61.7171 145.171 61.9588 145.137C62.2088 145.104 62.4296 145.062 62.6213 145.012C63.0546 144.887 63.3671 144.654 63.5588 144.312C63.7588 143.971 63.8588 143.6 63.8588 143.2C63.8588 142.667 63.7088 142.233 63.4088 141.9C63.1171 141.567 62.7296 141.358 62.2463 141.275C62.0713 141.225 61.8796 141.196 61.6713 141.187C61.4713 141.179 61.2921 141.175 61.1338 141.175H57.3088V145.187ZM57.3088 139.337H60.6588C60.8921 139.337 61.138 139.325 61.3963 139.3C61.6546 139.267 61.8796 139.212 62.0713 139.137C62.4546 138.996 62.7338 138.762 62.9088 138.437C63.0921 138.104 63.1838 137.742 63.1838 137.35C63.1838 136.917 63.0838 136.537 62.8838 136.212C62.6921 135.879 62.3963 135.65 61.9963 135.525C61.7296 135.425 61.4296 135.371 61.0963 135.362C60.7713 135.346 60.563 135.337 60.4713 135.337H57.3088V139.337ZM72.6623 147V133.5H74.5748L79.6998 143.975L84.8248 133.5H86.7373V147H84.5873V138.137L80.2873 147H79.1123L74.8123 138.137V147H72.6623ZM95.5785 147.375C94.2535 147.375 93.0952 147.083 92.1035 146.5C91.1202 145.908 90.3535 145.087 89.8035 144.037C89.2535 142.979 88.9785 141.746 88.9785 140.337C88.9785 138.862 89.2493 137.587 89.791 136.512C90.3327 135.429 91.0868 134.596 92.0535 134.012C93.0285 133.421 94.1702 133.125 95.4785 133.125C96.8368 133.125 97.991 133.437 98.941 134.062C99.8993 134.687 100.616 135.579 101.091 136.737C101.574 137.896 101.783 139.275 101.716 140.875H99.466V140.075C99.441 138.417 99.1035 137.179 98.4535 136.362C97.8035 135.537 96.8368 135.125 95.5535 135.125C94.1785 135.125 93.1327 135.567 92.416 136.45C91.6993 137.333 91.341 138.6 91.341 140.25C91.341 141.842 91.6993 143.075 92.416 143.95C93.1327 144.825 94.1535 145.262 95.4785 145.262C96.3702 145.262 97.1452 145.058 97.8035 144.65C98.4618 144.242 98.9785 143.654 99.3535 142.887L101.491 143.625C100.966 144.817 100.174 145.742 99.116 146.4C98.066 147.05 96.8868 147.375 95.5785 147.375ZM90.591 140.875V139.087H100.566V140.875H90.591ZM109.687 147.375C108.32 147.375 107.157 147.071 106.199 146.462C105.249 145.846 104.524 145 104.024 143.925C103.524 142.85 103.266 141.625 103.249 140.25C103.266 138.842 103.528 137.604 104.037 136.537C104.553 135.462 105.291 134.625 106.249 134.025C107.207 133.425 108.362 133.125 109.712 133.125C111.137 133.125 112.362 133.475 113.387 134.175C114.42 134.875 115.112 135.833 115.462 137.05L113.262 137.712C112.978 136.929 112.516 136.321 111.874 135.887C111.241 135.454 110.512 135.237 109.687 135.237C108.762 135.237 107.999 135.454 107.399 135.887C106.799 136.312 106.353 136.904 106.062 137.662C105.77 138.412 105.62 139.275 105.612 140.25C105.628 141.75 105.974 142.962 106.649 143.887C107.332 144.804 108.345 145.262 109.687 145.262C110.57 145.262 111.303 145.062 111.887 144.662C112.47 144.254 112.912 143.667 113.212 142.9L115.462 143.487C114.995 144.746 114.266 145.708 113.274 146.375C112.282 147.042 111.087 147.375 109.687 147.375ZM122.834 147.375C121.467 147.375 120.305 147.071 119.346 146.462C118.396 145.846 117.671 145 117.171 143.925C116.671 142.85 116.413 141.625 116.396 140.25C116.413 138.842 116.676 137.604 117.184 136.537C117.701 135.462 118.438 134.625 119.396 134.025C120.355 133.425 121.509 133.125 122.859 133.125C124.284 133.125 125.509 133.475 126.534 134.175C127.567 134.875 128.259 135.833 128.609 137.05L126.409 137.712C126.126 136.929 125.663 136.321 125.021 135.887C124.388 135.454 123.659 135.237 122.834 135.237C121.909 135.237 121.146 135.454 120.546 135.887C119.946 136.312 119.501 136.904 119.209 137.662C118.917 138.412 118.767 139.275 118.759 140.25C118.776 141.75 119.121 142.962 119.796 143.887C120.48 144.804 121.492 145.262 122.834 145.262C123.717 145.262 124.451 145.062 125.034 144.662C125.617 144.254 126.059 143.667 126.359 142.9L128.609 143.487C128.142 144.746 127.413 145.708 126.421 146.375C125.43 147.042 124.234 147.375 122.834 147.375ZM136.51 147.375C135.185 147.375 134.027 147.083 133.035 146.5C132.052 145.908 131.285 145.087 130.735 144.037C130.185 142.979 129.91 141.746 129.91 140.337C129.91 138.862 130.181 137.587 130.723 136.512C131.264 135.429 132.018 134.596 132.985 134.012C133.96 133.421 135.102 133.125 136.41 133.125C137.768 133.125 138.923 133.437 139.873 134.062C140.831 134.687 141.548 135.579 142.023 136.737C142.506 137.896 142.714 139.275 142.648 140.875H140.398V140.075C140.373 138.417 140.035 137.179 139.385 136.362C138.735 135.537 137.768 135.125 136.485 135.125C135.11 135.125 134.064 135.567 133.348 136.45C132.631 137.333 132.273 138.6 132.273 140.25C132.273 141.842 132.631 143.075 133.348 143.95C134.064 144.825 135.085 145.262 136.41 145.262C137.302 145.262 138.077 145.058 138.735 144.65C139.393 144.242 139.91 143.654 140.285 142.887L142.423 143.625C141.898 144.817 141.106 145.742 140.048 146.4C138.998 147.05 137.818 147.375 136.51 147.375ZM131.523 140.875V139.087H141.498V140.875H131.523ZM144.918 147V133.5H147.143V139.188H154.243V133.5H156.468V147H154.243V141.3H147.143V147H144.918ZM158.47 150V145.163C159.228 145.163 159.77 144.917 160.095 144.425C160.42 143.925 160.682 143.104 160.882 141.962C161.016 141.246 161.124 140.479 161.207 139.662C161.291 138.846 161.361 137.937 161.42 136.937C161.486 135.929 161.549 134.783 161.607 133.5H170.907V145.163H172.22V150H170.095V147H160.595V150H158.47ZM161.895 145.163H168.682V135.337H163.62C163.595 135.929 163.561 136.55 163.52 137.2C163.478 137.842 163.428 138.483 163.37 139.125C163.32 139.767 163.257 140.375 163.182 140.95C163.116 141.517 163.036 142.025 162.945 142.475C162.836 143.1 162.711 143.629 162.57 144.062C162.428 144.496 162.203 144.862 161.895 145.163ZM172.729 147L178.179 140.25L172.991 133.5H175.466L180.479 140.125V133.5H182.504V140.125L187.516 133.5H189.991L184.804 140.25L190.254 147H187.666L182.504 140.375V147H180.479V140.375L175.316 147H172.729ZM197.108 147.375C195.783 147.375 194.624 147.083 193.633 146.5C192.649 145.908 191.883 145.087 191.333 144.037C190.783 142.979 190.508 141.746 190.508 140.337C190.508 138.862 190.779 137.587 191.32 136.512C191.862 135.429 192.616 134.596 193.583 134.012C194.558 133.421 195.699 133.125 197.008 133.125C198.366 133.125 199.52 133.437 200.47 134.062C201.429 134.687 202.145 135.579 202.62 136.737C203.104 137.896 203.312 139.275 203.245 140.875H200.995V140.075C200.97 138.417 200.633 137.179 199.983 136.362C199.333 135.537 198.366 135.125 197.083 135.125C195.708 135.125 194.662 135.567 193.945 136.45C193.229 137.333 192.87 138.6 192.87 140.25C192.87 141.842 193.229 143.075 193.945 143.95C194.662 144.825 195.683 145.262 197.008 145.262C197.899 145.262 198.674 145.058 199.333 144.65C199.991 144.242 200.508 143.654 200.883 142.887L203.02 143.625C202.495 144.817 201.704 145.742 200.645 146.4C199.595 147.05 198.416 147.375 197.108 147.375ZM192.12 140.875V139.087H202.095V140.875H192.12ZM211.728 147.375C210.462 147.375 209.395 147.063 208.528 146.437C207.662 145.804 207.003 144.95 206.553 143.875C206.112 142.792 205.891 141.579 205.891 140.237C205.891 138.879 206.112 137.662 206.553 136.587C207.003 135.512 207.662 134.667 208.528 134.05C209.403 133.433 210.474 133.125 211.741 133.125C212.991 133.125 214.066 133.437 214.966 134.062C215.874 134.679 216.57 135.525 217.053 136.6C217.537 137.675 217.778 138.887 217.778 140.237C217.778 141.587 217.537 142.8 217.053 143.875C216.57 144.95 215.874 145.804 214.966 146.437C214.066 147.063 212.987 147.375 211.728 147.375ZM205.516 153V133.5H207.503V143.437H207.753V153H205.516ZM211.453 145.337C212.345 145.337 213.082 145.112 213.666 144.662C214.249 144.212 214.687 143.604 214.978 142.837C215.27 142.062 215.416 141.196 215.416 140.237C215.416 139.287 215.27 138.429 214.978 137.662C214.695 136.896 214.253 136.287 213.653 135.837C213.062 135.387 212.307 135.162 211.391 135.162C210.516 135.162 209.791 135.379 209.216 135.812C208.641 136.237 208.212 136.833 207.928 137.6C207.645 138.358 207.503 139.237 207.503 140.237C207.503 141.221 207.641 142.1 207.916 142.875C208.199 143.642 208.632 144.246 209.216 144.687C209.799 145.121 210.545 145.337 211.453 145.337ZM223.856 147.375C222.848 147.375 222.002 147.192 221.319 146.825C220.644 146.45 220.131 145.958 219.781 145.35C219.439 144.742 219.269 144.075 219.269 143.35C219.269 142.642 219.402 142.029 219.669 141.512C219.944 140.987 220.327 140.554 220.819 140.212C221.31 139.862 221.898 139.587 222.581 139.387C223.223 139.212 223.939 139.062 224.731 138.937C225.531 138.804 226.339 138.683 227.156 138.575C227.973 138.467 228.735 138.362 229.444 138.262L228.644 138.725C228.669 137.525 228.427 136.637 227.919 136.062C227.419 135.487 226.552 135.2 225.319 135.2C224.502 135.2 223.785 135.387 223.169 135.762C222.56 136.129 222.131 136.729 221.881 137.562L219.769 136.925C220.094 135.742 220.723 134.812 221.656 134.137C222.589 133.462 223.819 133.125 225.344 133.125C226.569 133.125 227.619 133.346 228.494 133.787C229.377 134.221 230.01 134.879 230.394 135.762C230.585 136.179 230.706 136.633 230.756 137.125C230.806 137.608 230.831 138.117 230.831 138.65V147H228.856V143.762L229.319 144.062C228.81 145.154 228.098 145.979 227.181 146.537C226.273 147.096 225.164 147.375 223.856 147.375ZM224.194 145.512C224.994 145.512 225.685 145.371 226.269 145.087C226.86 144.796 227.335 144.417 227.694 143.95C228.052 143.475 228.285 142.958 228.394 142.4C228.519 141.983 228.585 141.521 228.594 141.012C228.61 140.496 228.619 140.1 228.619 139.825L229.394 140.162C228.669 140.262 227.956 140.358 227.256 140.45C226.556 140.542 225.894 140.642 225.269 140.75C224.644 140.85 224.081 140.971 223.581 141.112C223.214 141.229 222.869 141.379 222.544 141.562C222.227 141.746 221.969 141.983 221.769 142.275C221.577 142.558 221.481 142.912 221.481 143.337C221.481 143.704 221.573 144.054 221.756 144.387C221.948 144.721 222.239 144.992 222.631 145.2C223.031 145.408 223.552 145.512 224.194 145.512ZM232.081 147L237.244 140.175L232.194 133.5H234.844L238.544 138.45L242.206 133.5H244.856L239.806 140.175L244.981 147H242.319L238.544 141.9L234.744 147H232.081Z" fill="#FDFDFD"/>
<rect y="103.656" width="174.742" height="30" rx="10" transform="rotate(-1.19873 0 103.656)" fill="#FDFDFD"/>
<g clip-path="url(#paint0_diamond_18695_21025_clip_path)" data-figma-skip-parse="true"><g transform="matrix(-0.209667 0.0192847 0.485412 -0.158338 141.542 99.3415)"><rect x="0" y="0" width="940.498" height="259.932" fill="url(#paint0_diamond_18695_21025)" opacity="1" shape-rendering="crispEdges"/><rect x="0" y="0" width="940.498" height="259.932" transform="scale(1 -1)" fill="url(#paint0_diamond_18695_21025)" opacity="1" shape-rendering="crispEdges"/><rect x="0" y="0" width="940.498" height="259.932" transform="scale(-1 1)" fill="url(#paint0_diamond_18695_21025)" opacity="1" shape-rendering="crispEdges"/><rect x="0" y="0" width="940.498" height="259.932" transform="scale(-1)" fill="url(#paint0_diamond_18695_21025)" opacity="1" shape-rendering="crispEdges"/></g></g><path d="M7.70928 122V110.525H3.00928V108.5H14.6343V110.525H9.93428V122H7.70928ZM22.3505 122.375C21.0255 122.375 19.8672 122.083 18.8755 121.5C17.8922 120.908 17.1255 120.087 16.5755 119.037C16.0255 117.979 15.7505 116.746 15.7505 115.337C15.7505 113.862 16.0213 112.587 16.563 111.512C17.1047 110.429 17.8588 109.596 18.8255 109.012C19.8005 108.421 20.9422 108.125 22.2505 108.125C23.6088 108.125 24.763 108.437 25.713 109.062C26.6713 109.687 27.388 110.579 27.863 111.737C28.3463 112.896 28.5547 114.275 28.488 115.875H26.238V115.075C26.213 113.417 25.8755 112.179 25.2255 111.362C24.5755 110.537 23.6088 110.125 22.3255 110.125C20.9505 110.125 19.9047 110.567 19.188 111.45C18.4713 112.333 18.113 113.6 18.113 115.25C18.113 116.842 18.4713 118.075 19.188 118.95C19.9047 119.825 20.9255 120.262 22.2505 120.262C23.1422 120.262 23.9172 120.058 24.5755 119.65C25.2338 119.242 25.7505 118.654 26.1255 117.887L28.263 118.625C27.738 119.817 26.9463 120.742 25.888 121.4C24.838 122.05 23.6588 122.375 22.3505 122.375ZM17.363 115.875V114.087H27.338V115.875H17.363ZM28.7827 122L33.9452 115.175L28.8952 108.5H31.5452L35.2452 113.45L38.9077 108.5H41.5577L36.5077 115.175L41.6827 122H39.0202L35.2452 116.9L31.4452 122H28.7827ZM43.1735 122V108.5H54.236V122H52.011V110.612H45.3985V122H43.1735ZM62.9868 122.375C61.6451 122.375 60.4868 122.071 59.5118 121.462C58.5451 120.854 57.7993 120.012 57.2743 118.937C56.7493 117.862 56.4868 116.629 56.4868 115.237C56.4868 113.821 56.7535 112.579 57.2868 111.512C57.8201 110.446 58.5743 109.617 59.5493 109.025C60.5243 108.425 61.6701 108.125 62.9868 108.125C64.3368 108.125 65.4993 108.429 66.4743 109.037C67.4493 109.637 68.1951 110.475 68.7118 111.55C69.2368 112.617 69.4993 113.846 69.4993 115.237C69.4993 116.646 69.2368 117.887 68.7118 118.962C68.1868 120.029 67.4368 120.867 66.4618 121.475C65.4868 122.075 64.3285 122.375 62.9868 122.375ZM62.9868 120.262C64.3868 120.262 65.4285 119.796 66.1118 118.862C66.7951 117.929 67.1368 116.721 67.1368 115.237C67.1368 113.712 66.791 112.5 66.0993 111.6C65.4076 110.692 64.3701 110.237 62.9868 110.237C62.0451 110.237 61.2701 110.45 60.6618 110.875C60.0535 111.3 59.5993 111.887 59.2993 112.637C58.9993 113.387 58.8493 114.254 58.8493 115.237C58.8493 116.754 59.1993 117.971 59.8993 118.887C60.5993 119.804 61.6285 120.262 62.9868 120.262ZM70.7515 125V120.162C71.5098 120.162 72.0515 119.917 72.3765 119.425C72.7015 118.925 72.964 118.104 73.164 116.962C73.2973 116.246 73.4056 115.479 73.489 114.662C73.5723 113.846 73.6431 112.937 73.7015 111.937C73.7681 110.929 73.8306 109.783 73.889 108.5H83.189V120.162H84.5015V125H82.3765V122H72.8765V125H70.7515ZM74.1765 120.162H80.964V110.337H75.9015C75.8765 110.929 75.8431 111.55 75.8015 112.2C75.7598 112.842 75.7098 113.483 75.6515 114.125C75.6015 114.767 75.539 115.375 75.464 115.95C75.3973 116.517 75.3181 117.025 75.2265 117.475C75.1181 118.1 74.9931 118.629 74.8515 119.062C74.7098 119.496 74.4848 119.862 74.1765 120.162ZM85.5102 125V120.162C86.2686 120.162 86.8102 119.917 87.1352 119.425C87.4602 118.925 87.7227 118.104 87.9227 116.962C88.0561 116.246 88.1644 115.479 88.2477 114.662C88.3311 113.846 88.4019 112.937 88.4602 111.937C88.5269 110.929 88.5894 109.783 88.6477 108.5H97.9477V120.162H99.2602V125H97.1352V122H87.6352V125H85.5102ZM88.9352 120.162H95.7227V110.337H90.6602C90.6352 110.929 90.6019 111.55 90.5602 112.2C90.5186 112.842 90.4686 113.483 90.4102 114.125C90.3602 114.767 90.2977 115.375 90.2227 115.95C90.1561 116.517 90.0769 117.025 89.9852 117.475C89.8769 118.1 89.7519 118.629 89.6102 119.062C89.4686 119.496 89.2436 119.862 88.9352 120.162ZM107.119 122.375C105.794 122.375 104.636 122.083 103.644 121.5C102.661 120.908 101.894 120.087 101.344 119.037C100.794 117.979 100.519 116.746 100.519 115.337C100.519 113.862 100.79 112.587 101.332 111.512C101.873 110.429 102.627 109.596 103.594 109.012C104.569 108.421 105.711 108.125 107.019 108.125C108.377 108.125 109.532 108.437 110.482 109.062C111.44 109.687 112.157 110.579 112.632 111.737C113.115 112.896 113.323 114.275 113.257 115.875H111.007V115.075C110.982 113.417 110.644 112.179 109.994 111.362C109.344 110.537 108.377 110.125 107.094 110.125C105.719 110.125 104.673 110.567 103.957 111.45C103.24 112.333 102.882 113.6 102.882 115.25C102.882 116.842 103.24 118.075 103.957 118.95C104.673 119.825 105.694 120.262 107.019 120.262C107.911 120.262 108.686 120.058 109.344 119.65C110.002 119.242 110.519 118.654 110.894 117.887L113.032 118.625C112.507 119.817 111.715 120.742 110.657 121.4C109.607 122.05 108.427 122.375 107.119 122.375ZM102.132 115.875V114.087H112.107V115.875H102.132ZM121.74 122.375C120.473 122.375 119.406 122.062 118.54 121.437C117.673 120.804 117.015 119.95 116.565 118.875C116.123 117.792 115.902 116.579 115.902 115.237C115.902 113.879 116.123 112.662 116.565 111.587C117.015 110.512 117.673 109.667 118.54 109.05C119.415 108.433 120.485 108.125 121.752 108.125C123.002 108.125 124.077 108.437 124.977 109.062C125.885 109.679 126.581 110.525 127.065 111.6C127.548 112.675 127.79 113.887 127.79 115.237C127.79 116.587 127.548 117.8 127.065 118.875C126.581 119.95 125.885 120.804 124.977 121.437C124.077 122.062 122.998 122.375 121.74 122.375ZM115.527 128V108.5H117.515V118.437H117.765V128H115.527ZM121.465 120.337C122.356 120.337 123.094 120.112 123.677 119.662C124.26 119.212 124.698 118.604 124.99 117.837C125.281 117.062 125.427 116.196 125.427 115.237C125.427 114.287 125.281 113.429 124.99 112.662C124.706 111.896 124.265 111.287 123.665 110.837C123.073 110.387 122.319 110.162 121.402 110.162C120.527 110.162 119.802 110.379 119.227 110.812C118.652 111.237 118.223 111.833 117.94 112.6C117.656 113.358 117.515 114.237 117.515 115.237C117.515 116.221 117.652 117.1 117.927 117.875C118.21 118.642 118.644 119.246 119.227 119.687C119.81 120.121 120.556 120.337 121.465 120.337ZM128.041 122L133.491 115.25L128.304 108.5H130.779L135.791 115.125V108.5H137.816V115.125L142.829 108.5H145.304L140.116 115.25L145.566 122H142.979L137.816 115.375V122H135.791V115.375L130.629 122H128.041ZM147.047 122L147.059 108.5H149.309V115L154.972 108.5H157.859L151.897 115.25L158.559 122H155.447L149.309 115.5V122H147.047ZM163.141 122.375C162.132 122.375 161.287 122.192 160.603 121.825C159.928 121.45 159.416 120.958 159.066 120.35C158.724 119.742 158.553 119.075 158.553 118.35C158.553 117.642 158.687 117.029 158.953 116.512C159.228 115.987 159.612 115.554 160.103 115.212C160.595 114.862 161.182 114.587 161.866 114.387C162.507 114.212 163.224 114.062 164.016 113.937C164.816 113.804 165.624 113.683 166.441 113.575C167.257 113.467 168.02 113.362 168.728 113.262L167.928 113.725C167.953 112.525 167.712 111.637 167.203 111.062C166.703 110.487 165.837 110.2 164.603 110.2C163.787 110.2 163.07 110.387 162.453 110.762C161.845 111.129 161.416 111.729 161.166 112.562L159.053 111.925C159.378 110.742 160.007 109.812 160.941 109.137C161.874 108.462 163.103 108.125 164.628 108.125C165.853 108.125 166.903 108.346 167.778 108.787C168.662 109.221 169.295 109.879 169.678 110.762C169.87 111.179 169.991 111.633 170.041 112.125C170.091 112.608 170.116 113.117 170.116 113.65V122H168.141V118.762L168.603 119.062C168.095 120.154 167.382 120.979 166.466 121.537C165.557 122.096 164.449 122.375 163.141 122.375ZM163.478 120.512C164.278 120.512 164.97 120.371 165.553 120.087C166.145 119.796 166.62 119.417 166.978 118.95C167.337 118.475 167.57 117.958 167.678 117.4C167.803 116.983 167.87 116.521 167.878 116.012C167.895 115.496 167.903 115.1 167.903 114.825L168.678 115.162C167.953 115.262 167.241 115.358 166.541 115.45C165.841 115.542 165.178 115.642 164.553 115.75C163.928 115.85 163.366 115.971 162.866 116.112C162.499 116.229 162.153 116.379 161.828 116.562C161.512 116.746 161.253 116.983 161.053 117.275C160.862 117.558 160.766 117.912 160.766 118.337C160.766 118.704 160.857 119.054 161.041 119.387C161.232 119.721 161.524 119.992 161.916 120.2C162.316 120.408 162.837 120.512 163.478 120.512Z" data-figma-gradient-fill="{&#34;type&#34;:&#34;GRADIENT_DIAMOND&#34;,&#34;stops&#34;:[{&#34;color&#34;:{&#34;r&#34;:0.83529412746429443,&#34;g&#34;:0.45098039507865906,&#34;b&#34;:0.51764708757400513,&#34;a&#34;:1.0},&#34;position&#34;:0.0},{&#34;color&#34;:{&#34;r&#34;:0.62352943420410156,&#34;g&#34;:0.33333334326744080,&#34;b&#34;:0.38039216399192810,&#34;a&#34;:1.0},&#34;position&#34;:9.9999997473787516e-05},{&#34;color&#34;:{&#34;r&#34;:0.28235295414924622,&#34;g&#34;:0.50588238239288330,&#34;b&#34;:0.85098040103912354,&#34;a&#34;:1.0},&#34;position&#34;:0.9218750}],&#34;stopsVar&#34;:[{&#34;color&#34;:{&#34;r&#34;:0.83529412746429443,&#34;g&#34;:0.45098039507865906,&#34;b&#34;:0.51764708757400513,&#34;a&#34;:1.0},&#34;position&#34;:0.0},{&#34;color&#34;:{&#34;r&#34;:0.62352943420410156,&#34;g&#34;:0.33333334326744080,&#34;b&#34;:0.38039216399192810,&#34;a&#34;:1.0},&#34;position&#34;:9.9999997473787516e-05},{&#34;color&#34;:{&#34;r&#34;:0.28235295414924622,&#34;g&#34;:0.50588238239288330,&#34;b&#34;:0.85098040103912354,&#34;a&#34;:1.0},&#34;position&#34;:0.9218750}],&#34;transform&#34;:{&#34;m00&#34;:-419.33331298828125,&#34;m01&#34;:970.82452392578125,&#34;m02&#34;:-134.20393371582031,&#34;m10&#34;:38.569358825683594,&#34;m11&#34;:-316.67660522460938,&#34;m12&#34;:238.39509582519531},&#34;opacity&#34;:1.0,&#34;blendMode&#34;:&#34;NORMAL&#34;,&#34;visible&#34;:true}"/>
<defs>
<clipPath id="paint0_diamond_18695_21025_clip_path"><path d="M7.70928 122V110.525H3.00928V108.5H14.6343V110.525H9.93428V122H7.70928ZM22.3505 122.375C21.0255 122.375 19.8672 122.083 18.8755 121.5C17.8922 120.908 17.1255 120.087 16.5755 119.037C16.0255 117.979 15.7505 116.746 15.7505 115.337C15.7505 113.862 16.0213 112.587 16.563 111.512C17.1047 110.429 17.8588 109.596 18.8255 109.012C19.8005 108.421 20.9422 108.125 22.2505 108.125C23.6088 108.125 24.763 108.437 25.713 109.062C26.6713 109.687 27.388 110.579 27.863 111.737C28.3463 112.896 28.5547 114.275 28.488 115.875H26.238V115.075C26.213 113.417 25.8755 112.179 25.2255 111.362C24.5755 110.537 23.6088 110.125 22.3255 110.125C20.9505 110.125 19.9047 110.567 19.188 111.45C18.4713 112.333 18.113 113.6 18.113 115.25C18.113 116.842 18.4713 118.075 19.188 118.95C19.9047 119.825 20.9255 120.262 22.2505 120.262C23.1422 120.262 23.9172 120.058 24.5755 119.65C25.2338 119.242 25.7505 118.654 26.1255 117.887L28.263 118.625C27.738 119.817 26.9463 120.742 25.888 121.4C24.838 122.05 23.6588 122.375 22.3505 122.375ZM17.363 115.875V114.087H27.338V115.875H17.363ZM28.7827 122L33.9452 115.175L28.8952 108.5H31.5452L35.2452 113.45L38.9077 108.5H41.5577L36.5077 115.175L41.6827 122H39.0202L35.2452 116.9L31.4452 122H28.7827ZM43.1735 122V108.5H54.236V122H52.011V110.612H45.3985V122H43.1735ZM62.9868 122.375C61.6451 122.375 60.4868 122.071 59.5118 121.462C58.5451 120.854 57.7993 120.012 57.2743 118.937C56.7493 117.862 56.4868 116.629 56.4868 115.237C56.4868 113.821 56.7535 112.579 57.2868 111.512C57.8201 110.446 58.5743 109.617 59.5493 109.025C60.5243 108.425 61.6701 108.125 62.9868 108.125C64.3368 108.125 65.4993 108.429 66.4743 109.037C67.4493 109.637 68.1951 110.475 68.7118 111.55C69.2368 112.617 69.4993 113.846 69.4993 115.237C69.4993 116.646 69.2368 117.887 68.7118 118.962C68.1868 120.029 67.4368 120.867 66.4618 121.475C65.4868 122.075 64.3285 122.375 62.9868 122.375ZM62.9868 120.262C64.3868 120.262 65.4285 119.796 66.1118 118.862C66.7951 117.929 67.1368 116.721 67.1368 115.237C67.1368 113.712 66.791 112.5 66.0993 111.6C65.4076 110.692 64.3701 110.237 62.9868 110.237C62.0451 110.237 61.2701 110.45 60.6618 110.875C60.0535 111.3 59.5993 111.887 59.2993 112.637C58.9993 113.387 58.8493 114.254 58.8493 115.237C58.8493 116.754 59.1993 117.971 59.8993 118.887C60.5993 119.804 61.6285 120.262 62.9868 120.262ZM70.7515 125V120.162C71.5098 120.162 72.0515 119.917 72.3765 119.425C72.7015 118.925 72.964 118.104 73.164 116.962C73.2973 116.246 73.4056 115.479 73.489 114.662C73.5723 113.846 73.6431 112.937 73.7015 111.937C73.7681 110.929 73.8306 109.783 73.889 108.5H83.189V120.162H84.5015V125H82.3765V122H72.8765V125H70.7515ZM74.1765 120.162H80.964V110.337H75.9015C75.8765 110.929 75.8431 111.55 75.8015 112.2C75.7598 112.842 75.7098 113.483 75.6515 114.125C75.6015 114.767 75.539 115.375 75.464 115.95C75.3973 116.517 75.3181 117.025 75.2265 117.475C75.1181 118.1 74.9931 118.629 74.8515 119.062C74.7098 119.496 74.4848 119.862 74.1765 120.162ZM85.5102 125V120.162C86.2686 120.162 86.8102 119.917 87.1352 119.425C87.4602 118.925 87.7227 118.104 87.9227 116.962C88.0561 116.246 88.1644 115.479 88.2477 114.662C88.3311 113.846 88.4019 112.937 88.4602 111.937C88.5269 110.929 88.5894 109.783 88.6477 108.5H97.9477V120.162H99.2602V125H97.1352V122H87.6352V125H85.5102ZM88.9352 120.162H95.7227V110.337H90.6602C90.6352 110.929 90.6019 111.55 90.5602 112.2C90.5186 112.842 90.4686 113.483 90.4102 114.125C90.3602 114.767 90.2977 115.375 90.2227 115.95C90.1561 116.517 90.0769 117.025 89.9852 117.475C89.8769 118.1 89.7519 118.629 89.6102 119.062C89.4686 119.496 89.2436 119.862 88.9352 120.162ZM107.119 122.375C105.794 122.375 104.636 122.083 103.644 121.5C102.661 120.908 101.894 120.087 101.344 119.037C100.794 117.979 100.519 116.746 100.519 115.337C100.519 113.862 100.79 112.587 101.332 111.512C101.873 110.429 102.627 109.596 103.594 109.012C104.569 108.421 105.711 108.125 107.019 108.125C108.377 108.125 109.532 108.437 110.482 109.062C111.44 109.687 112.157 110.579 112.632 111.737C113.115 112.896 113.323 114.275 113.257 115.875H111.007V115.075C110.982 113.417 110.644 112.179 109.994 111.362C109.344 110.537 108.377 110.125 107.094 110.125C105.719 110.125 104.673 110.567 103.957 111.45C103.24 112.333 102.882 113.6 102.882 115.25C102.882 116.842 103.24 118.075 103.957 118.95C104.673 119.825 105.694 120.262 107.019 120.262C107.911 120.262 108.686 120.058 109.344 119.65C110.002 119.242 110.519 118.654 110.894 117.887L113.032 118.625C112.507 119.817 111.715 120.742 110.657 121.4C109.607 122.05 108.427 122.375 107.119 122.375ZM102.132 115.875V114.087H112.107V115.875H102.132ZM121.74 122.375C120.473 122.375 119.406 122.062 118.54 121.437C117.673 120.804 117.015 119.95 116.565 118.875C116.123 117.792 115.902 116.579 115.902 115.237C115.902 113.879 116.123 112.662 116.565 111.587C117.015 110.512 117.673 109.667 118.54 109.05C119.415 108.433 120.485 108.125 121.752 108.125C123.002 108.125 124.077 108.437 124.977 109.062C125.885 109.679 126.581 110.525 127.065 111.6C127.548 112.675 127.79 113.887 127.79 115.237C127.79 116.587 127.548 117.8 127.065 118.875C126.581 119.95 125.885 120.804 124.977 121.437C124.077 122.062 122.998 122.375 121.74 122.375ZM115.527 128V108.5H117.515V118.437H117.765V128H115.527ZM121.465 120.337C122.356 120.337 123.094 120.112 123.677 119.662C124.26 119.212 124.698 118.604 124.99 117.837C125.281 117.062 125.427 116.196 125.427 115.237C125.427 114.287 125.281 113.429 124.99 112.662C124.706 111.896 124.265 111.287 123.665 110.837C123.073 110.387 122.319 110.162 121.402 110.162C120.527 110.162 119.802 110.379 119.227 110.812C118.652 111.237 118.223 111.833 117.94 112.6C117.656 113.358 117.515 114.237 117.515 115.237C117.515 116.221 117.652 117.1 117.927 117.875C118.21 118.642 118.644 119.246 119.227 119.687C119.81 120.121 120.556 120.337 121.465 120.337ZM128.041 122L133.491 115.25L128.304 108.5H130.779L135.791 115.125V108.5H137.816V115.125L142.829 108.5H145.304L140.116 115.25L145.566 122H142.979L137.816 115.375V122H135.791V115.375L130.629 122H128.041ZM147.047 122L147.059 108.5H149.309V115L154.972 108.5H157.859L151.897 115.25L158.559 122H155.447L149.309 115.5V122H147.047ZM163.141 122.375C162.132 122.375 161.287 122.192 160.603 121.825C159.928 121.45 159.416 120.958 159.066 120.35C158.724 119.742 158.553 119.075 158.553 118.35C158.553 117.642 158.687 117.029 158.953 116.512C159.228 115.987 159.612 115.554 160.103 115.212C160.595 114.862 161.182 114.587 161.866 114.387C162.507 114.212 163.224 114.062 164.016 113.937C164.816 113.804 165.624 113.683 166.441 113.575C167.257 113.467 168.02 113.362 168.728 113.262L167.928 113.725C167.953 112.525 167.712 111.637 167.203 111.062C166.703 110.487 165.837 110.2 164.603 110.2C163.787 110.2 163.07 110.387 162.453 110.762C161.845 111.129 161.416 111.729 161.166 112.562L159.053 111.925C159.378 110.742 160.007 109.812 160.941 109.137C161.874 108.462 163.103 108.125 164.628 108.125C165.853 108.125 166.903 108.346 167.778 108.787C168.662 109.221 169.295 109.879 169.678 110.762C169.87 111.179 169.991 111.633 170.041 112.125C170.091 112.608 170.116 113.117 170.116 113.65V122H168.141V118.762L168.603 119.062C168.095 120.154 167.382 120.979 166.466 121.537C165.557 122.096 164.449 122.375 163.141 122.375ZM163.478 120.512C164.278 120.512 164.97 120.371 165.553 120.087C166.145 119.796 166.62 119.417 166.978 118.95C167.337 118.475 167.57 117.958 167.678 117.4C167.803 116.983 167.87 116.521 167.878 116.012C167.895 115.496 167.903 115.1 167.903 114.825L168.678 115.162C167.953 115.262 167.241 115.358 166.541 115.45C165.841 115.542 165.178 115.642 164.553 115.75C163.928 115.85 163.366 115.971 162.866 116.112C162.499 116.229 162.153 116.379 161.828 116.562C161.512 116.746 161.253 116.983 161.053 117.275C160.862 117.558 160.766 117.912 160.766 118.337C160.766 118.704 160.857 119.054 161.041 119.387C161.232 119.721 161.524 119.992 161.916 120.2C162.316 120.408 162.837 120.512 163.478 120.512Z"/></clipPath><linearGradient id="paint0_diamond_18695_21025" x1="0" y1="0" x2="500" y2="500" gradientUnits="userSpaceOnUse">
<stop stop-color="#D57384"/>
<stop offset="0.0001" stop-color="#9F5561"/>
<stop offset="0.921875" stop-color="#4881D9"/>
</linearGradient>
</defs>
</svg>
