<svg width="149" height="302" viewBox="0 0 149 302" fill="none" xmlns="http://www.w3.org/2000/svg">
<g clip-path="url(#clip0_6689_41962)">
<rect x="7.8418" y="7.3324" width="132.975" height="287.867" rx="15.9491" fill="#FDFDFD"/>
<rect width="132.943" height="287.867" transform="translate(7.8418 7.3324)" fill="#333333"/>
<rect width="133" height="8.50836" transform="translate(7.8418 22.9313)" fill="black"/>
<g clip-path="url(#clip1_6689_41962)">
<g opacity="0.8">
<path d="M13.5137 26.4764C13.5137 24.5185 15.1009 22.9313 17.0588 22.9313H131.624C133.582 22.9313 135.169 24.5185 135.169 26.4764H13.5137Z" fill="#1E1C1C"/>
</g>
</g>
<path d="M7.8418 31.4397C7.8418 30.1199 7.8418 29.4601 8.01531 28.9261C8.36599 27.8468 9.21216 27.0006 10.2914 26.65C10.8255 26.4764 11.4853 26.4764 12.805 26.4764H135.879C137.198 26.4764 137.858 26.4764 138.392 26.65C139.471 27.0006 140.318 27.8468 140.668 28.9261C140.842 29.4601 140.842 30.1199 140.842 31.4397H7.8418Z" fill="#333333"/>
<rect width="133" height="15.5987" transform="translate(7.8418 7.33264)" fill="black"/>
<rect x="124.477" y="31.0851" width="10.6355" height="10.6355" rx="5.31773" fill="#F2F7FC"/>
<mask id="mask0_6689_41962" style="mask-type:alpha" maskUnits="userSpaceOnUse" x="126" y="33" width="7" height="6">
<path d="M128.976 36.0851L127.809 34.9177C127.67 34.7792 127.67 34.5548 127.809 34.4163C127.947 34.2779 128.172 34.2779 128.31 34.4163L129.478 35.5837L130.645 34.4163C130.783 34.2779 131.008 34.2779 131.146 34.4163C131.285 34.5548 131.285 34.7792 131.146 34.9177L129.979 36.0851L131.146 37.2525C131.285 37.3909 131.285 37.6154 131.146 37.7538C131.008 37.8923 130.783 37.8923 130.645 37.7538L129.478 36.5864L128.31 37.7538C128.172 37.8923 127.947 37.8923 127.809 37.7538C127.67 37.6154 127.67 37.3909 127.809 37.2525L128.976 36.0851Z" fill="black"/>
</mask>
<g mask="url(#mask0_6689_41962)">
<rect x="126.641" y="33.2489" width="5.67224" height="5.67224" fill="#A5A5BB"/>
</g>
<path d="M15.7516 54.8859C13.4528 54.8859 12.0015 53.3017 12.0015 50.7481V50.7425C12.0015 48.1889 13.4583 46.6157 15.7516 46.6157C17.5906 46.6157 18.9422 47.7624 19.1527 49.3909L19.1582 49.4463H17.7568L17.7291 49.3411C17.4965 48.4271 16.793 47.8565 15.7516 47.8565C14.3557 47.8565 13.4639 48.9699 13.4639 50.7425V50.7481C13.4639 52.5262 14.3612 53.6451 15.7516 53.6451C16.7708 53.6451 17.4854 53.0967 17.7457 52.1107L17.7623 52.0553H19.1638L19.1527 52.1107C18.9478 53.7504 17.5906 54.8859 15.7516 54.8859ZM20.111 54.7474V48.8758H21.4903V49.8895H21.518C21.7008 49.1804 22.1882 48.7539 22.864 48.7539C23.0358 48.7539 23.1964 48.7816 23.3016 48.8093V50.0557C23.1853 50.0113 22.9748 49.9781 22.7422 49.9781C21.9611 49.9781 21.4903 50.4711 21.4903 51.3408V54.7474H20.111ZM26.3704 54.8638C24.6089 54.8638 23.5454 53.695 23.5454 51.8282V51.8227C23.5454 49.9726 24.6255 48.7539 26.3039 48.7539C27.9824 48.7539 29.0237 49.9338 29.0237 51.7064V52.1495H24.9136C24.9357 53.1798 25.5007 53.7891 26.3981 53.7891C27.085 53.7891 27.5337 53.4235 27.6666 53.0303L27.6777 52.9915H28.9683L28.9517 53.0524C28.7689 53.9553 27.9048 54.8638 26.3704 54.8638ZM26.3206 49.8341C25.5894 49.8341 25.041 50.3271 24.9302 51.23H27.6832C27.5835 50.2994 27.0517 49.8341 26.3206 49.8341ZM31.6494 54.8471C30.475 54.8471 29.6829 54.1215 29.6829 53.0746V53.0635C29.6829 52.0221 30.4917 51.3962 31.9153 51.3075L33.4496 51.2134V50.809C33.4496 50.2163 33.0619 49.8562 32.3639 49.8562C31.7103 49.8562 31.3115 50.1609 31.2228 50.593L31.2118 50.6428H29.9322L29.9377 50.5763C30.0208 49.535 30.9237 48.7539 32.4138 48.7539C33.8817 48.7539 34.8289 49.5294 34.8289 50.7093V54.7474H33.4496V53.8445H33.4164C33.0785 54.4594 32.4249 54.8471 31.6494 54.8471ZM31.0567 53.0192C31.0567 53.5011 31.4555 53.7947 32.0593 53.7947C32.8514 53.7947 33.4496 53.2684 33.4496 52.5705V52.1273L32.1091 52.2104C31.4278 52.2548 31.0567 52.5483 31.0567 53.0136V53.0192ZM38.1248 54.8638C36.8951 54.8638 36.3135 54.3652 36.3135 53.1577V49.9393H35.4826V48.8758H36.3135V47.3857H37.7149V48.8758H38.8061V49.9393H37.7149V53.0413C37.7149 53.6174 37.9697 53.8002 38.4738 53.8002C38.6067 53.8002 38.712 53.7836 38.8061 53.7781V54.8139C38.6455 54.8361 38.4018 54.8638 38.1248 54.8638ZM42.2239 54.8638C40.4624 54.8638 39.3988 53.695 39.3988 51.8282V51.8227C39.3988 49.9726 40.479 48.7539 42.1574 48.7539C43.8358 48.7539 44.8772 49.9338 44.8772 51.7064V52.1495H40.7671C40.7892 53.1798 41.3542 53.7891 42.2516 53.7891C42.9385 53.7891 43.3871 53.4235 43.5201 53.0303L43.5312 52.9915H44.8218L44.8052 53.0524C44.6224 53.9553 43.7583 54.8638 42.2239 54.8638ZM42.174 49.8341C41.4428 49.8341 40.8945 50.3271 40.7837 51.23H43.5367C43.437 50.2994 42.9052 49.8341 42.174 49.8341Z" fill="white"/>
<path d="M20.6279 78.8413C18.9426 78.8412 17.4111 78.1869 16.2705 77.1196C15.1439 77.8663 13.8899 78.4514 12.5293 78.8306C12.499 78.839 12.4678 78.8458 12.4375 78.854C13.3735 77.4348 14.065 75.8258 14.459 74.0952C14.3211 73.5734 14.2471 73.0256 14.2471 72.4604V69.7271C14.2473 66.2031 17.104 63.3464 20.6279 63.3462V78.8413Z" fill="#1D1D1E"/>
<path d="M20.6289 63.3459H107.268C111.183 63.3459 114.358 66.5204 114.358 70.4362V71.764C114.358 75.6799 111.183 78.8543 107.268 78.8543H20.6289V63.3459Z" fill="#1D1D1E"/>
<path d="M22.2746 72.6624C21.4645 72.6624 20.9166 72.2651 20.8699 71.6238L20.8673 71.5874H21.3347L21.3399 71.6238C21.3944 72.0003 21.7579 72.2314 22.3006 72.2314C22.8407 72.2314 23.1808 71.9873 23.1808 71.6004V71.5978C23.1808 71.2681 22.9653 71.0837 22.4512 70.9695L22.0358 70.8786C21.3035 70.7176 20.9608 70.3878 20.9608 69.84V69.8374C20.9634 69.222 21.5087 68.791 22.2798 68.791C23.0121 68.791 23.5469 69.2142 23.5885 69.827L23.5911 69.8659H23.1237L23.1185 69.8296C23.0614 69.4479 22.742 69.222 22.2668 69.222C21.7657 69.2246 21.4385 69.4635 21.4385 69.8244V69.827C21.4385 70.1334 21.6644 70.3255 22.1526 70.432L22.568 70.5229C23.3366 70.6916 23.6586 71.0032 23.6586 71.5745V71.5771C23.6586 72.2418 23.1315 72.6624 22.2746 72.6624ZM25.2477 72.652C24.4713 72.652 24.0039 72.1094 24.0039 71.2603V71.2577C24.0039 70.4216 24.4817 69.8478 25.2191 69.8478C25.9565 69.8478 26.4057 70.3956 26.4057 71.2058V71.3719H24.4609C24.4713 71.9276 24.7777 72.2522 25.2581 72.2522C25.6008 72.2522 25.8423 72.0808 25.9202 71.8497L25.928 71.8263H26.372L26.3668 71.8523C26.2785 72.2989 25.8371 72.652 25.2477 72.652ZM25.2165 70.2476C24.8244 70.2476 24.518 70.5151 24.4687 71.0188H25.9461C25.902 70.4943 25.6112 70.2476 25.2165 70.2476ZM26.8861 72.6001V68.8533H27.3379V72.6001H26.8861ZM29.0594 72.652C28.283 72.652 27.8157 72.1094 27.8157 71.2603V71.2577C27.8157 70.4216 28.2934 69.8478 29.0308 69.8478C29.7683 69.8478 30.2175 70.3956 30.2175 71.2058V71.3719H28.2727C28.283 71.9276 28.5894 72.2522 29.0698 72.2522C29.4125 72.2522 29.654 72.0808 29.7319 71.8497L29.7397 71.8263H30.1837L30.1785 71.8523C30.0902 72.2989 29.6488 72.652 29.0594 72.652ZM29.0282 70.2476C28.6362 70.2476 28.3298 70.5151 28.2804 71.0188H29.7579C29.7137 70.4943 29.4229 70.2476 29.0282 70.2476ZM31.7936 72.652C31.0276 72.652 30.542 72.1068 30.542 71.2473V71.2447C30.542 70.393 31.038 69.8478 31.7884 69.8478C32.4609 69.8478 32.8582 70.2944 32.9153 70.7566L32.9179 70.7773H32.4765L32.4713 70.7566C32.4038 70.4865 32.1856 70.2476 31.7884 70.2476C31.3184 70.2476 31.0042 70.6371 31.0042 71.2499V71.2525C31.0042 71.8809 31.3262 72.2522 31.7936 72.2522C32.1623 72.2522 32.3986 72.0444 32.4739 71.7432L32.4791 71.7225H32.9231L32.9205 71.7406C32.8478 72.2548 32.4038 72.652 31.7936 72.652ZM34.2161 72.652C33.7202 72.652 33.4761 72.4287 33.4761 71.912V70.2736H33.0815V69.8997H33.4761V69.1701H33.9435V69.8997H34.4576V70.2736H33.9435V71.9094C33.9435 72.1976 34.0707 72.2781 34.3122 72.2781C34.3667 72.2781 34.4187 72.2703 34.4576 72.2677V72.6339C34.4005 72.6416 34.3044 72.652 34.2161 72.652ZM36.9114 72.652C36.4154 72.652 36.1713 72.4287 36.1713 71.912V70.2736H35.7767V69.8997H36.1713V69.1701H36.6387V69.8997H37.1528V70.2736H36.6387V71.9094C36.6387 72.1976 36.766 72.2781 37.0074 72.2781C37.062 72.2781 37.1139 72.2703 37.1528 72.2677V72.6339C37.0957 72.6416 36.9996 72.652 36.9114 72.652ZM37.6618 72.6001V68.8533H38.1136V70.3307H38.1239C38.2694 70.0269 38.5628 69.8478 38.9652 69.8478C39.5391 69.8478 39.9311 70.2918 39.9311 70.9461V72.6001H39.4793V71.024C39.4793 70.5358 39.2301 70.2476 38.8094 70.2476C38.3914 70.2476 38.1136 70.5644 38.1136 71.024V72.6001H37.6618ZM41.6163 72.652C40.8399 72.652 40.3726 72.1094 40.3726 71.2603V71.2577C40.3726 70.4216 40.8503 69.8478 41.5877 69.8478C42.3252 69.8478 42.7744 70.3956 42.7744 71.2058V71.3719H40.8296C40.8399 71.9276 41.1463 72.2522 41.6267 72.2522C41.9694 72.2522 42.2109 72.0808 42.2888 71.8497L42.2966 71.8263H42.7406L42.7354 71.8523C42.6471 72.2989 42.2057 72.652 41.6163 72.652ZM41.5851 70.2476C41.1931 70.2476 40.8867 70.5151 40.8373 71.0188H42.3148C42.2706 70.4943 41.9798 70.2476 41.5851 70.2476ZM45.1995 72.652C44.7036 72.652 44.4595 72.4287 44.4595 71.912V70.2736H44.0648V69.8997H44.4595V69.1701H44.9269V69.8997H45.441V70.2736H44.9269V71.9094C44.9269 72.1976 45.0541 72.2781 45.2956 72.2781C45.3501 72.2781 45.4021 72.2703 45.441 72.2677V72.6339C45.3839 72.6416 45.2878 72.652 45.1995 72.652ZM46.1862 73.5089C46.0979 73.5089 46.0019 73.4985 45.9447 73.4881V73.1194C45.9837 73.1272 46.0356 73.135 46.0902 73.135C46.3758 73.135 46.5342 73.0623 46.6432 72.7559L46.6977 72.6027L45.6955 69.8997H46.1784L46.9236 72.1483H46.934L47.6818 69.8997H48.157L47.1028 72.7689C46.9107 73.2856 46.6744 73.5089 46.1862 73.5089ZM48.5127 73.5089V69.8997H48.9645V70.3567H48.9749C49.1437 70.0425 49.4449 69.8478 49.8318 69.8478C50.5225 69.8478 50.9794 70.3982 50.9794 71.2499V71.2525C50.9794 72.1042 50.5173 72.652 49.8396 72.652C49.4579 72.652 49.1437 72.4599 48.9749 72.1483H48.9645V73.5089H48.5127ZM49.7435 72.2522C50.2213 72.2522 50.5173 71.8679 50.5173 71.2525V71.2499C50.5173 70.6293 50.2213 70.2476 49.7435 70.2476C49.2865 70.2476 48.9619 70.6449 48.9619 71.2499V71.2525C48.9619 71.8549 49.2891 72.2522 49.7435 72.2522ZM52.5478 72.652C51.7714 72.652 51.304 72.1094 51.304 71.2603V71.2577C51.304 70.4216 51.7818 69.8478 52.5192 69.8478C53.2566 69.8478 53.7058 70.3956 53.7058 71.2058V71.3719H51.761C51.7714 71.9276 52.0778 72.2522 52.5581 72.2522C52.9009 72.2522 53.1424 72.0808 53.2203 71.8497L53.2281 71.8263H53.6721L53.6669 71.8523C53.5786 72.2989 53.1372 72.652 52.5478 72.652ZM52.5166 70.2476C52.1245 70.2476 51.8181 70.5151 51.7688 71.0188H53.2462C53.2021 70.4943 52.9113 70.2476 52.5166 70.2476ZM56.3725 72.652C55.6221 72.652 55.1209 72.1094 55.1209 71.2499V71.2447C55.1209 70.3852 55.6247 69.8478 56.3699 69.8478C57.1151 69.8478 57.6214 70.3826 57.6214 71.2447V71.2499C57.6214 72.1119 57.1177 72.652 56.3725 72.652ZM56.3751 72.2522C56.8502 72.2522 57.1592 71.8835 57.1592 71.2499V71.2447C57.1592 70.6111 56.8476 70.2476 56.3699 70.2476C55.8999 70.2476 55.5831 70.6137 55.5831 71.2447V71.2499C55.5831 71.886 55.8973 72.2522 56.3751 72.2522ZM58.2238 72.6001V70.2736H57.8473V69.8997H58.2238V69.5673C58.2238 69.048 58.4653 68.8014 58.9638 68.8014C59.0651 68.8014 59.1716 68.8091 59.2391 68.8195V69.1856C59.1845 69.1779 59.1144 69.1753 59.0443 69.1753C58.7951 69.1753 58.6704 69.3025 58.6704 69.5699V69.8997H59.2261V70.2736H58.6756V72.6001H58.2238ZM61.7421 72.652C61.106 72.652 60.7217 72.3275 60.6672 71.8445L60.6646 71.8211H61.1164L61.1216 71.8471C61.1761 72.1171 61.376 72.2755 61.7447 72.2755C62.1108 72.2755 62.329 72.1223 62.329 71.8783V71.8757C62.329 71.6809 62.2277 71.5719 61.9213 71.4966L61.4929 71.3927C60.9839 71.2707 60.7373 71.0344 60.7373 70.6449V70.6423C60.7373 70.1775 61.1449 69.8478 61.7291 69.8478C62.3212 69.8478 62.6977 70.1931 62.7314 70.6449L62.734 70.6787H62.303L62.3004 70.6605C62.264 70.3982 62.0641 70.2243 61.7291 70.2243C61.402 70.2243 61.1995 70.3826 61.1995 70.6215V70.6241C61.1995 70.8085 61.3215 70.9357 61.6201 71.0084L62.0485 71.1123C62.5938 71.2447 62.7911 71.4602 62.7911 71.8445V71.8471C62.7911 72.3197 62.3445 72.652 61.7421 72.652ZM64.0505 72.652C63.513 72.652 63.1521 72.3275 63.1521 71.8367V71.8315C63.1521 71.3719 63.5104 71.0837 64.131 71.0474L64.9047 71.0032V70.7773C64.9047 70.4476 64.6892 70.2476 64.3127 70.2476C63.9648 70.2476 63.7467 70.4138 63.6947 70.6553L63.6895 70.6787H63.2533L63.2559 70.6501C63.2949 70.2061 63.6818 69.8478 64.3179 69.8478C64.9567 69.8478 65.3565 70.1931 65.3565 70.7332V72.6001H64.9047V72.1613H64.8943C64.7359 72.4573 64.4114 72.652 64.0505 72.652ZM63.6142 71.8367C63.6142 72.0964 63.8272 72.26 64.1517 72.26C64.5776 72.26 64.9047 71.9665 64.9047 71.5745V71.3538L64.1829 71.3979C63.822 71.4187 63.6142 71.5797 63.6142 71.8315V71.8367ZM65.9537 72.6001V68.8533H66.4055V72.6001H65.9537ZM68.1348 72.652C67.3844 72.652 66.8833 72.1094 66.8833 71.2499V71.2447C66.8833 70.3852 67.387 69.8478 68.1322 69.8478C68.8774 69.8478 69.3838 70.3826 69.3838 71.2447V71.2499C69.3838 72.1119 68.88 72.652 68.1348 72.652ZM68.1374 72.2522C68.6126 72.2522 68.9216 71.8835 68.9216 71.2499V71.2447C68.9216 70.6111 68.61 70.2476 68.1322 70.2476C67.6623 70.2476 67.3455 70.6137 67.3455 71.2447V71.2499C67.3455 71.886 67.6597 72.2522 68.1374 72.2522ZM69.8408 72.6001V69.8997H70.2926V70.284H70.3029C70.4483 70.0321 70.7236 69.8478 71.1338 69.8478C71.7259 69.8478 72.0686 70.232 72.0686 70.8474V72.6001H71.6168V70.9279C71.6168 70.4891 71.4117 70.2476 70.9962 70.2476C70.5704 70.2476 70.2926 70.5514 70.2926 71.011V72.6001H69.8408ZM73.9952 73.5089C73.907 73.5089 73.8109 73.4985 73.7538 73.4881V73.1194C73.7927 73.1272 73.8446 73.135 73.8992 73.135C74.1848 73.135 74.3432 73.0623 74.4522 72.7559L74.5068 72.6027L73.5045 69.8997H73.9874L74.7327 72.1483H74.743L75.4908 69.8997H75.966L74.9118 72.7689C74.7197 73.2856 74.4834 73.5089 73.9952 73.5089ZM77.337 72.652C76.5866 72.652 76.0855 72.1094 76.0855 71.2499V71.2447C76.0855 70.3852 76.5892 69.8478 77.3344 69.8478C78.0796 69.8478 78.5859 70.3826 78.5859 71.2447V71.2499C78.5859 72.1119 78.0822 72.652 77.337 72.652ZM77.3396 72.2522C77.8148 72.2522 78.1237 71.8835 78.1237 71.2499V71.2447C78.1237 70.6111 77.8122 70.2476 77.3344 70.2476C76.8644 70.2476 76.5476 70.6137 76.5476 71.2447V71.2499C76.5476 71.886 76.8618 72.2522 77.3396 72.2522ZM79.9647 72.652C79.3727 72.652 79.0299 72.2677 79.0299 71.6524V69.8997H79.4817V71.5719C79.4817 72.0107 79.6869 72.2522 80.1023 72.2522C80.5281 72.2522 80.806 71.9484 80.806 71.4888V69.8997H81.2578V72.6001H80.806V72.2158H80.7956C80.6502 72.4677 80.3749 72.652 79.9647 72.652ZM83.7271 72.652C83.1896 72.652 82.8287 72.3275 82.8287 71.8367V71.8315C82.8287 71.3719 83.187 71.0837 83.8076 71.0474L84.5813 71.0032V70.7773C84.5813 70.4476 84.3658 70.2476 83.9893 70.2476C83.6414 70.2476 83.4233 70.4138 83.3714 70.6553L83.3662 70.6787H82.9299L82.9325 70.6501C82.9715 70.2061 83.3584 69.8478 83.9945 69.8478C84.6333 69.8478 85.0331 70.1931 85.0331 70.7332V72.6001H84.5813V72.1613H84.571C84.4126 72.4573 84.088 72.652 83.7271 72.652ZM83.2909 71.8367C83.2909 72.0964 83.5038 72.26 83.8284 72.26C84.2542 72.26 84.5813 71.9665 84.5813 71.5745V71.3538L83.8595 71.3979C83.4986 71.4187 83.2909 71.5797 83.2909 71.8315V71.8367ZM85.607 72.6001V69.8997H86.0588V70.3567H86.0692C86.16 70.0451 86.3937 69.8478 86.6975 69.8478C86.7754 69.8478 86.8429 69.8607 86.8793 69.8659V70.3048C86.8429 70.2918 86.7469 70.2788 86.6378 70.2788C86.2873 70.2788 86.0588 70.5229 86.0588 70.9331V72.6001H85.607ZM88.2295 72.652C87.4531 72.652 86.9858 72.1094 86.9858 71.2603V71.2577C86.9858 70.4216 87.4635 69.8478 88.2009 69.8478C88.9384 69.8478 89.3876 70.3956 89.3876 71.2058V71.3719H87.4427C87.4531 71.9276 87.7595 72.2522 88.2399 72.2522C88.5826 72.2522 88.8241 72.0808 88.902 71.8497L88.9098 71.8263H89.3538L89.3486 71.8523C89.2603 72.2989 88.8189 72.652 88.2295 72.652ZM88.1983 70.2476C87.8063 70.2476 87.4999 70.5151 87.4505 71.0188H88.928C88.8838 70.4943 88.593 70.2476 88.1983 70.2476ZM92.0542 72.652C91.2882 72.652 90.8027 72.1068 90.8027 71.2473V71.2447C90.8027 70.393 91.2986 69.8478 92.049 69.8478C92.7215 69.8478 93.1188 70.2944 93.1759 70.7566L93.1785 70.7773H92.7371L92.7319 70.7566C92.6644 70.4865 92.4463 70.2476 92.049 70.2476C91.579 70.2476 91.2649 70.6371 91.2649 71.2499V71.2525C91.2649 71.8809 91.5868 72.2522 92.0542 72.2522C92.4229 72.2522 92.6592 72.0444 92.7345 71.7432L92.7397 71.7225H93.1837L93.1811 71.7406C93.1084 72.2548 92.6644 72.652 92.0542 72.652ZM93.5992 72.6001V69.8997H94.0509V70.3567H94.0613C94.1522 70.0451 94.3859 69.8478 94.6897 69.8478C94.7676 69.8478 94.8351 69.8607 94.8715 69.8659V70.3048C94.8351 70.2918 94.739 70.2788 94.63 70.2788C94.2794 70.2788 94.0509 70.5229 94.0509 70.9331V72.6001H93.5992ZM96.2217 72.652C95.4453 72.652 94.9779 72.1094 94.9779 71.2603V71.2577C94.9779 70.4216 95.4557 69.8478 96.1931 69.8478C96.9305 69.8478 97.3797 70.3956 97.3797 71.2058V71.3719H95.4349C95.4453 71.9276 95.7517 72.2522 96.2321 72.2522C96.5748 72.2522 96.8163 72.0808 96.8942 71.8497L96.902 71.8263H97.346L97.3408 71.8523C97.2525 72.2989 96.8111 72.652 96.2217 72.652ZM96.1905 70.2476C95.7984 70.2476 95.492 70.5151 95.4427 71.0188H96.9201C96.876 70.4943 96.5852 70.2476 96.1905 70.2476ZM98.6261 72.652C98.0886 72.652 97.7277 72.3275 97.7277 71.8367V71.8315C97.7277 71.3719 98.086 71.0837 98.7066 71.0474L99.4803 71.0032V70.7773C99.4803 70.4476 99.2648 70.2476 98.8883 70.2476C98.5404 70.2476 98.3223 70.4138 98.2703 70.6553L98.2651 70.6787H97.8289L97.8315 70.6501C97.8705 70.2061 98.2574 69.8478 98.8935 69.8478C99.5323 69.8478 99.9321 70.1931 99.9321 70.7332V72.6001H99.4803V72.1613H99.4699C99.3116 72.4573 98.987 72.652 98.6261 72.652ZM98.1898 71.8367C98.1898 72.0964 98.4028 72.26 98.7273 72.26C99.1532 72.26 99.4803 71.9665 99.4803 71.5745V71.3538L98.7585 71.3979C98.3976 71.4187 98.1898 71.5797 98.1898 71.8315V71.8367ZM101.384 72.652C100.888 72.652 100.644 72.4287 100.644 71.912V70.2736H100.249V69.8997H100.644V69.1701H101.111V69.8997H101.625V70.2736H101.111V71.9094C101.111 72.1976 101.238 72.2781 101.48 72.2781C101.534 72.2781 101.586 72.2703 101.625 72.2677V72.6339C101.568 72.6416 101.472 72.652 101.384 72.652ZM102.365 69.4427C102.209 69.4427 102.082 69.3155 102.082 69.1597C102.082 69.0013 102.209 68.8767 102.365 68.8767C102.523 68.8767 102.648 69.0013 102.648 69.1597C102.648 69.3155 102.523 69.4427 102.365 69.4427ZM102.139 72.6001V69.8997H102.591V72.6001H102.139ZM103.206 72.6001V69.8997H103.658V70.284H103.669C103.814 70.0321 104.089 69.8478 104.499 69.8478C105.091 69.8478 105.434 70.232 105.434 70.8474V72.6001H104.982V70.9279C104.982 70.4891 104.777 70.2476 104.362 70.2476C103.936 70.2476 103.658 70.5514 103.658 71.011V72.6001H103.206ZM107.153 73.5608C106.486 73.5608 106.065 73.2466 105.977 72.8468L105.972 72.8234H106.426L106.436 72.8468C106.522 73.0415 106.779 73.161 107.148 73.161C107.623 73.161 107.893 72.8987 107.893 72.4807V72.1353H107.883C107.722 72.4339 107.41 72.6261 107.023 72.6261C106.343 72.6261 105.878 72.0782 105.878 71.2343V71.2317C105.878 70.393 106.348 69.8478 107.034 69.8478C107.415 69.8478 107.717 70.0555 107.883 70.3567H107.893V69.8997H108.345V72.5248C108.345 73.1506 107.885 73.5608 107.153 73.5608ZM107.122 72.2262C107.582 72.2262 107.893 71.8341 107.893 71.2343V71.2317C107.893 70.6371 107.579 70.2476 107.122 70.2476C106.642 70.2476 106.34 70.6319 106.34 71.2317V71.2343C106.34 71.8471 106.642 72.2262 107.122 72.2262Z" fill="white"/>
<path d="M127.998 83.1085H91.3594C87.4435 83.1085 84.2691 86.283 84.2691 90.1988V91.5266C84.2691 95.4424 87.4435 98.6169 91.3594 98.6169H127.998V83.1085Z" fill="url(#paint0_linear_6689_41962)"/>
<path d="M90.3049 92.3627V88.6159H90.7723V92.3627H90.3049ZM91.4292 92.3627V89.6623H91.881V90.0466H91.8914C92.0368 89.7947 92.3121 89.6103 92.7223 89.6103C93.3143 89.6103 93.6571 89.9946 93.6571 90.61V92.3627H93.2053V90.6905C93.2053 90.2517 93.0001 90.0102 92.5847 90.0102C92.1589 90.0102 91.881 90.314 91.881 90.7736V92.3627H91.4292ZM95.2487 92.4146C94.5581 92.4146 94.1011 91.8641 94.1011 91.0125V91.0099C94.1011 90.1582 94.5633 89.6103 95.241 89.6103C95.6226 89.6103 95.9368 89.8025 96.1056 90.1141H96.116V88.6159H96.5678V92.3627H96.116V91.9057H96.1056C95.9368 92.2199 95.6356 92.4146 95.2487 92.4146ZM95.337 92.0147C95.794 92.0147 96.1186 91.6175 96.1186 91.0125V91.0099C96.1186 90.4075 95.7914 90.0102 95.337 90.0102C94.8593 90.0102 94.5633 90.3945 94.5633 91.0099V91.0125C94.5633 91.633 94.8593 92.0147 95.337 92.0147ZM97.4324 89.2053C97.2766 89.2053 97.1494 89.078 97.1494 88.9222C97.1494 88.7639 97.2766 88.6392 97.4324 88.6392C97.5908 88.6392 97.7155 88.7639 97.7155 88.9222C97.7155 89.078 97.5908 89.2053 97.4324 89.2053ZM97.2065 92.3627V89.6623H97.6583V92.3627H97.2065ZM99.0345 92.3627L98.04 89.6623H98.5152L99.2604 91.8823H99.2708L100.019 89.6623H100.489L99.4967 92.3627H99.0345ZM101.099 89.2053C100.943 89.2053 100.816 89.078 100.816 88.9222C100.816 88.7639 100.943 88.6392 101.099 88.6392C101.257 88.6392 101.382 88.7639 101.382 88.9222C101.382 89.078 101.257 89.2053 101.099 89.2053ZM100.873 92.3627V89.6623H101.325V92.3627H100.873ZM102.955 92.4146C102.265 92.4146 101.808 91.8641 101.808 91.0125V91.0099C101.808 90.1582 102.27 89.6103 102.948 89.6103C103.329 89.6103 103.643 89.8025 103.812 90.1141H103.823V88.6159H104.274V92.3627H103.823V91.9057H103.812C103.643 92.2199 103.342 92.4146 102.955 92.4146ZM103.044 92.0147C103.501 92.0147 103.825 91.6175 103.825 91.0125V91.0099C103.825 90.4075 103.498 90.0102 103.044 90.0102C102.566 90.0102 102.27 90.3945 102.27 91.0099V91.0125C102.27 91.633 102.566 92.0147 103.044 92.0147ZM105.806 92.4146C105.214 92.4146 104.872 92.0303 104.872 91.4149V89.6623H105.323V91.3344C105.323 91.7733 105.528 92.0147 105.944 92.0147C106.37 92.0147 106.648 91.7109 106.648 91.2513V89.6623H107.099V92.3627H106.648V91.9784H106.637C106.492 92.2302 106.217 92.4146 105.806 92.4146ZM108.478 92.4146C107.941 92.4146 107.58 92.09 107.58 91.5993V91.5941C107.58 91.1345 107.938 90.8463 108.559 90.8099L109.332 90.7658V90.5399C109.332 90.2101 109.117 90.0102 108.74 90.0102C108.392 90.0102 108.174 90.1764 108.122 90.4179L108.117 90.4412H107.681L107.684 90.4127C107.723 89.9687 108.109 89.6103 108.746 89.6103C109.384 89.6103 109.784 89.9557 109.784 90.4958V92.3627H109.332V91.9239H109.322C109.164 92.2199 108.839 92.4146 108.478 92.4146ZM108.042 91.5993C108.042 91.8589 108.255 92.0225 108.579 92.0225C109.005 92.0225 109.332 91.7291 109.332 91.337V91.1163L108.611 91.1605C108.25 91.1812 108.042 91.3422 108.042 91.5941V91.5993ZM110.381 92.3627V88.6159H110.833V92.3627H110.381ZM112.604 92.3627V88.6159H113.144L114.442 91.7733H114.458L115.756 88.6159H116.296V92.3627H115.86V89.4675H115.845L114.648 92.3627H114.253L113.056 89.4675H113.04V92.3627H112.604ZM117.665 92.4146C117.127 92.4146 116.766 92.09 116.766 91.5993V91.5941C116.766 91.1345 117.125 90.8463 117.745 90.8099L118.519 90.7658V90.5399C118.519 90.2101 118.303 90.0102 117.927 90.0102C117.579 90.0102 117.361 90.1764 117.309 90.4179L117.304 90.4412H116.868L116.87 90.4127C116.909 89.9687 117.296 89.6103 117.932 89.6103C118.571 89.6103 118.971 89.9557 118.971 90.4958V92.3627H118.519V91.9239H118.509C118.35 92.2199 118.026 92.4146 117.665 92.4146ZM117.229 91.5993C117.229 91.8589 117.441 92.0225 117.766 92.0225C118.192 92.0225 118.519 91.7291 118.519 91.337V91.1163L117.797 91.1605C117.436 91.1812 117.229 91.3422 117.229 91.5941V91.5993ZM120.503 92.4146C119.867 92.4146 119.482 92.09 119.428 91.6071L119.425 91.5837H119.877L119.882 91.6097C119.937 91.8797 120.137 92.0381 120.505 92.0381C120.871 92.0381 121.09 91.8849 121.09 91.6408V91.6382C121.09 91.4435 120.988 91.3344 120.682 91.2591L120.253 91.1553C119.745 91.0332 119.498 90.797 119.498 90.4075V90.4049C119.498 89.9401 119.906 89.6103 120.49 89.6103C121.082 89.6103 121.458 89.9557 121.492 90.4075L121.495 90.4412H121.064L121.061 90.4231C121.025 90.1608 120.825 89.9868 120.49 89.9868C120.163 89.9868 119.96 90.1452 119.96 90.3841V90.3867C119.96 90.5711 120.082 90.6983 120.381 90.771L120.809 90.8749C121.354 91.0073 121.552 91.2228 121.552 91.6071V91.6097C121.552 92.0822 121.105 92.4146 120.503 92.4146ZM122.899 92.4146C122.403 92.4146 122.159 92.1913 122.159 91.6746V90.0362H121.765V89.6623H122.159V88.9326H122.627V89.6623H123.141V90.0362H122.627V91.672C122.627 91.9602 122.754 92.0407 122.995 92.0407C123.05 92.0407 123.102 92.0329 123.141 92.0303V92.3964C123.084 92.4042 122.988 92.4146 122.899 92.4146ZM124.66 92.4146C123.883 92.4146 123.416 91.8719 123.416 91.0229V91.0203C123.416 90.1842 123.894 89.6103 124.631 89.6103C125.369 89.6103 125.818 90.1582 125.818 90.9683V91.1345H123.873C123.883 91.6902 124.19 92.0147 124.67 92.0147C125.013 92.0147 125.254 91.8434 125.332 91.6123L125.34 91.5889H125.784L125.779 91.6149C125.691 92.0615 125.249 92.4146 124.66 92.4146ZM124.629 90.0102C124.237 90.0102 123.93 90.2776 123.881 90.7814H125.358C125.314 90.2569 125.023 90.0102 124.629 90.0102ZM126.275 92.3627V89.6623H126.727V90.1193H126.737C126.828 89.8077 127.062 89.6103 127.365 89.6103C127.443 89.6103 127.511 89.6233 127.547 89.6285V90.0673C127.511 90.0543 127.415 90.0414 127.306 90.0414C126.955 90.0414 126.727 90.2854 126.727 90.6957V92.3627H126.275Z" fill="white"/>
<path d="M127.999 98.6053C129.685 98.6052 131.217 97.9505 132.357 96.8827C133.484 97.6289 134.737 98.2136 136.098 98.5927C136.128 98.6011 136.159 98.6079 136.189 98.6161C135.254 97.1976 134.561 95.5898 134.167 93.8602C134.305 93.3381 134.38 92.79 134.38 92.2245V89.4901C134.38 85.9661 131.523 83.1094 127.999 83.1093V98.6053Z" fill="url(#paint1_linear_6689_41962)"/>
<path d="M20.6279 118.366C18.9426 118.366 17.4111 117.712 16.2705 116.645C15.1439 117.391 13.8899 117.977 12.5293 118.356C12.499 118.364 12.4678 118.371 12.4375 118.379C13.3735 116.96 14.065 115.351 14.459 113.62C14.3211 113.099 14.2471 112.551 14.2471 111.986V109.252C14.2473 105.728 17.104 102.872 20.6279 102.871V118.366Z" fill="#1D1D1E"/>
<path d="M20.6289 102.871H70.2676C74.1834 102.871 77.3579 106.046 77.3579 109.961V111.289C77.3579 115.205 74.1834 118.379 70.2676 118.379H20.6289V102.871Z" fill="#1D1D1E"/>
<path d="M22.5395 112.188C21.6099 112.188 21.0491 111.627 21.0491 110.811V108.378H21.5164V110.78C21.5164 111.357 21.8903 111.757 22.5395 111.757C23.1886 111.757 23.5573 111.357 23.5573 110.78V108.378H24.0247V110.811C24.0247 111.627 23.469 112.188 22.5395 112.188ZM24.6816 113.034V109.425H25.1334V109.882H25.1438C25.3126 109.568 25.6138 109.373 26.0007 109.373C26.6914 109.373 27.1483 109.923 27.1483 110.775V110.778C27.1483 111.629 26.6862 112.177 26.0085 112.177C25.6268 112.177 25.3126 111.985 25.1438 111.673H25.1334V113.034H24.6816ZM25.9124 111.777C26.3902 111.777 26.6862 111.393 26.6862 110.778V110.775C26.6862 110.154 26.3902 109.773 25.9124 109.773C25.4554 109.773 25.1308 110.17 25.1308 110.775V110.778C25.1308 111.38 25.458 111.777 25.9124 111.777ZM27.6287 112.125V108.378H28.0805V112.125H27.6287ZM29.8098 112.177C29.0594 112.177 28.5583 111.634 28.5583 110.775V110.77C28.5583 109.91 29.062 109.373 29.8072 109.373C30.5524 109.373 31.0587 109.908 31.0587 110.77V110.775C31.0587 111.637 30.555 112.177 29.8098 112.177ZM29.8124 111.777C30.2876 111.777 30.5966 111.409 30.5966 110.775V110.77C30.5966 110.136 30.285 109.773 29.8072 109.773C29.3372 109.773 29.0205 110.139 29.0205 110.77V110.775C29.0205 111.411 29.3346 111.777 29.8124 111.777ZM32.3051 112.177C31.7676 112.177 31.4067 111.853 31.4067 111.362V111.357C31.4067 110.897 31.765 110.609 32.3856 110.573L33.1594 110.528V110.302C33.1594 109.973 32.9438 109.773 32.5673 109.773C32.2194 109.773 32.0013 109.939 31.9494 110.18L31.9442 110.204H31.508L31.5105 110.175C31.5495 109.731 31.9364 109.373 32.5725 109.373C33.2113 109.373 33.6112 109.718 33.6112 110.258V112.125H33.1594V111.686H33.149C32.9906 111.982 32.666 112.177 32.3051 112.177ZM31.8689 111.362C31.8689 111.622 32.0818 111.785 32.4064 111.785C32.8322 111.785 33.1594 111.492 33.1594 111.1V110.879L32.4375 110.923C32.0766 110.944 31.8689 111.105 31.8689 111.357V111.362ZM35.2002 112.177C34.5096 112.177 34.0526 111.627 34.0526 110.775V110.772C34.0526 109.921 34.5148 109.373 35.1924 109.373C35.5741 109.373 35.8883 109.565 36.0571 109.877H36.0675V108.378H36.5193V112.125H36.0675V111.668H36.0571C35.8883 111.982 35.5871 112.177 35.2002 112.177ZM35.2885 111.777C35.7455 111.777 36.0701 111.38 36.0701 110.775V110.772C36.0701 110.17 35.7429 109.773 35.2885 109.773C34.8108 109.773 34.5148 110.157 34.5148 110.772V110.775C34.5148 111.396 34.8108 111.777 35.2885 111.777ZM38.4797 113.034C38.3914 113.034 38.2953 113.024 38.2382 113.013V112.645C38.2771 112.652 38.3291 112.66 38.3836 112.66C38.6692 112.66 38.8276 112.587 38.9367 112.281L38.9912 112.128L37.9889 109.425H38.4719L39.2171 111.673H39.2275L39.9753 109.425H40.4505L39.3963 112.294C39.2041 112.811 38.9678 113.034 38.4797 113.034ZM41.8214 112.177C41.071 112.177 40.5699 111.634 40.5699 110.775V110.77C40.5699 109.91 41.0736 109.373 41.8188 109.373C42.564 109.373 43.0704 109.908 43.0704 110.77V110.775C43.0704 111.637 42.5666 112.177 41.8214 112.177ZM41.824 111.777C42.2992 111.777 42.6082 111.409 42.6082 110.775V110.77C42.6082 110.136 42.2966 109.773 41.8188 109.773C41.3489 109.773 41.0321 110.139 41.0321 110.77V110.775C41.0321 111.411 41.3463 111.777 41.824 111.777ZM44.4491 112.177C43.8571 112.177 43.5144 111.793 43.5144 111.178V109.425H43.9662V111.097C43.9662 111.536 44.1713 111.777 44.5868 111.777C45.0126 111.777 45.2904 111.474 45.2904 111.014V109.425H45.7422V112.125H45.2904V111.741H45.28C45.1346 111.993 44.8594 112.177 44.4491 112.177ZM46.3316 112.125V109.425H46.7834V109.882H46.7938C46.8847 109.57 47.1184 109.373 47.4222 109.373C47.5001 109.373 47.5676 109.386 47.6039 109.391V109.83C47.5676 109.817 47.4715 109.804 47.3625 109.804C47.0119 109.804 46.7834 110.048 46.7834 110.458V112.125H46.3316ZM50.0213 112.177C49.3852 112.177 49.0009 111.853 48.9464 111.37L48.9438 111.346H49.3956L49.4007 111.372C49.4553 111.642 49.6552 111.801 50.0239 111.801C50.39 111.801 50.6081 111.647 50.6081 111.403V111.401C50.6081 111.206 50.5069 111.097 50.2005 111.022L49.7721 110.918C49.2631 110.796 49.0165 110.56 49.0165 110.17V110.167C49.0165 109.703 49.4241 109.373 50.0083 109.373C50.6004 109.373 50.9769 109.718 51.0106 110.17L51.0132 110.204H50.5822L50.5796 110.186C50.5432 109.923 50.3433 109.749 50.0083 109.749C49.6812 109.749 49.4786 109.908 49.4786 110.147V110.149C49.4786 110.334 49.6007 110.461 49.8993 110.534L50.3277 110.637C50.873 110.77 51.0703 110.985 51.0703 111.37V111.372C51.0703 111.845 50.6237 112.177 50.0213 112.177ZM52.3297 112.177C51.7922 112.177 51.4312 111.853 51.4312 111.362V111.357C51.4312 110.897 51.7896 110.609 52.4101 110.573L53.1839 110.528V110.302C53.1839 109.973 52.9684 109.773 52.5919 109.773C52.244 109.773 52.0259 109.939 51.9739 110.18L51.9687 110.204H51.5325L51.5351 110.175C51.5741 109.731 51.9609 109.373 52.5971 109.373C53.2358 109.373 53.6357 109.718 53.6357 110.258V112.125H53.1839V111.686H53.1735C53.0151 111.982 52.6906 112.177 52.3297 112.177ZM51.8934 111.362C51.8934 111.622 52.1063 111.785 52.4309 111.785C52.8568 111.785 53.1839 111.492 53.1839 111.1V110.879L52.4621 110.923C52.1012 110.944 51.8934 111.105 51.8934 111.357V111.362ZM54.2329 112.125V108.378H54.6847V112.125H54.2329ZM56.414 112.177C55.6636 112.177 55.1625 111.634 55.1625 110.775V110.77C55.1625 109.91 55.6662 109.373 56.4114 109.373C57.1566 109.373 57.663 109.908 57.663 110.77V110.775C57.663 111.637 57.1592 112.177 56.414 112.177ZM56.4166 111.777C56.8918 111.777 57.2008 111.409 57.2008 110.775V110.77C57.2008 110.136 56.8892 109.773 56.4114 109.773C55.9414 109.773 55.6247 110.139 55.6247 110.77V110.775C55.6247 111.411 55.9389 111.777 56.4166 111.777ZM58.12 112.125V109.425H58.5718V109.809H58.5821C58.7275 109.557 59.0028 109.373 59.413 109.373C60.005 109.373 60.3478 109.757 60.3478 110.373V112.125H59.896V110.453C59.896 110.014 59.6909 109.773 59.2754 109.773C58.8496 109.773 58.5718 110.077 58.5718 110.536V112.125H58.12ZM62.0381 112.125V108.378H62.4899V112.125H62.0381ZM64.2192 112.177C63.4688 112.177 62.9677 111.634 62.9677 110.775V110.77C62.9677 109.91 63.4714 109.373 64.2166 109.373C64.9619 109.373 65.4682 109.908 65.4682 110.77V110.775C65.4682 111.637 64.9644 112.177 64.2192 112.177ZM64.2218 111.777C64.697 111.777 65.006 111.409 65.006 110.775V110.77C65.006 110.136 64.6944 109.773 64.2166 109.773C63.7467 109.773 63.4299 110.139 63.4299 110.77V110.775C63.4299 111.411 63.7441 111.777 64.2218 111.777ZM67.0676 113.086C66.4003 113.086 65.9797 112.772 65.8914 112.372L65.8862 112.349H66.3406L66.351 112.372C66.4367 112.567 66.6937 112.686 67.0625 112.686C67.5376 112.686 67.8077 112.424 67.8077 112.006V111.66H67.7973C67.6363 111.959 67.3247 112.151 66.9378 112.151C66.2575 112.151 65.7927 111.603 65.7927 110.759V110.757C65.7927 109.918 66.2627 109.373 66.9482 109.373C67.3299 109.373 67.6311 109.581 67.7973 109.882H67.8077V109.425H68.2595V112.05C68.2595 112.676 67.7999 113.086 67.0676 113.086ZM67.0365 111.751C67.4961 111.751 67.8077 111.359 67.8077 110.759V110.757C67.8077 110.162 67.4935 109.773 67.0365 109.773C66.5561 109.773 66.2549 110.157 66.2549 110.757V110.759C66.2549 111.372 66.5561 111.751 67.0365 111.751ZM69.9628 112.177C69.2124 112.177 68.7113 111.634 68.7113 110.775V110.77C68.7113 109.91 69.215 109.373 69.9602 109.373C70.7054 109.373 71.2117 109.908 71.2117 110.77V110.775C71.2117 111.637 70.708 112.177 69.9628 112.177ZM69.9654 111.777C70.4406 111.777 70.7495 111.409 70.7495 110.775V110.77C70.7495 110.136 70.438 109.773 69.9602 109.773C69.4902 109.773 69.1734 110.139 69.1734 110.77V110.775C69.1734 111.411 69.4876 111.777 69.9654 111.777Z" fill="white"/>
<path fill-rule="evenodd" clip-rule="evenodd" d="M134.26 130.514C134.26 126.162 130.732 122.634 126.379 122.634H122.439V151.99V152.037V176.28H126.379C129.062 176.28 131.431 174.939 132.855 172.892C134.295 174.272 135.827 175.399 137.439 176.239C137.495 176.268 137.551 176.297 137.607 176.325C136.159 172.222 135.021 167.664 134.26 162.783V152.037V151.99V130.514Z" fill="url(#paint2_linear_6689_41962)"/>
<path d="M122.439 122.634H74.5667C73.0142 122.634 71.7556 123.892 71.7556 125.445V173.514C71.7556 175.067 73.0142 176.325 74.5667 176.325H122.439V122.634Z" fill="url(#paint3_linear_6689_41962)"/>
<g clip-path="url(#clip2_6689_41962)">
<path d="M75.5039 125.444V172.356H122.416V125.444H75.5039Z" fill="#424B54"/>
<path d="M98.1597 150.657C97.8517 150.655 97.5612 150.592 97.2606 150.533C95.097 150.101 93.1587 148.78 91.8751 146.996C89.5717 143.795 89.7311 139.365 92.319 136.363C93.9571 134.463 96.0773 133.504 98.5617 133.32C98.8214 133.319 99.0825 133.316 99.342 133.327C103.708 133.521 107.276 136.845 107.641 141.238C107.733 142.344 107.579 143.531 107.252 144.595C106.252 147.85 103.171 150.38 99.764 150.657C99.7628 150.006 99.7481 149.35 99.764 148.7C101.029 148.449 101.9 148.176 102.959 147.41C105.894 145.285 106.636 140.999 104.495 138.066C103.522 136.733 102.089 135.788 100.483 135.41C100.108 135.322 99.733 135.297 99.3544 135.237C99.0176 135.246 98.6875 135.232 98.3506 135.263C95.1174 135.569 92.4759 138.157 92.2143 141.42C91.9584 144.61 94.0157 147.523 97.0422 148.463C97.3992 148.574 97.7685 148.67 98.1423 148.7C98.1421 149.353 98.1449 150.004 98.1597 150.657Z" fill="#F2E9C4"/>
<path d="M96.5859 137.377C96.9192 137.026 98.2027 136.735 98.6997 136.712C99.5737 136.656 100.676 136.902 101.416 137.377C100.489 137.569 99.8252 137.845 99.1382 138.543C99.0871 138.6 99.041 138.656 98.9969 138.718C98.0248 137.784 97.7706 137.731 96.5859 137.377Z" fill="#F2E9C4"/>
<path d="M99.766 141.597C99.7531 141.406 99.7504 141.197 99.7527 141.005C99.7684 139.726 100.732 138.871 101.985 138.89H103.251C103.328 139.057 103.453 139.201 103.545 139.36C103.801 139.801 104.007 140.251 104.143 140.744C103.195 140.815 102.063 140.664 101.158 140.832C100.637 140.964 100.133 141.191 99.766 141.597Z" fill="#57AF5B"/>
<path d="M94.6993 138.89C94.8111 138.894 94.921 138.896 95.0329 138.89C96.0739 138.889 96.9991 138.75 97.7378 139.67C98.1746 140.214 98.2148 140.929 98.143 141.597C97.954 141.386 97.6915 141.238 97.4444 141.105C96.7511 140.737 96.1665 140.761 95.4054 140.761L93.8066 140.762C94.0225 140.098 94.23 139.44 94.6993 138.89Z" fill="#57AF5B"/>
<path d="M99.765 147.19L99.7649 145.549C99.7644 145.046 99.7223 144.501 99.8492 144.01C100.057 143.206 100.706 142.576 101.514 142.385C101.868 142.301 102.309 142.336 102.675 142.336H104.219C104.301 142.613 103.855 143.981 103.719 144.252C103.025 145.634 101.722 146.715 100.21 147.079C100.067 147.113 99.9196 147.137 99.7811 147.184L99.765 147.19Z" fill="#F2E9C4"/>
<path d="M93.7032 142.336H95.1588C96.0465 142.335 96.7398 142.254 97.4488 142.926C98.1639 143.604 98.1426 144.339 98.1427 145.244L98.1426 146.53C98.1425 146.75 98.136 146.97 98.1426 147.19C97.7564 147.129 97.3903 147.018 97.0279 146.872C95.2718 146.173 93.6869 144.287 93.7032 142.336Z" fill="#F2E9C4"/>
<path d="M99.0491 153.091C97.5716 153.123 97.5908 151.208 98.8908 151.096C100.181 150.993 100.453 152.962 99.0491 153.091Z" fill="#F2E9C4"/>
<path d="M83.0838 164.197C82.92 164.197 82.7734 164.157 82.6439 164.075C82.5144 163.993 82.4022 163.902 82.3071 163.801V164.134H81.459V157.714H82.3071V159.918C82.4074 159.801 82.5276 159.701 82.6677 159.616C82.8077 159.532 82.9755 159.489 83.171 159.489C83.4087 159.489 83.5976 159.552 83.7377 159.676C83.8777 159.8 83.9821 159.956 84.0507 160.143C84.1194 160.331 84.1643 160.521 84.1855 160.714C84.2066 160.907 84.2172 161.072 84.2172 161.209V162.319C84.2172 162.641 84.1855 162.946 84.1221 163.234C84.0587 163.522 83.9451 163.755 83.7813 163.932C83.6175 164.109 83.385 164.197 83.0838 164.197ZM82.9094 163.532C83.0574 163.532 83.163 163.477 83.2265 163.369C83.2899 163.261 83.3295 163.114 83.3453 162.929C83.3612 162.744 83.3691 162.541 83.3691 162.319V161.209C83.3691 161.019 83.3586 160.843 83.3374 160.682C83.3163 160.521 83.2714 160.393 83.2027 160.298C83.134 160.203 83.0257 160.155 82.8777 160.155C82.7668 160.155 82.6624 160.179 82.5646 160.227C82.4669 160.274 82.381 160.327 82.3071 160.385V163.326C82.381 163.384 82.4695 163.433 82.5726 163.472C82.6756 163.512 82.7879 163.532 82.9094 163.532ZM86.2542 164.197C85.8948 164.197 85.6175 164.127 85.4219 163.987C85.2264 163.847 85.0903 163.641 85.0137 163.369C84.9371 163.097 84.8988 162.763 84.8988 162.367V161.32C84.8988 160.913 84.9384 160.575 85.0177 160.306C85.0969 160.036 85.2357 159.833 85.4338 159.695C85.6319 159.558 85.9054 159.489 86.2542 159.489C86.6399 159.489 86.9238 159.569 87.1062 159.727C87.2884 159.886 87.4086 160.114 87.4668 160.413C87.5249 160.711 87.5539 161.069 87.5539 161.487V161.859H85.7468V162.779C85.7468 162.964 85.7641 163.114 85.7984 163.23C85.8328 163.347 85.8882 163.433 85.9648 163.488C86.0415 163.544 86.1405 163.571 86.262 163.571C86.3888 163.571 86.4853 163.541 86.5514 163.48C86.6174 163.419 86.6623 163.332 86.6861 163.219C86.7099 163.105 86.7217 162.972 86.7217 162.818V162.541H87.5461V162.715C87.5461 163.175 87.4483 163.537 87.2528 163.801C87.0572 164.065 86.7244 164.197 86.2542 164.197ZM85.7468 161.4H86.7217V160.987C86.7217 160.797 86.7112 160.637 86.69 160.508C86.6689 160.378 86.6253 160.281 86.5593 160.215C86.4932 160.149 86.3888 160.116 86.2462 160.116C86.1088 160.116 86.0045 160.147 85.9331 160.211C85.8618 160.274 85.8129 160.381 85.7865 160.532C85.7601 160.682 85.7468 160.89 85.7468 161.154V161.4ZM89.0123 164.197C88.8327 164.197 88.6741 164.146 88.5368 164.043C88.3994 163.94 88.2911 163.808 88.2118 163.647C88.1326 163.485 88.093 163.315 88.093 163.135C88.093 162.85 88.1405 162.61 88.2356 162.414C88.3307 162.219 88.4615 162.053 88.628 161.919C88.7944 161.784 88.9872 161.666 89.2065 161.566C89.4258 161.466 89.6569 161.368 89.9 161.273V160.948C89.9 160.763 89.8895 160.61 89.8683 160.488C89.8471 160.367 89.8036 160.275 89.7375 160.215C89.6715 160.154 89.5724 160.124 89.4403 160.124C89.324 160.124 89.2303 160.15 89.1589 160.203C89.0877 160.256 89.0361 160.331 89.0044 160.429C88.9727 160.526 88.9568 160.641 88.9568 160.773V161.003L88.1167 160.972C88.1272 160.464 88.2435 160.09 88.4654 159.85C88.6873 159.61 89.0308 159.489 89.4958 159.489C89.9502 159.489 90.2725 159.614 90.4628 159.862C90.653 160.11 90.7481 160.47 90.7481 160.94V163.032C90.7481 163.175 90.752 163.312 90.76 163.444C90.768 163.577 90.7785 163.699 90.7917 163.813C90.8049 163.927 90.8168 164.034 90.8273 164.134H90.0506C90.0348 164.049 90.015 163.942 89.9912 163.813C89.9674 163.684 89.9502 163.566 89.9397 163.46C89.8868 163.64 89.7851 163.808 89.6345 163.964C89.4839 164.119 89.2765 164.197 89.0123 164.197ZM89.3452 163.468C89.4298 163.468 89.509 163.444 89.583 163.397C89.6569 163.349 89.7231 163.295 89.7812 163.234C89.8392 163.174 89.8788 163.125 89.9 163.088V161.788C89.7679 161.862 89.6438 161.936 89.5275 162.01C89.4113 162.084 89.3096 162.162 89.2223 162.244C89.1352 162.326 89.0665 162.418 89.0163 162.521C88.9661 162.624 88.941 162.742 88.941 162.874C88.941 163.059 88.9753 163.204 89.044 163.31C89.1128 163.415 89.2131 163.468 89.3452 163.468ZM92.2223 164.197C92.0426 164.197 91.9026 164.15 91.8022 164.055C91.7018 163.96 91.6318 163.841 91.5922 163.698C91.5525 163.555 91.5327 163.41 91.5327 163.262V159.553H92.3808V163.009C92.3808 163.172 92.4046 163.3 92.4522 163.393C92.4998 163.485 92.5974 163.532 92.7454 163.532C92.8405 163.532 92.9396 163.504 93.0426 163.448C93.1457 163.393 93.2448 163.326 93.3399 163.246V159.553H94.1879V164.134H93.3399V163.682C93.1919 163.825 93.0241 163.946 92.8366 164.047C92.6489 164.147 92.4442 164.197 92.2223 164.197ZM96.2724 164.197C96.0346 164.197 95.843 164.152 95.6978 164.063C95.5525 163.973 95.4468 163.846 95.3808 163.682C95.3147 163.518 95.2817 163.326 95.2817 163.104V160.116H94.7982V159.553H95.2817V158.213H96.1297V159.553H96.8669V160.116H96.1297V163.048C96.1297 163.228 96.1589 163.356 96.217 163.433C96.2751 163.509 96.386 163.547 96.5498 163.547C96.5921 163.547 96.641 163.545 96.6964 163.54C96.752 163.534 96.8061 163.529 96.859 163.524V164.15C96.7532 164.166 96.6555 164.178 96.5657 164.186C96.4759 164.193 96.378 164.197 96.2724 164.197ZM97.4216 165.283V164.633C97.6277 164.633 97.7915 164.624 97.9131 164.606C98.0346 164.587 98.1217 164.553 98.1746 164.503C98.2275 164.452 98.2539 164.382 98.2539 164.293C98.2539 164.245 98.2355 164.139 98.1984 163.975C98.1614 163.812 98.1217 163.637 98.0795 163.452L97.1601 159.553H98.0161L98.6343 162.977L99.2288 159.553H100.085L98.991 164.388C98.9434 164.61 98.8562 164.785 98.7294 164.915C98.6026 165.044 98.4401 165.138 98.242 165.196C98.0439 165.254 97.8047 165.283 97.5247 165.283H97.4216ZM103.477 164.197C103.102 164.197 102.801 164.08 102.574 163.845C102.346 163.61 102.217 163.299 102.185 162.913L102.891 162.699C102.933 162.99 103.004 163.208 103.104 163.353C103.205 163.499 103.353 163.571 103.548 163.571C103.702 163.571 103.818 163.528 103.897 163.44C103.976 163.353 104.016 163.236 104.016 163.088C104.016 162.956 103.987 162.837 103.929 162.731C103.871 162.625 103.776 162.517 103.644 162.406L102.859 161.732C102.7 161.595 102.567 161.442 102.459 161.273C102.35 161.104 102.296 160.884 102.296 160.615C102.296 160.372 102.345 160.167 102.443 160.001C102.54 159.834 102.678 159.707 102.855 159.62C103.032 159.533 103.239 159.489 103.477 159.489C103.857 159.489 104.148 159.607 104.349 159.842C104.55 160.077 104.666 160.361 104.698 160.694L104.095 160.908C104.074 160.75 104.042 160.611 104 160.492C103.958 160.373 103.897 160.281 103.818 160.215C103.739 160.149 103.636 160.116 103.509 160.116C103.371 160.116 103.262 160.162 103.18 160.254C103.098 160.347 103.057 160.456 103.057 160.583C103.057 160.662 103.074 160.74 103.109 160.817C103.143 160.894 103.202 160.969 103.287 161.043L104.095 161.788C104.206 161.888 104.311 161.997 104.408 162.113C104.506 162.229 104.587 162.361 104.65 162.509C104.713 162.657 104.745 162.829 104.745 163.024C104.745 163.283 104.692 163.5 104.587 163.674C104.481 163.849 104.333 163.979 104.143 164.067C103.953 164.154 103.731 164.197 103.477 164.197ZM106.069 164.197C105.889 164.197 105.731 164.146 105.593 164.043C105.456 163.94 105.348 163.808 105.268 163.647C105.189 163.485 105.149 163.315 105.149 163.135C105.149 162.85 105.197 162.61 105.292 162.414C105.387 162.219 105.518 162.053 105.684 161.919C105.851 161.784 106.044 161.666 106.263 161.566C106.482 161.466 106.713 161.368 106.956 161.273V160.948C106.956 160.763 106.946 160.61 106.925 160.488C106.904 160.367 106.86 160.275 106.794 160.215C106.728 160.154 106.629 160.124 106.497 160.124C106.381 160.124 106.287 160.15 106.215 160.203C106.144 160.256 106.093 160.331 106.061 160.429C106.029 160.526 106.013 160.641 106.013 160.773V161.003L105.173 160.972C105.184 160.464 105.3 160.09 105.522 159.85C105.744 159.61 106.087 159.489 106.552 159.489C107.007 159.489 107.329 159.614 107.519 159.862C107.709 160.11 107.805 160.47 107.805 160.94V163.032C107.805 163.175 107.808 163.312 107.816 163.444C107.824 163.577 107.835 163.699 107.848 163.813C107.861 163.927 107.873 164.034 107.884 164.134H107.107C107.091 164.049 107.071 163.942 107.048 163.813C107.024 163.684 107.007 163.566 106.996 163.46C106.943 163.64 106.842 163.808 106.691 163.964C106.54 164.119 106.333 164.197 106.069 164.197ZM106.402 163.468C106.486 163.468 106.566 163.444 106.639 163.397C106.713 163.349 106.78 163.295 106.838 163.234C106.896 163.174 106.935 163.125 106.956 163.088V161.788C106.824 161.862 106.7 161.936 106.584 162.01C106.468 162.084 106.366 162.162 106.279 162.244C106.192 162.326 106.123 162.418 106.073 162.521C106.023 162.624 105.997 162.742 105.997 162.874C105.997 163.059 106.032 163.204 106.101 163.31C106.169 163.415 106.27 163.468 106.402 163.468ZM108.7 164.134V157.714H109.548V164.134H108.7ZM111.696 164.197C111.358 164.197 111.091 164.129 110.896 163.991C110.7 163.854 110.561 163.658 110.48 163.405C110.398 163.151 110.357 162.853 110.357 162.509V161.178C110.357 160.834 110.398 160.536 110.48 160.282C110.561 160.028 110.7 159.833 110.896 159.695C111.091 159.558 111.358 159.489 111.696 159.489C112.034 159.489 112.3 159.558 112.493 159.695C112.686 159.833 112.823 160.028 112.905 160.282C112.987 160.536 113.028 160.834 113.028 161.178V162.509C113.028 162.853 112.987 163.151 112.905 163.405C112.823 163.658 112.686 163.854 112.493 163.991C112.3 164.129 112.034 164.197 111.696 164.197ZM111.696 163.571C111.86 163.571 111.975 163.524 112.041 163.429C112.107 163.334 112.147 163.208 112.16 163.052C112.173 162.896 112.18 162.734 112.18 162.565V161.13C112.18 160.956 112.173 160.792 112.16 160.639C112.147 160.485 112.107 160.36 112.041 160.262C111.975 160.165 111.86 160.116 111.696 160.116C111.532 160.116 111.416 160.165 111.347 160.262C111.279 160.36 111.238 160.485 111.225 160.639C111.211 160.792 111.205 160.956 111.205 161.13V162.565C111.205 162.734 111.211 162.896 111.225 163.052C111.238 163.208 111.279 163.334 111.347 163.429C111.416 163.524 111.532 163.571 111.696 163.571ZM113.804 164.134V159.553H114.652V160.005C114.806 159.862 114.975 159.74 115.16 159.64C115.345 159.54 115.548 159.489 115.77 159.489C115.955 159.489 116.096 159.537 116.194 159.632C116.292 159.727 116.361 159.846 116.4 159.989C116.44 160.131 116.46 160.277 116.46 160.425V164.134H115.612V160.67C115.612 160.507 115.588 160.38 115.54 160.29C115.493 160.2 115.395 160.155 115.247 160.155C115.152 160.155 115.053 160.183 114.95 160.238C114.847 160.294 114.748 160.361 114.652 160.441V164.134H113.804Z" fill="#F2E9C4"/>
</g>
<path d="M20.6279 196.075C18.9426 196.075 17.4111 195.421 16.2705 194.353C15.1439 195.1 13.8899 195.685 12.5293 196.064C12.499 196.073 12.4678 196.079 12.4375 196.088C13.3735 194.668 14.065 193.059 14.459 191.329C14.3211 190.807 14.2471 190.259 14.2471 189.694V186.961C14.2473 183.437 17.104 180.58 20.6279 180.58V196.075Z" fill="#1D1D1E"/>
<path d="M20.6289 180.58H60.2676C64.1834 180.58 67.3579 183.754 67.3579 187.67V188.998C67.3579 192.914 64.1834 196.088 60.2676 196.088H20.6289V180.58Z" fill="#1D1D1E"/>
<path d="M22.2746 189.896C21.4645 189.896 20.9166 189.499 20.8699 188.857L20.8673 188.821H21.3347L21.3399 188.857C21.3944 189.234 21.7579 189.465 22.3006 189.465C22.8407 189.465 23.1808 189.221 23.1808 188.834V188.831C23.1808 188.502 22.9653 188.317 22.4512 188.203L22.0358 188.112C21.3035 187.951 20.9608 187.621 20.9608 187.074V187.071C20.9634 186.456 21.5087 186.025 22.2798 186.025C23.0121 186.025 23.5469 186.448 23.5885 187.061L23.5911 187.1H23.1237L23.1185 187.063C23.0614 186.682 22.742 186.456 22.2668 186.456C21.7657 186.458 21.4385 186.697 21.4385 187.058V187.061C21.4385 187.367 21.6644 187.559 22.1526 187.666L22.568 187.757C23.3366 187.925 23.6586 188.237 23.6586 188.808V188.811C23.6586 189.475 23.1315 189.896 22.2746 189.896ZM25.2477 189.886C24.4713 189.886 24.0039 189.343 24.0039 188.494V188.491C24.0039 187.655 24.4817 187.081 25.2191 187.081C25.9565 187.081 26.4057 187.629 26.4057 188.439V188.606H24.4609C24.4713 189.161 24.7777 189.486 25.2581 189.486C25.6008 189.486 25.8423 189.314 25.9202 189.083L25.928 189.06H26.372L26.3668 189.086C26.2785 189.533 25.8371 189.886 25.2477 189.886ZM25.2165 187.481C24.8244 187.481 24.518 187.749 24.4687 188.252H25.9461C25.902 187.728 25.6112 187.481 25.2165 187.481ZM26.8861 189.834V186.087H27.3379V189.834H26.8861ZM29.0594 189.886C28.283 189.886 27.8157 189.343 27.8157 188.494V188.491C27.8157 187.655 28.2934 187.081 29.0308 187.081C29.7683 187.081 30.2175 187.629 30.2175 188.439V188.606H28.2727C28.283 189.161 28.5894 189.486 29.0698 189.486C29.4125 189.486 29.654 189.314 29.7319 189.083L29.7397 189.06H30.1837L30.1785 189.086C30.0902 189.533 29.6488 189.886 29.0594 189.886ZM29.0282 187.481C28.6362 187.481 28.3298 187.749 28.2804 188.252H29.7579C29.7137 187.728 29.4229 187.481 29.0282 187.481ZM31.7936 189.886C31.0276 189.886 30.542 189.34 30.542 188.481V188.478C30.542 187.627 31.038 187.081 31.7884 187.081C32.4609 187.081 32.8582 187.528 32.9153 187.99L32.9179 188.011H32.4765L32.4713 187.99C32.4038 187.72 32.1856 187.481 31.7884 187.481C31.3184 187.481 31.0042 187.871 31.0042 188.484V188.486C31.0042 189.114 31.3262 189.486 31.7936 189.486C32.1623 189.486 32.3986 189.278 32.4739 188.977L32.4791 188.956H32.9231L32.9205 188.974C32.8478 189.488 32.4038 189.886 31.7936 189.886ZM34.2161 189.886C33.7202 189.886 33.4761 189.662 33.4761 189.146V187.507H33.0815V187.133H33.4761V186.404H33.9435V187.133H34.4576V187.507H33.9435V189.143C33.9435 189.431 34.0707 189.512 34.3122 189.512C34.3667 189.512 34.4187 189.504 34.4576 189.501V189.867C34.4005 189.875 34.3044 189.886 34.2161 189.886ZM36.0337 190.743V187.133H36.4855V187.59H36.4959C36.6647 187.276 36.9659 187.081 37.3528 187.081C38.0435 187.081 38.5004 187.632 38.5004 188.484V188.486C38.5004 189.338 38.0383 189.886 37.3606 189.886C36.9789 189.886 36.6647 189.694 36.4959 189.382H36.4855V190.743H36.0337ZM37.2645 189.486C37.7423 189.486 38.0383 189.102 38.0383 188.486V188.484C38.0383 187.863 37.7423 187.481 37.2645 187.481C36.8075 187.481 36.4829 187.879 36.4829 188.484V188.486C36.4829 189.089 36.8101 189.486 37.2645 189.486ZM38.9574 189.834V187.133H39.4092V187.59H39.4196C39.5105 187.279 39.7442 187.081 40.048 187.081C40.1259 187.081 40.1934 187.094 40.2297 187.1V187.538C40.1934 187.525 40.0973 187.512 39.9883 187.512C39.6377 187.512 39.4092 187.757 39.4092 188.167V189.834H38.9574ZM41.5877 189.886C40.8373 189.886 40.3362 189.343 40.3362 188.484V188.478C40.3362 187.619 40.8399 187.081 41.5851 187.081C42.3304 187.081 42.8367 187.616 42.8367 188.478V188.484C42.8367 189.346 42.333 189.886 41.5877 189.886ZM41.5903 189.486C42.0655 189.486 42.3745 189.117 42.3745 188.484V188.478C42.3745 187.845 42.0629 187.481 41.5851 187.481C41.1152 187.481 40.7984 187.847 40.7984 188.478V188.484C40.7984 189.12 41.1126 189.486 41.5903 189.486ZM44.4128 189.886C43.6468 189.886 43.1612 189.34 43.1612 188.481V188.478C43.1612 187.627 43.6572 187.081 44.4076 187.081C45.0801 187.081 45.4774 187.528 45.5345 187.99L45.5371 188.011H45.0957L45.0905 187.99C45.023 187.72 44.8049 187.481 44.4076 187.481C43.9376 187.481 43.6234 187.871 43.6234 188.484V188.486C43.6234 189.114 43.9454 189.486 44.4128 189.486C44.7815 189.486 45.0178 189.278 45.0931 188.977L45.0983 188.956H45.5423L45.5397 188.974C45.467 189.488 45.023 189.886 44.4128 189.886ZM47.069 189.886C46.2927 189.886 45.8253 189.343 45.8253 188.494V188.491C45.8253 187.655 46.3031 187.081 47.0405 187.081C47.7779 187.081 48.2271 187.629 48.2271 188.439V188.606H46.2823C46.2927 189.161 46.5991 189.486 47.0794 189.486C47.4222 189.486 47.6637 189.314 47.7416 189.083L47.7493 189.06H48.1934L48.1882 189.086C48.0999 189.533 47.6585 189.886 47.069 189.886ZM47.0379 187.481C46.6458 187.481 46.3394 187.749 46.2901 188.252H47.7675C47.7234 187.728 47.4326 187.481 47.0379 187.481ZM49.6994 189.886C49.0087 189.886 48.5517 189.335 48.5517 188.484V188.481C48.5517 187.629 49.0139 187.081 49.6916 187.081C50.0733 187.081 50.3874 187.274 50.5562 187.585H50.5666V186.087H51.0184V189.834H50.5666V189.377H50.5562C50.3874 189.691 50.0862 189.886 49.6994 189.886ZM49.7876 189.486C50.2446 189.486 50.5692 189.089 50.5692 188.484V188.481C50.5692 187.879 50.242 187.481 49.7876 187.481C49.3099 187.481 49.0139 187.866 49.0139 188.481V188.484C49.0139 189.104 49.3099 189.486 49.7876 189.486ZM52.5504 189.886C51.9583 189.886 51.6156 189.501 51.6156 188.886V187.133H52.0674V188.806C52.0674 189.244 52.2725 189.486 52.688 189.486C53.1138 189.486 53.3916 189.182 53.3916 188.722V187.133H53.8434V189.834H53.3916V189.449H53.3813C53.2358 189.701 52.9606 189.886 52.5504 189.886ZM54.4329 189.834V187.133H54.8847V187.59H54.895C54.9859 187.279 55.2196 187.081 55.5234 187.081C55.6013 187.081 55.6688 187.094 55.7052 187.1V187.538C55.6688 187.525 55.5727 187.512 55.4637 187.512C55.1132 187.512 54.8847 187.757 54.8847 188.167V189.834H54.4329ZM57.0554 189.886C56.279 189.886 55.8116 189.343 55.8116 188.494V188.491C55.8116 187.655 56.2894 187.081 57.0268 187.081C57.7642 187.081 58.2134 187.629 58.2134 188.439V188.606H56.2686C56.279 189.161 56.5854 189.486 57.0658 189.486C57.4085 189.486 57.65 189.314 57.7279 189.083L57.7357 189.06H58.1797L58.1745 189.086C58.0862 189.533 57.6448 189.886 57.0554 189.886ZM57.0242 187.481C56.6321 187.481 56.3257 187.749 56.2764 188.252H57.7538C57.7097 187.728 57.4189 187.481 57.0242 187.481ZM59.6285 189.886C58.9924 189.886 58.6081 189.561 58.5536 189.078L58.551 189.055H59.0028L59.008 189.081C59.0625 189.351 59.2624 189.509 59.6311 189.509C59.9973 189.509 60.2154 189.356 60.2154 189.112V189.109C60.2154 188.915 60.1141 188.806 59.8077 188.73L59.3793 188.626C58.8704 188.504 58.6237 188.268 58.6237 187.879V187.876C58.6237 187.411 59.0313 187.081 59.6156 187.081C60.2076 187.081 60.5841 187.427 60.6178 187.879L60.6204 187.912H60.1894L60.1868 187.894C60.1504 187.632 59.9505 187.458 59.6156 187.458C59.2884 187.458 59.0859 187.616 59.0859 187.855V187.858C59.0859 188.042 59.2079 188.169 59.5065 188.242L59.9349 188.346C60.4802 188.478 60.6775 188.694 60.6775 189.078V189.081C60.6775 189.553 60.2309 189.886 59.6285 189.886Z" fill="white"/>
<rect width="31.3448" height="15.5084" rx="7.09" transform="matrix(-1 0 0 1 99.1523 200.342)" fill="url(#paint4_linear_6689_41962)"/>
<path d="M73.844 209.596V205.849H75.1786C75.8823 205.849 76.3808 206.335 76.3808 207.046V207.052C76.3808 207.763 75.8823 208.259 75.1786 208.259H74.3114V209.596H73.844ZM75.0592 206.265H74.3114V207.844H75.0592C75.5941 207.844 75.903 207.55 75.903 207.057V207.052C75.903 206.558 75.5941 206.265 75.0592 206.265ZM77.8297 209.648C77.0533 209.648 76.5859 209.105 76.5859 208.256V208.254C76.5859 207.418 77.0637 206.844 77.8011 206.844C78.5385 206.844 78.9877 207.392 78.9877 208.202V208.368H77.0429C77.0533 208.924 77.3597 209.248 77.8401 209.248C78.1828 209.248 78.4243 209.077 78.5022 208.846L78.51 208.822H78.954L78.9488 208.848C78.8605 209.295 78.4191 209.648 77.8297 209.648ZM77.7985 207.244C77.4064 207.244 77.1001 207.511 77.0507 208.015H78.5282C78.484 207.49 78.1932 207.244 77.7985 207.244ZM80.46 209.648C79.7693 209.648 79.3123 209.098 79.3123 208.246V208.243C79.3123 207.392 79.7745 206.844 80.4522 206.844C80.8339 206.844 81.1481 207.036 81.3168 207.348H81.3272V205.849H81.779V209.596H81.3272V209.139H81.3168C81.1481 209.453 80.8469 209.648 80.46 209.648ZM80.5483 209.248C81.0053 209.248 81.3298 208.851 81.3298 208.246V208.243C81.3298 207.641 81.0027 207.244 80.5483 207.244C80.0705 207.244 79.7745 207.628 79.7745 208.243V208.246C79.7745 208.867 80.0705 209.248 80.5483 209.248ZM82.6437 206.439C82.4879 206.439 82.3607 206.312 82.3607 206.156C82.3607 205.997 82.4879 205.873 82.6437 205.873C82.8021 205.873 82.9267 205.997 82.9267 206.156C82.9267 206.312 82.8021 206.439 82.6437 206.439ZM82.4178 209.596V206.896H82.8696V209.596H82.4178ZM84.6041 209.648C83.8381 209.648 83.3525 209.103 83.3525 208.243V208.241C83.3525 207.389 83.8485 206.844 84.5989 206.844C85.2714 206.844 85.6687 207.29 85.7258 207.753L85.7284 207.773H85.287L85.2818 207.753C85.2143 207.483 84.9961 207.244 84.5989 207.244C84.1289 207.244 83.8147 207.633 83.8147 208.246V208.249C83.8147 208.877 84.1367 209.248 84.6041 209.248C84.9728 209.248 85.2091 209.041 85.2844 208.739L85.2896 208.719H85.7336L85.731 208.737C85.6583 209.251 85.2143 209.648 84.6041 209.648ZM87.0708 209.648C86.4788 209.648 86.136 209.264 86.136 208.648V206.896H86.5878V208.568C86.5878 209.007 86.793 209.248 87.2084 209.248C87.6342 209.248 87.9121 208.944 87.9121 208.485V206.896H88.3639V209.596H87.9121V209.212H87.9017C87.7563 209.464 87.481 209.648 87.0708 209.648ZM88.9533 209.596V206.896H89.4051V207.353H89.4155C89.5063 207.041 89.74 206.844 90.0438 206.844C90.1217 206.844 90.1892 206.857 90.2256 206.862V207.301C90.1892 207.288 90.0932 207.275 89.9841 207.275C89.6336 207.275 89.4051 207.519 89.4051 207.929V209.596H88.9533ZM91.5758 209.648C90.7994 209.648 90.3321 209.105 90.3321 208.256V208.254C90.3321 207.418 90.8098 206.844 91.5472 206.844C92.2847 206.844 92.7339 207.392 92.7339 208.202V208.368H90.789C90.7994 208.924 91.1058 209.248 91.5862 209.248C91.9289 209.248 92.1704 209.077 92.2483 208.846L92.2561 208.822H92.7001L92.6949 208.848C92.6066 209.295 92.1652 209.648 91.5758 209.648ZM91.5446 207.244C91.1526 207.244 90.8462 207.511 90.7968 208.015H92.2743C92.2301 207.49 91.9393 207.244 91.5446 207.244Z" fill="white"/>
<path d="M127.998 200.342H108.359C104.444 200.342 101.269 203.516 101.269 207.432V208.76C101.269 212.676 104.444 215.85 108.359 215.85H127.998V200.342Z" fill="url(#paint5_linear_6689_41962)"/>
<path d="M107.305 209.596V205.849H107.845L109.143 209.007H109.159L110.457 205.849H110.997V209.596H110.561V206.701H110.545L109.348 209.596H108.954L107.757 206.701H107.741V209.596H107.305ZM112.366 209.648C111.828 209.648 111.467 209.324 111.467 208.833V208.828C111.467 208.368 111.826 208.08 112.446 208.043L113.22 207.999V207.773C113.22 207.444 113.004 207.244 112.628 207.244C112.28 207.244 112.062 207.41 112.01 207.651L112.005 207.675H111.568L111.571 207.646C111.61 207.202 111.997 206.844 112.633 206.844C113.272 206.844 113.672 207.189 113.672 207.729V209.596H113.22V209.157H113.209C113.051 209.453 112.727 209.648 112.366 209.648ZM111.929 208.833C111.929 209.092 112.142 209.256 112.467 209.256C112.893 209.256 113.22 208.963 113.22 208.571V208.35L112.498 208.394C112.137 208.415 111.929 208.576 111.929 208.828V208.833ZM114.245 209.596V206.896H114.697V207.28H114.708C114.853 207.028 115.128 206.844 115.539 206.844C116.131 206.844 116.473 207.228 116.473 207.844V209.596H116.022V207.924C116.022 207.485 115.816 207.244 115.401 207.244C114.975 207.244 114.697 207.548 114.697 208.007V209.596H114.245ZM117.304 206.439C117.148 206.439 117.021 206.312 117.021 206.156C117.021 205.997 117.148 205.873 117.304 205.873C117.463 205.873 117.587 205.997 117.587 206.156C117.587 206.312 117.463 206.439 117.304 206.439ZM117.078 209.596V206.896H117.53V209.596H117.078ZM119.265 209.648C118.499 209.648 118.013 209.103 118.013 208.243V208.241C118.013 207.389 118.509 206.844 119.259 206.844C119.932 206.844 120.329 207.29 120.386 207.753L120.389 207.773H119.948L119.942 207.753C119.875 207.483 119.657 207.244 119.259 207.244C118.789 207.244 118.475 207.633 118.475 208.246V208.249C118.475 208.877 118.797 209.248 119.265 209.248C119.633 209.248 119.87 209.041 119.945 208.739L119.95 208.719H120.394L120.392 208.737C120.319 209.251 119.875 209.648 119.265 209.648ZM121.731 209.648C121.139 209.648 120.797 209.264 120.797 208.648V206.896H121.248V208.568C121.248 209.007 121.454 209.248 121.869 209.248C122.295 209.248 122.573 208.944 122.573 208.485V206.896H123.024V209.596H122.573V209.212H122.562C122.417 209.464 122.142 209.648 121.731 209.648ZM123.614 209.596V206.896H124.066V207.353H124.076C124.167 207.041 124.401 206.844 124.704 206.844C124.782 206.844 124.85 206.857 124.886 206.862V207.301C124.85 207.288 124.754 207.275 124.645 207.275C124.294 207.275 124.066 207.519 124.066 207.929V209.596H123.614ZM126.236 209.648C125.46 209.648 124.993 209.105 124.993 208.256V208.254C124.993 207.418 125.47 206.844 126.208 206.844C126.945 206.844 127.394 207.392 127.394 208.202V208.368H125.45C125.46 208.924 125.766 209.248 126.247 209.248C126.589 209.248 126.831 209.077 126.909 208.846L126.917 208.822H127.361L127.355 208.848C127.267 209.295 126.826 209.648 126.236 209.648ZM126.205 207.244C125.813 207.244 125.507 207.511 125.457 208.015H126.935C126.891 207.49 126.6 207.244 126.205 207.244Z" fill="white"/>
<path d="M127.999 215.839C129.685 215.839 131.217 215.184 132.357 214.116C133.484 214.862 134.737 215.447 136.098 215.826C136.128 215.835 136.159 215.841 136.189 215.85C135.254 214.431 134.561 212.823 134.167 211.094C134.305 210.572 134.38 210.024 134.38 209.458V206.724C134.38 203.2 131.523 200.343 127.999 200.343V215.839Z" fill="url(#paint6_linear_6689_41962)"/>
<path d="M20.6279 235.6C18.9426 235.6 17.4111 234.946 16.2705 233.878C15.1439 234.625 13.8899 235.21 12.5293 235.589C12.499 235.598 12.4678 235.604 12.4375 235.613C13.3735 234.193 14.065 232.584 14.459 230.854C14.3211 230.332 14.2471 229.784 14.2471 229.219V226.486C14.2473 222.962 17.104 220.105 20.6279 220.105V235.6Z" fill="#1D1D1E"/>
<path d="M20.6289 220.105H65.2676C69.1834 220.105 72.3579 223.279 72.3579 227.195V228.523C72.3579 232.439 69.1834 235.613 65.2676 235.613H20.6289V220.105Z" fill="#1D1D1E"/>
<path d="M22.2746 229.421C21.4645 229.421 20.9166 229.024 20.8699 228.382L20.8673 228.346H21.3347L21.3399 228.382C21.3944 228.759 21.7579 228.99 22.3006 228.99C22.8407 228.99 23.1808 228.746 23.1808 228.359V228.356C23.1808 228.027 22.9653 227.842 22.4512 227.728L22.0358 227.637C21.3035 227.476 20.9608 227.147 20.9608 226.599V226.596C20.9634 225.981 21.5087 225.55 22.2798 225.55C23.0121 225.55 23.5469 225.973 23.5885 226.586L23.5911 226.625H23.1237L23.1185 226.588C23.0614 226.207 22.742 225.981 22.2668 225.981C21.7657 225.983 21.4385 226.222 21.4385 226.583V226.586C21.4385 226.892 21.6644 227.084 22.1526 227.191L22.568 227.282C23.3366 227.45 23.6586 227.762 23.6586 228.333V228.336C23.6586 229 23.1315 229.421 22.2746 229.421ZM25.2477 229.411C24.4713 229.411 24.0039 228.868 24.0039 228.019V228.016C24.0039 227.18 24.4817 226.606 25.2191 226.606C25.9565 226.606 26.4057 227.154 26.4057 227.964V228.131H24.4609C24.4713 228.686 24.7777 229.011 25.2581 229.011C25.6008 229.011 25.8423 228.839 25.9202 228.608L25.928 228.585H26.372L26.3668 228.611C26.2785 229.058 25.8371 229.411 25.2477 229.411ZM25.2165 227.006C24.8244 227.006 24.518 227.274 24.4687 227.777H25.9461C25.902 227.253 25.6112 227.006 25.2165 227.006ZM26.8861 229.359V225.612H27.3379V229.359H26.8861ZM29.0594 229.411C28.283 229.411 27.8157 228.868 27.8157 228.019V228.016C27.8157 227.18 28.2934 226.606 29.0308 226.606C29.7683 226.606 30.2175 227.154 30.2175 227.964V228.131H28.2727C28.283 228.686 28.5894 229.011 29.0698 229.011C29.4125 229.011 29.654 228.839 29.7319 228.608L29.7397 228.585H30.1837L30.1785 228.611C30.0902 229.058 29.6488 229.411 29.0594 229.411ZM29.0282 227.006C28.6362 227.006 28.3298 227.274 28.2804 227.777H29.7579C29.7137 227.253 29.4229 227.006 29.0282 227.006ZM31.7936 229.411C31.0276 229.411 30.542 228.865 30.542 228.006V228.003C30.542 227.152 31.038 226.606 31.7884 226.606C32.4609 226.606 32.8582 227.053 32.9153 227.515L32.9179 227.536H32.4765L32.4713 227.515C32.4038 227.245 32.1856 227.006 31.7884 227.006C31.3184 227.006 31.0042 227.396 31.0042 228.009V228.011C31.0042 228.64 31.3262 229.011 31.7936 229.011C32.1623 229.011 32.3986 228.803 32.4739 228.502L32.4791 228.481H32.9231L32.9205 228.499C32.8478 229.013 32.4038 229.411 31.7936 229.411ZM34.2161 229.411C33.7202 229.411 33.4761 229.187 33.4761 228.671V227.032H33.0815V226.658H33.4761V225.929H33.9435V226.658H34.4576V227.032H33.9435V228.668C33.9435 228.956 34.0707 229.037 34.3122 229.037C34.3667 229.037 34.4187 229.029 34.4576 229.026V229.393C34.4005 229.4 34.3044 229.411 34.2161 229.411ZM37.049 229.411C36.3583 229.411 35.9013 228.86 35.9013 228.009V228.006C35.9013 227.154 36.3635 226.606 37.0412 226.606C37.4229 226.606 37.7371 226.799 37.9058 227.11H37.9162V225.612H38.368V229.359H37.9162V228.902H37.9058C37.7371 229.216 37.4359 229.411 37.049 229.411ZM37.1373 229.011C37.5943 229.011 37.9188 228.614 37.9188 228.009V228.006C37.9188 227.404 37.5917 227.006 37.1373 227.006C36.6595 227.006 36.3635 227.391 36.3635 228.006V228.009C36.3635 228.629 36.6595 229.011 37.1373 229.011ZM39.7676 229.411C39.2301 229.411 38.8692 229.086 38.8692 228.595V228.59C38.8692 228.131 39.2275 227.842 39.8481 227.806L40.6218 227.762V227.536C40.6218 227.206 40.4063 227.006 40.0298 227.006C39.6819 227.006 39.4638 227.172 39.4118 227.414L39.4066 227.437H38.9704L38.973 227.409C39.012 226.965 39.3989 226.606 40.035 226.606C40.6738 226.606 41.0736 226.952 41.0736 227.492V229.359H40.6218V228.92H40.6114C40.4531 229.216 40.1285 229.411 39.7676 229.411ZM39.3313 228.595C39.3313 228.855 39.5443 229.019 39.8688 229.019C40.2947 229.019 40.6218 228.725 40.6218 228.333V228.112L39.9 228.157C39.5391 228.177 39.3313 228.338 39.3313 228.59V228.595ZM42.5251 229.411C42.0292 229.411 41.7851 229.187 41.7851 228.671V227.032H41.3904V226.658H41.7851V225.929H42.2525V226.658H42.7666V227.032H42.2525V228.668C42.2525 228.956 42.3797 229.037 42.6212 229.037C42.6757 229.037 42.7276 229.029 42.7666 229.026V229.393C42.7095 229.4 42.6134 229.411 42.5251 229.411ZM44.2856 229.411C43.5092 229.411 43.0418 228.868 43.0418 228.019V228.016C43.0418 227.18 43.5196 226.606 44.257 226.606C44.9944 226.606 45.4436 227.154 45.4436 227.964V228.131H43.4988C43.5092 228.686 43.8156 229.011 44.2959 229.011C44.6387 229.011 44.8802 228.839 44.9581 228.608L44.9658 228.585H45.4099L45.4047 228.611C45.3164 229.058 44.875 229.411 44.2856 229.411ZM44.2544 227.006C43.8623 227.006 43.5559 227.274 43.5066 227.777H44.984C44.9399 227.253 44.6491 227.006 44.2544 227.006ZM47.7805 229.411C47.243 229.411 46.8821 229.086 46.8821 228.595V228.59C46.8821 228.131 47.2404 227.842 47.861 227.806L48.6348 227.762V227.536C48.6348 227.206 48.4193 227.006 48.0428 227.006C47.6948 227.006 47.4767 227.172 47.4248 227.414L47.4196 227.437H46.9834L46.986 227.409C47.0249 226.965 47.4118 226.606 48.0479 226.606C48.6867 226.606 49.0866 226.952 49.0866 227.492V229.359H48.6348V228.92H48.6244C48.466 229.216 48.1414 229.411 47.7805 229.411ZM47.3443 228.595C47.3443 228.855 47.5572 229.019 47.8818 229.019C48.3076 229.019 48.6348 228.725 48.6348 228.333V228.112L47.9129 228.157C47.552 228.177 47.3443 228.338 47.3443 228.59V228.595ZM49.6604 229.359V226.658H50.1122V227.043H50.1226C50.268 226.791 50.5432 226.606 50.9535 226.606C51.5455 226.606 51.8882 226.991 51.8882 227.606V229.359H51.4364V227.687C51.4364 227.248 51.2313 227.006 50.8159 227.006C50.39 227.006 50.1122 227.31 50.1122 227.77V229.359H49.6604ZM53.4799 229.411C52.7892 229.411 52.3322 228.86 52.3322 228.009V228.006C52.3322 227.154 52.7944 226.606 53.4721 226.606C53.8538 226.606 54.168 226.799 54.3368 227.11H54.3472V225.612H54.799V229.359H54.3472V228.902H54.3368C54.168 229.216 53.8668 229.411 53.4799 229.411ZM53.5682 229.011C54.0252 229.011 54.3498 228.614 54.3498 228.009V228.006C54.3498 227.404 54.0226 227.006 53.5682 227.006C53.0904 227.006 52.7944 227.391 52.7944 228.006V228.009C52.7944 228.629 53.0904 229.011 53.5682 229.011ZM57.3773 229.411C56.8814 229.411 56.6373 229.187 56.6373 228.671V227.032H56.2426V226.658H56.6373V225.929H57.1047V226.658H57.6188V227.032H57.1047V228.668C57.1047 228.956 57.2319 229.037 57.4734 229.037C57.5279 229.037 57.5799 229.029 57.6188 229.026V229.393C57.5617 229.4 57.4656 229.411 57.3773 229.411ZM58.3588 226.201C58.203 226.201 58.0758 226.074 58.0758 225.918C58.0758 225.76 58.203 225.635 58.3588 225.635C58.5172 225.635 58.6419 225.76 58.6419 225.918C58.6419 226.074 58.5172 226.201 58.3588 226.201ZM58.1329 229.359V226.658H58.5847V229.359H58.1329ZM59.2001 229.359V226.658H59.6519V227.053H59.6623C59.7843 226.786 60.0544 226.606 60.4023 226.606C60.771 226.606 61.0437 226.796 61.1605 227.126H61.1709C61.3215 226.801 61.6383 226.606 62.0174 226.606C62.5523 226.606 62.8976 226.957 62.8976 227.494V229.359H62.4458V227.598C62.4458 227.227 62.2407 227.006 61.8849 227.006C61.5266 227.006 61.2748 227.274 61.2748 227.642V229.359H60.823V227.549C60.823 227.222 60.6048 227.006 60.2699 227.006C59.9116 227.006 59.6519 227.289 59.6519 227.666V229.359H59.2001ZM64.5853 229.411C63.809 229.411 63.3416 228.868 63.3416 228.019V228.016C63.3416 227.18 63.8194 226.606 64.5568 226.606C65.2942 226.606 65.7434 227.154 65.7434 227.964V228.131H63.7986C63.809 228.686 64.1154 229.011 64.5957 229.011C64.9385 229.011 65.18 228.839 65.2579 228.608L65.2656 228.585H65.7097L65.7045 228.611C65.6162 229.058 65.1748 229.411 64.5853 229.411ZM64.5542 227.006C64.1621 227.006 63.8557 227.274 63.8064 227.777H65.2838C65.2397 227.253 64.9489 227.006 64.5542 227.006Z" fill="white"/>
<path d="M127.998 239.867H86.3594C82.4435 239.867 79.2691 243.042 79.2691 246.957V248.285C79.2691 252.201 82.4435 255.376 86.3594 255.376H127.998V239.867Z" fill="url(#paint7_linear_6689_41962)"/>
<path d="M85.3049 249.121V245.375H87.5795V245.795H85.7723V247.083H87.4315V247.498H85.7723V249.121H85.3049ZM88.0443 249.121V246.421H88.4961V246.878H88.5065C88.5973 246.566 88.831 246.369 89.1348 246.369C89.2127 246.369 89.2802 246.382 89.3166 246.387V246.826C89.2802 246.813 89.1842 246.8 89.0751 246.8C88.7246 246.8 88.4961 247.044 88.4961 247.454V249.121H88.0443ZM89.9398 245.964C89.784 245.964 89.6567 245.837 89.6567 245.681C89.6567 245.523 89.784 245.398 89.9398 245.398C90.0981 245.398 90.2228 245.523 90.2228 245.681C90.2228 245.837 90.0981 245.964 89.9398 245.964ZM89.7139 249.121V246.421H90.1657V249.121H89.7139ZM90.5993 249.856L90.8278 248.586H91.3003L90.9213 249.856H90.5993ZM94.4084 249.184C93.3438 249.184 92.6791 248.438 92.6791 247.249V247.244C92.6791 246.057 93.3464 245.312 94.4084 245.312C95.4678 245.312 96.1325 246.057 96.1325 247.244V247.249C96.1325 248.438 95.4704 249.184 94.4084 249.184ZM94.4084 248.753C95.1796 248.753 95.6548 248.163 95.6548 247.249V247.244C95.6548 246.325 95.1718 245.743 94.4084 245.743C93.6424 245.743 93.1569 246.322 93.1569 247.244V247.249C93.1569 248.171 93.6398 248.753 94.4084 248.753ZM97.7631 249.173C96.9972 249.173 96.5116 248.628 96.5116 247.769V247.766C96.5116 246.914 97.0076 246.369 97.758 246.369C98.4305 246.369 98.8277 246.816 98.8849 247.278L98.8875 247.299H98.446L98.4408 247.278C98.3733 247.008 98.1552 246.769 97.758 246.769C97.288 246.769 96.9738 247.158 96.9738 247.771V247.774C96.9738 248.402 97.2958 248.773 97.7631 248.773C98.1319 248.773 98.3681 248.566 98.4434 248.264L98.4486 248.244H98.8926L98.8901 248.262C98.8173 248.776 98.3733 249.173 97.7631 249.173ZM100.186 249.173C99.6898 249.173 99.4457 248.95 99.4457 248.433V246.795H99.051V246.421H99.4457V245.691H99.9131V246.421H100.427V246.795H99.9131V248.431C99.9131 248.719 100.04 248.799 100.282 248.799C100.336 248.799 100.388 248.792 100.427 248.789V249.155C100.37 249.163 100.274 249.173 100.186 249.173ZM102.969 249.121V245.87H102.959L101.967 246.561V246.091L102.964 245.375H103.421V249.121H102.969ZM105.633 249.184C104.86 249.184 104.358 248.753 104.309 248.161L104.306 248.129H104.756L104.758 248.155C104.797 248.524 105.135 248.779 105.633 248.779C106.124 248.779 106.459 248.503 106.459 248.106V248.101C106.459 247.641 106.129 247.384 105.605 247.384H105.135V246.99H105.584C106.031 246.99 106.342 246.714 106.342 246.34V246.335C106.342 245.943 106.085 245.717 105.628 245.717C105.187 245.717 104.872 245.951 104.834 246.33L104.831 246.356H104.382L104.384 246.33C104.444 245.72 104.927 245.312 105.628 245.312C106.342 245.312 106.812 245.709 106.812 246.278V246.283C106.812 246.745 106.485 247.062 106.018 247.161V247.171C106.563 247.218 106.934 247.558 106.934 248.091V248.096C106.934 248.721 106.384 249.184 105.633 249.184ZM107.248 249.856L107.477 248.586H107.949L107.57 249.856H107.248ZM110.369 249.121V245.87H110.359L109.367 246.561V246.091L110.364 245.375H110.821V249.121H110.369ZM112.039 246.538C111.873 246.538 111.743 246.408 111.743 246.242C111.743 246.076 111.873 245.946 112.039 245.946C112.205 245.946 112.335 246.076 112.335 246.242C112.335 246.408 112.205 246.538 112.039 246.538ZM112.039 248.548C111.873 248.548 111.743 248.418 111.743 248.251C111.743 248.085 111.873 247.955 112.039 247.955C112.205 247.955 112.335 248.085 112.335 248.251C112.335 248.418 112.205 248.548 112.039 248.548ZM114.176 249.184C113.402 249.184 112.901 248.753 112.852 248.161L112.849 248.129H113.298L113.301 248.155C113.34 248.524 113.677 248.779 114.176 248.779C114.667 248.779 115.002 248.503 115.002 248.106V248.101C115.002 247.641 114.672 247.384 114.147 247.384H113.677V246.99H114.127C114.573 246.99 114.885 246.714 114.885 246.34V246.335C114.885 245.943 114.628 245.717 114.171 245.717C113.729 245.717 113.415 245.951 113.376 246.33L113.374 246.356H112.924L112.927 246.33C112.987 245.72 113.47 245.312 114.171 245.312C114.885 245.312 115.355 245.709 115.355 246.278V246.283C115.355 246.745 115.028 247.062 114.56 247.161V247.171C115.105 247.218 115.477 247.558 115.477 248.091V248.096C115.477 248.721 114.926 249.184 114.176 249.184ZM117.367 249.184C116.505 249.184 115.993 248.438 115.993 247.249V247.244C115.993 246.055 116.505 245.312 117.367 245.312C118.229 245.312 118.746 246.055 118.746 247.244V247.249C118.746 248.438 118.229 249.184 117.367 249.184ZM117.367 248.776C117.938 248.776 118.276 248.189 118.276 247.249V247.244C118.276 246.304 117.938 245.722 117.367 245.722C116.796 245.722 116.463 246.304 116.463 247.244V247.249C116.463 248.189 116.796 248.776 117.367 248.776ZM120.436 249.121V245.375H121.771C122.474 245.375 122.973 245.86 122.973 246.572V246.577C122.973 247.288 122.474 247.784 121.771 247.784H120.904V249.121H120.436ZM121.651 245.79H120.904V247.369H121.651C122.186 247.369 122.495 247.075 122.495 246.582V246.577C122.495 246.083 122.186 245.79 121.651 245.79ZM123.511 249.121V245.375H124.051L125.349 248.532H125.364L126.663 245.375H127.203V249.121H126.767V246.226H126.751L125.554 249.121H125.159L123.962 246.226H123.947V249.121H123.511Z" fill="white"/>
<path d="M127.999 255.364C129.685 255.364 131.217 254.709 132.357 253.641C133.484 254.388 134.737 254.972 136.098 255.351C136.128 255.36 136.159 255.367 136.189 255.375C135.254 253.956 134.561 252.348 134.167 250.619C134.305 250.097 134.38 249.549 134.38 248.983V246.249C134.38 242.725 131.523 239.868 127.999 239.868V255.364Z" fill="url(#paint8_linear_6689_41962)"/>
<rect x="13.5137" y="257.62" width="121.599" height="18.4348" rx="4.25418" fill="#FAFAFA"/>
<path d="M69.1776 268.907C68.2609 268.907 67.6571 268.475 67.61 267.758L67.6072 267.716H68.2913L68.2969 267.749C68.3495 268.093 68.7012 268.306 69.2025 268.306C69.7066 268.306 70.0224 268.082 70.0224 267.738V267.736C70.0224 267.436 69.8146 267.276 69.2995 267.168L68.8702 267.079C68.0836 266.916 67.6959 266.55 67.6959 265.955V265.952C67.6986 265.248 68.3163 264.772 69.1776 264.772C70.0501 264.772 70.6206 265.232 70.6621 265.916L70.6649 265.963H69.9808L69.9753 265.93C69.9282 265.581 69.6208 265.373 69.1721 265.373C68.704 265.376 68.4132 265.595 68.4132 265.913V265.916C68.4132 266.198 68.632 266.365 69.1139 266.464L69.546 266.553C70.3769 266.725 70.7397 267.063 70.7397 267.686V267.688C70.7397 268.434 70.1525 268.907 69.1776 268.907ZM72.0719 268.888C71.4847 268.888 71.0887 268.525 71.0887 268.001V267.996C71.0887 267.475 71.493 267.162 72.2048 267.118L72.972 267.071V266.869C72.972 266.572 72.7782 266.392 72.4292 266.392C72.1024 266.392 71.903 266.545 71.8586 266.761L71.8531 266.786H71.2133L71.2161 266.752C71.2576 266.232 71.7091 265.841 72.4541 265.841C73.1881 265.841 73.6617 266.229 73.6617 266.819V268.838H72.972V268.386H72.9554C72.7865 268.694 72.4597 268.888 72.0719 268.888ZM71.7755 267.974C71.7755 268.215 71.975 268.362 72.2769 268.362C72.6729 268.362 72.972 268.098 72.972 267.749V267.528L72.3018 267.569C71.9611 267.592 71.7755 267.738 71.7755 267.971V267.974ZM74.9994 268.838L73.9608 265.902H74.6948L75.3761 268.198H75.3927L76.0713 265.902H76.7914L75.7583 268.838H74.9994ZM78.2953 268.896C77.4146 268.896 76.8828 268.312 76.8828 267.378V267.376C76.8828 266.45 77.4229 265.841 78.2621 265.841C79.1013 265.841 79.622 266.431 79.622 267.317V267.539H77.5669C77.578 268.054 77.8605 268.359 78.3092 268.359C78.6526 268.359 78.8769 268.176 78.9434 267.979L78.9489 267.96H79.5943L79.586 267.99C79.4946 268.442 79.0625 268.896 78.2953 268.896ZM78.2704 266.381C77.9048 266.381 77.6306 266.628 77.5752 267.079H78.9517C78.9019 266.614 78.636 266.381 78.2704 266.381Z" fill="#2A2A34"/>
<g clip-path="url(#clip3_6689_41962)">
<path opacity="0.3" fill-rule="evenodd" clip-rule="evenodd" d="M134.049 13.3594H128.023C127.435 13.3594 126.959 13.8355 126.959 14.4229V16.55C126.959 17.1374 127.435 17.6136 128.023 17.6136H134.049C134.637 17.6136 135.113 17.1374 135.113 16.55V14.4229C135.113 13.8355 134.637 13.3594 134.049 13.3594ZM127.313 14.4229C127.313 14.0313 127.631 13.7139 128.023 13.7139H134.049C134.441 13.7139 134.758 14.0313 134.758 14.4229V16.55C134.758 16.9416 134.441 17.259 134.049 17.259H128.023C127.631 17.259 127.313 16.9416 127.313 16.55V14.4229ZM135.822 15.132C135.822 14.9362 135.663 14.7774 135.467 14.7774V16.1955C135.663 16.1955 135.822 16.0368 135.822 15.841V15.132Z" fill="#2A2A34"/>
<path fill-rule="evenodd" clip-rule="evenodd" d="M117.563 13.7139H117.209C117.013 13.7139 116.854 13.8726 116.854 14.0684V16.9045C116.854 17.1003 117.013 17.259 117.209 17.259H117.563C117.759 17.259 117.918 17.1003 117.918 16.9045V14.0684C117.918 13.8726 117.759 13.7139 117.563 13.7139ZM115.968 14.4229H115.614C115.418 14.4229 115.259 14.5816 115.259 14.7774V16.9045C115.259 17.1003 115.418 17.259 115.614 17.259H115.968C116.164 17.259 116.323 17.1003 116.323 16.9045V14.7774C116.323 14.5816 116.164 14.4229 115.968 14.4229ZM114.018 15.1319H114.373C114.568 15.1319 114.727 15.2906 114.727 15.4864V16.9045C114.727 17.1003 114.568 17.259 114.373 17.259H114.018C113.822 17.259 113.664 17.1003 113.664 16.9045V15.4864C113.664 15.2906 113.822 15.1319 114.018 15.1319ZM112.777 15.6637H112.423C112.227 15.6637 112.068 15.8224 112.068 16.0182V16.9045C112.068 17.1003 112.227 17.259 112.423 17.259H112.777C112.973 17.259 113.132 17.1003 113.132 16.9045V16.0182C113.132 15.8224 112.973 15.6637 112.777 15.6637ZM122.751 16.174C122.978 16.174 123.198 16.2336 123.392 16.3472L123.471 16.3932C123.53 16.4281 123.541 16.5098 123.492 16.5585L122.82 17.2281C122.779 17.2693 122.712 17.2693 122.671 17.2281L122.004 16.5628C121.955 16.5143 121.965 16.433 122.024 16.3979L122.102 16.3516C122.298 16.2352 122.521 16.174 122.751 16.174ZM124.297 15.4775C123.856 15.131 123.315 14.9439 122.751 14.9439C122.184 14.9439 121.64 15.1329 121.198 15.4824L121.136 15.5314C121.087 15.5705 121.082 15.6439 121.127 15.6884L121.528 16.088C121.565 16.1251 121.624 16.1293 121.666 16.0978L121.715 16.0611C122.014 15.8372 122.375 15.7169 122.751 15.7169C123.124 15.7169 123.484 15.8357 123.782 16.0571L123.83 16.0934C123.872 16.1247 123.931 16.1204 123.968 16.0834L124.369 15.6837C124.414 15.6391 124.409 15.5655 124.36 15.5265L124.297 15.4775ZM122.751 13.7139C123.646 13.7139 124.502 14.0296 125.179 14.6083L125.237 14.6577C125.284 14.6976 125.287 14.7688 125.243 14.8121L124.844 15.2106C124.805 15.2492 124.743 15.2519 124.701 15.2168L124.652 15.1755C124.118 14.7295 123.45 14.4868 122.751 14.4868C122.05 14.4868 121.379 14.7311 120.845 15.1799L120.795 15.2215C120.753 15.2568 120.691 15.2541 120.653 15.2154L120.253 14.817C120.21 14.7737 120.212 14.7027 120.259 14.6627L120.317 14.6133C120.995 14.0315 121.853 13.7139 122.751 13.7139ZM128.022 14.0684C127.826 14.0684 127.667 14.2271 127.667 14.4229V16.55C127.667 16.7458 127.826 16.9045 128.022 16.9045H134.048C134.244 16.9045 134.403 16.7458 134.403 16.55V14.4229C134.403 14.2271 134.244 14.0684 134.048 14.0684H128.022Z" fill="#2A2A34"/>
<path d="M21.2655 17.2905C22.2184 17.2905 22.7845 16.5453 22.7845 15.2834C22.7845 14.8082 22.6936 14.4084 22.5196 14.0994C22.2678 13.619 21.8342 13.3594 21.2863 13.3594C20.471 13.3594 19.8945 13.9072 19.8945 14.6758C19.8945 15.3977 20.4138 15.9222 21.1279 15.9222C21.5667 15.9222 21.9224 15.717 22.099 15.3613H22.1068C22.1068 15.3613 22.1172 15.3613 22.1198 15.3613C22.125 15.3613 22.1431 15.3613 22.1431 15.3613C22.1431 16.2182 21.8186 16.7297 21.2707 16.7297C20.9487 16.7297 20.6995 16.5531 20.6138 16.2701H19.9465C20.0581 16.8855 20.58 17.2905 21.2655 17.2905ZM21.2889 15.3899C20.8578 15.3899 20.5515 15.0835 20.5515 14.6551C20.5515 14.237 20.8734 13.9176 21.2915 13.9176C21.7095 13.9176 22.0315 14.2422 22.0315 14.6654C22.0315 15.0835 21.7173 15.3899 21.2889 15.3899Z" fill="#2A2A34"/>
<path d="M23.8803 17.2542C24.127 17.2542 24.2958 17.0776 24.2958 16.8439C24.2958 16.6077 24.127 16.4337 23.8803 16.4337C23.6363 16.4337 23.4649 16.6077 23.4649 16.8439C23.4649 17.0776 23.6363 17.2542 23.8803 17.2542ZM23.8803 15.3068C24.127 15.3068 24.2958 15.1328 24.2958 14.8991C24.2958 14.6628 24.127 14.4889 23.8803 14.4889C23.6363 14.4889 23.4649 14.6628 23.4649 14.8991C23.4649 15.1328 23.6363 15.3068 23.8803 15.3068Z" fill="#2A2A34"/>
<path d="M26.7263 17.1997H27.3676V16.5012H27.8739V15.9351H27.3676V13.4529H26.4225C25.7603 14.4499 25.2332 15.2834 24.8957 15.904V16.5012H26.7263V17.1997ZM25.5163 15.9118C25.9525 15.1432 26.342 14.5278 26.7003 13.9981H26.7366V15.9507H25.5163V15.9118Z" fill="#2A2A34"/>
<path d="M29.3021 17.1997H29.972V13.4529H29.3047L28.3258 14.1383V14.7823L29.258 14.128H29.3021V17.1997Z" fill="#2A2A34"/>
</g>
</g>
<path fill-rule="evenodd" clip-rule="evenodd" d="M1.02288 37.1121C1.02288 24.318 1.02288 17.921 3.51277 13.0343C5.70294 8.73584 9.19769 5.24109 13.4961 3.05093C18.3828 0.561035 24.7799 0.561035 37.5739 0.561035H111.085C123.879 0.561035 130.276 0.561035 135.163 3.05093C139.461 5.24109 142.956 8.73584 145.146 13.0343C147.636 17.921 147.636 24.318 147.636 37.1121V90.5748H148.318C148.695 90.5748 149 90.8801 149 91.2567V126.035C149 126.411 148.695 126.717 148.318 126.717H147.636V265.42C147.636 278.214 147.636 284.611 145.146 289.497C142.956 293.796 139.461 297.291 135.163 299.481C130.276 301.971 123.879 301.971 111.085 301.971H37.5739C24.7799 301.971 18.3828 301.971 13.4961 299.481C9.19769 297.291 5.70294 293.796 3.51277 289.497C1.02288 284.611 1.02288 278.214 1.02288 265.42V133.877H0.681922C0.305307 133.877 0 133.572 0 133.195V112.737C0 112.361 0.305307 112.055 0.681922 112.055H1.02288V104.895H0.681922C0.305307 104.895 0 104.59 0 104.213V83.7555C0 83.3789 0.305307 83.0736 0.681922 83.0736H1.02288V72.1629H0.681922C0.305307 72.1629 0 71.8576 0 71.4809V61.934C0 61.5574 0.305307 61.2521 0.681922 61.2521H1.02288V37.1121ZM7.84211 33.0205C7.84211 24.0456 7.84211 19.5581 9.58875 16.1302C11.1251 13.1148 13.5767 10.6633 16.592 9.1269C20.02 7.38026 24.5074 7.38026 33.4824 7.38026H45.3478C46.2894 7.38026 47.0526 8.14352 47.0526 9.08506V11.4718C47.0526 15.6146 50.411 18.9729 54.5538 18.9729H94.4462C98.589 18.9729 101.947 15.6146 101.947 11.4718V9.08506C101.947 8.14352 102.711 7.38026 103.652 7.38026H115.177C124.152 7.38026 128.639 7.38026 132.067 9.1269C135.082 10.6633 137.534 13.1148 139.07 16.1302C140.817 19.5581 140.817 24.0456 140.817 33.0205V269.511C140.817 278.486 140.817 282.974 139.07 286.402C137.534 289.417 135.082 291.868 132.067 293.405C128.639 295.151 124.152 295.151 115.177 295.151H33.4824C24.5074 295.151 20.02 295.151 16.592 293.405C13.5767 291.868 11.1251 289.417 9.58875 286.402C7.84211 282.974 7.84211 278.486 7.84211 269.511V33.0205Z" fill="#1B1B1D"/>
<ellipse cx="54.5555" cy="11.1311" rx="2.04577" ry="2.04577" fill="#444445"/>
<defs>
<linearGradient id="paint0_linear_6689_41962" x1="106.134" y1="83.1085" x2="106.134" y2="98.6169" gradientUnits="userSpaceOnUse">
<stop stop-color="#FFECED" stop-opacity="0.301961"/>
<stop offset="1" stop-color="#F2F7FC" stop-opacity="0.301961"/>
</linearGradient>
<linearGradient id="paint1_linear_6689_41962" x1="121.651" y1="73.6944" x2="143.386" y2="85.652" gradientUnits="userSpaceOnUse">
<stop stop-color="#FFECED"/>
<stop offset="1" stop-color="#F2F7FC"/>
</linearGradient>
<linearGradient id="paint2_linear_6689_41962" x1="130.023" y1="122.634" x2="130.023" y2="176.325" gradientUnits="userSpaceOnUse">
<stop stop-color="#FFECED" stop-opacity="0.301961"/>
<stop offset="1" stop-color="#F2F7FC" stop-opacity="0.301961"/>
</linearGradient>
<linearGradient id="paint3_linear_6689_41962" x1="80.6253" y1="122.634" x2="151.323" y2="194.045" gradientUnits="userSpaceOnUse">
<stop stop-color="#FFECED"/>
<stop offset="1" stop-color="#F2F7FC"/>
</linearGradient>
<linearGradient id="paint4_linear_6689_41962" x1="15.6724" y1="0" x2="15.6724" y2="15.5084" gradientUnits="userSpaceOnUse">
<stop stop-color="#FFECED" stop-opacity="0.301961"/>
<stop offset="1" stop-color="#F2F7FC" stop-opacity="0.301961"/>
</linearGradient>
<linearGradient id="paint5_linear_6689_41962" x1="114.634" y1="200.342" x2="114.634" y2="215.85" gradientUnits="userSpaceOnUse">
<stop stop-color="#FFECED" stop-opacity="0.301961"/>
<stop offset="1" stop-color="#F2F7FC" stop-opacity="0.301961"/>
</linearGradient>
<linearGradient id="paint6_linear_6689_41962" x1="116.852" y1="195.628" x2="139.855" y2="202.165" gradientUnits="userSpaceOnUse">
<stop stop-color="#FFECED"/>
<stop offset="1" stop-color="#F2F7FC"/>
</linearGradient>
<linearGradient id="paint7_linear_6689_41962" x1="103.634" y1="239.867" x2="103.634" y2="255.376" gradientUnits="userSpaceOnUse">
<stop stop-color="#FFECED" stop-opacity="0.301961"/>
<stop offset="1" stop-color="#F2F7FC" stop-opacity="0.301961"/>
</linearGradient>
<linearGradient id="paint8_linear_6689_41962" x1="121.651" y1="230.453" x2="143.386" y2="242.411" gradientUnits="userSpaceOnUse">
<stop stop-color="#FFECED"/>
<stop offset="1" stop-color="#F2F7FC"/>
</linearGradient>
<clipPath id="clip0_6689_41962">
<rect x="7.8418" y="7.3324" width="132.975" height="287.867" rx="15.9491" fill="white"/>
</clipPath>
<clipPath id="clip1_6689_41962">
<path d="M7.8418 26.4764C7.8418 24.5185 9.42901 22.9313 11.3869 22.9313H137.297C139.255 22.9313 140.842 24.5185 140.842 26.4764H7.8418Z" fill="white"/>
</clipPath>
<clipPath id="clip2_6689_41962">
<rect x="75.5039" y="125.445" width="46.8982" height="46.8982" rx="2.9131" fill="white"/>
</clipPath>
<clipPath id="clip3_6689_41962">
<rect width="132.943" height="15.5987" fill="white" transform="translate(7.8418 7.33264)"/>
</clipPath>
</defs>
</svg>
