<svg width="149" height="302" viewBox="0 0 149 302" fill="none" xmlns="http://www.w3.org/2000/svg">
<g clip-path="url(#clip0_797_29873)">
<rect x="7.8418" y="7.3324" width="132.975" height="287.867" rx="15.9491" fill="#FDFDFD"/>
<rect width="132.943" height="287.867" transform="translate(7.8418 7.3324)" fill="#F9F9F9"/>
<rect width="133" height="8.50836" transform="translate(7.8418 22.9313)" fill="black"/>
<g clip-path="url(#clip1_797_29873)">
<g opacity="0.8">
<path d="M13.5137 26.4764C13.5137 24.5185 15.1009 22.9313 17.0588 22.9313H131.624C133.582 22.9313 135.169 24.5185 135.169 26.4764H13.5137Z" fill="white"/>
</g>
</g>
<path d="M7.8418 31.4397C7.8418 30.1199 7.8418 29.4601 8.01531 28.9261C8.36599 27.8468 9.21216 27.0006 10.2914 26.65C10.8255 26.4764 11.4853 26.4764 12.805 26.4764H135.879C137.198 26.4764 137.858 26.4764 138.392 26.65C139.471 27.0006 140.318 27.8468 140.668 28.9261C140.842 29.4601 140.842 30.1199 140.842 31.4397H7.8418Z" fill="#F9F9F9"/>
<rect width="133" height="15.5987" transform="translate(7.8418 7.33264)" fill="black"/>
<rect x="124.477" y="31.0851" width="10.6355" height="10.6355" rx="5.31773" fill="#F2F7FC"/>
<mask id="mask0_797_29873" style="mask-type:alpha" maskUnits="userSpaceOnUse" x="126" y="33" width="7" height="6">
<path d="M128.974 36.0851L127.807 34.9177C127.669 34.7792 127.669 34.5548 127.807 34.4163C127.945 34.2779 128.17 34.2779 128.308 34.4163L129.476 35.5837L130.643 34.4163C130.782 34.2779 131.006 34.2779 131.144 34.4163C131.283 34.5548 131.283 34.7792 131.144 34.9177L129.977 36.0851L131.144 37.2525C131.283 37.3909 131.283 37.6154 131.144 37.7538C131.006 37.8923 130.782 37.8923 130.643 37.7538L129.476 36.5864L128.308 37.7538C128.17 37.8923 127.945 37.8923 127.807 37.7538C127.669 37.6154 127.669 37.3909 127.807 37.2525L128.974 36.0851Z" fill="black"/>
</mask>
<g mask="url(#mask0_797_29873)">
<rect x="126.641" y="33.2489" width="5.67224" height="5.67224" fill="#A5A5BB"/>
</g>
<path d="M15.8735 54.8859C13.5803 54.8859 12.1234 53.3017 12.1234 50.7481V50.7425C12.1234 48.1889 13.5803 46.6157 15.8735 46.6157C17.7126 46.6157 19.0697 47.7624 19.2747 49.3909L19.2858 49.4463H17.8788L17.8511 49.3411C17.6184 48.4271 16.9205 47.8565 15.8735 47.8565C14.4776 47.8565 13.5858 48.9699 13.5858 50.7425V50.7481C13.5858 52.5262 14.4832 53.6451 15.8735 53.6451C16.8983 53.6451 17.6073 53.0967 17.8732 52.1107L17.8843 52.0553H19.2858L19.2802 52.1107C19.0697 53.7504 17.7126 54.8859 15.8735 54.8859ZM22.9195 54.8638C21.1913 54.8638 20.0779 53.7116 20.0779 51.8116V51.8005C20.0779 49.9172 21.2079 48.7539 22.9195 48.7539C24.6256 48.7539 25.7612 49.9061 25.7612 51.8005V51.8116C25.7612 53.7171 24.6423 54.8638 22.9195 54.8638ZM22.9251 53.7504C23.8003 53.7504 24.3598 53.0413 24.3598 51.8116V51.8005C24.3598 50.5763 23.7892 49.8729 22.9195 49.8729C22.0554 49.8729 21.4849 50.5819 21.4849 51.8005V51.8116C21.4849 53.0469 22.0499 53.7504 22.9251 53.7504ZM28.9851 54.8638C27.5393 54.8638 26.5866 54.1935 26.4647 53.0856L26.4591 53.0413H27.7886L27.8052 53.0967C27.9326 53.5565 28.3425 53.7947 28.9795 53.7947C29.6664 53.7947 30.0929 53.4956 30.0929 53.0081V52.997C30.0929 52.4819 29.7218 52.2326 28.9684 52.2326H28.1431V51.302H28.9574C29.6221 51.302 29.9544 51.0527 29.9544 50.5708V50.5597C29.9544 50.0944 29.6055 49.823 29.0128 49.823C28.409 49.823 28.0102 50.0778 27.9215 50.5154L27.916 50.5542H26.6142L26.6198 50.5154C26.7638 49.3965 27.6446 48.7539 29.0405 48.7539C30.4474 48.7539 31.3005 49.3799 31.3005 50.3991V50.4102C31.3005 51.0361 30.8961 51.5236 30.2425 51.6676V51.7119C31.0346 51.867 31.4611 52.3323 31.4611 53.0247V53.0358C31.4611 54.1381 30.4807 54.8638 28.9851 54.8638ZM33.2116 56.3261H31.9486V53.6673H32.4139C32.846 53.4125 33.0232 52.7311 33.0786 51.939L33.2836 48.8758H37.7482V53.6673H38.6456V56.3261H37.3826V54.7474H33.2116V56.3261ZM36.369 53.6673V49.9559H34.4579L34.3083 52.011C34.264 52.6813 34.1311 53.2463 33.8486 53.6396V53.6673H36.369ZM41.1494 54.8471C39.9695 54.8471 39.1774 54.1215 39.1774 53.0746V53.0635C39.1774 52.0221 39.9917 51.3962 41.4097 51.3075L42.9441 51.2134V50.809C42.9441 50.2163 42.5563 49.8562 41.8639 49.8562C41.2103 49.8562 40.8059 50.1609 40.7173 50.593L40.7062 50.6428H39.4266L39.4322 50.5763C39.5208 49.535 40.4182 48.7539 41.9082 48.7539C43.3817 48.7539 44.3234 49.5294 44.3234 50.7093V54.7474H42.9441V53.8445H42.9164C42.573 54.4594 41.9193 54.8471 41.1494 54.8471ZM40.5567 53.0192C40.5567 53.5011 40.95 53.7947 41.5593 53.7947C42.3514 53.7947 42.9441 53.2684 42.9441 52.5705V52.1273L41.6036 52.2104C40.9278 52.2548 40.5567 52.5483 40.5567 53.0136V53.0192ZM49.3808 54.7474V52.2603H46.9102V54.7474H45.531V48.8758H46.9102V51.1912H49.3808V48.8758H50.76V54.7474H49.3808ZM51.9898 54.7474V48.8758H53.3524V52.7921H53.4078L55.9393 48.8758H57.2909V54.7474H55.9282V50.8035H55.8728L53.3414 54.7474H51.9898ZM61.1019 54.8638C59.3404 54.8638 58.2769 53.695 58.2769 51.8282V51.8227C58.2769 49.9726 59.357 48.7539 61.0354 48.7539C62.7194 48.7539 63.7608 49.9338 63.7608 51.7064V52.1495H59.6506C59.6672 53.1798 60.2322 53.7891 61.1296 53.7891C61.822 53.7891 62.2652 53.4235 62.3981 53.0303L62.4092 52.9915H63.6998L63.6888 53.0524C63.5004 53.9553 62.6363 54.8638 61.1019 54.8638ZM61.0521 49.8341C60.3264 49.8341 59.7725 50.3271 59.6672 51.23H62.4147C62.315 50.2994 61.7833 49.8341 61.0521 49.8341Z" fill="#2A2A34"/>
<path d="M20.6279 78.8413C18.9426 78.8412 17.4111 78.1869 16.2705 77.1196C15.1439 77.8663 13.8899 78.4514 12.5293 78.8306C12.499 78.839 12.4678 78.8458 12.4375 78.854C13.3735 77.4348 14.065 75.8258 14.459 74.0952C14.3211 73.5734 14.2471 73.0256 14.2471 72.4604V69.7271C14.2473 66.2031 17.104 63.3464 20.6279 63.3462V78.8413Z" fill="#F2F7FC"/>
<path d="M20.6289 63.3459H105.268C109.183 63.3459 112.358 66.5204 112.358 70.4362V71.764C112.358 75.6799 109.183 78.8543 105.268 78.8543H20.6289V63.3459Z" fill="#F2F7FC"/>
<path d="M21.075 72.6001V68.8533H22.4953C23.1367 68.8533 23.5703 69.2272 23.5703 69.788V69.7932C23.5703 70.1801 23.2795 70.5566 22.8926 70.6111V70.6215C23.4327 70.6838 23.7599 71.0474 23.7599 71.5433V71.5485C23.7599 72.208 23.2873 72.6001 22.4901 72.6001H21.075ZM22.3889 69.2661H21.5424V70.4683H22.2435C22.7965 70.4683 23.0977 70.2476 23.0977 69.8426V69.8374C23.0977 69.4687 22.8407 69.2661 22.3889 69.2661ZM22.3759 70.8708H21.5424V72.1872H22.42C22.9809 72.1872 23.2795 71.9613 23.2795 71.5303V71.5251C23.2795 71.0915 22.9731 70.8708 22.3759 70.8708ZM24.2688 72.6001V69.8997H24.7206V70.7617H25.2269C25.8449 70.7617 26.2422 71.1175 26.2422 71.6783V71.6835C26.2422 72.2444 25.8449 72.6001 25.2269 72.6001H24.2688ZM26.5849 72.6001V69.8997H27.0367V72.6001H26.5849ZM25.2191 71.1356H24.7206V72.2262H25.2191C25.5645 72.2262 25.78 72.0107 25.78 71.6835V71.6783C25.78 71.3486 25.5619 71.1356 25.2191 71.1356ZM28.8283 72.652C28 72.652 27.5638 72.0938 27.5638 71.0214V71.0162C27.5638 69.5284 27.9585 68.9104 29.0075 68.8689L29.2074 68.8611C29.4671 68.8507 29.7579 68.7962 29.9111 68.7157V69.1103C29.8254 69.1882 29.5398 69.2557 29.2282 69.2687L29.0282 69.2765C28.2882 69.3051 28.0623 69.6245 27.9507 70.406L27.9455 70.4424H27.9559C28.135 70.123 28.4752 69.9568 28.8958 69.9568C29.6255 69.9568 30.0902 70.4709 30.0902 71.2733V71.2785C30.0902 72.1275 29.6099 72.652 28.8283 72.652ZM28.8283 72.2522C29.3346 72.2522 29.6281 71.899 29.6281 71.2785V71.2733C29.6281 70.6864 29.3346 70.3567 28.8283 70.3567C28.3194 70.3567 28.026 70.6864 28.026 71.2733V71.2785C28.026 71.899 28.3194 72.2522 28.8283 72.2522ZM31.7079 72.652C30.9315 72.652 30.4641 72.1094 30.4641 71.2603V71.2577C30.4641 70.4216 30.9419 69.8478 31.6793 69.8478C32.4167 69.8478 32.8659 70.3956 32.8659 71.2058V71.3719H30.9211C30.9315 71.9276 31.2379 72.2522 31.7183 72.2522C32.061 72.2522 32.3025 72.0808 32.3804 71.8497L32.3882 71.8263H32.8322L32.827 71.8523C32.7387 72.2989 32.2973 72.652 31.7079 72.652ZM31.6767 70.2476C31.2846 70.2476 30.9783 70.5151 30.9289 71.0188H32.4064C32.3622 70.4943 32.0714 70.2476 31.6767 70.2476ZM33.3749 73.5089V69.8997H33.8267V70.3567H33.8371C34.0058 70.0425 34.307 69.8478 34.6939 69.8478C35.3846 69.8478 35.8416 70.3982 35.8416 71.2499V71.2525C35.8416 72.1042 35.3794 72.652 34.7017 72.652C34.32 72.652 34.0058 72.4599 33.8371 72.1483H33.8267V73.5089H33.3749ZM34.6056 72.2522C35.0834 72.2522 35.3794 71.8679 35.3794 71.2525V71.2499C35.3794 70.6293 35.0834 70.2476 34.6056 70.2476C34.1486 70.2476 33.8241 70.6449 33.8241 71.2499V71.2525C33.8241 71.8549 34.1512 72.2522 34.6056 72.2522ZM36.3479 72.6001V69.8997H36.7997V71.9068H36.8205L38.1655 69.8997H38.6121V72.6001H38.1603V70.593H38.1395L36.7945 72.6001H36.3479ZM41.2216 69.8997V70.2736H40.3518V72.6001H39.9V70.2736H39.0301V69.8997H41.2216ZM42.7017 72.652C41.9253 72.652 41.4579 72.1094 41.4579 71.2603V71.2577C41.4579 70.4216 41.9357 69.8478 42.6731 69.8478C43.4105 69.8478 43.8597 70.3956 43.8597 71.2058V71.3719H41.9149C41.9253 71.9276 42.2317 72.2522 42.712 72.2522C43.0548 72.2522 43.2963 72.0808 43.3742 71.8497L43.382 71.8263H43.826L43.8208 71.8523C43.7325 72.2989 43.2911 72.652 42.7017 72.652ZM42.6705 70.2476C42.2784 70.2476 41.972 70.5151 41.9227 71.0188H43.4001C43.356 70.4943 43.0652 70.2476 42.6705 70.2476ZM47.4326 69.8997V70.2736H46.5627V72.6001H46.1109V70.2736H45.2411V69.8997H47.4326ZM47.8506 72.6001V69.8997H48.3024V71.9068H48.3232L49.6682 69.8997H50.1148V72.6001H49.663V70.593H49.6422L48.2972 72.6001H47.8506ZM50.7484 72.6001V69.8997H52.9502V72.6001H52.4958V70.2736H51.2002V72.6001H50.7484ZM55.796 72.652C55.0301 72.652 54.5445 72.1068 54.5445 71.2473V71.2447C54.5445 70.393 55.0404 69.8478 55.7908 69.8478C56.4634 69.8478 56.8606 70.2944 56.9177 70.7566L56.9203 70.7773H56.4789L56.4737 70.7566C56.4062 70.4865 56.1881 70.2476 55.7908 70.2476C55.3209 70.2476 55.0067 70.6371 55.0067 71.2499V71.2525C55.0067 71.8809 55.3287 72.2522 55.796 72.2522C56.1648 72.2522 56.401 72.0444 56.4763 71.7432L56.4815 71.7225H56.9255L56.9229 71.7406C56.8502 72.2548 56.4062 72.652 55.796 72.652ZM58.512 72.652C57.7616 72.652 57.2605 72.1094 57.2605 71.2499V71.2447C57.2605 70.3852 57.7642 69.8478 58.5094 69.8478C59.2546 69.8478 59.761 70.3826 59.761 71.2447V71.2499C59.761 72.1119 59.2572 72.652 58.512 72.652ZM58.5146 72.2522C58.9898 72.2522 59.2988 71.8835 59.2988 71.2499V71.2447C59.2988 70.6111 58.9872 70.2476 58.5094 70.2476C58.0395 70.2476 57.7227 70.6137 57.7227 71.2447V71.2499C57.7227 71.886 58.0369 72.2522 58.5146 72.2522ZM61.1683 72.652C60.5815 72.652 60.1582 72.3612 60.1037 71.9198L60.1011 71.899H60.5581L60.5659 71.925C60.6308 72.1509 60.8463 72.2781 61.1683 72.2781C61.5422 72.2781 61.7785 72.1068 61.7785 71.8341V71.8289C61.7785 71.5407 61.5811 71.4057 61.1683 71.4057H60.7632V71.0318H61.1683C61.5266 71.0318 61.7058 70.8968 61.7058 70.6293V70.6241C61.7058 70.3723 61.5162 70.2217 61.1969 70.2217C60.8879 70.2217 60.662 70.3593 60.6204 70.5696L60.6178 70.5826H60.179L60.1816 70.5644C60.2439 70.1282 60.636 69.8478 61.1969 69.8478C61.7863 69.8478 62.1472 70.1308 62.1472 70.5878V70.593C62.1472 70.8812 61.9576 71.1227 61.6824 71.185V71.2058C62.0303 71.2811 62.2225 71.4966 62.2225 71.8082V71.8133C62.2225 72.3145 61.7993 72.652 61.1683 72.652ZM62.8924 73.3401H62.4718V72.2262H62.6977C62.895 72.0964 62.9911 71.7614 63.017 71.3979L63.1209 69.8997H64.98V72.2262H65.4085V73.3401H64.9878V72.6001H62.8924V73.3401ZM64.5282 72.2262V70.2736H63.5182L63.4351 71.4083C63.4117 71.7484 63.3416 72.0418 63.2066 72.2158V72.2262H64.5282ZM66.6055 72.652C66.068 72.652 65.7071 72.3275 65.7071 71.8367V71.8315C65.7071 71.3719 66.0654 71.0837 66.686 71.0474L67.4597 71.0032V70.7773C67.4597 70.4476 67.2442 70.2476 66.8677 70.2476C66.5198 70.2476 66.3017 70.4138 66.2497 70.6553L66.2445 70.6787H65.8083L65.8109 70.6501C65.8499 70.2061 66.2368 69.8478 66.8729 69.8478C67.5117 69.8478 67.9115 70.1931 67.9115 70.7332V72.6001H67.4597V72.1613H67.4493C67.291 72.4573 66.9664 72.652 66.6055 72.652ZM66.1692 71.8367C66.1692 72.0964 66.3822 72.26 66.7067 72.26C67.1326 72.26 67.4597 71.9665 67.4597 71.5745V71.3538L66.7379 71.3979C66.377 71.4187 66.1692 71.5797 66.1692 71.8315V71.8367ZM68.5347 72.6001V69.8997H69.6902C70.1965 69.8997 70.5055 70.1671 70.5055 70.5956V70.6008C70.5055 70.8786 70.3107 71.133 70.0615 71.185V71.2058C70.4016 71.2525 70.6249 71.4914 70.6249 71.8211V71.8263C70.6249 72.3015 70.2718 72.6001 69.6979 72.6001H68.5347ZM68.9865 71.0292H69.5551C69.8953 71.0292 70.0563 70.9071 70.0563 70.6475V70.6423C70.0563 70.4008 69.9057 70.2736 69.6226 70.2736H68.9865V71.0292ZM68.9865 72.2262H69.659C69.9862 72.2262 70.1627 72.086 70.1627 71.8159V71.8107C70.1627 71.5329 69.9732 71.4031 69.5785 71.4031H68.9865V72.2262ZM71.9336 72.652C71.3961 72.652 71.0352 72.3275 71.0352 71.8367V71.8315C71.0352 71.3719 71.3935 71.0837 72.0141 71.0474L72.7878 71.0032V70.7773C72.7878 70.4476 72.5723 70.2476 72.1958 70.2476C71.8479 70.2476 71.6298 70.4138 71.5778 70.6553L71.5727 70.6787H71.1364L71.139 70.6501C71.178 70.2061 71.5649 69.8478 72.201 69.8478C72.8398 69.8478 73.2396 70.1931 73.2396 70.7332V72.6001H72.7878V72.1613H72.7775C72.6191 72.4573 72.2945 72.652 71.9336 72.652ZM71.4974 71.8367C71.4974 72.0964 71.7103 72.26 72.0348 72.26C72.4607 72.26 72.7878 71.9665 72.7878 71.5745V71.3538L72.066 71.3979C71.7051 71.4187 71.4974 71.5797 71.4974 71.8315V71.8367ZM74.9767 72.652C74.2004 72.652 73.733 72.1094 73.733 71.2603V71.2577C73.733 70.4216 74.2107 69.8478 74.9482 69.8478C75.6856 69.8478 76.1348 70.3956 76.1348 71.2058V71.3719H74.19C74.2004 71.9276 74.5068 72.2522 74.9871 72.2522C75.3299 72.2522 75.5713 72.0808 75.6492 71.8497L75.657 71.8263H76.101L76.0958 71.8523C76.0076 72.2989 75.5661 72.652 74.9767 72.652ZM74.9456 70.2476C74.5535 70.2476 74.2471 70.5151 74.1978 71.0188H75.6752C75.6311 70.4943 75.3402 70.2476 74.9456 70.2476ZM77.0929 72.6001H76.6411V69.8997H77.1942L78.1497 72.0029H78.1705L79.1338 69.8997H79.6635V72.6001H79.2117V70.6838H79.1935L78.3237 72.5222H77.9783L77.1111 70.6838H77.0929V72.6001ZM81.4188 72.652C80.6684 72.652 80.1672 72.1094 80.1672 71.2499V71.2447C80.1672 70.3852 80.671 69.8478 81.4162 69.8478C82.1614 69.8478 82.6677 70.3826 82.6677 71.2447V71.2499C82.6677 72.1119 82.164 72.652 81.4188 72.652ZM81.4214 72.2522C81.8965 72.2522 82.2055 71.8835 82.2055 71.2499V71.2447C82.2055 70.6111 81.8939 70.2476 81.4162 70.2476C80.9462 70.2476 80.6294 70.6137 80.6294 71.2447V71.2499C80.6294 71.886 80.9436 72.2522 81.4214 72.2522ZM84.9111 70.2736H83.6258V72.6001H83.174V69.8997H84.9111V70.2736ZM86.4197 72.652C85.6693 72.652 85.1682 72.1094 85.1682 71.2499V71.2447C85.1682 70.3852 85.6719 69.8478 86.4171 69.8478C87.1623 69.8478 87.6686 70.3826 87.6686 71.2447V71.2499C87.6686 72.1119 87.1649 72.652 86.4197 72.652ZM86.4223 72.2522C86.8975 72.2522 87.2065 71.8835 87.2065 71.2499V71.2447C87.2065 70.6111 86.8949 70.2476 86.4171 70.2476C85.9471 70.2476 85.6304 70.6137 85.6304 71.2447V71.2499C85.6304 71.886 85.9445 72.2522 86.4223 72.2522ZM90.3872 72.652C89.6212 72.652 89.1357 72.1068 89.1357 71.2473V71.2447C89.1357 70.393 89.6316 69.8478 90.382 69.8478C91.0545 69.8478 91.4518 70.2944 91.5089 70.7566L91.5115 70.7773H91.0701L91.0649 70.7566C90.9974 70.4865 90.7793 70.2476 90.382 70.2476C89.9121 70.2476 89.5979 70.6371 89.5979 71.2499V71.2525C89.5979 71.8809 89.9198 72.2522 90.3872 72.2522C90.7559 72.2522 90.9922 72.0444 91.0675 71.7432L91.0727 71.7225H91.5167L91.5141 71.7406C91.4414 72.2548 90.9974 72.652 90.3872 72.652ZM92.7735 72.652C92.236 72.652 91.875 72.3275 91.875 71.8367V71.8315C91.875 71.3719 92.2334 71.0837 92.8539 71.0474L93.6277 71.0032V70.7773C93.6277 70.4476 93.4122 70.2476 93.0357 70.2476C92.6878 70.2476 92.4697 70.4138 92.4177 70.6553L92.4125 70.6787H91.9763L91.9789 70.6501C92.0179 70.2061 92.4047 69.8478 93.0409 69.8478C93.6796 69.8478 94.0795 70.1931 94.0795 70.7332V72.6001H93.6277V72.1613H93.6173C93.4589 72.4573 93.1344 72.652 92.7735 72.652ZM92.3372 71.8367C92.3372 72.0964 92.5501 72.26 92.8747 72.26C93.3006 72.26 93.6277 71.9665 93.6277 71.5745V71.3538L92.9059 71.3979C92.545 71.4187 92.3372 71.5797 92.3372 71.8315V71.8367ZM95.4531 71.4109C95.396 72.1561 95.222 72.6261 94.6482 72.6261C94.5625 72.6261 94.495 72.6131 94.4586 72.6001V72.1924C94.482 72.2002 94.5313 72.2106 94.6014 72.2106C94.8896 72.2106 94.9883 71.8964 95.0247 71.4005L95.1311 69.8997H97.0292V72.6001H96.5774V70.2736H95.5388L95.4531 71.4109ZM98.7897 72.652C98.0393 72.652 97.5381 72.1094 97.5381 71.2499V71.2447C97.5381 70.3852 98.0418 69.8478 98.7871 69.8478C99.5323 69.8478 100.039 70.3826 100.039 71.2447V71.2499C100.039 72.1119 99.5349 72.652 98.7897 72.652ZM98.7922 72.2522C99.2674 72.2522 99.5764 71.8835 99.5764 71.2499V71.2447C99.5764 70.6111 99.2648 70.2476 98.7871 70.2476C98.3171 70.2476 98.0003 70.6137 98.0003 71.2447V71.2499C98.0003 71.886 98.3145 72.2522 98.7922 72.2522ZM102.318 72.6001V71.3875H100.997V72.6001H100.545V69.8997H100.997V71.0136H102.318V69.8997H102.77V72.6001H102.318ZM104.198 72.652C103.661 72.652 103.3 72.3275 103.3 71.8367V71.8315C103.3 71.3719 103.658 71.0837 104.279 71.0474L105.053 71.0032V70.7773C105.053 70.4476 104.837 70.2476 104.461 70.2476C104.113 70.2476 103.894 70.4138 103.843 70.6553L103.837 70.6787H103.401L103.404 70.6501C103.443 70.2061 103.83 69.8478 104.466 69.8478C105.104 69.8478 105.504 70.1931 105.504 70.7332V72.6001H105.053V72.1613H105.042C104.884 72.4573 104.559 72.652 104.198 72.652ZM103.762 71.8367C103.762 72.0964 103.975 72.26 104.3 72.26C104.725 72.26 105.053 71.9665 105.053 71.5745V71.3538L104.331 71.3979C103.97 71.4187 103.762 71.5797 103.762 71.8315V71.8367Z" fill="#2A2A34"/>
<path d="M127.998 83.1085H69.3594C65.4435 83.1085 62.2691 86.283 62.2691 90.1988V91.5266C62.2691 95.4424 65.4435 98.6169 69.3594 98.6169H127.998V83.1085Z" fill="url(#paint0_linear_797_29873)"/>
<path d="M68.3309 92.3627V88.6159H68.7931V91.5941H68.8087L70.8677 88.6159H71.3221V92.3627H70.8599V89.3948H70.8443L68.7853 92.3627H68.3309ZM73.8018 92.3627V91.1501H72.4802V92.3627H72.0284V89.6623H72.4802V90.7762H73.8018V89.6623H74.2536V92.3627H73.8018ZM75.043 93.1027H74.6223V91.9888H74.8482C75.0456 91.8589 75.1416 91.524 75.1676 91.1605L75.2715 89.6623H77.1306V91.9888H77.559V93.1027H77.1384V92.3627H75.043V93.1027ZM76.6788 91.9888V90.0362H75.6687L75.5856 91.1709C75.5623 91.511 75.4922 91.8044 75.3571 91.9784V91.9888H76.6788ZM77.9641 92.3627V89.6623H78.4159V91.6694H78.4366L79.7817 89.6623H80.2283V92.3627H79.7765V90.3555H79.7557L78.4107 92.3627H77.9641ZM80.8618 92.3627V89.6623H82.0173C82.5236 89.6623 82.8326 89.9297 82.8326 90.3581V90.3633C82.8326 90.6412 82.6379 90.8956 82.3886 90.9476V90.9683C82.7287 91.0151 82.952 91.2539 82.952 91.5837V91.5889C82.952 92.0641 82.5989 92.3627 82.0251 92.3627H80.8618ZM81.3136 90.7918H81.8823C82.2224 90.7918 82.3834 90.6697 82.3834 90.4101V90.4049C82.3834 90.1634 82.2328 90.0362 81.9498 90.0362H81.3136V90.7918ZM81.3136 91.9888H81.9861C82.3133 91.9888 82.4899 91.8486 82.4899 91.5785V91.5733C82.4899 91.2955 82.3003 91.1657 81.9056 91.1657H81.3136V91.9888ZM83.4688 92.3627V89.6623H83.9206V91.6694H83.9413L85.2863 89.6623H85.7329V92.3627H85.2811V90.3555H85.2604L83.9154 92.3627H83.4688ZM86.5197 93.1027H86.0991V91.9888H86.325C86.5223 91.8589 86.6184 91.524 86.6443 91.1605L86.7482 89.6623H88.6073V91.9888H89.0357V93.1027H88.6151V92.3627H86.5197V93.1027ZM88.1555 91.9888V90.0362H87.1455L87.0624 91.1709C87.039 91.511 86.9689 91.8044 86.8339 91.9784V91.9888H88.1555ZM89.6511 93.2715C89.5628 93.2715 89.4668 93.2611 89.4096 93.2507V92.882C89.4486 92.8898 89.5005 92.8976 89.5551 92.8976C89.8407 92.8976 89.9991 92.8249 90.1081 92.5185L90.1626 92.3653L89.1604 89.6623H89.6433L90.3885 91.9109H90.3989L91.1467 89.6623H91.6219L90.5677 92.5314C90.3756 93.0482 90.1393 93.2715 89.6511 93.2715ZM92.741 92.4146C92.2035 92.4146 91.8426 92.09 91.8426 91.5993V91.5941C91.8426 91.1345 92.2009 90.8463 92.8215 90.8099L93.5953 90.7658V90.5399C93.5953 90.2101 93.3798 90.0102 93.0033 90.0102C92.6553 90.0102 92.4372 90.1764 92.3853 90.4179L92.3801 90.4412H91.9439L91.9465 90.4127C91.9854 89.9687 92.3723 89.6103 93.0085 89.6103C93.6472 89.6103 94.0471 89.9557 94.0471 90.4958V92.3627H93.5953V91.9239H93.5849C93.4265 92.2199 93.1019 92.4146 92.741 92.4146ZM92.3048 91.5993C92.3048 91.8589 92.5177 92.0225 92.8423 92.0225C93.2681 92.0225 93.5953 91.7291 93.5953 91.337V91.1163L92.8734 91.1605C92.5125 91.1812 92.3048 91.3422 92.3048 91.5941V91.5993ZM95.4207 91.1735C95.3635 91.9187 95.1896 92.3886 94.6157 92.3886C94.53 92.3886 94.4625 92.3757 94.4262 92.3627V91.955C94.4495 91.9628 94.4989 91.9732 94.569 91.9732C94.8572 91.9732 94.9559 91.659 94.9922 91.1631L95.0987 89.6623H96.9968V92.3627H96.545V90.0362H95.5063L95.4207 91.1735ZM97.6355 92.3627V89.6623H98.0873V90.5243H98.5936C99.2116 90.5243 99.6089 90.88 99.6089 91.4409V91.4461C99.6089 92.0069 99.2116 92.3627 98.5936 92.3627H97.6355ZM98.5858 90.8982H98.0873V91.9888H98.5858C98.9312 91.9888 99.1467 91.7733 99.1467 91.4461V91.4409C99.1467 91.1111 98.9286 90.8982 98.5858 90.8982ZM101.876 92.3627V91.1501H100.554V92.3627H100.102V89.6623H100.554V90.7762H101.876V89.6623H102.327V92.3627H101.876ZM102.964 92.3627V89.6623H103.415V90.5243H103.922C104.54 90.5243 104.937 90.88 104.937 91.4409V91.4461C104.937 92.0069 104.54 92.3627 103.922 92.3627H102.964ZM105.28 92.3627V89.6623H105.732V92.3627H105.28ZM103.914 90.8982H103.415V91.9888H103.914C104.259 91.9888 104.475 91.7733 104.475 91.4461V91.4409C104.475 91.1111 104.257 90.8982 103.914 90.8982ZM107.528 89.3559C107.032 89.3559 106.739 89.0313 106.739 88.621V88.6133H107.11V88.6262C107.11 88.8573 107.251 89.0547 107.531 89.0547C107.801 89.0547 107.952 88.8573 107.952 88.6262V88.6133H108.323V88.621C108.323 89.0313 108.029 89.3559 107.528 89.3559ZM106.365 92.3627V89.6623H106.817V91.6694H106.838L108.183 89.6623H108.629V92.3627H108.177V90.3555H108.157L106.812 92.3627H106.365ZM110.805 92.3627H110.353V89.6623H110.906L111.862 91.7655H111.883L112.846 89.6623H113.376V92.3627H112.924V90.4464H112.906L112.036 92.2848H111.691L110.823 90.4464H110.805V92.3627ZM114.801 92.4146C114.264 92.4146 113.903 92.09 113.903 91.5993V91.5941C113.903 91.1345 114.261 90.8463 114.882 90.8099L115.656 90.7658V90.5399C115.656 90.2101 115.44 90.0102 115.064 90.0102C114.716 90.0102 114.497 90.1764 114.446 90.4179L114.44 90.4412H114.004L114.007 90.4127C114.046 89.9687 114.433 89.6103 115.069 89.6103C115.707 89.6103 116.107 89.9557 116.107 90.4958V92.3627H115.656V91.9239H115.645C115.487 92.2199 115.162 92.4146 114.801 92.4146ZM114.365 91.5993C114.365 91.8589 114.578 92.0225 114.903 92.0225C115.328 92.0225 115.656 91.7291 115.656 91.337V91.1163L114.934 91.1605C114.573 91.1812 114.365 91.3422 114.365 91.5941V91.5993ZM117.852 92.4146C117.086 92.4146 116.601 91.8693 116.601 91.0099V91.0073C116.601 90.1556 117.097 89.6103 117.847 89.6103C118.52 89.6103 118.917 90.0569 118.974 90.5191L118.977 90.5399H118.535L118.53 90.5191C118.462 90.2491 118.244 90.0102 117.847 90.0102C117.377 90.0102 117.063 90.3997 117.063 91.0125V91.0151C117.063 91.6434 117.385 92.0147 117.852 92.0147C118.221 92.0147 118.457 91.807 118.533 91.5058L118.538 91.485H118.982L118.979 91.5032C118.906 92.0173 118.462 92.4146 117.852 92.4146ZM121.371 89.6623V90.0362H120.501V92.3627H120.049V90.0362H119.179V89.6623H121.371ZM122.851 92.4146C122.074 92.4146 121.607 91.8719 121.607 91.0229V91.0203C121.607 90.1842 122.085 89.6103 122.822 89.6103C123.559 89.6103 124.009 90.1582 124.009 90.9683V91.1345H122.064C122.074 91.6902 122.381 92.0147 122.861 92.0147C123.204 92.0147 123.445 91.8434 123.523 91.6123L123.531 91.5889H123.975L123.97 91.6149C123.881 92.0615 123.44 92.4146 122.851 92.4146ZM122.819 90.0102C122.427 90.0102 122.121 90.2776 122.072 90.7814H123.549C123.505 90.2569 123.214 90.0102 122.819 90.0102ZM124.518 93.2715V89.6623H124.969V90.1193H124.98C125.149 89.8051 125.45 89.6103 125.837 89.6103C126.527 89.6103 126.984 90.1608 126.984 91.0125V91.0151C126.984 91.8667 126.522 92.4146 125.844 92.4146C125.463 92.4146 125.149 92.2225 124.98 91.9109H124.969V93.2715H124.518ZM125.748 92.0147C126.226 92.0147 126.522 91.6304 126.522 91.0151V91.0125C126.522 90.3919 126.226 90.0102 125.748 90.0102C125.291 90.0102 124.967 90.4075 124.967 91.0125V91.0151C124.967 91.6175 125.294 92.0147 125.748 92.0147Z" fill="#2A2A34"/>
<path d="M127.999 98.6053C129.685 98.6052 131.217 97.9505 132.357 96.8827C133.484 97.6289 134.737 98.2136 136.098 98.5927C136.128 98.6011 136.159 98.6079 136.189 98.6161C135.254 97.1976 134.561 95.5898 134.167 93.8602C134.305 93.3381 134.38 92.79 134.38 92.2245V89.4901C134.38 85.9661 131.523 83.1094 127.999 83.1093V98.6053Z" fill="url(#paint1_linear_797_29873)"/>
<path d="M20.6279 118.366C18.9426 118.366 17.4111 117.712 16.2705 116.645C15.1439 117.391 13.8899 117.977 12.5293 118.356C12.499 118.364 12.4678 118.371 12.4375 118.379C13.3735 116.96 14.065 115.351 14.459 113.62C14.3211 113.099 14.2471 112.551 14.2471 111.986V109.252C14.2473 105.728 17.104 102.872 20.6279 102.871V118.366Z" fill="#F2F7FC"/>
<path d="M20.6289 102.871H100.268C104.183 102.871 107.358 106.046 107.358 109.961V111.289C107.358 115.205 104.183 118.379 100.268 118.379H20.6289V102.871Z" fill="#F2F7FC"/>
<path d="M21.7008 110.422V110.001H22.2227C22.7005 110.001 23.0146 109.726 23.0146 109.337V109.331C23.0146 108.968 22.7368 108.747 22.2565 108.747C21.7865 108.747 21.4957 108.952 21.4489 109.3L21.4437 109.339H20.9816L20.9841 109.303C21.0283 108.687 21.5216 108.316 22.2746 108.316C22.9939 108.316 23.4924 108.719 23.4924 109.29V109.295C23.4924 109.71 23.212 110.061 22.8017 110.162V110.183C23.3003 110.248 23.6015 110.606 23.6015 111.113V111.118C23.6015 111.723 23.0276 112.188 22.2668 112.188C21.4593 112.188 20.9296 111.783 20.8829 111.183L20.8803 111.149H21.3425L21.3451 111.17C21.3918 111.544 21.732 111.757 22.2617 111.757C22.7836 111.757 23.1237 111.499 23.1237 111.105V111.1C23.1237 110.674 22.8017 110.422 22.2435 110.422H21.7008ZM24.9049 112.177C24.3674 112.177 24.0065 111.853 24.0065 111.362V111.357C24.0065 110.897 24.3649 110.609 24.9854 110.573L25.7592 110.528V110.302C25.7592 109.973 25.5437 109.773 25.1672 109.773C24.8192 109.773 24.6011 109.939 24.5492 110.18L24.544 110.204H24.1078L24.1104 110.175C24.1493 109.731 24.5362 109.373 25.1724 109.373C25.8111 109.373 26.211 109.718 26.211 110.258V112.125H25.7592V111.686H25.7488C25.5904 111.982 25.2659 112.177 24.9049 112.177ZM24.4687 111.362C24.4687 111.622 24.6816 111.785 25.0062 111.785C25.432 111.785 25.7592 111.492 25.7592 111.1V110.879L25.0374 110.923C24.6764 110.944 24.4687 111.105 24.4687 111.357V111.362ZM28.5713 109.799H27.286V112.125H26.8342V109.425H28.5713V109.799ZM29.0646 113.034V109.425H29.5164V109.882H29.5268C29.6956 109.568 29.9968 109.373 30.3836 109.373C31.0743 109.373 31.5313 109.923 31.5313 110.775V110.778C31.5313 111.629 31.0691 112.177 30.3914 112.177C30.0097 112.177 29.6956 111.985 29.5268 111.673H29.5164V113.034H29.0646ZM30.2954 111.777C30.7731 111.777 31.0691 111.393 31.0691 110.778V110.775C31.0691 110.154 30.7731 109.773 30.2954 109.773C29.8384 109.773 29.5138 110.17 29.5138 110.775V110.778C29.5138 111.38 29.841 111.777 30.2954 111.777ZM32.222 113.034C32.1337 113.034 32.0376 113.024 31.9805 113.013V112.645C32.0195 112.652 32.0714 112.66 32.1259 112.66C32.4115 112.66 32.5699 112.587 32.679 112.281L32.7335 112.128L31.7313 109.425H32.2142L32.9594 111.673H32.9698L33.7176 109.425H34.1928L33.1386 112.294C32.9464 112.811 32.7102 113.034 32.222 113.034ZM35.4988 112.177C34.912 112.177 34.4888 111.886 34.4343 111.445L34.4317 111.424H34.8887L34.8964 111.45C34.9614 111.676 35.1769 111.803 35.4988 111.803C35.8727 111.803 36.109 111.632 36.109 111.359V111.354C36.109 111.066 35.9117 110.931 35.4988 110.931H35.0938V110.557H35.4988C35.8572 110.557 36.0363 110.422 36.0363 110.154V110.149C36.0363 109.897 35.8468 109.747 35.5274 109.747C35.2184 109.747 34.9925 109.884 34.951 110.095L34.9484 110.108H34.5096L34.5122 110.09C34.5745 109.653 34.9665 109.373 35.5274 109.373C36.1168 109.373 36.4777 109.656 36.4777 110.113V110.118C36.4777 110.406 36.2882 110.648 36.013 110.71V110.731C36.3609 110.806 36.553 111.022 36.553 111.333V111.338C36.553 111.84 36.1298 112.177 35.4988 112.177ZM37.0698 112.125V109.425H37.5216V111.432H37.5423L38.8873 109.425H39.3339V112.125H38.8821V110.118H38.8614L37.5164 112.125H37.0698ZM41.9435 109.425V109.799H41.0736V112.125H40.6218V109.799H39.752V109.425H41.9435ZM43.4235 112.177C42.6471 112.177 42.1798 111.634 42.1798 110.785V110.783C42.1798 109.947 42.6575 109.373 43.3949 109.373C44.1324 109.373 44.5816 109.921 44.5816 110.731V110.897H42.6367C42.6471 111.453 42.9535 111.777 43.4339 111.777C43.7766 111.777 44.0181 111.606 44.096 111.375L44.1038 111.351H44.5478L44.5426 111.377C44.4543 111.824 44.0129 112.177 43.4235 112.177ZM43.3923 109.773C43.0003 109.773 42.6939 110.04 42.6445 110.544H44.122C44.0778 110.019 43.787 109.773 43.3923 109.773ZM46.9288 110.936C46.8717 111.681 46.6977 112.151 46.1239 112.151C46.0382 112.151 45.9707 112.138 45.9344 112.125V111.718C45.9577 111.725 46.0071 111.736 46.0772 111.736C46.3654 111.736 46.4641 111.422 46.5004 110.926L46.6069 109.425H48.5049V112.125H48.0531V109.799H47.0145L46.9288 110.936ZM50.2654 112.177C49.515 112.177 49.0139 111.634 49.0139 110.775V110.77C49.0139 109.91 49.5176 109.373 50.2628 109.373C51.008 109.373 51.5143 109.908 51.5143 110.77V110.775C51.5143 111.637 51.0106 112.177 50.2654 112.177ZM50.268 111.777C50.7432 111.777 51.0522 111.409 51.0522 110.775V110.77C51.0522 110.136 50.7406 109.773 50.2628 109.773C49.7928 109.773 49.476 110.139 49.476 110.77V110.775C49.476 111.411 49.7902 111.777 50.268 111.777ZM53.7578 109.799H52.4725V112.125H52.0207V109.425H53.7578V109.799ZM55.2663 112.177C54.5159 112.177 54.0148 111.634 54.0148 110.775V110.77C54.0148 109.91 54.5185 109.373 55.2637 109.373C56.009 109.373 56.5153 109.908 56.5153 110.77V110.775C56.5153 111.637 56.0116 112.177 55.2663 112.177ZM55.2689 111.777C55.7441 111.777 56.0531 111.409 56.0531 110.775V110.77C56.0531 110.136 55.7415 109.773 55.2637 109.773C54.7938 109.773 54.477 110.139 54.477 110.77V110.775C54.477 111.411 54.7912 111.777 55.2689 111.777ZM58.8937 109.425V109.799H58.0239V112.125H57.5721V109.799H56.7022V109.425H58.8937ZM59.3118 112.125V109.425H59.7636V111.432H59.7843L61.1293 109.425H61.576V112.125H61.1242V110.118H61.1034L59.7584 112.125H59.3118ZM62.2095 112.125V109.425H64.4114V112.125H63.957V109.799H62.6613V112.125H62.2095ZM66.1355 112.125V109.425H67.291C67.7973 109.425 68.1063 109.692 68.1063 110.121V110.126C68.1063 110.404 67.9115 110.658 67.6623 110.71V110.731C68.0024 110.778 68.2257 111.017 68.2257 111.346V111.351C68.2257 111.827 67.8726 112.125 67.2987 112.125H66.1355ZM66.5873 110.554H67.1559C67.4961 110.554 67.6571 110.432 67.6571 110.173V110.167C67.6571 109.926 67.5065 109.799 67.2234 109.799H66.5873V110.554ZM66.5873 111.751H67.2598C67.587 111.751 67.7635 111.611 67.7635 111.341V111.336C67.7635 111.058 67.574 110.928 67.1793 110.928H66.5873V111.751ZM69.5344 112.177C68.9969 112.177 68.636 111.853 68.636 111.362V111.357C68.636 110.897 68.9943 110.609 69.6149 110.573L70.3886 110.528V110.302C70.3886 109.973 70.1731 109.773 69.7966 109.773C69.4487 109.773 69.2306 109.939 69.1786 110.18L69.1734 110.204H68.7372L68.7398 110.175C68.7788 109.731 69.1657 109.373 69.8018 109.373C70.4406 109.373 70.8404 109.718 70.8404 110.258V112.125H70.3886V111.686H70.3782C70.2199 111.982 69.8953 112.177 69.5344 112.177ZM69.0981 111.362C69.0981 111.622 69.3111 111.785 69.6356 111.785C70.0615 111.785 70.3886 111.492 70.3886 111.1V110.879L69.6668 110.923C69.3059 110.944 69.0981 111.105 69.0981 111.357V111.362ZM71.4636 112.125V109.425H71.9154V111.751H72.9047V109.425H73.3565V111.751H74.3458V109.425H74.7976V112.125H71.4636ZM76.545 112.177C75.7687 112.177 75.3013 111.634 75.3013 110.785V110.783C75.3013 109.947 75.7791 109.373 76.5165 109.373C77.2539 109.373 77.7031 109.921 77.7031 110.731V110.897H75.7583C75.7687 111.453 76.0751 111.777 76.5554 111.777C76.8982 111.777 77.1396 111.606 77.2175 111.375L77.2253 111.351H77.6693L77.6641 111.377C77.5759 111.824 77.1345 112.177 76.545 112.177ZM76.5139 109.773C76.1218 109.773 75.8154 110.04 75.7661 110.544H77.2435C77.1994 110.019 76.9086 109.773 76.5139 109.773ZM79.9465 109.799H78.6612V112.125H78.2094V109.425H79.9465V109.799ZM81.4551 112.177C80.7047 112.177 80.2036 111.634 80.2036 110.775V110.77C80.2036 109.91 80.7073 109.373 81.4525 109.373C82.1977 109.373 82.704 109.908 82.704 110.77V110.775C82.704 111.637 82.2003 112.177 81.4551 112.177ZM81.4577 111.777C81.9329 111.777 82.2419 111.409 82.2419 110.775V110.77C82.2419 110.136 81.9303 109.773 81.4525 109.773C80.9825 109.773 80.6658 110.139 80.6658 110.77V110.775C80.6658 111.411 80.9799 111.777 81.4577 111.777ZM85.4226 112.177C84.6566 112.177 84.1711 111.632 84.1711 110.772V110.77C84.1711 109.918 84.667 109.373 85.4174 109.373C86.0899 109.373 86.4872 109.82 86.5443 110.282L86.5469 110.302H86.1055L86.1003 110.282C86.0328 110.012 85.8147 109.773 85.4174 109.773C84.9475 109.773 84.6333 110.162 84.6333 110.775V110.778C84.6333 111.406 84.9553 111.777 85.4226 111.777C85.7913 111.777 86.0276 111.57 86.1029 111.268L86.1081 111.248H86.5521L86.5495 111.266C86.4768 111.78 86.0328 112.177 85.4226 112.177ZM87.8089 112.177C87.2714 112.177 86.9105 111.853 86.9105 111.362V111.357C86.9105 110.897 87.2688 110.609 87.8894 110.573L88.6631 110.528V110.302C88.6631 109.973 88.4476 109.773 88.0711 109.773C87.7232 109.773 87.5051 109.939 87.4531 110.18L87.4479 110.204H87.0117L87.0143 110.175C87.0533 109.731 87.4401 109.373 88.0763 109.373C88.7151 109.373 89.1149 109.718 89.1149 110.258V112.125H88.6631V111.686H88.6527C88.4943 111.982 88.1698 112.177 87.8089 112.177ZM87.3726 111.362C87.3726 111.622 87.5856 111.785 87.9101 111.785C88.336 111.785 88.6631 111.492 88.6631 111.1V110.879L87.9413 110.923C87.5804 110.944 87.3726 111.105 87.3726 111.357V111.362ZM90.4885 110.936C90.4314 111.681 90.2574 112.151 89.6836 112.151C89.5979 112.151 89.5304 112.138 89.494 112.125V111.718C89.5174 111.725 89.5667 111.736 89.6368 111.736C89.925 111.736 90.0237 111.422 90.0601 110.926L90.1665 109.425H92.0646V112.125H91.6128V109.799H90.5742L90.4885 110.936ZM93.8251 112.177C93.0747 112.177 92.5735 111.634 92.5735 110.775V110.77C92.5735 109.91 93.0772 109.373 93.8225 109.373C94.5677 109.373 95.074 109.908 95.074 110.77V110.775C95.074 111.637 94.5703 112.177 93.8251 112.177ZM93.8276 111.777C94.3028 111.777 94.6118 111.409 94.6118 110.775V110.77C94.6118 110.136 94.3002 109.773 93.8225 109.773C93.3525 109.773 93.0357 110.139 93.0357 110.77V110.775C93.0357 111.411 93.3499 111.777 93.8276 111.777ZM97.3538 112.125V110.913H96.0321V112.125H95.5803V109.425H96.0321V110.539H97.3538V109.425H97.8056V112.125H97.3538ZM99.2337 112.177C98.6962 112.177 98.3353 111.853 98.3353 111.362V111.357C98.3353 110.897 98.6936 110.609 99.3141 110.573L100.088 110.528V110.302C100.088 109.973 99.8724 109.773 99.4959 109.773C99.148 109.773 98.9299 109.939 98.8779 110.18L98.8727 110.204H98.4365L98.4391 110.175C98.4781 109.731 98.8649 109.373 99.5011 109.373C100.14 109.373 100.54 109.718 100.54 110.258V112.125H100.088V111.686H100.078C99.9191 111.982 99.5946 112.177 99.2337 112.177ZM98.7974 111.362C98.7974 111.622 99.0104 111.785 99.3349 111.785C99.7608 111.785 100.088 111.492 100.088 111.1V110.879L99.3661 110.923C99.0052 110.944 98.7974 111.105 98.7974 111.357V111.362Z" fill="#2A2A34"/>
<path fill-rule="evenodd" clip-rule="evenodd" d="M134.26 130.514C134.26 126.162 130.732 122.634 126.379 122.634H122.439V151.99V152.037V176.28H126.379C129.062 176.28 131.431 174.939 132.855 172.892C134.295 174.272 135.827 175.399 137.439 176.239C137.495 176.268 137.551 176.297 137.607 176.325C136.159 172.222 135.021 167.664 134.26 162.783V152.037V151.99V130.514Z" fill="url(#paint2_linear_797_29873)"/>
<path d="M122.439 122.634H74.5667C73.0142 122.634 71.7556 123.892 71.7556 125.445V173.514C71.7556 175.067 73.0142 176.325 74.5667 176.325H122.439V122.634Z" fill="url(#paint3_linear_797_29873)"/>
<g clip-path="url(#clip2_797_29873)">
<path d="M75.5039 125.444V172.356H122.416V125.444H75.5039Z" fill="#424B54"/>
<path d="M98.1597 150.657C97.8517 150.655 97.5612 150.592 97.2606 150.533C95.097 150.101 93.1587 148.78 91.8751 146.996C89.5717 143.795 89.7311 139.365 92.319 136.363C93.9571 134.463 96.0773 133.504 98.5617 133.32C98.8214 133.319 99.0825 133.316 99.342 133.327C103.708 133.521 107.276 136.845 107.641 141.238C107.733 142.344 107.579 143.531 107.252 144.595C106.252 147.85 103.171 150.38 99.764 150.657C99.7628 150.006 99.7481 149.35 99.764 148.7C101.029 148.449 101.9 148.176 102.959 147.41C105.894 145.285 106.636 140.999 104.495 138.066C103.522 136.733 102.089 135.788 100.483 135.41C100.108 135.322 99.733 135.297 99.3544 135.237C99.0176 135.246 98.6875 135.232 98.3506 135.263C95.1174 135.569 92.4759 138.157 92.2143 141.42C91.9584 144.61 94.0157 147.523 97.0422 148.463C97.3992 148.574 97.7685 148.67 98.1423 148.7C98.1421 149.353 98.1449 150.004 98.1597 150.657Z" fill="#F2E9C4"/>
<path d="M96.5859 137.377C96.9192 137.026 98.2027 136.735 98.6997 136.712C99.5737 136.656 100.676 136.902 101.416 137.377C100.489 137.569 99.8252 137.845 99.1382 138.543C99.0871 138.6 99.041 138.656 98.9969 138.718C98.0248 137.784 97.7706 137.731 96.5859 137.377Z" fill="#F2E9C4"/>
<path d="M99.766 141.597C99.7531 141.406 99.7504 141.197 99.7527 141.005C99.7684 139.726 100.732 138.871 101.985 138.89H103.251C103.328 139.057 103.453 139.201 103.545 139.36C103.801 139.801 104.007 140.251 104.143 140.744C103.195 140.815 102.063 140.664 101.158 140.832C100.637 140.964 100.133 141.191 99.766 141.597Z" fill="#57AF5B"/>
<path d="M94.6993 138.89C94.8111 138.894 94.921 138.896 95.0329 138.89C96.0739 138.889 96.9991 138.75 97.7378 139.67C98.1746 140.214 98.2148 140.929 98.143 141.597C97.954 141.386 97.6915 141.238 97.4444 141.105C96.7511 140.737 96.1665 140.761 95.4054 140.761L93.8066 140.762C94.0225 140.098 94.23 139.44 94.6993 138.89Z" fill="#57AF5B"/>
<path d="M99.765 147.19L99.7649 145.549C99.7644 145.046 99.7223 144.501 99.8492 144.01C100.057 143.206 100.706 142.576 101.514 142.385C101.868 142.301 102.309 142.336 102.675 142.336H104.219C104.301 142.613 103.855 143.981 103.719 144.252C103.025 145.634 101.722 146.715 100.21 147.079C100.067 147.113 99.9196 147.137 99.7811 147.184L99.765 147.19Z" fill="#F2E9C4"/>
<path d="M93.7032 142.336H95.1588C96.0465 142.335 96.7398 142.254 97.4488 142.926C98.1639 143.604 98.1426 144.339 98.1427 145.244L98.1426 146.53C98.1425 146.75 98.136 146.97 98.1426 147.19C97.7564 147.129 97.3903 147.018 97.0279 146.872C95.2718 146.173 93.6869 144.287 93.7032 142.336Z" fill="#F2E9C4"/>
<path d="M99.0491 153.091C97.5716 153.123 97.5908 151.208 98.8908 151.096C100.181 150.993 100.453 152.962 99.0491 153.091Z" fill="#F2E9C4"/>
<path d="M83.0838 164.197C82.92 164.197 82.7734 164.157 82.6439 164.075C82.5144 163.993 82.4022 163.902 82.3071 163.801V164.134H81.459V157.714H82.3071V159.918C82.4074 159.801 82.5276 159.701 82.6677 159.616C82.8077 159.532 82.9755 159.489 83.171 159.489C83.4087 159.489 83.5976 159.552 83.7377 159.676C83.8777 159.8 83.9821 159.956 84.0507 160.143C84.1194 160.331 84.1643 160.521 84.1855 160.714C84.2066 160.907 84.2172 161.072 84.2172 161.209V162.319C84.2172 162.641 84.1855 162.946 84.1221 163.234C84.0587 163.522 83.9451 163.755 83.7813 163.932C83.6175 164.109 83.385 164.197 83.0838 164.197ZM82.9094 163.532C83.0574 163.532 83.163 163.477 83.2265 163.369C83.2899 163.261 83.3295 163.114 83.3453 162.929C83.3612 162.744 83.3691 162.541 83.3691 162.319V161.209C83.3691 161.019 83.3586 160.843 83.3374 160.682C83.3163 160.521 83.2714 160.393 83.2027 160.298C83.134 160.203 83.0257 160.155 82.8777 160.155C82.7668 160.155 82.6624 160.179 82.5646 160.227C82.4669 160.274 82.381 160.327 82.3071 160.385V163.326C82.381 163.384 82.4695 163.433 82.5726 163.472C82.6756 163.512 82.7879 163.532 82.9094 163.532ZM86.2542 164.197C85.8948 164.197 85.6175 164.127 85.4219 163.987C85.2264 163.847 85.0903 163.641 85.0137 163.369C84.9371 163.097 84.8988 162.763 84.8988 162.367V161.32C84.8988 160.913 84.9384 160.575 85.0177 160.306C85.0969 160.036 85.2357 159.833 85.4338 159.695C85.6319 159.558 85.9054 159.489 86.2542 159.489C86.6399 159.489 86.9238 159.569 87.1062 159.727C87.2884 159.886 87.4086 160.114 87.4668 160.413C87.5249 160.711 87.5539 161.069 87.5539 161.487V161.859H85.7468V162.779C85.7468 162.964 85.7641 163.114 85.7984 163.23C85.8328 163.347 85.8882 163.433 85.9648 163.488C86.0415 163.544 86.1405 163.571 86.262 163.571C86.3888 163.571 86.4853 163.541 86.5514 163.48C86.6174 163.419 86.6623 163.332 86.6861 163.219C86.7099 163.105 86.7217 162.972 86.7217 162.818V162.541H87.5461V162.715C87.5461 163.175 87.4483 163.537 87.2528 163.801C87.0572 164.065 86.7244 164.197 86.2542 164.197ZM85.7468 161.4H86.7217V160.987C86.7217 160.797 86.7112 160.637 86.69 160.508C86.6689 160.378 86.6253 160.281 86.5593 160.215C86.4932 160.149 86.3888 160.116 86.2462 160.116C86.1088 160.116 86.0045 160.147 85.9331 160.211C85.8618 160.274 85.8129 160.381 85.7865 160.532C85.7601 160.682 85.7468 160.89 85.7468 161.154V161.4ZM89.0123 164.197C88.8327 164.197 88.6741 164.146 88.5368 164.043C88.3994 163.94 88.2911 163.808 88.2118 163.647C88.1326 163.485 88.093 163.315 88.093 163.135C88.093 162.85 88.1405 162.61 88.2356 162.414C88.3307 162.219 88.4615 162.053 88.628 161.919C88.7944 161.784 88.9872 161.666 89.2065 161.566C89.4258 161.466 89.6569 161.368 89.9 161.273V160.948C89.9 160.763 89.8895 160.61 89.8683 160.488C89.8471 160.367 89.8036 160.275 89.7375 160.215C89.6715 160.154 89.5724 160.124 89.4403 160.124C89.324 160.124 89.2303 160.15 89.1589 160.203C89.0877 160.256 89.0361 160.331 89.0044 160.429C88.9727 160.526 88.9568 160.641 88.9568 160.773V161.003L88.1167 160.972C88.1272 160.464 88.2435 160.09 88.4654 159.85C88.6873 159.61 89.0308 159.489 89.4958 159.489C89.9502 159.489 90.2725 159.614 90.4628 159.862C90.653 160.11 90.7481 160.47 90.7481 160.94V163.032C90.7481 163.175 90.752 163.312 90.76 163.444C90.768 163.577 90.7785 163.699 90.7917 163.813C90.8049 163.927 90.8168 164.034 90.8273 164.134H90.0506C90.0348 164.049 90.015 163.942 89.9912 163.813C89.9674 163.684 89.9502 163.566 89.9397 163.46C89.8868 163.64 89.7851 163.808 89.6345 163.964C89.4839 164.119 89.2765 164.197 89.0123 164.197ZM89.3452 163.468C89.4298 163.468 89.509 163.444 89.583 163.397C89.6569 163.349 89.7231 163.295 89.7812 163.234C89.8392 163.174 89.8788 163.125 89.9 163.088V161.788C89.7679 161.862 89.6438 161.936 89.5275 162.01C89.4113 162.084 89.3096 162.162 89.2223 162.244C89.1352 162.326 89.0665 162.418 89.0163 162.521C88.9661 162.624 88.941 162.742 88.941 162.874C88.941 163.059 88.9753 163.204 89.044 163.31C89.1128 163.415 89.2131 163.468 89.3452 163.468ZM92.2223 164.197C92.0426 164.197 91.9026 164.15 91.8022 164.055C91.7018 163.96 91.6318 163.841 91.5922 163.698C91.5525 163.555 91.5327 163.41 91.5327 163.262V159.553H92.3808V163.009C92.3808 163.172 92.4046 163.3 92.4522 163.393C92.4998 163.485 92.5974 163.532 92.7454 163.532C92.8405 163.532 92.9396 163.504 93.0426 163.448C93.1457 163.393 93.2448 163.326 93.3399 163.246V159.553H94.1879V164.134H93.3399V163.682C93.1919 163.825 93.0241 163.946 92.8366 164.047C92.6489 164.147 92.4442 164.197 92.2223 164.197ZM96.2724 164.197C96.0346 164.197 95.843 164.152 95.6978 164.063C95.5525 163.973 95.4468 163.846 95.3808 163.682C95.3147 163.518 95.2817 163.326 95.2817 163.104V160.116H94.7982V159.553H95.2817V158.213H96.1297V159.553H96.8669V160.116H96.1297V163.048C96.1297 163.228 96.1589 163.356 96.217 163.433C96.2751 163.509 96.386 163.547 96.5498 163.547C96.5921 163.547 96.641 163.545 96.6964 163.54C96.752 163.534 96.8061 163.529 96.859 163.524V164.15C96.7532 164.166 96.6555 164.178 96.5657 164.186C96.4759 164.193 96.378 164.197 96.2724 164.197ZM97.4216 165.283V164.633C97.6277 164.633 97.7915 164.624 97.9131 164.606C98.0346 164.587 98.1217 164.553 98.1746 164.503C98.2275 164.452 98.2539 164.382 98.2539 164.293C98.2539 164.245 98.2355 164.139 98.1984 163.975C98.1614 163.812 98.1217 163.637 98.0795 163.452L97.1601 159.553H98.0161L98.6343 162.977L99.2288 159.553H100.085L98.991 164.388C98.9434 164.61 98.8562 164.785 98.7294 164.915C98.6026 165.044 98.4401 165.138 98.242 165.196C98.0439 165.254 97.8047 165.283 97.5247 165.283H97.4216ZM103.477 164.197C103.102 164.197 102.801 164.08 102.574 163.845C102.346 163.61 102.217 163.299 102.185 162.913L102.891 162.699C102.933 162.99 103.004 163.208 103.104 163.353C103.205 163.499 103.353 163.571 103.548 163.571C103.702 163.571 103.818 163.528 103.897 163.44C103.976 163.353 104.016 163.236 104.016 163.088C104.016 162.956 103.987 162.837 103.929 162.731C103.871 162.625 103.776 162.517 103.644 162.406L102.859 161.732C102.7 161.595 102.567 161.442 102.459 161.273C102.35 161.104 102.296 160.884 102.296 160.615C102.296 160.372 102.345 160.167 102.443 160.001C102.54 159.834 102.678 159.707 102.855 159.62C103.032 159.533 103.239 159.489 103.477 159.489C103.857 159.489 104.148 159.607 104.349 159.842C104.55 160.077 104.666 160.361 104.698 160.694L104.095 160.908C104.074 160.75 104.042 160.611 104 160.492C103.958 160.373 103.897 160.281 103.818 160.215C103.739 160.149 103.636 160.116 103.509 160.116C103.371 160.116 103.262 160.162 103.18 160.254C103.098 160.347 103.057 160.456 103.057 160.583C103.057 160.662 103.074 160.74 103.109 160.817C103.143 160.894 103.202 160.969 103.287 161.043L104.095 161.788C104.206 161.888 104.311 161.997 104.408 162.113C104.506 162.229 104.587 162.361 104.65 162.509C104.713 162.657 104.745 162.829 104.745 163.024C104.745 163.283 104.692 163.5 104.587 163.674C104.481 163.849 104.333 163.979 104.143 164.067C103.953 164.154 103.731 164.197 103.477 164.197ZM106.069 164.197C105.889 164.197 105.731 164.146 105.593 164.043C105.456 163.94 105.348 163.808 105.268 163.647C105.189 163.485 105.149 163.315 105.149 163.135C105.149 162.85 105.197 162.61 105.292 162.414C105.387 162.219 105.518 162.053 105.684 161.919C105.851 161.784 106.044 161.666 106.263 161.566C106.482 161.466 106.713 161.368 106.956 161.273V160.948C106.956 160.763 106.946 160.61 106.925 160.488C106.904 160.367 106.86 160.275 106.794 160.215C106.728 160.154 106.629 160.124 106.497 160.124C106.381 160.124 106.287 160.15 106.215 160.203C106.144 160.256 106.093 160.331 106.061 160.429C106.029 160.526 106.013 160.641 106.013 160.773V161.003L105.173 160.972C105.184 160.464 105.3 160.09 105.522 159.85C105.744 159.61 106.087 159.489 106.552 159.489C107.007 159.489 107.329 159.614 107.519 159.862C107.709 160.11 107.805 160.47 107.805 160.94V163.032C107.805 163.175 107.808 163.312 107.816 163.444C107.824 163.577 107.835 163.699 107.848 163.813C107.861 163.927 107.873 164.034 107.884 164.134H107.107C107.091 164.049 107.071 163.942 107.048 163.813C107.024 163.684 107.007 163.566 106.996 163.46C106.943 163.64 106.842 163.808 106.691 163.964C106.54 164.119 106.333 164.197 106.069 164.197ZM106.402 163.468C106.486 163.468 106.566 163.444 106.639 163.397C106.713 163.349 106.78 163.295 106.838 163.234C106.896 163.174 106.935 163.125 106.956 163.088V161.788C106.824 161.862 106.7 161.936 106.584 162.01C106.468 162.084 106.366 162.162 106.279 162.244C106.192 162.326 106.123 162.418 106.073 162.521C106.023 162.624 105.997 162.742 105.997 162.874C105.997 163.059 106.032 163.204 106.101 163.31C106.169 163.415 106.27 163.468 106.402 163.468ZM108.7 164.134V157.714H109.548V164.134H108.7ZM111.696 164.197C111.358 164.197 111.091 164.129 110.896 163.991C110.7 163.854 110.561 163.658 110.48 163.405C110.398 163.151 110.357 162.853 110.357 162.509V161.178C110.357 160.834 110.398 160.536 110.48 160.282C110.561 160.028 110.7 159.833 110.896 159.695C111.091 159.558 111.358 159.489 111.696 159.489C112.034 159.489 112.3 159.558 112.493 159.695C112.686 159.833 112.823 160.028 112.905 160.282C112.987 160.536 113.028 160.834 113.028 161.178V162.509C113.028 162.853 112.987 163.151 112.905 163.405C112.823 163.658 112.686 163.854 112.493 163.991C112.3 164.129 112.034 164.197 111.696 164.197ZM111.696 163.571C111.86 163.571 111.975 163.524 112.041 163.429C112.107 163.334 112.147 163.208 112.16 163.052C112.173 162.896 112.18 162.734 112.18 162.565V161.13C112.18 160.956 112.173 160.792 112.16 160.639C112.147 160.485 112.107 160.36 112.041 160.262C111.975 160.165 111.86 160.116 111.696 160.116C111.532 160.116 111.416 160.165 111.347 160.262C111.279 160.36 111.238 160.485 111.225 160.639C111.211 160.792 111.205 160.956 111.205 161.13V162.565C111.205 162.734 111.211 162.896 111.225 163.052C111.238 163.208 111.279 163.334 111.347 163.429C111.416 163.524 111.532 163.571 111.696 163.571ZM113.804 164.134V159.553H114.652V160.005C114.806 159.862 114.975 159.74 115.16 159.64C115.345 159.54 115.548 159.489 115.77 159.489C115.955 159.489 116.096 159.537 116.194 159.632C116.292 159.727 116.361 159.846 116.4 159.989C116.44 160.131 116.46 160.277 116.46 160.425V164.134H115.612V160.67C115.612 160.507 115.588 160.38 115.54 160.29C115.493 160.2 115.395 160.155 115.247 160.155C115.152 160.155 115.053 160.183 114.95 160.238C114.847 160.294 114.748 160.361 114.652 160.441V164.134H113.804Z" fill="#F2E9C4"/>
</g>
<path d="M20.6279 196.075C18.9426 196.075 17.4111 195.421 16.2705 194.353C15.1439 195.1 13.8899 195.685 12.5293 196.064C12.499 196.073 12.4678 196.079 12.4375 196.088C13.3735 194.668 14.065 193.059 14.459 191.329C14.3211 190.807 14.2471 190.259 14.2471 189.694V186.961C14.2473 183.437 17.104 180.58 20.6279 180.58V196.075Z" fill="#F2F7FC"/>
<path d="M20.6289 180.58H70.2676C74.1834 180.58 77.3579 183.754 77.3579 187.67V188.998C77.3579 192.914 74.1834 196.088 70.2676 196.088H20.6289V180.58Z" fill="#F2F7FC"/>
<path d="M21.075 189.834V186.087H22.4953C23.1367 186.087 23.5703 186.461 23.5703 187.022V187.027C23.5703 187.414 23.2795 187.79 22.8926 187.845V187.855C23.4327 187.917 23.7599 188.281 23.7599 188.777V188.782C23.7599 189.442 23.2873 189.834 22.4901 189.834H21.075ZM22.3889 186.5H21.5424V187.702H22.2435C22.7965 187.702 23.0977 187.481 23.0977 187.076V187.071C23.0977 186.702 22.8407 186.5 22.3889 186.5ZM22.3759 188.104H21.5424V189.421H22.42C22.9809 189.421 23.2795 189.195 23.2795 188.764V188.759C23.2795 188.325 22.9731 188.104 22.3759 188.104ZM24.2688 189.834V187.133H24.7206V187.995H25.2269C25.8449 187.995 26.2422 188.351 26.2422 188.912V188.917C26.2422 189.478 25.8449 189.834 25.2269 189.834H24.2688ZM26.5849 189.834V187.133H27.0367V189.834H26.5849ZM25.2191 188.369H24.7206V189.46H25.2191C25.5645 189.46 25.78 189.244 25.78 188.917V188.912C25.78 188.582 25.5619 188.369 25.2191 188.369ZM28.8283 189.886C28 189.886 27.5638 189.327 27.5638 188.255V188.25C27.5638 186.762 27.9585 186.144 29.0075 186.103L29.2074 186.095C29.4671 186.084 29.7579 186.03 29.9111 185.949V186.344C29.8254 186.422 29.5398 186.489 29.2282 186.502L29.0282 186.51C28.2882 186.539 28.0623 186.858 27.9507 187.64L27.9455 187.676H27.9559C28.135 187.357 28.4752 187.19 28.8958 187.19C29.6255 187.19 30.0902 187.705 30.0902 188.507V188.512C30.0902 189.361 29.6099 189.886 28.8283 189.886ZM28.8283 189.486C29.3346 189.486 29.6281 189.133 29.6281 188.512V188.507C29.6281 187.92 29.3346 187.59 28.8283 187.59C28.3194 187.59 28.026 187.92 28.026 188.507V188.512C28.026 189.133 28.3194 189.486 28.8283 189.486ZM31.7079 189.886C30.9315 189.886 30.4641 189.343 30.4641 188.494V188.491C30.4641 187.655 30.9419 187.081 31.6793 187.081C32.4167 187.081 32.8659 187.629 32.8659 188.439V188.606H30.9211C30.9315 189.161 31.2379 189.486 31.7183 189.486C32.061 189.486 32.3025 189.314 32.3804 189.083L32.3882 189.06H32.8322L32.827 189.086C32.7387 189.533 32.2973 189.886 31.7079 189.886ZM31.6767 187.481C31.2846 187.481 30.9783 187.749 30.9289 188.252H32.4064C32.3622 187.728 32.0714 187.481 31.6767 187.481ZM33.3749 190.743V187.133H33.8267V187.59H33.8371C34.0058 187.276 34.307 187.081 34.6939 187.081C35.3846 187.081 35.8416 187.632 35.8416 188.484V188.486C35.8416 189.338 35.3794 189.886 34.7017 189.886C34.32 189.886 34.0058 189.694 33.8371 189.382H33.8267V190.743H33.3749ZM34.6056 189.486C35.0834 189.486 35.3794 189.102 35.3794 188.486V188.484C35.3794 187.863 35.0834 187.481 34.6056 187.481C34.1486 187.481 33.8241 187.879 33.8241 188.484V188.486C33.8241 189.089 34.1512 189.486 34.6056 189.486ZM36.3479 189.834V187.133H36.7997V189.14H36.8205L38.1655 187.133H38.6121V189.834H38.1603V187.827H38.1395L36.7945 189.834H36.3479ZM41.2216 187.133V187.507H40.3518V189.834H39.9V187.507H39.0301V187.133H41.2216ZM42.7017 189.886C41.9253 189.886 41.4579 189.343 41.4579 188.494V188.491C41.4579 187.655 41.9357 187.081 42.6731 187.081C43.4105 187.081 43.8597 187.629 43.8597 188.439V188.606H41.9149C41.9253 189.161 42.2317 189.486 42.712 189.486C43.0548 189.486 43.2963 189.314 43.3742 189.083L43.382 189.06H43.826L43.8208 189.086C43.7325 189.533 43.2911 189.886 42.7017 189.886ZM42.6705 187.481C42.2784 187.481 41.972 187.749 41.9227 188.252H43.4001C43.356 187.728 43.0652 187.481 42.6705 187.481ZM45.4566 189.834V187.133H47.6585V189.834H47.2041V187.507H45.9084V189.834H45.4566ZM48.2946 190.743V187.133H48.7464V187.59H48.7568C48.9256 187.276 49.2268 187.081 49.6137 187.081C50.3043 187.081 50.7613 187.632 50.7613 188.484V188.486C50.7613 189.338 50.2992 189.886 49.6215 189.886C49.2398 189.886 48.9256 189.694 48.7568 189.382H48.7464V190.743H48.2946ZM49.5254 189.486C50.0031 189.486 50.2992 189.102 50.2992 188.486V188.484C50.2992 187.863 50.0031 187.481 49.5254 187.481C49.0684 187.481 48.7438 187.879 48.7438 188.484V188.486C48.7438 189.089 49.071 189.486 49.5254 189.486ZM52.3894 189.886C51.639 189.886 51.1378 189.343 51.1378 188.484V188.478C51.1378 187.619 51.6416 187.081 52.3868 187.081C53.132 187.081 53.6383 187.616 53.6383 188.478V188.484C53.6383 189.346 53.1346 189.886 52.3894 189.886ZM52.392 189.486C52.8671 189.486 53.1761 189.117 53.1761 188.484V188.478C53.1761 187.845 52.8645 187.481 52.3868 187.481C51.9168 187.481 51.6 187.847 51.6 188.478V188.484C51.6 189.12 51.9142 189.486 52.392 189.486ZM56.3543 190.574V189.834H54.1446V187.133H54.599V189.46H55.8947V187.133H56.3465V189.46H56.7646V190.574H56.3543ZM58.2809 189.886C57.5046 189.886 57.0372 189.343 57.0372 188.494V188.491C57.0372 187.655 57.515 187.081 58.2524 187.081C58.9898 187.081 59.439 187.629 59.439 188.439V188.606H57.4942C57.5046 189.161 57.811 189.486 58.2913 189.486C58.6341 189.486 58.8755 189.314 58.9534 189.083L58.9612 189.06H59.4052L59.4 189.086C59.3118 189.533 58.8704 189.886 58.2809 189.886ZM58.2498 187.481C57.8577 187.481 57.5513 187.749 57.502 188.252H58.9794C58.9353 187.728 58.6445 187.481 58.2498 187.481ZM60.0466 190.574H59.6259V189.46H59.8518C60.0492 189.33 60.1453 188.995 60.1712 188.632L60.2751 187.133H62.1342V189.46H62.5626V190.574H62.142V189.834H60.0466V190.574ZM61.6824 189.46V187.507H60.6724L60.5893 188.642C60.5659 188.982 60.4958 189.275 60.3608 189.449V189.46H61.6824ZM63.178 190.743C63.0897 190.743 62.9937 190.732 62.9365 190.722V190.353C62.9755 190.361 63.0274 190.369 63.0819 190.369C63.3676 190.369 63.526 190.296 63.635 189.99L63.6895 189.836L62.6873 187.133H63.1702L63.9154 189.382H63.9258L64.6736 187.133H65.1488L64.0946 190.003C63.9025 190.519 63.6662 190.743 63.178 190.743ZM65.5565 190.743V187.133H66.0083V187.59H66.0186C66.1874 187.276 66.4886 187.081 66.8755 187.081C67.5662 187.081 68.0232 187.632 68.0232 188.484V188.486C68.0232 189.338 67.561 189.886 66.8833 189.886C66.5016 189.886 66.1874 189.694 66.0186 189.382H66.0083V190.743H65.5565ZM66.7872 189.486C67.265 189.486 67.561 189.102 67.561 188.486V188.484C67.561 187.863 67.265 187.481 66.7872 187.481C66.3302 187.481 66.0057 187.879 66.0057 188.484V188.486C66.0057 189.089 66.3328 189.486 66.7872 189.486ZM68.5295 189.834V187.133H68.9813V187.995H69.4876C70.1056 187.995 70.5029 188.351 70.5029 188.912V188.917C70.5029 189.478 70.1056 189.834 69.4876 189.834H68.5295ZM70.8456 189.834V187.133H71.2974V189.834H70.8456ZM69.4798 188.369H68.9813V189.46H69.4798C69.8252 189.46 70.0407 189.244 70.0407 188.917V188.912C70.0407 188.582 69.8226 188.369 69.4798 188.369Z" fill="#2A2A34"/>
<path d="M97.1523 204.596C97.1523 202.247 95.2476 200.342 92.8979 200.342H68.0617C65.7122 200.342 63.8075 202.247 63.8075 204.596V211.596C63.8075 213.946 65.7122 215.85 68.0617 215.85H92.8979C95.2476 215.85 97.1523 213.946 97.1523 211.596V204.596Z" fill="url(#paint4_linear_797_29873)"/>
<path d="M72.8092 209.596H72.3419V206.27H70.3373V209.596H69.87V205.849H72.8092V209.596ZM74.6294 209.648C73.8531 209.648 73.3857 209.105 73.3857 208.256V208.254C73.3857 207.418 73.8634 206.844 74.6009 206.844C75.3383 206.844 75.7875 207.392 75.7875 208.202V208.368H73.8427C73.8531 208.924 74.1594 209.248 74.6398 209.248C74.9825 209.248 75.224 209.077 75.3019 208.846L75.3097 208.822H75.7537L75.7485 208.848C75.6602 209.295 75.2188 209.648 74.6294 209.648ZM74.5983 207.244C74.2062 207.244 73.8998 207.511 73.8505 208.015H75.3279C75.2837 207.49 74.9929 207.244 74.5983 207.244ZM76.3951 210.336H75.9744V209.222H76.2003C76.3977 209.092 76.4937 208.758 76.5197 208.394L76.6236 206.896H78.4827V209.222H78.9111V210.336H78.4905V209.596H76.3951V210.336ZM78.0309 209.222V207.27H77.0208L76.9377 208.404C76.9144 208.745 76.8443 209.038 76.7093 209.212V209.222H78.0309ZM79.3162 209.596V206.896H79.768V208.903H79.7888L81.1338 206.896H81.5804V209.596H81.1286V207.589H81.1078L79.7628 209.596H79.3162ZM82.7696 208.35H82.6657V209.596H82.2139V206.896H82.6657V208.038H82.7696L83.8342 206.896H84.382L83.1772 208.173L84.4184 209.596H83.8472L82.7696 208.35ZM84.7949 209.596V206.896H85.2467V208.01H85.7115C85.792 207.28 86.2386 206.844 86.9241 206.844C87.6823 206.844 88.1496 207.374 88.1496 208.243V208.249C88.1496 209.116 87.6823 209.648 86.9241 209.648C86.2074 209.648 85.753 209.17 85.7011 208.384H85.2467V209.596H84.7949ZM86.9241 209.248C87.4122 209.248 87.6874 208.882 87.6874 208.249V208.243C87.6874 207.607 87.4122 207.244 86.9241 207.244C86.4359 207.244 86.1607 207.607 86.1607 208.243V208.249C86.1607 208.882 86.4359 209.248 86.9241 209.248ZM88.656 210.505V206.896H89.1078V207.353H89.1181C89.2869 207.039 89.5881 206.844 89.975 206.844C90.6657 206.844 91.1227 207.394 91.1227 208.246V208.249C91.1227 209.1 90.6605 209.648 89.9828 209.648C89.6011 209.648 89.2869 209.456 89.1181 209.144H89.1078V210.505H88.656ZM89.8867 209.248C90.3645 209.248 90.6605 208.864 90.6605 208.249V208.246C90.6605 207.625 90.3645 207.244 89.8867 207.244C89.4297 207.244 89.1052 207.641 89.1052 208.246V208.249C89.1052 208.851 89.4323 209.248 89.8867 209.248Z" fill="#2A2A34"/>
<path d="M127.998 200.342H106.359C102.444 200.342 99.2691 203.516 99.2691 207.432V208.76C99.2691 212.676 102.444 215.85 106.359 215.85H127.998V200.342Z" fill="url(#paint5_linear_797_29873)"/>
<path d="M105.331 209.596V205.849H105.871L107.169 209.007H107.185L108.483 205.849H109.023V209.596H108.587V206.701H108.571L107.374 209.596H106.98L105.783 206.701H105.767V209.596H105.331ZM110.521 209.648C109.984 209.648 109.623 209.324 109.623 208.833V208.828C109.623 208.368 109.981 208.08 110.602 208.043L111.376 207.999V207.773C111.376 207.444 111.16 207.244 110.784 207.244C110.436 207.244 110.218 207.41 110.166 207.651L110.16 207.675H109.724L109.727 207.646C109.766 207.202 110.153 206.844 110.789 206.844C111.428 206.844 111.827 207.189 111.827 207.729V209.596H111.376V209.157H111.365C111.207 209.453 110.882 209.648 110.521 209.648ZM110.085 208.833C110.085 209.092 110.298 209.256 110.623 209.256C111.048 209.256 111.376 208.963 111.376 208.571V208.35L110.654 208.394C110.293 208.415 110.085 208.576 110.085 208.828V208.833ZM114.224 209.596V208.384H112.902V209.596H112.451V206.896H112.902V208.01H114.224V206.896H114.676V209.596H114.224ZM115.312 209.596V206.896H115.764V208.903H115.785L117.13 206.896H117.576V209.596H117.124V207.589H117.104L115.759 209.596H115.312ZM118.765 208.35H118.662V209.596H118.21V206.896H118.662V208.038H118.765L119.83 206.896H120.378L119.173 208.173L120.414 209.596H119.843L118.765 208.35ZM120.791 209.596V206.896H121.243V208.01H121.707C121.788 207.28 122.234 206.844 122.92 206.844C123.678 206.844 124.145 207.374 124.145 208.243V208.249C124.145 209.116 123.678 209.648 122.92 209.648C122.203 209.648 121.749 209.17 121.697 208.384H121.243V209.596H120.791ZM122.92 209.248C123.408 209.248 123.683 208.882 123.683 208.249V208.243C123.683 207.607 123.408 207.244 122.92 207.244C122.432 207.244 122.157 207.607 122.157 208.243V208.249C122.157 208.882 122.432 209.248 122.92 209.248ZM124.652 210.505V206.896H125.104V207.353H125.114C125.283 207.039 125.584 206.844 125.971 206.844C126.662 206.844 127.119 207.394 127.119 208.246V208.249C127.119 209.1 126.656 209.648 125.979 209.648C125.597 209.648 125.283 209.456 125.114 209.144H125.104V210.505H124.652ZM125.883 209.248C126.36 209.248 126.656 208.864 126.656 208.249V208.246C126.656 207.625 126.36 207.244 125.883 207.244C125.426 207.244 125.101 207.641 125.101 208.246V208.249C125.101 208.851 125.428 209.248 125.883 209.248Z" fill="#2A2A34"/>
<path d="M127.999 215.839C129.685 215.839 131.217 215.184 132.357 214.116C133.484 214.862 134.737 215.447 136.098 215.826C136.128 215.835 136.159 215.841 136.189 215.85C135.254 214.431 134.561 212.823 134.167 211.094C134.305 210.572 134.38 210.024 134.38 209.458V206.724C134.38 203.2 131.523 200.343 127.999 200.343V215.839Z" fill="url(#paint6_linear_797_29873)"/>
<path d="M20.6279 235.6C18.9426 235.6 17.4111 234.946 16.2705 233.878C15.1439 234.625 13.8899 235.21 12.5293 235.589C12.499 235.598 12.4678 235.604 12.4375 235.613C13.3735 234.193 14.065 232.584 14.459 230.854C14.3211 230.332 14.2471 229.784 14.2471 229.219V226.486C14.2473 222.962 17.104 220.105 20.6279 220.105V235.6Z" fill="#F2F7FC"/>
<path d="M20.6289 220.105H74.2676C78.1834 220.105 81.3579 223.279 81.3579 227.195V228.523C81.3579 232.439 78.1834 235.613 74.2676 235.613H20.6289V220.105Z" fill="#F2F7FC"/>
<path d="M21.075 229.359V225.612H22.4953C23.1367 225.612 23.5703 225.986 23.5703 226.547V226.552C23.5703 226.939 23.2795 227.315 22.8926 227.37V227.38C23.4327 227.443 23.7599 227.806 23.7599 228.302V228.307C23.7599 228.967 23.2873 229.359 22.4901 229.359H21.075ZM22.3889 226.025H21.5424V227.227H22.2435C22.7965 227.227 23.0977 227.006 23.0977 226.601V226.596C23.0977 226.227 22.8407 226.025 22.3889 226.025ZM22.3759 227.629H21.5424V228.946H22.42C22.9809 228.946 23.2795 228.72 23.2795 228.289V228.284C23.2795 227.85 22.9731 227.629 22.3759 227.629ZM24.2688 229.359V226.658H24.7206V227.52H25.2269C25.8449 227.52 26.2422 227.876 26.2422 228.437V228.442C26.2422 229.003 25.8449 229.359 25.2269 229.359H24.2688ZM26.5849 229.359V226.658H27.0367V229.359H26.5849ZM25.2191 227.894H24.7206V228.985H25.2191C25.5645 228.985 25.78 228.769 25.78 228.442V228.437C25.78 228.107 25.5619 227.894 25.2191 227.894ZM28.8283 229.411C28 229.411 27.5638 228.852 27.5638 227.78V227.775C27.5638 226.287 27.9585 225.669 29.0075 225.628L29.2074 225.62C29.4671 225.609 29.7579 225.555 29.9111 225.474V225.869C29.8254 225.947 29.5398 226.014 29.2282 226.027L29.0282 226.035C28.2882 226.064 28.0623 226.383 27.9507 227.165L27.9455 227.201H27.9559C28.135 226.882 28.4752 226.715 28.8958 226.715C29.6255 226.715 30.0902 227.23 30.0902 228.032V228.037C30.0902 228.886 29.6099 229.411 28.8283 229.411ZM28.8283 229.011C29.3346 229.011 29.6281 228.658 29.6281 228.037V228.032C29.6281 227.445 29.3346 227.115 28.8283 227.115C28.3194 227.115 28.026 227.445 28.026 228.032V228.037C28.026 228.658 28.3194 229.011 28.8283 229.011ZM31.7079 229.411C30.9315 229.411 30.4641 228.868 30.4641 228.019V228.016C30.4641 227.18 30.9419 226.606 31.6793 226.606C32.4167 226.606 32.8659 227.154 32.8659 227.964V228.131H30.9211C30.9315 228.686 31.2379 229.011 31.7183 229.011C32.061 229.011 32.3025 228.839 32.3804 228.608L32.3882 228.585H32.8322L32.827 228.611C32.7387 229.058 32.2973 229.411 31.7079 229.411ZM31.6767 227.006C31.2846 227.006 30.9783 227.274 30.9289 227.777H32.4064C32.3622 227.253 32.0714 227.006 31.6767 227.006ZM33.3749 230.268V226.658H33.8267V227.115H33.8371C34.0058 226.801 34.307 226.606 34.6939 226.606C35.3846 226.606 35.8416 227.157 35.8416 228.009V228.011C35.8416 228.863 35.3794 229.411 34.7017 229.411C34.32 229.411 34.0058 229.219 33.8371 228.907H33.8267V230.268H33.3749ZM34.6056 229.011C35.0834 229.011 35.3794 228.627 35.3794 228.011V228.009C35.3794 227.388 35.0834 227.006 34.6056 227.006C34.1486 227.006 33.8241 227.404 33.8241 228.009V228.011C33.8241 228.614 34.1512 229.011 34.6056 229.011ZM36.3479 229.359V226.658H36.7997V228.665H36.8205L38.1655 226.658H38.6121V229.359H38.1603V227.352H38.1395L36.7945 229.359H36.3479ZM41.2216 226.658V227.032H40.3518V229.359H39.9V227.032H39.0301V226.658H41.2216ZM42.7017 229.411C41.9253 229.411 41.4579 228.868 41.4579 228.019V228.016C41.4579 227.18 41.9357 226.606 42.6731 226.606C43.4105 226.606 43.8597 227.154 43.8597 227.964V228.131H41.9149C41.9253 228.686 42.2317 229.011 42.712 229.011C43.0548 229.011 43.2963 228.839 43.3742 228.608L43.382 228.585H43.826L43.8208 228.611C43.7325 229.058 43.2911 229.411 42.7017 229.411ZM42.6705 227.006C42.2784 227.006 41.972 227.274 41.9227 227.777H43.4001C43.356 227.253 43.0652 227.006 42.6705 227.006ZM45.6098 230.099H45.1892V228.985H45.4151C45.6124 228.855 45.7085 228.52 45.7344 228.157L45.8383 226.658H47.6974V228.985H48.1258V230.099H47.7052V229.359H45.6098V230.099ZM47.2456 228.985V227.032H46.2356L46.1525 228.167C46.1291 228.507 46.059 228.801 45.924 228.974V228.985H47.2456ZM49.3229 229.411C48.7854 229.411 48.4244 229.086 48.4244 228.595V228.59C48.4244 228.131 48.7828 227.842 49.4033 227.806L50.1771 227.762V227.536C50.1771 227.206 49.9616 227.006 49.5851 227.006C49.2372 227.006 49.0191 227.172 48.9671 227.414L48.9619 227.437H48.5257L48.5283 227.409C48.5673 226.965 48.9541 226.606 49.5903 226.606C50.229 226.606 50.6289 226.952 50.6289 227.492V229.359H50.1771V228.92H50.1667C50.0083 229.216 49.6838 229.411 49.3229 229.411ZM48.8866 228.595C48.8866 228.855 49.0995 229.019 49.4241 229.019C49.85 229.019 50.1771 228.725 50.1771 228.333V228.112L49.4553 228.157C49.0944 228.177 48.8866 228.338 48.8866 228.59V228.595ZM53.1761 226.658V227.032H52.3063V229.359H51.8545V227.032H50.9846V226.658H53.1761ZM53.8564 230.268C53.7681 230.268 53.6721 230.257 53.6149 230.247V229.878C53.6539 229.886 53.7058 229.894 53.7604 229.894C54.046 229.894 54.2044 229.821 54.3134 229.515L54.3679 229.361L53.3657 226.658H53.8486L54.5938 228.907H54.6042L55.352 226.658H55.8272L54.773 229.528C54.5809 230.044 54.3446 230.268 53.8564 230.268ZM57.3228 229.359V226.658H57.7746V228.665H57.7954L59.1404 226.658H59.587V229.359H59.1352V227.352H59.1144L57.7694 229.359H57.3228ZM61.3111 229.359V226.658H62.4666C62.9729 226.658 63.2819 226.926 63.2819 227.354V227.359C63.2819 227.637 63.0871 227.892 62.8379 227.944V227.964C63.178 228.011 63.4013 228.25 63.4013 228.58V228.585C63.4013 229.06 63.0482 229.359 62.4744 229.359H61.3111ZM61.7629 227.788H62.3315C62.6717 227.788 62.8327 227.666 62.8327 227.406V227.401C62.8327 227.159 62.6821 227.032 62.3991 227.032H61.7629V227.788ZM61.7629 228.985H62.4354C62.7626 228.985 62.9391 228.845 62.9391 228.575V228.569C62.9391 228.292 62.7496 228.162 62.3549 228.162H61.7629V228.985ZM63.9206 230.268V226.658H64.3724V227.115H64.3828C64.5516 226.801 64.8528 226.606 65.2397 226.606C65.9304 226.606 66.3874 227.157 66.3874 228.009V228.011C66.3874 228.863 65.9252 229.411 65.2475 229.411C64.8658 229.411 64.5516 229.219 64.3828 228.907H64.3724V230.268H63.9206ZM65.1514 229.011C65.6292 229.011 65.9252 228.627 65.9252 228.011V228.009C65.9252 227.388 65.6292 227.006 65.1514 227.006C64.6944 227.006 64.3698 227.404 64.3698 228.009V228.011C64.3698 228.614 64.697 229.011 65.1514 229.011ZM68.0076 229.411C67.2312 229.411 66.7639 228.868 66.7639 228.019V228.016C66.7639 227.18 67.2416 226.606 67.979 226.606C68.7165 226.606 69.1657 227.154 69.1657 227.964V228.131H67.2208C67.2312 228.686 67.5376 229.011 68.018 229.011C68.3607 229.011 68.6022 228.839 68.6801 228.608L68.6879 228.585H69.1319L69.1267 228.611C69.0384 229.058 68.597 229.411 68.0076 229.411ZM67.9764 227.006C67.5844 227.006 67.278 227.274 67.2286 227.777H68.7061C68.6619 227.253 68.3711 227.006 67.9764 227.006ZM70.1238 229.359H69.672V226.658H70.225L71.1806 228.762H71.2013L72.1647 226.658H72.6944V229.359H72.2426V227.443H72.2244L71.3545 229.281H71.0092L70.142 227.443H70.1238V229.359ZM74.8495 229.359V228.398H74.3432L73.6577 229.359H73.1358L73.8888 228.315C73.5071 228.206 73.276 227.925 73.276 227.557V227.552C73.276 226.999 73.6759 226.658 74.2964 226.658H75.3013V229.359H74.8495ZM74.299 228.024H74.8495V227.032H74.299C73.9485 227.032 73.7382 227.222 73.7382 227.544V227.549C73.7382 227.827 73.9511 228.024 74.299 228.024Z" fill="#2A2A34"/>
<path d="M127.998 239.867H91.3594C87.4435 239.867 84.2691 243.042 84.2691 246.957V248.285C84.2691 252.201 87.4435 255.376 91.3594 255.376H127.998V239.867Z" fill="url(#paint7_linear_797_29873)"/>
<path d="M93.2702 249.121H92.8028V245.795H90.7983V249.121H90.3309V245.375H93.2702V249.121ZM95.9524 246.421V246.795H95.0826V249.121H94.6308V246.795H93.7609V246.421H95.9524ZM95.9836 249.856L96.2121 248.586H96.6846L96.3055 249.856H95.9836ZM99.1046 249.121V245.87H99.0942L98.1024 246.561V246.091L99.0994 245.375H99.5564V249.121H99.1046ZM101.769 249.184C100.995 249.184 100.494 248.753 100.444 248.161L100.442 248.129H100.891L100.894 248.155C100.933 248.524 101.27 248.779 101.769 248.779C102.259 248.779 102.594 248.503 102.594 248.106V248.101C102.594 247.641 102.265 247.384 101.74 247.384H101.27V246.99H101.719C102.166 246.99 102.478 246.714 102.478 246.34V246.335C102.478 245.943 102.22 245.717 101.763 245.717C101.322 245.717 101.008 245.951 100.969 246.33L100.966 246.356H100.517L100.52 246.33C100.579 245.72 101.062 245.312 101.763 245.312C102.478 245.312 102.948 245.709 102.948 246.278V246.283C102.948 246.745 102.62 247.062 102.153 247.161V247.171C102.698 247.218 103.07 247.558 103.07 248.091V248.096C103.07 248.721 102.519 249.184 101.769 249.184ZM105.879 249.173C105.129 249.173 104.627 248.631 104.627 247.771V247.766C104.627 246.906 105.131 246.369 105.876 246.369C106.622 246.369 107.128 246.904 107.128 247.766V247.771C107.128 248.633 106.624 249.173 105.879 249.173ZM105.882 248.773C106.357 248.773 106.666 248.405 106.666 247.771V247.766C106.666 247.132 106.354 246.769 105.876 246.769C105.406 246.769 105.09 247.135 105.09 247.766V247.771C105.09 248.407 105.404 248.773 105.882 248.773ZM108.19 247.875H108.086V249.121H107.634V246.421H108.086V247.563H108.19L109.255 246.421H109.802L108.598 247.698L109.839 249.121H109.267L108.19 247.875ZM112.139 246.421V246.795H111.269V249.121H110.818V246.795H109.948V246.421H112.139ZM112.17 249.856L112.399 248.586H112.872L112.492 249.856H112.17ZM115.291 249.121V245.87H115.281L114.289 246.561V246.091L115.286 245.375H115.743V249.121H115.291ZM117.956 249.184C117.182 249.184 116.681 248.753 116.631 248.161L116.629 248.129H117.078L117.081 248.155C117.119 248.524 117.457 248.779 117.956 248.779C118.446 248.779 118.781 248.503 118.781 248.106V248.101C118.781 247.641 118.451 247.384 117.927 247.384H117.457V246.99H117.906C118.353 246.99 118.664 246.714 118.664 246.34V246.335C118.664 245.943 118.407 245.717 117.95 245.717C117.509 245.717 117.195 245.951 117.156 246.33L117.153 246.356H116.704L116.707 246.33C116.766 245.72 117.249 245.312 117.95 245.312C118.664 245.312 119.134 245.709 119.134 246.278V246.283C119.134 246.745 118.807 247.062 118.34 247.161V247.171C118.885 247.218 119.256 247.558 119.256 248.091V248.096C119.256 248.721 118.706 249.184 117.956 249.184ZM120.108 246.538C119.942 246.538 119.812 246.408 119.812 246.242C119.812 246.076 119.942 245.946 120.108 245.946C120.274 245.946 120.404 246.076 120.404 246.242C120.404 246.408 120.274 246.538 120.108 246.538ZM120.108 248.548C119.942 248.548 119.812 248.418 119.812 248.251C119.812 248.085 119.942 247.955 120.108 247.955C120.274 247.955 120.404 248.085 120.404 248.251C120.404 248.418 120.274 248.548 120.108 248.548ZM122.245 249.184C121.471 249.184 120.97 248.753 120.921 248.161L120.918 248.129H121.367L121.37 248.155C121.409 248.524 121.746 248.779 122.245 248.779C122.736 248.779 123.071 248.503 123.071 248.106V248.101C123.071 247.641 122.741 247.384 122.216 247.384H121.746V246.99H122.196C122.642 246.99 122.954 246.714 122.954 246.34V246.335C122.954 245.943 122.697 245.717 122.24 245.717C121.798 245.717 121.484 245.951 121.445 246.33L121.443 246.356H120.993L120.996 246.33C121.056 245.72 121.539 245.312 122.24 245.312C122.954 245.312 123.424 245.709 123.424 246.278V246.283C123.424 246.745 123.097 247.062 122.629 247.161V247.171C123.175 247.218 123.546 247.558 123.546 248.091V248.096C123.546 248.721 122.995 249.184 122.245 249.184ZM125.436 249.184C124.574 249.184 124.063 248.438 124.063 247.249V247.244C124.063 246.055 124.574 245.312 125.436 245.312C126.298 245.312 126.815 246.055 126.815 247.244V247.249C126.815 248.438 126.298 249.184 125.436 249.184ZM125.436 248.776C126.007 248.776 126.345 248.189 126.345 247.249V247.244C126.345 246.304 126.007 245.722 125.436 245.722C124.865 245.722 124.533 246.304 124.533 247.244V247.249C124.533 248.189 124.865 248.776 125.436 248.776Z" fill="#2A2A34"/>
<path d="M127.999 255.364C129.685 255.364 131.217 254.709 132.357 253.641C133.484 254.388 134.737 254.972 136.098 255.351C136.128 255.36 136.159 255.367 136.189 255.375C135.254 253.956 134.561 252.348 134.167 250.619C134.305 250.097 134.38 249.549 134.38 248.983V246.249C134.38 242.725 131.523 239.868 127.999 239.868V255.364Z" fill="url(#paint8_linear_797_29873)"/>
<rect x="13.5137" y="257.62" width="121.599" height="18.4348" rx="4.25418" fill="#2A2A34"/>
<path d="M61.4364 268.907C60.2898 268.907 59.5614 268.115 59.5614 266.838V266.835C59.5614 265.559 60.2898 264.772 61.4364 264.772C62.356 264.772 63.0345 265.345 63.137 266.16L63.1426 266.187H62.4391L62.4252 266.135C62.3089 265.678 61.9599 265.392 61.4364 265.392C60.7385 265.392 60.2926 265.949 60.2926 266.835V266.838C60.2926 267.727 60.7413 268.287 61.4364 268.287C61.9488 268.287 62.3033 268.013 62.4363 267.52L62.4418 267.492H63.1426L63.1398 267.52C63.0345 268.339 62.356 268.907 61.4364 268.907ZM64.9594 268.896C64.0953 268.896 63.5386 268.32 63.5386 267.37V267.364C63.5386 266.423 64.1036 265.841 64.9594 265.841C65.8125 265.841 66.3803 266.417 66.3803 267.364V267.37C66.3803 268.323 65.8208 268.896 64.9594 268.896ZM64.9622 268.339C65.3998 268.339 65.6795 267.985 65.6795 267.37V267.364C65.6795 266.752 65.3943 266.401 64.9594 266.401C64.5274 266.401 64.2421 266.755 64.2421 267.364V267.37C64.2421 267.988 64.5246 268.339 64.9622 268.339ZM66.5963 268.838L67.5435 267.373L66.6074 265.902H67.3801L67.9728 266.932H67.9867L68.5711 265.902H69.3272L68.3827 267.353L69.3161 268.838H68.5628L67.9534 267.785H67.9396L67.3303 268.838H66.5963ZM69.726 269.807V265.902H70.4156V266.409H70.4323C70.5984 266.057 70.9225 265.841 71.3407 265.841C72.0885 265.841 72.5566 266.423 72.5566 267.37V267.373C72.5566 268.314 72.0857 268.896 71.3518 268.896C70.9336 268.896 70.5984 268.686 70.4295 268.342H70.4156V269.807H69.726ZM71.1358 268.314C71.5789 268.314 71.8531 267.952 71.8531 267.373V267.37C71.8531 266.783 71.5761 266.423 71.1358 266.423C70.7092 266.423 70.4129 266.794 70.4129 267.37V267.373C70.4129 267.946 70.712 268.314 71.1358 268.314ZM73.9193 268.888C73.3293 268.888 72.9333 268.525 72.9333 268.001V267.996C72.9333 267.475 73.3404 267.162 74.0494 267.118L74.8166 267.071V266.869C74.8166 266.572 74.6227 266.392 74.2765 266.392C73.9497 266.392 73.7475 266.545 73.7032 266.761L73.6977 266.786H73.0579L73.0607 266.752C73.105 266.232 73.5537 265.841 74.2987 265.841C75.0354 265.841 75.5063 266.229 75.5063 266.819V268.838H74.8166V268.386H74.8028C74.6311 268.694 74.3042 268.888 73.9193 268.888ZM73.6229 267.974C73.6229 268.215 73.8195 268.362 74.1242 268.362C74.5203 268.362 74.8166 268.098 74.8166 267.749V267.528L74.1464 267.569C73.8085 267.592 73.6229 267.738 73.6229 267.971V267.974ZM78.035 268.838V267.594H76.7997V268.838H76.11V265.902H76.7997V267.06H78.035V265.902H78.7246V268.838H78.035ZM79.3395 268.838V265.902H80.0208V267.86H80.0485L81.3142 265.902H81.99V268.838H81.3087V266.866H81.281L80.0153 268.838H79.3395ZM84.9065 265.902V266.437H84.0063V268.838H83.3167V266.437H82.4165V265.902H84.9065ZM85.333 268.838V265.902H86.0226V266.783H86.5876C87.2717 266.783 87.7121 267.182 87.7121 267.808V267.813C87.7121 268.439 87.2717 268.838 86.5876 268.838H85.333ZM86.4907 267.315H86.0226V268.306H86.4907C86.8092 268.306 87.0086 268.109 87.0086 267.813V267.808C87.0086 267.508 86.8064 267.315 86.4907 267.315Z" fill="white"/>
<g clip-path="url(#clip3_797_29873)">
<path opacity="0.3" fill-rule="evenodd" clip-rule="evenodd" d="M134.049 13.3594H128.023C127.435 13.3594 126.959 13.8355 126.959 14.4229V16.55C126.959 17.1374 127.435 17.6136 128.023 17.6136H134.049C134.637 17.6136 135.113 17.1374 135.113 16.55V14.4229C135.113 13.8355 134.637 13.3594 134.049 13.3594ZM127.313 14.4229C127.313 14.0313 127.631 13.7139 128.023 13.7139H134.049C134.441 13.7139 134.758 14.0313 134.758 14.4229V16.55C134.758 16.9416 134.441 17.259 134.049 17.259H128.023C127.631 17.259 127.313 16.9416 127.313 16.55V14.4229ZM135.822 15.132C135.822 14.9362 135.663 14.7774 135.467 14.7774V16.1955C135.663 16.1955 135.822 16.0368 135.822 15.841V15.132Z" fill="white"/>
<path fill-rule="evenodd" clip-rule="evenodd" d="M117.563 13.7139H117.209C117.013 13.7139 116.854 13.8726 116.854 14.0684V16.9045C116.854 17.1003 117.013 17.259 117.209 17.259H117.563C117.759 17.259 117.918 17.1003 117.918 16.9045V14.0684C117.918 13.8726 117.759 13.7139 117.563 13.7139ZM115.968 14.4229H115.614C115.418 14.4229 115.259 14.5816 115.259 14.7774V16.9045C115.259 17.1003 115.418 17.259 115.614 17.259H115.968C116.164 17.259 116.323 17.1003 116.323 16.9045V14.7774C116.323 14.5816 116.164 14.4229 115.968 14.4229ZM114.018 15.1319H114.373C114.568 15.1319 114.727 15.2906 114.727 15.4864V16.9045C114.727 17.1003 114.568 17.259 114.373 17.259H114.018C113.822 17.259 113.664 17.1003 113.664 16.9045V15.4864C113.664 15.2906 113.822 15.1319 114.018 15.1319ZM112.777 15.6637H112.423C112.227 15.6637 112.068 15.8224 112.068 16.0182V16.9045C112.068 17.1003 112.227 17.259 112.423 17.259H112.777C112.973 17.259 113.132 17.1003 113.132 16.9045V16.0182C113.132 15.8224 112.973 15.6637 112.777 15.6637ZM122.751 16.174C122.978 16.174 123.198 16.2336 123.392 16.3472L123.471 16.3932C123.53 16.4281 123.541 16.5098 123.492 16.5585L122.82 17.2281C122.779 17.2693 122.712 17.2693 122.671 17.2281L122.004 16.5628C121.955 16.5143 121.965 16.433 122.024 16.3979L122.102 16.3516C122.298 16.2352 122.521 16.174 122.751 16.174ZM124.297 15.4775C123.856 15.131 123.315 14.9439 122.751 14.9439C122.184 14.9439 121.64 15.1329 121.198 15.4824L121.136 15.5314C121.087 15.5705 121.082 15.6439 121.127 15.6884L121.528 16.088C121.565 16.1251 121.624 16.1293 121.666 16.0978L121.715 16.0611C122.014 15.8372 122.375 15.7169 122.751 15.7169C123.124 15.7169 123.484 15.8357 123.782 16.0571L123.83 16.0934C123.872 16.1247 123.931 16.1204 123.968 16.0834L124.369 15.6837C124.414 15.6391 124.409 15.5655 124.36 15.5265L124.297 15.4775ZM122.751 13.7139C123.646 13.7139 124.502 14.0296 125.179 14.6083L125.237 14.6577C125.284 14.6976 125.287 14.7688 125.243 14.8121L124.844 15.2106C124.805 15.2492 124.743 15.2519 124.701 15.2168L124.652 15.1755C124.118 14.7295 123.45 14.4868 122.751 14.4868C122.05 14.4868 121.379 14.7311 120.845 15.1799L120.795 15.2215C120.753 15.2568 120.691 15.2541 120.653 15.2154L120.253 14.817C120.21 14.7737 120.212 14.7027 120.259 14.6627L120.317 14.6133C120.995 14.0315 121.853 13.7139 122.751 13.7139ZM128.022 14.0684C127.826 14.0684 127.667 14.2271 127.667 14.4229V16.55C127.667 16.7458 127.826 16.9045 128.022 16.9045H134.048C134.244 16.9045 134.403 16.7458 134.403 16.55V14.4229C134.403 14.2271 134.244 14.0684 134.048 14.0684H128.022Z" fill="white"/>
<path d="M21.2655 17.2905C22.2184 17.2905 22.7845 16.5453 22.7845 15.2834C22.7845 14.8082 22.6936 14.4084 22.5196 14.0994C22.2678 13.619 21.8342 13.3594 21.2863 13.3594C20.471 13.3594 19.8945 13.9072 19.8945 14.6758C19.8945 15.3977 20.4138 15.9222 21.1279 15.9222C21.5667 15.9222 21.9224 15.717 22.099 15.3613H22.1068C22.1068 15.3613 22.1172 15.3613 22.1198 15.3613C22.125 15.3613 22.1431 15.3613 22.1431 15.3613C22.1431 16.2182 21.8186 16.7297 21.2707 16.7297C20.9487 16.7297 20.6995 16.5531 20.6138 16.2701H19.9465C20.0581 16.8855 20.58 17.2905 21.2655 17.2905ZM21.2889 15.3899C20.8578 15.3899 20.5515 15.0835 20.5515 14.6551C20.5515 14.237 20.8734 13.9176 21.2915 13.9176C21.7095 13.9176 22.0315 14.2422 22.0315 14.6654C22.0315 15.0835 21.7173 15.3899 21.2889 15.3899Z" fill="white"/>
<path d="M23.8803 17.2542C24.127 17.2542 24.2958 17.0776 24.2958 16.8439C24.2958 16.6077 24.127 16.4337 23.8803 16.4337C23.6363 16.4337 23.4649 16.6077 23.4649 16.8439C23.4649 17.0776 23.6363 17.2542 23.8803 17.2542ZM23.8803 15.3068C24.127 15.3068 24.2958 15.1328 24.2958 14.8991C24.2958 14.6628 24.127 14.4889 23.8803 14.4889C23.6363 14.4889 23.4649 14.6628 23.4649 14.8991C23.4649 15.1328 23.6363 15.3068 23.8803 15.3068Z" fill="white"/>
<path d="M26.7263 17.1997H27.3676V16.5012H27.8739V15.9351H27.3676V13.4529H26.4225C25.7603 14.4499 25.2332 15.2834 24.8957 15.904V16.5012H26.7263V17.1997ZM25.5163 15.9118C25.9525 15.1432 26.342 14.5278 26.7003 13.9981H26.7366V15.9507H25.5163V15.9118Z" fill="white"/>
<path d="M29.3021 17.1997H29.972V13.4529H29.3047L28.3258 14.1383V14.7823L29.258 14.128H29.3021V17.1997Z" fill="white"/>
</g>
</g>
<path fill-rule="evenodd" clip-rule="evenodd" d="M1.02288 37.1121C1.02288 24.318 1.02288 17.921 3.51277 13.0343C5.70294 8.73584 9.19769 5.24109 13.4961 3.05093C18.3828 0.561035 24.7799 0.561035 37.5739 0.561035H111.085C123.879 0.561035 130.276 0.561035 135.163 3.05093C139.461 5.24109 142.956 8.73584 145.146 13.0343C147.636 17.921 147.636 24.318 147.636 37.1121V90.5748H148.318C148.695 90.5748 149 90.8801 149 91.2567V126.035C149 126.411 148.695 126.717 148.318 126.717H147.636V265.42C147.636 278.214 147.636 284.611 145.146 289.497C142.956 293.796 139.461 297.291 135.163 299.481C130.276 301.971 123.879 301.971 111.085 301.971H37.5739C24.7799 301.971 18.3828 301.971 13.4961 299.481C9.19769 297.291 5.70294 293.796 3.51277 289.497C1.02288 284.611 1.02288 278.214 1.02288 265.42V133.877H0.681922C0.305307 133.877 0 133.572 0 133.195V112.737C0 112.361 0.305307 112.055 0.681922 112.055H1.02288V104.895H0.681922C0.305307 104.895 0 104.59 0 104.213V83.7555C0 83.3789 0.305307 83.0736 0.681922 83.0736H1.02288V72.1629H0.681922C0.305307 72.1629 0 71.8576 0 71.4809V61.934C0 61.5574 0.305307 61.2521 0.681922 61.2521H1.02288V37.1121ZM7.84211 33.0205C7.84211 24.0456 7.84211 19.5581 9.58875 16.1302C11.1251 13.1148 13.5767 10.6633 16.592 9.1269C20.02 7.38026 24.5074 7.38026 33.4824 7.38026H45.3478C46.2894 7.38026 47.0526 8.14352 47.0526 9.08506V11.4718C47.0526 15.6146 50.411 18.9729 54.5538 18.9729H94.4462C98.589 18.9729 101.947 15.6146 101.947 11.4718V9.08506C101.947 8.14352 102.711 7.38026 103.652 7.38026H115.177C124.152 7.38026 128.639 7.38026 132.067 9.1269C135.082 10.6633 137.534 13.1148 139.07 16.1302C140.817 19.5581 140.817 24.0456 140.817 33.0205V269.511C140.817 278.486 140.817 282.974 139.07 286.402C137.534 289.417 135.082 291.868 132.067 293.405C128.639 295.151 124.152 295.151 115.177 295.151H33.4824C24.5074 295.151 20.02 295.151 16.592 293.405C13.5767 291.868 11.1251 289.417 9.58875 286.402C7.84211 282.974 7.84211 278.486 7.84211 269.511V33.0205Z" fill="#1B1B1D"/>
<ellipse cx="54.5555" cy="11.1311" rx="2.04577" ry="2.04577" fill="#444445"/>
<defs>
<linearGradient id="paint0_linear_797_29873" x1="73.7717" y1="83.1085" x2="77.8412" y2="107.392" gradientUnits="userSpaceOnUse">
<stop stop-color="#FFECED"/>
<stop offset="1" stop-color="#F2F7FC"/>
</linearGradient>
<linearGradient id="paint1_linear_797_29873" x1="121.651" y1="73.6944" x2="143.386" y2="85.652" gradientUnits="userSpaceOnUse">
<stop stop-color="#FFECED"/>
<stop offset="1" stop-color="#F2F7FC"/>
</linearGradient>
<linearGradient id="paint2_linear_797_29873" x1="125.093" y1="122.634" x2="154.776" y2="134.44" gradientUnits="userSpaceOnUse">
<stop stop-color="#FFECED"/>
<stop offset="1" stop-color="#F2F7FC"/>
</linearGradient>
<linearGradient id="paint3_linear_797_29873" x1="80.6253" y1="122.634" x2="151.323" y2="194.045" gradientUnits="userSpaceOnUse">
<stop stop-color="#FFECED"/>
<stop offset="1" stop-color="#F2F7FC"/>
</linearGradient>
<linearGradient id="paint4_linear_797_29873" x1="69.6429" y1="200.342" x2="77.0786" y2="222.851" gradientUnits="userSpaceOnUse">
<stop stop-color="#FFECED"/>
<stop offset="1" stop-color="#F2F7FC"/>
</linearGradient>
<linearGradient id="paint5_linear_797_29873" x1="104.297" y1="200.342" x2="112.642" y2="222.108" gradientUnits="userSpaceOnUse">
<stop stop-color="#FFECED"/>
<stop offset="1" stop-color="#F2F7FC"/>
</linearGradient>
<linearGradient id="paint6_linear_797_29873" x1="116.852" y1="195.628" x2="139.855" y2="202.165" gradientUnits="userSpaceOnUse">
<stop stop-color="#FFECED"/>
<stop offset="1" stop-color="#F2F7FC"/>
</linearGradient>
<linearGradient id="paint7_linear_797_29873" x1="91.9217" y1="239.867" x2="97.8352" y2="263.343" gradientUnits="userSpaceOnUse">
<stop stop-color="#FFECED"/>
<stop offset="1" stop-color="#F2F7FC"/>
</linearGradient>
<linearGradient id="paint8_linear_797_29873" x1="121.651" y1="230.453" x2="143.386" y2="242.411" gradientUnits="userSpaceOnUse">
<stop stop-color="#FFECED"/>
<stop offset="1" stop-color="#F2F7FC"/>
</linearGradient>
<clipPath id="clip0_797_29873">
<rect x="7.8418" y="7.3324" width="132.975" height="287.867" rx="15.9491" fill="white"/>
</clipPath>
<clipPath id="clip1_797_29873">
<path d="M7.8418 26.4764C7.8418 24.5185 9.42901 22.9313 11.3869 22.9313H137.297C139.255 22.9313 140.842 24.5185 140.842 26.4764H7.8418Z" fill="white"/>
</clipPath>
<clipPath id="clip2_797_29873">
<rect x="75.5039" y="125.445" width="46.8982" height="46.8982" rx="2.9131" fill="white"/>
</clipPath>
<clipPath id="clip3_797_29873">
<rect width="132.943" height="15.5987" fill="white" transform="translate(7.8418 7.33264)"/>
</clipPath>
</defs>
</svg>
